<svg id="Capa_1" enable-background="new 0 0 512 512" height="512" viewBox="0 0 512 512" width="512" xmlns="http://www.w3.org/2000/svg"><g><g><circle cx="359.087" cy="429.32" fill="#6e6e6e" r="30"/></g><g><circle cx="335.045" cy="383.425" fill="#848484" r="30"/></g><g><path d="m374.737 480.707c-11.054-55.475-60.014-97.282-118.738-97.282s-107.684 41.808-118.738 97.282c-2.456 12.324 7.076 23.793 19.643 23.793h198.191c12.565 0 22.097-11.469 19.642-23.793z" fill="#ff8870"/></g><g><path d="m284.537 386.813c-9.151-2.211-18.706-3.388-28.537-3.388-58.724 0-107.684 41.808-118.738 97.282-2.456 12.324 7.076 23.793 19.643 23.793h35.081c-.001-57.042 39.449-104.862 92.551-117.687z" fill="#ff6c52"/></g><g><path d="m200.443 375.936v20.957c4.215 18.702 31.193 39.235 55.555 39.235s51.34-20.533 55.555-39.235v-20.957z" fill="#ffd883"/></g><g><circle cx="401.126" cy="251.131" fill="#ffe4c2" r="36.081"/></g><g><circle cx="110.868" cy="251.131" fill="#f2d1a5" r="36.081"/></g><g><circle cx="255.998" cy="251.128" fill="#fff2de" r="145"/></g><g><g><path d="m161 251.128c0-71.555 51.833-130.998 120-142.846-8.122-1.412-16.474-2.154-25-2.154-80.081 0-145 64.919-145 145s64.919 145 145 145c8.526 0 16.878-.743 25-2.154-68.167-11.848-120-71.29-120-142.846z" fill="#ffe4c2"/></g></g><g><path d="m86 177.5c0-93.888 76.112-170 170-170s170 76.112 170 170z" fill="#ff8870"/></g><g><path d="m339.427 144.85c-98.634 0-114.046-137.35-83.427-137.35-93.888 0-170 76.112-170 170h253.427z" fill="#ff6c52"/></g><g><path d="m171 177.5c0-93.888 38.056-170 85-170s85 76.112 85 170z" fill="#ff9b87"/></g><g><path d="m339.427 144.85c-98.634 0-114.046-137.35-83.427-137.35-46.944 0-85 76.112-85 170h168.427z" fill="#ff8870"/></g><g><path d="m418.062 224.85h-324.124c-11.046 0-20-8.954-20-20v-40c0-11.046 8.954-20 20-20h324.124c11.046 0 20 8.954 20 20v40c0 11.045-8.954 20-20 20z" fill="#ffee6e"/></g><g><path d="m216 184.85c0-22.091 17.909-40 40-40h-162.062c-11.046 0-20 8.954-20 20v40c0 11.046 8.954 20 20 20h162.062c-22.091 0-40-17.909-40-40z" fill="#ffd883"/></g><g><g><g><ellipse cx="176.443" cy="300.122" fill="#ff9b87" rx="29.355" ry="23.377"/></g><g><ellipse cx="335.557" cy="300.122" fill="#ff9b87" rx="29.355" ry="23.377"/></g></g><g><path d="m193.551 285.119c-4.142 0-7.5-3.358-7.5-7.5v-12c0-4.142 3.358-7.5 7.5-7.5s7.5 3.358 7.5 7.5v12c0 4.142-3.358 7.5-7.5 7.5z"/></g><g><path d="m318.449 285.119c-4.142 0-7.5-3.358-7.5-7.5v-12c0-4.142 3.358-7.5 7.5-7.5s7.5 3.358 7.5 7.5v12c0 4.142-3.358 7.5-7.5 7.5z"/></g><g><path d="m256 292.262c-8.477 0-16.539-3.671-22.118-10.073-2.722-3.123-2.396-7.86.726-10.582s7.86-2.397 10.582.726c2.73 3.132 6.67 4.928 10.811 4.928s8.081-1.796 10.811-4.928c2.721-3.124 7.459-3.448 10.582-.726s3.448 7.459.726 10.582c-5.581 6.402-13.643 10.073-22.12 10.073z"/></g></g><path d="m445.562 204.85v-40c0-11.086-6.598-20.655-16.07-25.002-17.542-81.242-89.952-139.848-173.492-139.848-83.535 0-155.949 58.608-173.492 139.847-9.472 4.348-16.07 13.916-16.07 25.002v40c0 8.167 3.583 15.51 9.254 20.551-5.454 7.416-8.405 16.328-8.405 25.73 0 23.688 19.001 43.009 42.56 43.555 12.666 42.421 43.328 77.152 83.096 95.285v2.462c-12.632 7.114-23.899 16.243-33.531 27.197-2.735 3.111-2.431 7.85.68 10.585 1.425 1.252 3.191 1.868 4.95 1.868 2.082 0 4.153-.861 5.635-2.547 7.539-8.574 16.224-15.862 25.861-21.79 8.905 17.397 30.674 32.375 51.961 35.346v19.724h-12.5c-4.142 0-7.5 3.358-7.5 7.5s3.358 7.5 7.5 7.5h12.5v19.185h-91.596c-3.774 0-7.313-1.675-9.709-4.597-2.36-2.877-3.3-6.606-2.578-10.23 2.018-10.126 5.419-19.931 10.11-29.141 1.88-3.691.412-8.207-3.279-10.087-3.691-1.879-8.207-.413-10.087 3.279-5.314 10.435-9.168 21.543-11.455 33.018-1.604 8.047.471 16.312 5.692 22.676 5.257 6.408 13.022 10.083 21.306 10.083h198.191c8.284 0 16.049-3.675 21.306-10.083 5.221-6.364 7.295-14.628 5.691-22.675-1.171-5.879-2.739-11.616-4.674-17.185 11.707-6.522 19.17-18.899 19.17-32.737 0-16.433-10.618-30.508-25.5-35.529.944-3.296 1.457-6.772 1.457-10.366 0-9.086-3.202-17.611-8.955-24.325 17.771-17.709 31.201-39.764 38.561-64.414 23.561-.545 42.563-19.866 42.563-43.555 0-9.402-2.952-18.314-8.405-25.73 5.671-5.042 9.254-12.385 9.254-20.552zm-32.067-67.5h-67.331c-4.344-36.635-14.692-69.969-29.397-94.445-5.062-8.425-10.586-15.691-16.455-21.731 54.847 15.589 98.774 59.412 113.183 116.176zm-157.495-122.35c17.09 0 34.104 12.654 47.909 35.63 13.404 22.309 22.93 52.866 27.138 86.719h-150.095c4.208-33.853 13.735-64.411 27.138-86.72 13.806-22.976 30.82-35.629 47.91-35.629zm-44.312 6.174c-5.869 6.041-11.393 13.305-16.455 21.73-14.706 24.475-25.054 57.81-29.398 94.445h-67.33c14.409-56.761 58.338-100.584 113.183-116.175zm-129.401 229.957c0-7.148 2.599-13.866 7.345-19.121 1.403.222 2.841.339 4.305.339h10.717c-.762 6.214-1.157 12.5-1.157 18.779 0 9.627.907 19.045 2.621 28.182-13.505-2.269-23.831-14.038-23.831-28.179zm125.656 144.857v-.124c12.851 4.278 26.453 6.892 40.555 7.578v24.466c-18.81-3.478-37.097-19.041-40.555-31.92zm55.556 7.454c14.102-.686 27.704-3.301 40.555-7.578v.124c-3.457 12.879-21.744 28.442-40.555 31.921zm101.305 88.961c-2.396 2.921-5.936 4.597-9.709 4.597h-91.596v-19.186h12.5c4.142 0 7.5-3.358 7.5-7.5s-3.358-7.5-7.5-7.5h-12.5v-19.724c21.295-2.972 43.073-17.96 51.971-35.366 26.95 16.539 45.698 43.267 51.911 74.449.723 3.624-.217 7.353-2.577 10.23zm16.783-63.083c0 7.692-3.852 14.618-9.999 18.709-5.433-11.159-12.452-21.431-20.835-30.536 5.127-2.362 9.612-5.847 13.163-10.131 10.148 2.218 17.671 11.244 17.671 21.958zm-24.043-45.895c0 11.28-8.286 20.674-19.222 22.26-5.954-4.943-12.391-9.388-19.269-13.258v-2.456c12.053-5.495 23.268-12.516 33.401-20.813 3.277 3.977 5.09 8.965 5.09 14.267zm-101.545 5.203c-75.818 0-137.5-61.682-137.5-137.5 0-6.286.43-12.579 1.275-18.779h183.675c4.142 0 7.5-3.358 7.5-7.5s-3.358-7.5-7.5-7.5h-209.511c-6.893 0-12.5-5.607-12.5-12.5v-40c0-6.893 5.607-12.5 12.5-12.5h324.124c6.893 0 12.5 5.607 12.5 12.5v40c0 6.893-5.607 12.5-12.5 12.5h-84.613c-4.142 0-7.5 3.358-7.5 7.5s3.358 7.5 7.5 7.5h58.774c.845 6.2 1.276 12.493 1.276 18.779 0 75.818-61.683 137.5-137.5 137.5zm173.714-137.497c0 14.143-10.327 25.912-23.835 28.18 1.714-9.137 2.621-18.555 2.621-28.182 0-6.279-.394-12.565-1.157-18.779h10.72c1.465 0 2.902-.118 4.305-.339 4.747 5.254 7.346 11.972 7.346 19.12z"/></g></svg>