<svg id="Capa_1" enable-background="new 0 0 512 512" height="512" viewBox="0 0 512 512" width="512" xmlns="http://www.w3.org/2000/svg"><g><g><circle cx="387.21" cy="77.5" fill="#6e6e6e" r="70"/></g><g><circle cx="124.79" cy="77.5" fill="#6e6e6e" r="70"/></g><g><path d="m79.97 149.671c6.813 4.246 14.268 7.554 22.185 9.745l103.575-107.849c-2.504-7.798-6.106-15.108-10.623-21.747-5.587-8.212-16.33-11.065-25.286-6.771-43.577 20.894-78.466 57.11-97.631 101.632-3.926 9.121-.648 19.737 7.78 24.99z" fill="#ffee6e"/></g><g><path d="m141.236 92.17c-7.81 7.811-20.474 7.811-28.284 0-7.808-7.808-7.81-20.466-.007-28.277-17.06 17.474-30.963 38.043-40.754 60.788-3.926 9.121-.649 19.737 7.779 24.99 6.813 4.246 14.268 7.554 22.185 9.745l52.089-54.238z" fill="#ffd883"/></g><g><path d="m316.894 29.819c-4.517 6.639-8.119 13.949-10.623 21.747l103.578 107.849c7.917-2.191 15.372-5.5 22.186-9.746 8.427-5.253 11.705-15.869 7.778-24.99-19.166-44.522-54.055-80.738-97.633-101.631-8.957-4.294-19.699-1.441-25.286 6.771z" fill="#ffee6e"/></g><g><path d="m342.179 23.049c-8.956-4.294-19.698-1.441-25.285 6.771-4.517 6.639-8.119 13.948-10.623 21.747l51.487 53.611 13.007-13.007c-7.81-7.81-7.81-20.474 0-28.284 7.81-7.811 20.474-7.811 28.284 0l.001-.002c-16.334-16.728-35.559-30.618-56.871-40.836z" fill="#ffd883"/></g><g><path d="m256.002 43.5c-88.366 0-160 71.634-160 160v15.245l160 66.017 160-66.017v-15.245c0-88.366-71.635-160-160-160z" fill="#848484"/></g><g><path d="m256.001 43.5c-88.365 0-160 71.635-160 160v15.245l160 66.017 59.999-24.756v-34.715c-118.303.001-132.405-181.791-59.999-181.791z" fill="#6e6e6e"/></g><g><path d="m177.264 412.528c-20.18 17.292-34.605 41.106-40 68.18-2.456 12.324 7.076 23.793 19.643 23.793h20.358l18.738-44.186z" fill="#f2d1a5"/></g><g><path d="m374.74 480.707c-5.395-27.073-19.82-50.887-40-68.18l-18.738 47.786 18.738 44.187h20.358c12.565 0 22.097-11.469 19.642-23.793z" fill="#ffe4c2"/></g><g><path d="m177.264 412.528v91.972h157.476v-91.972c-21.17-18.141-48.673-29.103-78.738-29.103-30.066 0-57.568 10.962-78.738 29.103z" fill="#ff8870"/></g><g><path d="m177.264 412.529v91.971h14.725c0-57.042 39.449-104.862 92.551-117.687-9.151-2.211-18.706-3.388-28.537-3.388-30.066 0-57.569 10.963-78.739 29.104z" fill="#ff6c52"/></g><g><path d="m200.447 375.936v20.957c4.215 18.702 31.193 39.235 55.555 39.235s51.34-20.533 55.555-39.235v-20.957z" fill="#ffd883"/></g><g><circle cx="401.129" cy="251.131" fill="#ffe4c2" r="36.081"/></g><g><circle cx="110.871" cy="251.131" fill="#f2d1a5" r="36.081"/></g><g><path d="m354.627 144.85c0 .001-10.887 44.654-31.854 72.475-3.782 5.018-9.701 7.968-15.985 7.968h-101.574c-6.284 0-12.203-2.949-15.985-7.968-20.967-27.82-31.854-72.474-31.854-72.475-28.668 26.616-46.558 64.681-46.373 106.927.346 79.094 64.867 143.794 143.96 144.348 80.558.564 146.039-64.569 146.039-144.996.001-41.988-17.853-79.8-46.374-106.279z" fill="#fff2de"/></g><g><path d="m161.003 251.128c0-21.375 4.628-41.668 12.933-59.935-10.931-23.277-16.551-46.306-16.56-46.342-28.52 26.479-46.373 64.291-46.373 106.278 0 80.081 64.919 145 145 145 8.526 0 16.878-.743 25-2.154-68.166-11.849-120-71.291-120-142.847z" fill="#ffe4c2"/></g><g><g><g><ellipse cx="176.357" cy="300.096" fill="#ff9b87" rx="29.387" ry="23.403"/></g><g><ellipse cx="335.646" cy="300.096" fill="#ff9b87" rx="29.387" ry="23.403"/></g><g><path d="m279.695 282.115c0-14.643-10.608-16.019-23.694-16.019-13.085 0-23.693 1.376-23.693 16.019s10.608 26.513 23.693 26.513c13.086 0 23.694-11.87 23.694-26.513z" fill="#595959"/></g></g><g><path d="m181.27 279.656c-4.142 0-7.5-3.358-7.5-7.5v-12c0-4.142 3.358-7.5 7.5-7.5s7.5 3.358 7.5 7.5v12c0 4.142-3.358 7.5-7.5 7.5z"/></g><g><path d="m256.001 316.128c-17.2 0-31.193-15.258-31.193-34.013 0-23.519 21.859-23.519 31.193-23.519s31.193 0 31.193 23.519c.001 18.755-13.992 34.013-31.193 34.013zm0-42.532c-15.539 0-16.193 2.611-16.193 8.519 0 10.484 7.264 19.013 16.193 19.013s16.193-8.529 16.193-19.013c.001-5.907-.654-8.519-16.193-8.519z"/></g><g><path d="m330.734 279.656c-4.142 0-7.5-3.358-7.5-7.5v-12c0-4.142 3.358-7.5 7.5-7.5s7.5 3.358 7.5 7.5v12c0 4.142-3.358 7.5-7.5 7.5z"/></g></g><path d="m448.024 125.528c10.783-13.644 16.686-30.54 16.686-48.028 0-42.734-34.766-77.5-77.5-77.5-16.364 0-32.366 5.239-45.542 14.809-11.487-3.614-24.024.574-30.976 10.793-3.583 5.267-6.593 10.874-9.009 16.73-14.527-4.123-29.851-6.332-45.682-6.332s-31.156 2.209-45.684 6.333c-2.416-5.856-5.426-11.463-9.009-16.731-6.953-10.219-19.492-14.407-30.977-10.793-13.175-9.57-29.177-14.809-45.541-14.809-14.875 0-29.329 4.228-41.797 12.227-3.486 2.236-4.5 6.876-2.263 10.362 2.236 3.487 6.876 4.499 10.362 2.263 10.048-6.445 21.7-9.852 33.698-9.852 10.429 0 20.671 2.643 29.754 7.553-35.794 20.12-64.834 50.35-83.473 86.893-5.711-9.6-8.781-20.619-8.781-31.946 0-11.998 3.407-23.65 9.852-33.697 2.237-3.486 1.224-8.126-2.263-10.362-3.487-2.237-8.126-1.224-10.362 2.263-7.999 12.468-12.227 26.921-12.227 41.796 0 17.488 5.904 34.384 16.686 48.028-3.143 11.62 1.544 23.976 12.027 30.508 5.419 3.377 11.157 6.164 17.123 8.344-3.016 12.555-4.624 25.652-4.624 39.12v10.246c-12.696 7.625-21.211 21.527-21.211 37.385 0 23.705 19.027 43.036 42.609 43.556 12.708 42.279 43.38 77.018 83.048 95.199v2.543c-32.799 18.453-55.676 49.864-63.039 86.813-1.604 8.047.471 16.312 5.691 22.675 5.257 6.408 13.023 10.083 21.307 10.083h198.191c8.284 0 16.049-3.675 21.306-10.083 5.221-6.364 7.295-14.628 5.692-22.676-7.365-36.959-30.239-68.359-63.039-86.811v-2.46c11.786-5.344 22.912-12.192 33.052-20.432 3.214-2.612 3.703-7.336 1.091-10.551-2.612-3.214-7.335-3.702-10.551-1.091-24.412 19.837-55.158 30.73-86.676 30.73-.319 0-.638-.001-.957-.003-74.945-.525-136.185-61.93-136.513-136.881-.149-34.145 12.549-67.196 35.191-92.458 1.429 4.562 3.096 9.542 4.701 13.939 7.344 20.127 15.704 36.482 24.846 48.613 5.169 6.859 13.384 10.954 21.974 10.954h101.575c8.59 0 16.805-4.095 21.974-10.954 14.778-19.607 24.654-46.78 29.554-62.542 22.491 25.103 35.185 57.927 35.185 91.833 0 31.489-10.914 62.26-30.73 86.647-2.612 3.215-2.124 7.938 1.091 10.55 3.215 2.613 7.938 2.124 10.551-1.09 12.652-15.57 22.025-33.487 27.708-52.549 23.573-.531 42.589-19.858 42.589-43.556 0-15.856-8.514-29.757-21.208-37.383v-10.246c0-13.468-1.609-26.565-4.624-39.121 5.964-2.18 11.702-4.967 17.12-8.343 10.479-6.533 15.167-18.889 12.024-30.508zm-120.784 290.46v81.012h-63.738v-19.186h12.5c4.142 0 7.5-3.358 7.5-7.5s-3.358-7.5-7.5-7.5h-12.5v-19.724c21.295-2.972 43.074-17.96 51.972-35.366 4.117 2.526 8.047 5.283 11.766 8.264zm-142.476 0c3.718-2.981 7.65-5.737 11.767-8.264 8.898 17.406 30.676 32.394 51.971 35.366v19.724h-12.5c-4.142 0-7.5 3.358-7.5 7.5s3.358 7.5 7.5 7.5h12.5v19.186h-63.738zm119.293-20c-3.455 12.88-21.743 28.443-40.555 31.921v-24.475c13.853-.688 27.502-3.261 40.555-7.593zm-55.556 31.92c-18.81-3.479-37.098-19.042-40.555-31.921v-.181c12.858 4.307 26.463 6.937 40.555 7.628zm-101.305 64.495c-2.36-2.876-3.299-6.605-2.577-10.229 3.87-19.422 12.603-37.108 25.145-51.687v66.513h-12.857c-3.775 0-7.314-1.675-9.711-4.597zm220.188-10.23c.722 3.624-.217 7.353-2.578 10.23-2.396 2.921-5.936 4.597-9.709 4.597h-12.857v-66.518c12.541 14.578 21.273 32.264 25.144 51.691zm82.326-404.673c0 11.327-3.07 22.346-8.781 31.946-18.639-36.543-47.679-66.773-83.473-86.893 9.083-4.91 19.325-7.553 29.754-7.553 34.462 0 62.5 28.038 62.5 62.5zm-365.773 65.806c-5.299-3.302-7.341-9.888-4.857-15.659 18.459-42.881 51.837-77.625 93.985-97.834 5.665-2.716 12.328-.939 15.842 4.227 2.807 4.126 5.191 8.502 7.144 13.062-46.317 17.815-82.789 55.631-98.762 102.821-4.641-1.769-9.113-3.976-13.352-6.617zm-1.647 107.825c0-14.155 10.346-25.934 23.872-28.186-1.79 9.458-2.702 19.12-2.659 28.865.041 9.386.951 18.577 2.639 27.504-13.516-2.261-23.852-14.035-23.852-28.183zm323.564 28.183c1.746-9.253 2.648-18.689 2.648-28.186 0-9.511-.908-18.944-2.658-28.183 13.523 2.255 23.866 14.032 23.866 28.185 0 14.151-10.338 25.925-23.856 28.184zm-3.756-71.74c-7.74-25.871-22.271-49.563-42.368-68.221-1.73-1.606-4.119-2.307-6.441-1.883-2.324.421-4.313 1.913-5.37 4.025-.25.5-.444 1.028-.577 1.571-.106.433-10.834 43.574-30.559 69.744-2.351 3.119-6.087 4.981-9.995 4.981h-101.574c-3.908 0-7.644-1.862-9.996-4.982-19.479-25.845-30.129-68.02-30.544-69.688-.536-2.264-2.107-4.19-4.301-5.147-2.733-1.193-5.915-.651-8.101 1.378-20.11 18.67-34.633 42.353-42.368 68.221-2.177.048-4.315.254-6.403.611v-4.684c0-84.089 68.412-152.5 152.5-152.5s152.5 68.411 152.5 152.5v4.686c-2.088-.357-4.226-.564-6.403-.612zm25.965-64.268c-4.238 2.641-8.71 4.848-13.349 6.616-15.973-47.191-52.446-85.007-98.764-102.821 1.953-4.559 4.336-8.935 7.143-13.061 3.514-5.167 10.176-6.943 15.842-4.227 42.148 20.208 75.525 54.953 93.985 97.834 2.485 5.771.442 12.356-4.857 15.659z"/></g></svg>