<svg id="Capa_1" enable-background="new 0 0 512 512" height="512" viewBox="0 0 512 512" width="512" xmlns="http://www.w3.org/2000/svg"><g><g><path d="m176.952 248.77c-55.229 0-100 44.771-100 100s44.771 100 100 100c55.228 0 100-44.771 100-100s-44.771-100-100-100zm0 160c-33.084 0-60-26.916-60-60s26.916-60 60-60 60 26.916 60 60-26.916 60-60 60z" fill="#6e6e6e"/></g><g><path d="m235.051 348.77c0 55.229 44.772 100 100 100 55.229 0 100-44.771 100-100s-44.771-100-100-100c-55.228 0-100 44.772-100 100zm40 0c0-33.084 26.916-60 60-60s60 26.916 60 60-26.916 60-60 60-60-26.916-60-60z" fill="#6e6e6e"/></g><g><path d="m376.002 78.886h-240c-11.046 0-20-8.954-20-20 0-11.046 8.954-20 20-20h240c11.046 0 20 8.954 20 20 0 11.046-8.955 20-20 20z" fill="#f2b88f"/></g><g><circle cx="256.002" cy="67.5" fill="#6e6e6e" r="60"/></g><g><g><path d="m256.002 47.5c-88.366 0-160 71.634-160 160v15.245h320v-15.245c0-88.366-71.635-160-160-160z" fill="#848484"/></g></g><g><path d="m193.082 160.17c-42.274-13.719-32.292-81.245 3.519-101.273-58.952 23.587-100.599 81.228-100.599 148.603v15.245h97.081v-62.575z" fill="#6e6e6e"/></g><g><circle cx="401.129" cy="251.131" fill="#ffe4c2" r="36.081"/></g><g><circle cx="110.871" cy="251.131" fill="#f2d1a5" r="36.081"/></g><g><path d="m256.002 383.425c-38.207 0-72.275 17.701-94.465 45.345l94.465 18.22 94.466-18.22c-22.191-27.644-56.26-45.345-94.466-45.345z" fill="#ffe4c2"/></g><g><path d="m256.002 383.425c-38.207 0-72.275 17.701-94.465 45.345l50.065 9.656c16.609-25.448 42.53-44.266 72.931-51.611-9.151-2.211-18.702-3.39-28.531-3.39z" fill="#f2d1a5"/></g><g><path d="m137.264 480.707c-2.456 12.324 7.076 23.793 19.643 23.793h198.191c12.566 0 22.098-11.469 19.642-23.793-1.056-5.299-2.46-10.472-4.183-15.497l-114.555-16.44-114.555 16.44c-1.723 5.025-3.128 10.198-4.183 15.497z" fill="#ff8870"/></g><g><path d="m141.447 465.21c-1.723 5.025-3.128 10.198-4.183 15.497-2.456 12.324 7.076 23.793 19.643 23.793h35.083c0-17.039 3.522-33.254 9.875-47.96z" fill="#ff6c52"/></g><g><path d="m161.536 428.77c-8.658 10.787-15.51 23.085-20.089 36.44h229.109c-4.579-13.355-11.431-25.653-20.089-36.44z" fill="#ffd883"/></g><g><path d="m218.6 428.77h-57.064c-8.658 10.787-15.51 23.085-20.089 36.44h57.067c4.58-13.354 11.427-25.655 20.086-36.44z" fill="#ffa759"/></g><g><path d="m176.067 160.636c-43.661 9.683-60.613 54.714-60.613 54.714-2.905 11.445-4.453 23.43-4.453 35.779 0 80.081 64.919 145 145 145s145-64.919 145-145c0-12.348-1.548-24.334-4.453-35.779-114.24-.001-176.82-64.397-220.481-54.714z" fill="#fff2de"/></g><g><path d="m161.002 251.128c0-34.447 12.016-66.084 32.081-90.958-5.997-.79-11.65-.724-17.015.466-43.661 9.683-60.613 54.714-60.613 54.714-2.905 11.445-4.453 23.43-4.453 35.779 0 80.081 64.919 145 145 145 8.526 0 16.878-.743 25-2.154-68.167-11.849-120-71.291-120-142.847z" fill="#ffe4c2"/></g><g><g><g><ellipse cx="172.934" cy="299.09" fill="#ff9b87" rx="30.65" ry="24.408"/></g><g><ellipse cx="339.069" cy="298.934" fill="#ff9b87" rx="30.65" ry="24.408"/></g></g><g><path d="m190.76 280.739c-6.251 0-12.196-2.703-16.313-7.419-2.725-3.12-2.403-7.858.717-10.582 3.121-2.724 7.858-2.403 10.582.717 1.268 1.452 3.095 2.284 5.014 2.284h.006c1.92-.002 3.748-.838 5.015-2.294 2.719-3.125 7.458-3.454 10.581-.736 3.125 2.719 3.455 7.456.736 10.581-4.112 4.728-10.06 7.443-16.317 7.449-.007 0-.014 0-.021 0z"/></g><g><path d="m321.169 280.616c-6.251 0-12.195-2.703-16.312-7.419-2.725-3.12-2.403-7.858.717-10.582 3.12-2.725 7.858-2.404 10.582.717 1.268 1.452 3.095 2.284 5.014 2.284h.006c1.921-.002 3.749-.838 5.016-2.294 2.719-3.125 7.457-3.454 10.58-.736 3.126 2.719 3.455 7.456.736 10.581-4.112 4.729-10.061 7.443-16.318 7.449-.008 0-.015 0-.021 0z"/></g><g><path d="m256.001 292.262c-8.477 0-16.539-3.671-22.118-10.073-2.722-3.123-2.396-7.86.726-10.582s7.86-2.397 10.582.726c2.73 3.132 6.67 4.928 10.811 4.928s8.081-1.796 10.81-4.928c2.72-3.123 7.458-3.448 10.582-.727 3.122 2.722 3.448 7.459.727 10.582-5.58 6.403-13.642 10.074-22.12 10.074z"/></g></g><path d="m444.71 251.131c0-15.856-8.514-29.757-21.208-37.383v-6.248c0-26.26-5.908-51.405-17.56-74.737-1.852-3.707-6.357-5.21-10.061-3.359-3.706 1.851-5.21 6.355-3.359 10.061 10.604 21.233 15.979 44.124 15.979 68.036v.686c-2.398-.411-4.859-.636-7.373-.636-1.688 0-3.39.102-5.061.295-63.083-.102-109.712-20.181-147.195-36.326-29.721-12.802-53.2-22.914-74.429-18.205-38.432 8.523-57.599 41.37-63.755 54.241-2.449.01-4.848.231-7.187.631v-.687c0-84.089 68.412-152.5 152.5-152.5 47.998 0 92.235 21.924 121.369 60.151 2.511 3.294 7.218 3.93 10.511 1.419 3.295-2.511 3.93-7.217 1.419-10.512-5.34-7.007-11.259-13.582-17.643-19.672h4.344c15.163 0 27.5-12.336 27.5-27.5s-12.337-27.5-27.5-27.5h-62.989c-3.484-5.494-7.758-10.51-12.746-14.846-12.269-10.666-27.99-16.54-44.265-16.54-16.274 0-31.994 5.873-44.263 16.538-4.99 4.337-9.264 9.354-12.749 14.849h-62.988c-15.164 0-27.5 12.336-27.5 27.5s12.336 27.5 27.5 27.5h4.409c-31.966 30.522-51.91 73.532-51.91 121.114v6.246c-12.696 7.625-21.211 21.527-21.211 37.385 0 15.687 8.334 29.46 20.803 37.137-12.072 17.745-18.641 38.908-18.641 60.502 0 45.157 28.495 85.455 70.283 100.878-4.429 9.343-7.768 19.264-9.826 29.594-1.604 8.047.471 16.312 5.691 22.675 5.257 6.408 13.023 10.083 21.307 10.083h198.191c8.283 0 16.049-3.675 21.306-10.083 5.221-6.363 7.295-14.628 5.691-22.675-2.058-10.329-5.398-20.251-9.83-29.596 41.783-15.423 70.286-55.734 70.286-100.876 0-21.595-6.569-42.758-18.642-60.504 12.469-7.678 20.802-21.45 20.802-37.136zm-68.708-204.745c6.893 0 12.5 5.607 12.5 12.5s-5.607 12.5-12.5 12.5h-22.42c-6.991-5.027-14.349-9.529-22.007-13.407-3.146-1.593-6.328-3.074-9.54-4.457-.511-2.418-1.148-4.801-1.918-7.136zm-120.001-31.386c21.323 0 40.257 13.124 48.336 32.053-15.542-4.688-31.712-7.053-48.336-7.053-16.811 0-33.047 2.5-48.368 7.13 8.062-18.971 27.018-32.13 48.368-32.13zm-119.999 56.386c-6.893 0-12.5-5.607-12.5-12.5s5.607-12.5 12.5-12.5h55.884c-.776 2.354-1.418 4.757-1.931 7.196-11.162 4.808-21.701 10.794-31.459 17.804zm269.879 207.923c1.714-9.136 2.621-18.554 2.621-28.181 0-9.474-.877-18.913-2.608-28.174 13.498 2.276 23.816 14.041 23.816 28.176 0 14.141-10.324 25.909-23.829 28.179zm-18.33 69.461c0 28.949-23.552 52.5-52.5 52.5-.844 0-1.692-.028-2.539-.068-5.042-3.75-10.378-7.131-15.96-10.123 28.247-12.268 52.079-32.842 68.399-58.626 1.715 5.234 2.6 10.735 2.6 16.317zm-222.296 87.5h181.489c5.003 6.64 9.291 13.827 12.75 21.44h-206.989c3.459-7.614 7.749-14.8 12.75-21.44zm13.536-15c10.638-9.889 23.191-17.79 37.089-23.041 13.006 3.55 26.502 5.4 40.121 5.4 13.9 0 27.367-1.88 40.172-5.38 13.873 5.25 26.407 13.144 37.032 23.022h-154.414zm-1.1-253.312c16.499-3.66 38.013 5.606 65.247 17.337 37.671 16.226 84.272 36.3 147.637 37.498 1.943 9.283 2.927 18.789 2.927 28.335 0 75.818-61.683 137.5-137.5 137.5-31.488 0-62.26-10.914-86.647-30.73-3.213-2.612-7.938-2.124-10.55 1.091-2.612 3.214-2.124 7.938 1.091 10.55 10.85 8.816 22.84 16.04 35.561 21.535-5.584 2.993-10.922 6.377-15.966 10.127-.847.04-1.695.068-2.538.068-28.949 0-52.5-23.551-52.5-52.5 0-5.566.881-11.046 2.584-16.263 3.235 5.134 6.778 10.089 10.631 14.822 2.615 3.213 7.339 3.698 10.551 1.083s3.697-7.339 1.083-10.551c-19.861-24.402-30.799-55.205-30.799-86.732 0-11.314 1.381-22.572 4.104-33.465 1.641-3.999 17.956-41.471 55.084-49.705zm-71.582 54.996c-1.73 9.26-2.607 18.7-2.607 28.174 0 9.497.902 18.934 2.648 28.186-13.52-2.258-23.859-14.033-23.859-28.184-.001-14.136 10.318-25.901 23.818-28.176zm-21.657 125.816c0-19.741 6.381-39.058 18.039-54.875 2.4.469 4.87.735 7.391.792 2.171 7.28 4.88 14.391 8.106 21.27-5.59 10.011-8.535 21.271-8.535 32.813 0 32.718 23.402 60.065 54.345 66.203-6.308 6.503-11.927 13.657-16.751 21.338-37.106-12.67-62.595-47.925-62.595-87.541zm280.355 143.633c-2.396 2.921-5.936 4.597-9.709 4.597h-198.192c-3.774 0-7.313-1.675-9.71-4.597-2.36-2.876-3.299-6.605-2.577-10.229.638-3.202 1.427-6.356 2.334-9.463h218.096c.908 3.108 1.697 6.261 2.335 9.463.722 3.624-.217 7.352-2.577 10.229zm62.744-143.633c0 39.604-25.496 74.875-62.598 87.543-4.825-7.68-10.443-14.836-16.75-21.339 30.944-6.137 54.348-33.485 54.348-66.204 0-11.536-2.948-22.802-8.536-32.813 3.221-6.83 5.948-13.935 8.139-21.271 2.51-.058 4.969-.324 7.358-.791 11.657 15.817 18.039 35.134 18.039 54.875z"/></g></svg>