<svg id="Capa_1" enable-background="new 0 0 512 512" height="512" viewBox="0 0 512 512" width="512" xmlns="http://www.w3.org/2000/svg"><g><g><path d="m410.867 167.154c-10.698-54.241-61.95-139.654-61.95-139.654h-185.83s-51.252 85.413-61.951 139.654c.148-.117 309.583-.117 309.731 0z" fill="#6e6e6e"/></g><g><path d="m163.087 27.5s-51.252 85.413-61.951 139.654c.049-.039 33.57-.065 78.539-.078 3.015-84.268 34.147-119.576 34.147-119.576v-20z" fill="#595959"/></g><g><path d="m101.136 167.154c-3.349 12.889-5.135 26.409-5.135 40.346v15.245h320v-15.245c0-13.937-1.786-27.457-5.135-40.346-.148-.117-63.334-50.282-154.865-50.282s-154.717 50.165-154.865 50.282z" fill="#ffee6e"/></g><g><path d="m179.439 180.319c0-20.138 1.586-37.742 4.074-52.984-50.741 14.709-82.273 39.737-82.377 39.82-3.349 12.889-5.135 26.409-5.135 40.346v15.245h83.438z" fill="#ffd883"/></g><g><path d="m374.74 480.707c-11.054-55.475-60.014-97.282-118.738-97.282s-107.684 41.808-118.738 97.282c-2.456 12.324 7.076 23.793 19.643 23.793h198.191c12.565 0 22.097-11.469 19.642-23.793z" fill="#ff8870"/></g><g><path d="m282.54 386.813c.231-.104.453-.208.683-.312-8.75-2.01-17.861-3.077-27.221-3.077-58.724 0-107.684 41.808-118.738 97.282-2.456 12.324 7.076 23.793 19.642 23.793h33.083c0-57.041 39.449-104.861 92.551-117.686z" fill="#ff6c52"/></g><g><circle cx="401.129" cy="251.131" fill="#ffe4c2" r="36.081"/></g><g><circle cx="110.871" cy="251.131" fill="#f2d1a5" r="36.081"/></g><g><path d="m396.547 215.342c-82.683-64.247-198.407-64.247-281.09 0-2.906 11.447-4.455 23.435-4.455 35.786 0 80.081 64.919 145 145 145s145-64.919 145-145c0-12.35-1.549-24.339-4.455-35.786z" fill="#fff2de"/></g><g><path d="m161.002 251.128c0-25.717 6.695-49.869 18.438-70.81-22.611 8.015-44.24 19.683-63.983 35.024-2.906 11.447-4.455 23.435-4.455 35.786 0 80.081 64.919 145 145 145 8.526 0 16.878-.743 25-2.154-68.167-11.848-120-71.29-120-142.846z" fill="#ffe4c2"/></g><g><path d="m376.002 47.5h-240c-11.046 0-20-8.954-20-20 0-11.046 8.954-20 20-20h240c11.046 0 20 8.954 20 20 0 11.046-8.955 20-20 20z" fill="#848484"/></g><g><path d="m193.822 27.5c0-11.046 8.954-20 20-20h-77.82c-11.046 0-20 8.954-20 20s8.954 20 20 20h77.82c-11.046 0-20-8.954-20-20z" fill="#6e6e6e"/></g><g><path d="m205.169 346.107c0 67.719 29.022 110.292 43.208 127.057 3.99 4.716 11.259 4.716 15.25 0 14.186-16.765 43.208-59.338 43.208-127.057z" fill="#e4e4e4"/></g><g><path d="m240.047 295.236c-45.794-28.712-66.641 77.615-60.947 160.131.649 9.406 12.715 12.819 18.15 5.114 18.668-26.465 48.918-73.273 58.752-111.291 9.834 38.019 40.084 84.826 58.752 111.292 5.435 7.705 17.501 4.292 18.15-5.114 5.693-82.516-15.153-188.843-60.947-160.131-9.758 6.116-22.153 6.116-31.91-.001z" fill="#f7f7f7"/></g><g><path d="m201.053 275.619v-12c0-4.142-3.357-7.5-7.5-7.5s-7.5 3.358-7.5 7.5v12c0 4.142 3.357 7.5 7.5 7.5s7.5-3.358 7.5-7.5z"/><path d="m325.95 275.619v-12c0-4.142-3.357-7.5-7.5-7.5s-7.5 3.358-7.5 7.5v12c0 4.142 3.357 7.5 7.5 7.5s7.5-3.358 7.5-7.5z"/><path d="m444.71 251.131c0-15.856-8.514-29.757-21.208-37.383v-6.248c0-14.218-1.79-28.353-5.32-42.016-6.845-34.421-29.314-80.599-45.259-110.484h3.079c15.163 0 27.5-12.336 27.5-27.5s-12.337-27.5-27.5-27.5h-240c-15.163 0-27.5 12.336-27.5 27.5s12.337 27.5 27.5 27.5h3.079c-15.966 29.924-38.415 76.072-45.259 110.484-3.53 13.661-5.319 27.796-5.319 42.016v6.246c-12.696 7.625-21.212 21.527-21.212 37.385 0 23.692 19.007 43.015 42.571 43.555 2.878 9.69 6.696 19.089 11.443 28.006 1.946 3.656 6.488 5.042 10.145 3.096 3.656-1.946 5.042-6.488 3.096-10.145-10.495-19.713-16.042-42.022-16.042-64.515 0-10.617 1.215-21.182 3.615-31.445 79.205-60.087 188.569-60.085 267.769 0 2.4 10.262 3.616 20.827 3.616 31.445 0 44.921-21.254 85.922-57.36 111.74-.456-2.713-.93-5.4-1.445-8.023-4.841-24.685-14.546-56.47-33.297-67.705-7.152-4.285-18.755-7.458-33.429 1.741-7.272 4.56-16.67 4.559-23.94 0-14.675-9.2-26.278-6.024-33.429-1.741-18.751 11.235-28.456 43.02-33.297 67.705-.514 2.622-.988 5.307-1.444 8.019-9.415-6.76-17.939-14.67-25.419-23.621-2.656-3.178-7.387-3.602-10.564-.945-3.178 2.656-3.602 7.386-.945 10.564 9.95 11.906 21.574 22.139 34.567 30.51-1.098 9.255-1.875 18.826-2.332 28.509-21.163 18.605-35.776 43.843-41.259 71.359-1.604 8.047.471 16.312 5.691 22.675 5.257 6.408 13.022 10.083 21.307 10.083h198.191c8.283 0 16.049-3.675 21.306-10.083 5.221-6.363 7.295-14.628 5.691-22.675-5.484-27.522-20.093-52.752-41.259-71.359-.457-9.674-1.233-19.238-2.329-28.486 20.411-13.159 37.528-31.109 49.673-52.157 5.933-10.282 10.609-21.22 13.978-32.554 23.552-.548 42.55-19.867 42.55-43.553zm-226.398 48.877c3.342-2.003 8.818-4.019 17.75 1.583 12.114 7.594 27.766 7.593 39.878 0 8.932-5.602 14.408-3.585 17.75-1.583 22.078 13.229 36.609 84.138 31.73 154.843-.102 1.481-1.058 2.054-1.841 2.273-.771.213-1.861.22-2.697-.967-17.376-24.633-47.968-71.53-57.62-108.846-.855-3.31-3.842-5.622-7.261-5.622s-6.405 2.312-7.261 5.622c-9.653 37.315-40.245 84.213-57.621 108.847-.837 1.189-1.929 1.181-2.697.967-.783-.219-1.738-.792-1.841-2.273-4.878-70.706 9.653-141.615 31.731-154.844zm65.111 126.307c-8.471 19.738-18.47 33.67-25.522 42.004-.648.767-1.468.881-1.899.881s-1.25-.114-1.899-.881c-7.059-8.342-17.053-22.271-25.521-42.004 10.09-16.729 20.18-35.444 27.422-53.539 7.239 18.095 17.329 36.81 27.419 53.539zm83.961 55.858c.723 3.625-.217 7.353-2.577 10.23-2.396 2.921-5.936 4.597-9.709 4.597h-198.192c-3.774 0-7.313-1.675-9.71-4.597-2.36-2.876-3.3-6.605-2.577-10.229 3.883-19.487 12.977-37.67 26.066-52.592.031 8.856.337 17.676.932 26.302.519 7.505 5.529 13.663 12.766 15.687 7.22 2.016 14.672-.638 18.995-6.766 4.544-6.443 9.967-14.373 15.697-23.26 8.155 16.588 17.018 28.715 23.576 36.465 3.33 3.935 8.196 6.192 13.35 6.192s10.021-2.257 13.351-6.192c6.552-7.743 15.419-19.869 23.577-36.463 5.729 8.887 11.152 16.816 15.696 23.258 3.362 4.767 8.619 7.433 14.186 7.433 1.59 0 3.206-.218 4.81-.666 7.237-2.024 12.248-8.182 12.766-15.687.595-8.627.901-17.447.932-26.304 13.089 14.92 22.181 33.1 26.065 52.592zm-243.882-454.673c0-6.893 5.607-12.5 12.5-12.5h240c6.893 0 12.5 5.607 12.5 12.5s-5.607 12.5-12.5 12.5h-240c-6.893 0-12.5-5.607-12.5-12.5zm-41.212 223.631c0-14.137 10.319-25.902 23.819-28.177-1.73 9.261-2.607 18.7-2.607 28.174 0 9.472.893 18.915 2.632 28.184-13.513-2.265-23.844-14.036-23.844-28.181zm30.932-43.511c-.783-.042-1.568-.071-2.351-.071-2.512 0-4.972.226-7.369.636v-.685c0-12.162 1.455-24.246 4.288-35.969 11.622-8.511 68.776-47.159 148.212-47.159 13.484 0 27.169 1.14 40.676 3.389 4.085.683 7.948-2.081 8.63-6.166.68-4.086-2.081-7.95-6.167-8.63-14.317-2.384-28.832-3.593-43.139-3.593-65.881 0-117.443 25.234-142.635 40.519 10.207-32.645 29.786-71.107 42.754-94.891h199.761c12.945 23.742 32.546 62.24 42.758 94.905-14.836-9.001-38.83-21.472-69.462-30.18-3.988-1.134-8.133 1.179-9.265 5.164-1.133 3.984 1.179 8.132 5.163 9.265 42.667 12.129 71.434 31.741 79.137 37.378 2.834 11.725 4.289 23.809 4.289 35.968v.686c-2.398-.411-4.859-.636-7.373-.636-.782 0-1.567.028-2.349.069-84.499-63.988-201.062-63.987-285.558.001zm292.642 71.692c1.736-9.257 2.638-18.691 2.638-28.184 0-9.475-.877-18.914-2.607-28.174 13.498 2.276 23.815 14.041 23.815 28.176 0 14.147-10.333 25.919-23.846 28.182z"/></g></g></svg>