<svg id="Capa_1" enable-background="new 0 0 512 512" height="512" viewBox="0 0 512 512" width="512" xmlns="http://www.w3.org/2000/svg"><g><g><path d="m374.737 480.707c-11.054-55.475-60.014-97.282-118.738-97.282s-107.684 41.808-118.738 97.282c-2.456 12.324 7.076 23.793 19.643 23.793h198.191c12.565 0 22.097-11.469 19.642-23.793z" fill="#848484"/></g><g><path d="m284.537 386.813c-9.151-2.211-18.706-3.388-28.537-3.388-58.724 0-107.684 41.808-118.738 97.282-2.456 12.324 7.076 23.793 19.643 23.793h35.081c-.001-57.042 39.449-104.862 92.551-117.687z" fill="#6e6e6e"/></g><g><path d="m255.998 436.626c22.366 0 40.498-18.132 40.498-40.498 0-2.009-.152-3.981-.434-5.911-12.541-4.396-26.022-6.792-40.064-6.792s-27.523 2.396-40.064 6.792c-.282 1.93-.434 3.903-.434 5.911 0 22.367 18.132 40.498 40.498 40.498z" fill="#ffe4c2"/></g><g><path d="m284.537 386.813c-9.151-2.211-18.706-3.388-28.537-3.388-14.043 0-27.525 2.396-40.066 6.793-.282 1.93-.434 3.902-.434 5.911 0 9.734 3.437 18.665 9.16 25.649 15.87-16.949 36.556-29.332 59.877-34.965z" fill="#f2d1a5"/></g><g><circle cx="401.126" cy="251.131" fill="#ffe4c2" r="36.081"/></g><g><circle cx="110.868" cy="251.131" fill="#f2d1a5" r="36.081"/></g><g><circle cx="255.998" cy="251.128" fill="#fff2de" r="145"/></g><g><g><path d="m161 251.128c0-71.555 51.833-130.998 120-142.846-8.122-1.412-16.474-2.154-25-2.154-80.081 0-145 64.919-145 145s64.919 145 145 145c8.526 0 16.878-.743 25-2.154-68.166-11.848-120-71.29-120-142.846z" fill="#ffe4c2"/></g></g><g><g><g><ellipse cx="176.443" cy="300.122" fill="#ff9b87" rx="29.355" ry="23.377"/></g><g><ellipse cx="335.557" cy="300.122" fill="#ff9b87" rx="29.355" ry="23.377"/></g></g><g><path d="m193.552 285.119c-4.143 0-7.5-3.358-7.5-7.5v-12c0-4.142 3.357-7.5 7.5-7.5s7.5 3.358 7.5 7.5v12c0 4.142-3.358 7.5-7.5 7.5z"/></g><g><path d="m318.449 285.119c-4.143 0-7.5-3.358-7.5-7.5v-12c0-4.142 3.357-7.5 7.5-7.5s7.5 3.358 7.5 7.5v12c0 4.142-3.357 7.5-7.5 7.5z"/></g><g><path d="m256 292.262c-8.478 0-16.539-3.671-22.118-10.073-2.722-3.123-2.396-7.86.727-10.582 3.121-2.721 7.859-2.396 10.582.727 2.729 3.132 6.669 4.928 10.81 4.928s8.08-1.796 10.81-4.928c2.721-3.123 7.457-3.448 10.582-.727 3.122 2.722 3.448 7.459.727 10.582-5.581 6.402-13.643 10.073-22.12 10.073z"/></g></g><g><path d="m255.998 7.5c-62.473 0-181.714 82.987-235.603 188.345-6.784 13.263 2.963 29.004 17.86 29.004h435.49c14.897 0 24.644-15.742 17.86-29.004-53.89-105.358-173.134-188.345-235.607-188.345z" fill="#ffd883"/></g><g><path d="m255.999 7.5c-62.473 0-181.714 82.987-235.604 188.345-6.784 13.263 2.963 29.004 17.86 29.004h360.368c-177.609.001-202.305-217.348-142.624-217.349z" fill="#ffa759"/></g><g><path d="m255.999 7.5c-39.133 0-116.872 98.628-142.624 217.35h285.248c-25.752-118.722-103.491-217.35-142.624-217.35z" fill="#ffee6e"/></g><g><g><path d="m252.922 7.708c-39.997 4.856-114.452 101.451-139.547 217.142h285.248c-174.476 0-201.383-209.741-145.701-217.142z" fill="#ffd883"/></g><g><path d="m254.331 7.564c-.19.013-.383.033-.575.05.191-.018.382-.036.575-.05z" fill="#ffd883"/></g></g><path d="m498.282 192.43c-25.453-49.762-66.9-98.141-116.706-136.225-46.026-35.193-92.97-56.204-125.576-56.205h-.001-.001c-32.605 0-79.55 21.011-125.575 56.205-49.806 38.084-91.252 86.463-116.704 136.225-4.368 8.54-3.98 18.535 1.038 26.739 5.049 8.253 13.833 13.181 23.498 13.181h33.26c-2.765 5.781-4.227 12.157-4.227 18.781 0 23.699 19.018 43.026 42.591 43.556 5.701 19.118 15.113 37.085 27.824 52.69 1.483 1.82 3.643 2.763 5.82 2.763 1.664 0 3.34-.552 4.731-1.685 3.212-2.616 3.694-7.34 1.079-10.552-19.885-24.411-30.835-55.228-30.835-86.775 0-6.285.431-12.579 1.276-18.779h272.449c.845 6.2 1.275 12.493 1.275 18.779 0 75.818-61.683 137.5-137.5 137.5-31.487 0-62.26-10.914-86.647-30.73-3.216-2.612-7.939-2.124-10.55 1.091-2.612 3.214-2.124 7.938 1.091 10.55 10.85 8.816 22.84 16.04 35.562 21.535-33.553 17.983-58.019 50.384-65.548 88.167-1.604 8.047.471 16.312 5.691 22.675 5.257 6.408 13.022 10.083 21.307 10.083h198.19c8.284 0 16.05-3.675 21.307-10.083 5.221-6.364 7.295-14.628 5.691-22.675-7.529-37.785-31.991-70.18-65.541-88.164 40.981-17.8 72.669-53.086 85.599-96.392 23.561-.544 42.563-19.866 42.563-43.555 0-6.625-1.462-13-4.227-18.781h33.26c9.665 0 18.449-4.928 23.498-13.181 5.018-8.203 5.405-18.199 1.038-26.738zm-209.53 207.645c-1.958 16.34-15.895 29.051-32.754 29.051-16.868 0-30.811-12.725-32.757-29.078 10.707 2.36 21.692 3.58 32.757 3.58 11.241 0 22.199-1.233 32.754-3.553zm-141.559 92.328c-2.36-2.877-3.3-6.605-2.577-10.229 7.074-35.504 31.083-65.633 63.681-80.763 2.366 21.51 18.997 38.784 40.201 42.126v19.277h-12.5c-4.143 0-7.5 3.358-7.5 7.5s3.357 7.5 7.5 7.5h12.5v19.186h-91.595c-3.774 0-7.313-1.676-9.71-4.597zm220.188-10.23c.723 3.624-.217 7.353-2.577 10.229-2.396 2.921-5.936 4.597-9.71 4.597h-91.596v-19.186h12.5c4.143 0 7.5-3.358 7.5-7.5s-3.357-7.5-7.5-7.5h-12.5v-19.277c21.205-3.342 37.835-20.617 40.201-42.127 32.6 15.131 56.606 45.257 63.682 80.764zm-339.829-270.832c-2.305-3.767-2.479-8.17-.479-12.081 24.455-47.812 64.395-94.386 112.461-131.139 23.11-17.671 46.231-31.559 67.24-40.696-10.885 10.575-22.1 23.964-33.116 39.738-30.438 43.582-53.866 96.719-66.284 150.187h-69.12c-4.4 0-8.401-2.246-10.702-6.009zm78.594 67.974c-13.519-2.258-23.859-14.033-23.859-28.184 0-7.002 2.488-13.579 7.043-18.781h15.324c-.762 6.214-1.156 12.5-1.156 18.779 0 9.497.902 18.933 2.648 28.186zm323.567-28.184c0 14.143-10.328 25.912-23.836 28.18 1.714-9.137 2.621-18.555 2.621-28.182 0-6.278-.394-12.564-1.156-18.779h15.328c4.555 5.202 7.043 11.779 7.043 18.781zm54.735-39.79c-2.302 3.763-6.303 6.009-10.703 6.009h-69.129c-7.442-32.061-18.753-63.788-33.67-94.377-1.815-3.722-6.304-5.27-10.028-3.454-3.724 1.815-5.27 6.306-3.454 10.028 13.896 28.496 24.55 57.995 31.737 87.803h-266.401c12.102-49.935 34.867-101.094 63.155-141.598 31.317-44.841 57.305-60.752 70.044-60.752h.001c18.247.001 54.275 30.513 87.827 88.829 2.066 3.591 6.651 4.826 10.241 2.761 3.591-2.066 4.826-6.651 2.761-10.241-16.413-28.526-34.226-52.112-51.37-68.819 20.948 9.138 43.981 22.986 67.006 40.591 48.066 36.754 88.007 83.327 112.463 131.14 1.999 3.909 1.825 8.313-.48 12.08z"/></g></svg>