<svg id="Capa_1" enable-background="new 0 0 512 512" height="512" viewBox="0 0 512 512" width="512" xmlns="http://www.w3.org/2000/svg"><g><g><g><path d="m474.77 455.993c-146.922 38.599-294.935-60.123-441.836-18.818-12.766 3.59-25.434-5.978-25.434-19.24v-323.262c0-18.136 12.189-34.058 29.73-38.666 146.923-38.601 294.936 60.121 441.836 18.818 12.766-3.589 25.434 5.978 25.434 19.24v323.262c0 18.136-12.189 34.058-29.73 38.666z" fill="#ff8870"/></g></g><g><path d="m87.5 69.117v-21.352c-16.721 1.239-33.432 3.828-50.128 8.204-17.596 4.613-29.872 20.513-29.872 38.704v323.262c0 13.262 12.668 22.829 25.434 19.24 146.901-41.304 294.914 57.418 441.836 18.818 17.541-4.608 29.73-20.53 29.73-38.666v-51.11c-27.414 10.908-54.871 16.372-82.357 18.199-181.43 12.062-334.643-133.469-334.643-315.299z" fill="#ff6c52"/></g><g><path d="m101.509 151.871 5.982 18.41h19.358c12.232 0 17.318 15.653 7.422 22.843l-15.661 11.378 5.982 18.41c3.78 11.633-9.535 21.307-19.431 14.117l-15.661-11.377-15.661 11.378c-9.896 7.19-23.211-2.484-19.431-14.117l5.982-18.41-15.661-11.378c-9.896-7.19-4.81-22.843 7.422-22.843h19.358l5.982-18.41c3.78-11.634 20.238-11.634 24.018-.001z" fill="#ffee6e"/></g><g><path d="m44.729 193.124 15.661 11.378-5.982 18.41c-3.78 11.633 9.535 21.307 19.431 14.117l15.661-11.377 15.661 11.378c9.896 7.19 23.211-2.484 19.431-14.117l-5.982-18.41c-28.773 0-47.101-17.11-47.101-34.221h-19.358c-12.232-.001-17.318 15.652-7.422 22.842z" fill="#ffa759"/></g><g><path d="m143.984 294.145c4.142 0 7.5-3.358 7.5-7.5s-3.358-7.5-7.5-7.5h-7.5v-7.5c0-4.142-3.358-7.5-7.5-7.5s-7.5 3.358-7.5 7.5v7.5h-7.5c-4.142 0-7.5 3.358-7.5 7.5s3.358 7.5 7.5 7.5h7.5v7.5c0 4.142 3.358 7.5 7.5 7.5s7.5-3.358 7.5-7.5v-7.5z"/><path d="m169.823 238.306h7.5v7.5c0 4.142 3.358 7.5 7.5 7.5s7.5-3.358 7.5-7.5v-7.5h7.5c4.142 0 7.5-3.358 7.5-7.5s-3.358-7.5-7.5-7.5h-7.5v-7.5c0-4.142-3.358-7.5-7.5-7.5s-7.5 3.358-7.5 7.5v7.5h-7.5c-4.142 0-7.5 3.358-7.5 7.5s3.358 7.5 7.5 7.5z"/><path d="m184.823 129.338c-4.142 0-7.5 3.358-7.5 7.5v7.5h-7.5c-4.142 0-7.5 3.358-7.5 7.5s3.358 7.5 7.5 7.5h7.5v7.5c0 4.142 3.358 7.5 7.5 7.5s7.5-3.358 7.5-7.5v-7.5h7.5c4.142 0 7.5-3.358 7.5-7.5s-3.358-7.5-7.5-7.5h-7.5v-7.5c0-4.142-3.358-7.5-7.5-7.5z"/><path d="m128.984 73.5c-4.142 0-7.5 3.358-7.5 7.5v7.5h-7.5c-4.142 0-7.5 3.358-7.5 7.5s3.358 7.5 7.5 7.5h7.5v7.5c0 4.142 3.358 7.5 7.5 7.5s7.5-3.358 7.5-7.5v-7.5h7.5c4.142 0 7.5-3.358 7.5-7.5s-3.358-7.5-7.5-7.5h-7.5v-7.5c0-4.142-3.358-7.5-7.5-7.5z"/><path d="m501.116 72.16c-6.928-5.249-15.704-6.909-24.08-4.555-72.434 20.366-147.232 5.458-219.569-8.96-72.625-14.475-147.722-29.442-222.143-9.891-20.798 5.463-35.324 24.346-35.324 45.919v323.262c0 8.68 3.967 16.664 10.885 21.905 4.864 3.686 10.639 5.602 16.546 5.602 2.507 0 5.038-.345 7.533-1.046 24.532-6.898 50.361-10.181 78.98-10.027h.041c4.123 0 7.477-3.332 7.499-7.46.022-4.142-3.318-7.518-7.46-7.54-30.014-.151-57.22 3.305-83.119 10.586-3.814 1.071-7.81.317-10.961-2.071-3.141-2.38-4.943-6.006-4.943-9.949v-323.262c0-14.762 9.925-27.679 24.136-31.412 71.071-18.672 144.443-4.048 215.4 10.094 74.07 14.764 150.664 30.028 226.56 8.69 3.814-1.073 7.809-.318 10.961 2.071 3.142 2.38 4.943 6.006 4.943 9.949v42.774c0 4.142 3.358 7.5 7.5 7.5s7.5-3.358 7.5-7.5v-42.775c-.001-8.68-3.968-16.664-10.885-21.904z"/><path d="m504.5 159.338c-4.142 0-7.5 3.358-7.5 7.5v250.488c0 14.762-9.925 27.679-24.136 31.413-71.069 18.671-144.441 4.047-215.397-10.095-36.94-7.363-75.137-14.976-112.895-17.949-4.119-.327-7.74 2.759-8.065 6.888s2.759 7.741 6.888 8.066c36.873 2.903 74.628 10.428 111.14 17.706 47.731 9.513 96.528 19.24 145.5 19.24 25.542 0 51.131-2.646 76.64-9.348 20.798-5.464 35.324-24.348 35.324-45.92v-250.489c.001-4.142-3.357-7.5-7.499-7.5z"/><path d="m54.587 243.098c7.187 5.221 16.474 5.221 23.661 0l11.252-8.175 11.252 8.176c3.593 2.61 7.711 3.916 11.83 3.916 4.118 0 8.237-1.306 11.831-3.916 7.187-5.222 10.057-14.054 7.312-22.503l-4.298-13.228 11.252-8.176c7.187-5.221 10.057-14.054 7.312-22.503-2.745-8.448-10.259-13.907-19.142-13.907h-13.909l-4.298-13.228c-2.745-8.449-10.258-13.908-19.142-13.908s-16.397 5.459-19.142 13.907l-4.298 13.228h-13.909c-8.883 0-16.397 5.459-19.142 13.907-2.745 8.449.125 17.282 7.312 22.503l11.252 8.176-4.298 13.228c-2.745 8.448.125 17.281 7.312 22.503zm-5.449-56.041c-2.72-1.977-2.208-4.667-1.862-5.733.346-1.065 1.514-3.542 4.876-3.542h19.358c3.249 0 6.129-2.092 7.133-5.182l5.982-18.411c1.039-3.197 3.756-3.542 4.876-3.542s3.837.345 4.876 3.542l5.982 18.41c1.004 3.09 3.884 5.182 7.133 5.182h19.358c3.362 0 4.53 2.478 4.876 3.542.346 1.065.857 3.756-1.863 5.733l-15.661 11.378c-2.628 1.91-3.729 5.295-2.724 8.385l5.982 18.41c1.039 3.198-.957 5.074-1.863 5.732s-3.307 1.976-6.027 0l-15.661-11.378c-1.314-.955-2.862-1.433-4.409-1.433s-3.094.478-4.409 1.433l-15.66 11.378c-2.721 1.976-5.122.658-6.027 0-.906-.658-2.901-2.535-1.863-5.732l5.982-18.41c1.004-3.09-.096-6.476-2.724-8.385z"/></g></g></svg>