<svg id="Capa_1" enable-background="new 0 0 512 512" height="512" viewBox="0 0 512 512" width="512" xmlns="http://www.w3.org/2000/svg"><g><g><path d="m256 7.5c-137.243 0-248.5 111.257-248.5 248.5s111.257 248.5 248.5 248.5 248.5-111.257 248.5-248.5-111.257-248.5-248.5-248.5zm60 308.5h-120v-120h120z" fill="#ffd883"/></g><g><path d="m256 7.5c-137.243 0-248.5 111.257-248.5 248.5s111.257 248.5 248.5 248.5c-11.046 0-20-8.954-20-20s8.954-20 20-20v-148.5h-60v-120h60v-148.5c-11.046 0-20-8.954-20-20s8.954-20 20-20z" fill="#ffa759"/></g><g><path d="m256 47.5c-114.967 0-208.5 93.533-208.5 208.5s93.533 208.5 208.5 208.5 208.5-93.533 208.5-208.5-93.533-208.5-208.5-208.5zm60 268.5h-120v-120h120z" fill="#ffff9c"/></g><g><path d="m264.778 316h-68.778v-120h68.778c15.383-51.274 49.959-94.245 95.397-120.555-30.669-17.764-66.255-27.945-104.175-27.945-114.967 0-208.5 93.533-208.5 208.5s93.533 208.5 208.5 208.5c37.92 0 73.506-10.181 104.175-27.945-45.438-26.31-80.014-69.281-95.397-120.555z" fill="#ffee6e"/></g><g><path d="m286 176h-60c-27.614 0-50 22.386-50 50v60c0 27.614 22.386 50 50 50h60c27.614 0 50-22.386 50-50v-60c0-27.614-22.386-50-50-50zm10 110c0 5.523-4.477 10-10 10h-60c-5.523 0-10-4.477-10-10v-60c0-5.523 4.477-10 10-10h60c5.523 0 10 4.477 10 10z" fill="#ffd883"/></g><g><circle cx="256" cy="109.324" fill="#ffa759" r="25"/></g><g><circle cx="402.676" cy="256" fill="#ffd883" r="25"/></g><g><circle cx="109.324" cy="256" fill="#ffa759" r="25"/></g><g><path d="m236 316c0-11.046 8.954-20 20-20h-30c-5.523 0-10-4.477-10-10v-60c0-5.523 4.477-10 10-10h30c-11.046 0-20-8.954-20-20s8.954-20 20-20h-30c-27.614 0-50 22.386-50 50v60c0 27.614 22.386 50 50 50h30c-11.046 0-20-8.954-20-20z" fill="#ffa759"/></g><g><path d="m437.02 74.98c-48.353-48.351-112.64-74.98-181.02-74.98s-132.667 26.629-181.02 74.98c-48.351 48.353-74.98 112.64-74.98 181.02s26.629 132.667 74.98 181.02c48.353 48.351 112.64 74.98 181.02 74.98s132.667-26.629 181.02-74.98c48.351-48.353 74.98-112.64 74.98-181.02s-26.629-132.667-74.98-181.02zm-181.02 422.02c-132.888 0-241-108.112-241-241s108.112-241 241-241 241 108.112 241 241-108.112 241-241 241z"/><path d="m256 40c-51.863 0-102.041 18.73-141.289 52.741-3.13 2.712-3.469 7.449-.756 10.58 2.712 3.13 7.448 3.469 10.58.756 36.521-31.648 83.21-49.077 131.465-49.077 110.832 0 201 90.168 201 201s-90.168 201-201 201-201-90.168-201-201c0-48.255 17.429-94.944 49.077-131.466 2.712-3.13 2.374-7.867-.756-10.58-3.132-2.713-7.868-2.374-10.58.756-34.011 39.249-52.741 89.427-52.741 141.29 0 119.103 96.897 216 216 216s216-96.897 216-216-96.897-216-216-216z"/><path d="m168.5 226v60c0 31.706 25.794 57.5 57.5 57.5h60c31.706 0 57.5-25.794 57.5-57.5v-15c0-4.142-3.358-7.5-7.5-7.5s-7.5 3.358-7.5 7.5v15c0 23.435-19.065 42.5-42.5 42.5h-60c-23.435 0-42.5-19.065-42.5-42.5v-60c0-23.435 19.065-42.5 42.5-42.5h60c23.435 0 42.5 19.065 42.5 42.5v15c0 4.142 3.358 7.5 7.5 7.5s7.5-3.358 7.5-7.5v-15c0-31.706-25.794-57.5-57.5-57.5h-60c-31.706 0-57.5 25.794-57.5 57.5z"/><path d="m226 208.5c-9.649 0-17.5 7.851-17.5 17.5v60c0 9.649 7.851 17.5 17.5 17.5h60c9.649 0 17.5-7.851 17.5-17.5v-60c0-9.649-7.851-17.5-17.5-17.5zm62.5 17.5v60c0 1.378-1.122 2.5-2.5 2.5h-60c-1.378 0-2.5-1.122-2.5-2.5v-60c0-1.378 1.122-2.5 2.5-2.5h60c1.378 0 2.5 1.122 2.5 2.5z"/><path d="m256 141.808c8.323 0 16.645-3.167 22.981-9.503 12.672-12.672 12.672-33.29 0-45.962s-33.29-12.672-45.962 0-12.672 33.29 0 45.962c6.336 6.336 14.658 9.503 22.981 9.503zm-12.375-44.859c3.306-3.305 7.7-5.125 12.375-5.125s9.069 1.82 12.375 5.125c3.305 3.306 5.125 7.7 5.125 12.375s-1.82 9.069-5.125 12.375c-6.823 6.822-17.926 6.823-24.749 0-3.305-3.306-5.125-7.7-5.125-12.375s1.819-9.069 5.124-12.375z"/><path d="m425.657 278.981c12.672-12.672 12.672-33.29 0-45.962s-33.29-12.672-45.962 0c-12.671 12.672-12.671 33.29 0 45.962 6.336 6.336 14.658 9.504 22.981 9.504s16.645-3.168 22.981-9.504zm-35.355-35.356c3.306-3.305 7.7-5.125 12.375-5.125s9.069 1.82 12.375 5.125c3.305 3.306 5.125 7.7 5.125 12.375s-1.82 9.069-5.125 12.375c-3.306 3.305-7.7 5.125-12.375 5.125s-9.069-1.82-12.375-5.125c-6.823-6.824-6.823-17.926 0-24.75z"/><path d="m76.824 256c0 17.92 14.58 32.5 32.5 32.5s32.5-14.58 32.5-32.5-14.58-32.5-32.5-32.5-32.5 14.58-32.5 32.5zm32.5-17.5c9.649 0 17.5 7.851 17.5 17.5s-7.851 17.5-17.5 17.5-17.5-7.851-17.5-17.5 7.85-17.5 17.5-17.5z"/></g><g><g><path d="m193.553 402.604c-4.142 0-7.5-3.358-7.5-7.5v-12c0-4.142 3.358-7.5 7.5-7.5s7.5 3.358 7.5 7.5v12c0 4.143-3.358 7.5-7.5 7.5z"/></g><g><path d="m318.45 402.604c-4.142 0-7.5-3.358-7.5-7.5v-12c0-4.142 3.358-7.5 7.5-7.5s7.5 3.358 7.5 7.5v12c0 4.143-3.358 7.5-7.5 7.5z"/></g><g><path d="m256.001 409.748c-8.478 0-16.54-3.671-22.119-10.073-2.721-3.123-2.396-7.86.727-10.582 3.124-2.721 7.86-2.396 10.582.727 2.729 3.132 6.669 4.928 10.81 4.928s8.081-1.796 10.81-4.928c2.722-3.123 7.459-3.447 10.582-.727 3.123 2.722 3.448 7.459.727 10.582-5.579 6.402-13.641 10.073-22.119 10.073z"/></g></g></g></svg>