<svg id="Capa_1" enable-background="new 0 0 512 512" height="512" viewBox="0 0 512 512" width="512" xmlns="http://www.w3.org/2000/svg"><g><g><path d="m464.5 436h-417c-22.091 0-40-17.909-40-40v-280c0-22.091 17.909-40 40-40h417c22.091 0 40 17.909 40 40v280c0 22.091-17.909 40-40 40z" fill="#92ef8e"/></g><g><path d="m47.5 436h209.098c-85.52 0-154.848-69.328-154.848-154.848v-205.152h-54.25c-22.091 0-40 17.909-40 40v280c0 22.091 17.909 40 40 40z" fill="#66df6b"/></g><g><path d="m464.5 356v-200c-22.091 0-40-17.909-40-40h-337c0 22.091-17.909 40-40 40v200c22.091 0 40 17.909 40 40h337c0-22.091 17.909-40 40-40z" fill="#00d27f"/></g><g><path d="m87.5 396h65.237c-31.313-28.335-50.987-69.293-50.987-114.848v-165.152h-14.25c0 22.091-17.909 40-40 40v200c22.091 0 40 17.909 40 40z" fill="#00c67c"/></g><g><circle cx="256" cy="256" fill="#92ef8e" r="100"/></g><g><path d="m191 256c0-49.258 35.616-90.196 82.5-98.471-5.682-1.004-11.53-1.529-17.5-1.529-55.228 0-100 44.771-100 100s44.772 100 100 100c5.97 0 11.818-.525 17.5-1.529-46.884-8.275-82.5-49.213-82.5-98.471z" fill="#66df6b"/></g><g><path d="m464.5 68.5h-417c-26.191 0-47.5 21.309-47.5 47.5v280c0 26.191 21.309 47.5 47.5 47.5h417c26.191 0 47.5-21.309 47.5-47.5v-280c0-26.191-21.309-47.5-47.5-47.5zm32.5 327.5c0 17.92-14.579 32.5-32.5 32.5h-417c-17.92 0-32.5-14.58-32.5-32.5v-280c0-17.92 14.58-32.5 32.5-32.5h417c17.921 0 32.5 14.58 32.5 32.5z"/><path d="m464.5 148.5c-17.921 0-32.5-14.58-32.5-32.5 0-4.142-3.357-7.5-7.5-7.5h-53.5c-4.143 0-7.5 3.358-7.5 7.5s3.357 7.5 7.5 7.5h46.592c3.217 20.197 19.211 36.191 39.408 39.409v186.183c-20.197 3.217-36.191 19.211-39.408 39.409h-323.183c-3.218-20.198-19.212-36.192-39.409-39.41v-186.182c20.197-3.217 36.191-19.211 39.409-39.409h246.591c4.143 0 7.5-3.358 7.5-7.5s-3.357-7.5-7.5-7.5h-253.5c-4.142 0-7.5 3.358-7.5 7.5 0 17.92-14.58 32.5-32.5 32.5-4.142 0-7.5 3.358-7.5 7.5v200c0 4.142 3.358 7.5 7.5 7.5 17.92 0 32.5 14.58 32.5 32.5 0 4.142 3.358 7.5 7.5 7.5h337c4.143 0 7.5-3.358 7.5-7.5 0-17.92 14.579-32.5 32.5-32.5 4.143 0 7.5-3.358 7.5-7.5v-200c0-4.142-3.357-7.5-7.5-7.5z"/><path d="m190.657 332.07c-2.459 3.333-1.75 8.029 1.583 10.488 18.57 13.7 40.617 20.942 63.76 20.942 59.275 0 107.5-48.224 107.5-107.5s-48.225-107.5-107.5-107.5c-59.276 0-107.5 48.224-107.5 107.5 0 23.142 7.242 45.19 20.942 63.761 2.458 3.333 7.154 4.042 10.488 1.583 3.333-2.459 4.042-7.154 1.583-10.488-11.784-15.974-18.013-34.942-18.013-54.856 0-51.005 41.495-92.5 92.5-92.5s92.5 41.495 92.5 92.5-41.495 92.5-92.5 92.5c-19.914 0-38.883-6.229-54.855-18.013-3.333-2.459-8.03-1.751-10.488 1.583z"/><path d="m291.95 199.999c-3.455-2.286-8.108-1.339-10.394 2.115l-25.435 38.431-25.684-38.693c-2.291-3.452-6.945-4.392-10.396-2.101s-4.392 6.945-2.101 10.396l27.193 40.966h-20.879c-4.142 0-7.5 3.358-7.5 7.5s3.358 7.5 7.5 7.5h24.343l-.034 15h-24.309c-4.142 0-7.5 3.358-7.5 7.5s3.358 7.5 7.5 7.5h24.275l-.023 9.869c-.009 4.142 3.341 7.508 7.483 7.517h.018c4.134 0 7.49-3.347 7.499-7.483l.023-9.903h24.216c4.143 0 7.5-3.358 7.5-7.5s-3.357-7.5-7.5-7.5h-24.182l.035-15h24.147c4.143 0 7.5-3.358 7.5-7.5s-3.357-7.5-7.5-7.5h-20.631l26.95-40.721c2.287-3.454 1.34-8.107-2.114-10.393z"/><path d="m390.25 248.5h40c4.143 0 7.5-3.358 7.5-7.5s-3.357-7.5-7.5-7.5h-40c-4.143 0-7.5 3.358-7.5 7.5s3.357 7.5 7.5 7.5z"/><path d="m390.25 278.5h40c4.143 0 7.5-3.358 7.5-7.5s-3.357-7.5-7.5-7.5h-40c-4.143 0-7.5 3.358-7.5 7.5s3.357 7.5 7.5 7.5z"/><path d="m121.75 233.5h-40c-4.142 0-7.5 3.358-7.5 7.5s3.358 7.5 7.5 7.5h40c4.142 0 7.5-3.358 7.5-7.5s-3.358-7.5-7.5-7.5z"/><path d="m121.75 263.5h-40c-4.142 0-7.5 3.358-7.5 7.5s3.358 7.5 7.5 7.5h40c4.142 0 7.5-3.358 7.5-7.5s-3.358-7.5-7.5-7.5z"/></g></g></svg>