<svg id="Capa_1" enable-background="new 0 0 512 512" height="512" viewBox="0 0 512 512" width="512" xmlns="http://www.w3.org/2000/svg"><g><g><ellipse cx="256" cy="304.5" fill="#ff9b87" rx="230" ry="200"/></g><g><path d="m126 304.5c0-95.524 77.019-175.393 180-195.246-16.099-3.104-32.827-4.754-50-4.754-127.026 0-230 89.543-230 200s102.974 200 230 200c17.173 0 33.901-1.65 50-4.754-102.981-19.853-180-99.722-180-195.246z" fill="#ff8870"/></g><g><path d="m340.346 78.861c4.963-13.399 4.13-26.157-3.538-33.824-6.008-6.008-15.138-7.821-25.255-5.936-12.585 2.344-25.099-3.735-31.519-14.811-5.985-10.328-14.538-16.79-24.034-16.79s-18.049 6.462-24.034 16.789c-6.42 11.076-18.934 17.156-31.519 14.811-10.116-1.884-19.247-.071-25.255 5.936-7.668 7.668-8.501 20.425-3.538 33.824 0 0 20.297 45.639 84.346 45.639s84.346-45.638 84.346-45.638z" fill="#ff8870"/></g><g><circle cx="256" cy="321.154" fill="#ffd883" r="130"/></g><g><path d="m236 431.154c0-11.046 8.954-20 20-20v-180c-11.046 0-20-8.954-20-20s8.954-20 20-20c-71.797 0-130 58.203-130 130s58.203 130 130 130c-11.046 0-20-8.954-20-20z" fill="#ffa759"/></g><g><circle cx="256" cy="321.154" fill="#ffff9c" r="90"/></g><g><path d="m288.929 328.225-25.858 25.858c-3.905 3.905-10.237 3.905-14.142 0l-25.858-25.858c-3.905-3.905-3.905-10.237 0-14.142l25.858-25.858c3.905-3.905 10.237-3.905 14.142 0l25.858 25.858c3.905 3.905 3.905 10.237 0 14.142z" fill="#ff9b87"/></g><g><g><path d="m256 153.851c-35.344 0-66.728-8.34-93.28-24.79-9.39-5.817-12.286-18.145-6.469-27.535s18.143-12.286 27.535-6.469c20.129 12.471 44.426 18.793 72.214 18.793s52.085-6.323 72.214-18.793c9.39-5.815 21.717-2.921 27.535 6.469 5.817 9.39 2.921 21.717-6.469 27.535-26.552 16.45-57.936 24.79-93.28 24.79z" fill="#f7f7f7"/></g></g><g><path d="m236 133.851c0-11.046 8.954-20 20-20-27.788 0-52.085-6.323-72.214-18.793-9.393-5.816-21.718-2.921-27.535 6.469s-2.921 21.717 6.469 27.535c26.553 16.449 57.937 24.79 93.28 24.79-11.046-.001-20-8.955-20-20.001z" fill="#f0f0f0"/></g><g><path d="m456.006 192.528c-22.596-30.754-53.97-55.683-90.987-72.411 2.241-7.323 1.445-15.535-2.895-22.541-3.925-6.336-10.026-10.515-16.746-12.185 1.178-2.065 1.764-3.356 1.82-3.483.065-.146.125-.293.181-.443 6.171-16.662 4.202-32.263-5.268-41.732-7.586-7.587-18.928-10.43-31.932-8.007-9.263 1.726-18.773-2.774-23.656-11.199-7.562-13.045-18.687-20.527-30.523-20.527s-22.961 7.482-30.522 20.527c-4.883 8.425-14.385 12.927-23.658 11.199-13.004-2.424-24.346.42-31.931 8.006-9.47 9.47-11.438 25.071-5.268 41.733.056.149.115.297.181.443.057.127.643 1.418 1.82 3.483-6.719 1.67-12.821 5.849-16.747 12.185-4.336 7-5.134 15.205-2.9 22.523-36.81 16.632-68.03 41.385-90.612 71.928-24.77 33.503-37.863 72.395-37.863 112.473 0 55.625 24.84 107.86 69.944 147.081 44.806 38.962 104.312 60.419 167.556 60.419s122.75-21.457 167.556-60.419c45.104-39.221 69.944-91.456 69.944-147.081 0-39.867-12.965-78.586-37.494-111.972zm-293.379-87.051c3.629-5.857 11.35-7.671 17.209-4.043 17.39 10.773 37.747 17.249 60.509 19.246 4.116.358 7.765-2.69 8.127-6.815.361-4.126-2.689-7.765-6.816-8.127-20.401-1.791-38.543-7.528-53.921-17.056-.237-.147-.479-.281-.718-.42-5.36-6.224-7.967-11.333-8.432-12.288-3.965-10.899-3.256-20.466 1.912-25.634 5.374-5.374 13.945-4.729 18.576-3.866 15.497 2.886 31.321-4.517 39.382-18.423 4.807-8.295 11.201-13.051 17.545-13.051s12.738 4.756 17.546 13.05c8.061 13.906 23.888 21.311 39.381 18.423 4.633-.862 13.203-1.508 18.577 3.867 5.167 5.167 5.876 14.731 1.915 25.627-.493 1.014-3.101 6.102-8.436 12.294-.24.139-.482.274-.72.421-15.376 9.526-33.518 15.264-53.919 17.055-4.127.362-7.178 4-6.816 8.127.363 4.126 4.002 7.18 8.127 6.815 22.762-1.998 43.119-8.473 60.508-19.245 5.857-3.63 13.58-1.816 17.21 4.043 1.759 2.838 2.307 6.191 1.543 9.441s-2.747 6.009-5.586 7.768c-25.348 15.703-55.403 23.665-89.33 23.665s-63.982-7.962-89.33-23.665c-2.839-1.759-4.822-4.517-5.586-7.768s-.216-6.603 1.543-9.441zm93.373 391.523c-122.687 0-222.5-86.355-222.5-192.5 0-72.097 47.624-138.997 121.742-171.66 1.089.943 2.264 1.815 3.527 2.598 27.758 17.195 60.471 25.914 97.23 25.914s69.473-8.719 97.23-25.914c1.265-.784 2.44-1.656 3.531-2.601 75.192 33.064 121.74 98.545 121.74 171.663 0 106.145-99.813 192.5-222.5 192.5z"/><path d="m256 183.654c-75.817 0-137.5 61.682-137.5 137.5s61.683 137.5 137.5 137.5 137.5-61.682 137.5-137.5-61.683-137.5-137.5-137.5zm0 260c-67.547 0-122.5-54.953-122.5-122.5s54.953-122.5 122.5-122.5 122.5 54.953 122.5 122.5-54.953 122.5-122.5 122.5z"/><path d="m256 223.654c-53.762 0-97.5 43.738-97.5 97.5 0 20.371 6.244 39.899 18.059 56.474 2.404 3.372 7.085 4.158 10.461 1.754 3.373-2.404 4.158-7.088 1.754-10.461-9.992-14.018-15.273-30.535-15.273-47.767 0-45.491 37.01-82.5 82.5-82.5s82.5 37.009 82.5 82.5-37.01 82.5-82.5 82.5c-17.231 0-33.749-5.281-47.767-15.273-3.375-2.406-8.058-1.619-10.461 1.754-2.404 3.373-1.619 8.056 1.754 10.46 16.575 11.814 36.104 18.059 56.474 18.059 53.762 0 97.5-43.738 97.5-97.5s-43.739-97.5-97.501-97.5z"/><path d="m256 364.504c4.481 0 8.963-1.706 12.375-5.118l25.857-25.858c3.305-3.305 5.125-7.7 5.125-12.374s-1.82-9.069-5.125-12.375l-25.858-25.858c-6.822-6.822-17.925-6.823-24.749 0l-25.857 25.858c-3.305 3.305-5.125 7.7-5.125 12.375s1.82 9.069 5.125 12.374l25.857 25.858c3.412 3.412 7.894 5.118 12.375 5.118zm-28.357-43.35c0-.387.095-1.131.732-1.768l25.856-25.857c.488-.488 1.128-.731 1.769-.731s1.28.244 1.768.731l25.857 25.858c.638.637.732 1.381.732 1.768s-.095 1.13-.731 1.767c0 0 0 0-.001 0l-25.857 25.858c-.975.975-2.561.975-3.535 0l-25.858-25.858c-.638-.637-.732-1.381-.732-1.768z"/></g></g></svg>