<svg id="Capa_1" enable-background="new 0 0 512 512" height="512" viewBox="0 0 512 512" width="512" xmlns="http://www.w3.org/2000/svg"><g><g><path d="m136 7.5h240v497h-240z" fill="#ff6c52"/></g><g><path d="m74.907 22.345c-5.567 6.872-8.907 15.622-8.907 25.155v417c0 22.091 17.909 40 40 40h300c22.091 0 40-17.909 40-40v-417c0-9.533-3.34-18.283-8.907-25.155z" fill="#ff8870"/></g><g><path d="m243.077 241.577v-219.232h-168.17c-5.567 6.872-8.907 15.622-8.907 25.155v417c0 22.091 17.909 40 40 40h300c22.091 0 40-17.909 40-40v-20c-112.071 0-202.923-90.852-202.923-202.923z" fill="#ff6c52"/></g><g><path d="m136 7.5h240v497h-240z" fill="#ff6c52"/></g><g><path d="m243.077 241.577v-234.077h-107.077v497h240v-72.4c-77.579-28.512-132.923-103.053-132.923-190.523z" fill="#ff583e"/></g><g><circle cx="256" cy="314.5" fill="#ffd883" r="130"/></g><g><path d="m236 424.5c0-11.046 8.954-20 20-20v-180c-11.046 0-20-8.954-20-20s8.954-20 20-20c-71.797 0-130 58.203-130 130s58.203 130 130 130c-11.046 0-20-8.954-20-20z" fill="#ffa759"/></g><g><circle cx="256" cy="314.5" fill="#ffff9c" r="90"/></g><g><path d="m288.929 321.571-25.858 25.858c-3.905 3.905-10.237 3.905-14.142 0l-25.858-25.858c-3.905-3.905-3.905-10.237 0-14.142l25.858-25.858c3.905-3.905 10.237-3.905 14.142 0l25.858 25.858c3.905 3.905 3.905 10.237 0 14.142z" fill="#ff6c52"/></g><g><path d="m406 7.5h-300c-12.558 0-23.76 5.792-31.093 14.845l34.508 68.994c10.165 20.323 30.939 33.161 53.662 33.161h185.846c22.724 0 43.498-12.837 53.662-33.161l34.508-68.994c-7.333-9.053-18.535-14.845-31.093-14.845z" fill="#ff9b87"/></g><g><path d="m189.415 91.339-41.862-83.839h-41.553c-12.558 0-23.76 5.792-31.093 14.845l34.508 68.994c10.165 20.323 30.939 33.161 53.662 33.161h80c-22.724 0-43.498-12.837-53.662-33.161z" fill="#ff8870"/></g><g><path d="m256 217c-23.16 0-45.625 8.294-63.255 23.355-17.428 14.889-29.109 35.451-32.891 57.897-.688 4.084 2.064 7.954 6.149 8.642 4.083.686 7.954-2.065 8.642-6.15 6.711-39.832 40.926-68.744 81.355-68.744 45.49 0 82.5 37.009 82.5 82.5s-37.01 82.5-82.5 82.5c-40.429 0-74.644-28.912-81.354-68.746-.688-4.084-4.547-6.836-8.642-6.15-4.085.688-6.838 4.558-6.149 8.642 3.781 22.447 15.463 43.009 32.891 57.898 17.629 15.062 40.094 23.356 63.254 23.356 53.762 0 97.5-43.738 97.5-97.5s-43.738-97.5-97.5-97.5z"/><path d="m256 357.85c4.481 0 8.963-1.706 12.375-5.118l25.857-25.857c6.823-6.823 6.823-17.926 0-24.749l-25.857-25.857c-6.824-6.823-17.926-6.823-24.75 0l-25.857 25.857c-6.823 6.823-6.823 17.926 0 24.749l25.857 25.857c3.412 3.412 7.894 5.118 12.375 5.118zm-27.625-45.118 25.857-25.857c.487-.487 1.127-.731 1.768-.731s1.28.244 1.768.731l25.857 25.857c.976.975.976 2.561 0 3.536l-25.857 25.857c-.975.975-2.561.975-3.535 0l-25.857-25.857c-.977-.975-.977-2.561-.001-3.536z"/><path d="m406 0h-300s-47.5-2.905-47.5 47.5v417c0 26.191 21.309 47.5 47.5 47.5h300c26.191 0 47.5-21.309 47.5-47.5v-417s1.406-47.5-47.5-47.5zm22.05 23.654-32.175 64.33c-8.949 17.898-26.94 29.016-46.952 29.016h-16.519c-4.143 0-7.5 3.358-7.5 7.5s3.357 7.5 7.5 7.5h16.519c6.761 0 13.339-.996 19.577-2.869v106.404c-24.904-35.375-66.046-58.535-112.5-58.535s-87.596 23.16-112.5 58.535v-106.404c6.238 1.873 12.816 2.869 19.577 2.869h139.327c4.143 0 7.5-3.358 7.5-7.5s-3.357-7.5-7.5-7.5h-139.327c-20.012 0-38.003-11.118-46.954-29.016l-32.175-64.33s4.721-8.654 22.052-8.654h300c0 0 13.15-.246 22.05 8.654zm-49.55 290.846c0 67.547-54.953 122.5-122.5 122.5s-122.5-54.953-122.5-122.5 54.953-122.5 122.5-122.5 122.5 54.953 122.5 122.5zm-122.5 137.5c46.454 0 87.596-23.16 112.5-58.535v103.535h-225v-103.535c24.904 35.375 66.046 58.535 112.5 58.535zm-182.5 12.5v-417c0-3.041.429-5.982 1.214-8.775l27.993 55.969c5.926 11.847 14.937 21.376 25.793 27.841v140.505c-6.442 15.904-10 33.273-10 51.46 0 18.188 3.558 35.558 10.001 51.462 0 .005-.001.011-.001.016v131.022h-22.5c-17.921 0-32.5-14.58-32.5-32.5zm365 0c0 17.92-14.579 32.5-32.5 32.5h-22.5v-131.04c6.442-15.904 10-33.273 10-51.46s-3.558-35.556-10-51.46v-140.505c10.856-6.465 19.867-15.994 25.793-27.841l27.993-55.969c.785 2.793 1.214 5.734 1.214 8.775z"/></g><g><g><g><ellipse cx="176.443" cy="76.563" fill="#fff" rx="29.355" ry="23.377"/></g><g><ellipse cx="335.557" cy="76.563" fill="#fff" rx="29.355" ry="23.377"/></g></g><g><path d="m193.551 61.56c-4.143 0-7.5-3.358-7.5-7.5v-12c0-4.142 3.357-7.5 7.5-7.5s7.5 3.358 7.5 7.5v12c0 4.142-3.358 7.5-7.5 7.5z"/></g><g><path d="m318.448 61.56c-4.143 0-7.5-3.358-7.5-7.5v-12c0-4.142 3.357-7.5 7.5-7.5s7.5 3.358 7.5 7.5v12c0 4.142-3.357 7.5-7.5 7.5z"/></g><g><path d="m256 68.704c-8.478 0-16.54-3.672-22.118-10.074-2.722-3.123-2.396-7.86.728-10.582 3.122-2.721 7.86-2.396 10.581.727 2.729 3.132 6.669 4.928 10.81 4.928s8.08-1.796 10.81-4.928c2.721-3.124 7.458-3.448 10.581-.727s3.449 7.458.728 10.582c-5.58 6.402-13.642 10.074-22.12 10.074z"/></g></g></g></svg>