<svg id="Capa_1" enable-background="new 0 0 511.993 511.993" height="512" viewBox="0 0 511.993 511.993" width="512" xmlns="http://www.w3.org/2000/svg"><g><circle cx="255.954" cy="196.283" fill="#ffd883" r="131.606"/><circle cx="293.733" cy="134.506" fill="#ffee6e" r="30.361"/><path d="m185.07 196.283c0-62.234 43.199-114.372 101.245-128.08-9.747-2.302-19.911-3.526-30.361-3.526-72.684 0-131.606 58.922-131.606 131.606s58.922 131.606 131.606 131.606c10.45 0 20.614-1.224 30.361-3.526-58.046-13.708-101.245-65.846-101.245-128.08z" fill="#ffa759"/><path d="m481.324 114.864c-8.776 0-16.799 4.958-20.723 12.808-20.885 41.77-63.577 68.155-110.276 68.155h-188.656c-46.7 0-89.392-26.385-110.276-68.155-3.925-7.849-11.947-12.808-20.723-12.808-13.907 0-24.68 12.165-22.999 25.97l11.814 97.021c4.896 40.208 19.636 77.051 41.61 108.258l84.559 39.738h220.686l84.559-39.738c21.974-31.207 36.714-68.05 41.61-108.258l11.814-97.021c1.681-13.805-9.093-25.97-22.999-25.97z" fill="#ffee6e"/><path d="m61.093 346.113 84.559 39.738h66.1c-76.03-54.796-87.26-151.22-87.26-195.761v-.011c-31.313-9.907-57.948-32.102-73.101-62.407-3.925-7.849-11.947-12.808-20.723-12.808-13.907 0-24.68 12.165-22.999 25.97l11.814 97.021c4.896 40.208 19.636 77.051 41.61 108.258z" fill="#ffd883"/><path d="m450.899 346.113h-389.806c43.371 61.593 114.958 101.203 194.903 101.203 79.945 0 151.532-39.61 194.903-101.203z" fill="#ffd883"/><path d="m171.498 346.113h-110.405c43.371 61.593 114.958 101.203 194.903 101.203 34.975 0 68.346-7.592 98.462-21.277-93.722-.001-149.731-35.329-182.96-79.926z" fill="#ffa759"/><path d="m504.283 117.7c-5.817-6.568-14.186-10.336-22.96-10.336-11.691 0-22.203 6.496-27.431 16.954-12.879 25.757-34.248 45.142-59.803 55.512-8.162-69.476-67.162-122.653-138.135-122.653-31.645 0-61.462 10.354-86.23 29.944-3.249 2.569-3.799 7.286-1.229 10.535s7.286 3.8 10.535 1.229c22.092-17.473 48.692-26.709 76.925-26.709 64.352 0 117.67 48.996 123.559 112.456-9.381 2.416-19.168 3.693-29.189 3.693h-188.656c-10.051 0-19.867-1.285-29.273-3.715 2.263-24.387 11.56-47.243 27.073-66.391 2.607-3.218 2.112-7.941-1.106-10.549-3.219-2.607-7.941-2.113-10.549 1.106-16.666 20.572-26.918 44.964-29.979 71.024-25.525-10.376-46.868-29.748-59.735-55.482-5.229-10.458-15.74-16.954-27.432-16.954-8.774 0-17.143 3.767-22.959 10.336-5.817 6.568-8.545 15.331-7.484 24.041l11.813 97.021c14.998 123.171 119.877 216.054 243.958 216.054s228.96-92.883 243.958-216.054l11.813-97.021c1.062-8.71-1.666-17.472-7.484-24.041zm-7.405 22.227-11.813 97.021c-4.574 37.561-18.057 72.116-38.161 101.665h-100.096c-4.142 0-7.5 3.358-7.5 7.5s3.358 7.5 7.5 7.5h88.973c-42.563 52.826-107.719 86.203-179.784 86.203s-137.221-33.377-179.784-86.203h240.235c4.142 0 7.5-3.358 7.5-7.5s-3.358-7.5-7.5-7.5h-251.359c-20.104-29.548-33.587-64.104-38.161-101.665l-11.813-97.021c-.55-4.515.808-8.877 3.824-12.282s7.182-5.281 11.731-5.281c5.974 0 11.344 3.319 14.015 8.662 10.87 21.741 27.545 39.987 48.223 52.767 20.677 12.779 44.455 19.534 68.762 19.534h188.655c24.307 0 48.084-6.755 68.762-19.534 20.677-12.779 37.353-31.025 48.223-52.767 2.671-5.343 8.042-8.662 14.016-8.662 4.549 0 8.714 1.875 11.73 5.281 3.014 3.405 4.372 7.767 3.822 12.282z"/><g><g><g><ellipse cx="176.352" cy="281.06" fill="#ff9b87" rx="29.387" ry="23.403"/></g><g><ellipse cx="335.641" cy="281.06" fill="#ff9b87" rx="29.387" ry="23.403"/></g><g><path d="m279.69 263.079c0-14.643-10.608-16.019-23.693-16.019-13.086 0-23.694 1.376-23.694 16.019s10.608 26.513 23.694 26.513c13.085 0 23.693-11.87 23.693-26.513z" fill="#595959"/></g></g><g><path d="m181.264 260.62c-4.142 0-7.5-3.358-7.5-7.5v-12c0-4.142 3.358-7.5 7.5-7.5s7.5 3.358 7.5 7.5v12c0 4.142-3.358 7.5-7.5 7.5z"/></g><g><path d="m255.996 297.092c-17.2 0-31.193-15.258-31.193-34.013 0-23.519 21.859-23.519 31.193-23.519s31.193 0 31.193 23.519c.001 18.755-13.993 34.013-31.193 34.013zm0-42.531c-15.539 0-16.193 2.611-16.193 8.519 0 10.484 7.264 19.013 16.193 19.013s16.193-8.529 16.193-19.013c.001-5.908-.654-8.519-16.193-8.519z"/></g><g><path d="m330.728 260.62c-4.142 0-7.5-3.358-7.5-7.5v-12c0-4.142 3.358-7.5 7.5-7.5s7.5 3.358 7.5 7.5v12c0 4.142-3.358 7.5-7.5 7.5z"/></g></g></g></svg>