<svg id="Capa_1" enable-background="new 0 0 512 512" height="512" viewBox="0 0 512 512" width="512" xmlns="http://www.w3.org/2000/svg"><g><g><path d="m502.536 224.611c-15.43-122.424-119.926-217.111-246.536-217.111s-231.106 94.687-246.536 217.111c-2.274 18.039 7.876 35.354 24.741 42.148l66.879 26.945h309.833l66.879-26.945c16.864-6.795 27.014-24.109 24.74-42.148z" fill="#ff9b87"/></g><g><path d="m254.873 293.704c-117.924-64.427-158.731-236.744-85.354-270.726-85.188 31.628-148.332 108.618-160.055 201.633-2.274 18.039 7.876 35.354 24.741 42.148l66.879 26.945z" fill="#ff8870"/></g><g><path d="m310.356 293.704 161.274-161.274c-28.638-49.865-74.069-88.847-128.582-109.24l-72.484 270.514z" fill="#ff6c52"/></g><g><path d="m242.059 293.704-72.54-270.726c-54.621 20.28-100.17 59.208-128.92 109.056l161.67 161.67z" fill="#ff6c52"/></g><g><path d="m169.519 22.978c-54.621 20.28-100.17 59.208-128.92 109.056l161.67 161.67h39.792l-2.468-9.21c-106.053-70.268-140.187-229.046-70.074-261.516z" fill="#ff583e"/></g><g><path d="m256 398.06s-31.782 26.866-38.687 84.141c-1.431 11.869 7.915 22.299 19.87 22.299h37.632c11.955 0 21.301-10.43 19.871-22.299-6.904-57.275-38.686-84.141-38.686-84.141z" fill="#ffee6e"/></g><g><path d="m254.482 482.201c3.214-26.666 11.821-46.732 20.103-60.572-9.507-15.888-18.585-23.569-18.585-23.569s-31.782 26.866-38.687 84.141c-1.431 11.869 7.915 22.299 19.87 22.299h37.168c-11.954 0-21.3-10.43-19.869-22.299z" fill="#ffd883"/></g><g><circle cx="256" cy="398.06" fill="#f7f7f7" r="30"/></g><g><path d="m263.153 398.06c0-9.551 4.469-18.053 11.423-23.547-5.11-4.037-11.559-6.453-18.577-6.453-16.569 0-30 13.431-30 30s13.431 30 30 30c7.017 0 13.467-2.416 18.577-6.453-6.954-5.494-11.423-13.996-11.423-23.547z" fill="#e4e4e4"/></g><g><path d="m101.084 293.704 134.916 54.356h40l134.916-54.356c-42.483-33.918-96.327-54.205-154.916-54.205s-112.433 20.287-154.916 54.205z" fill="#ffee6e"/></g><g><path d="m350.46 318.06c-64.833 0-117.247-30.107-154.382-71.273-35.228 8.727-67.493 24.96-94.995 46.916l134.917 54.357h40z" fill="#ffd883"/></g><g><path d="m161.54 318.06v30c0 16.569 13.431 30 30 30h128.92c16.569 0 30-13.431 30-30v-30z" fill="#848484"/></g><g><path d="m203.54 348.06v-30h-42v30c0 16.569 13.431 30 30 30h42c-16.569 0-30-13.431-30-30z" fill="#6e6e6e"/></g><g><path d="m509.978 223.672c-16.073-127.514-125.26-223.672-253.978-223.672s-237.905 96.158-253.978 223.672c-2.698 21.409 9.383 41.987 29.379 50.043l122.638 49.41v24.935c0 20.678 16.822 37.5 37.5 37.5h29.112c-1.407 3.981-2.151 8.201-2.151 12.5 0 9.563 3.603 18.297 9.517 24.928-9.474 17.418-15.581 37.002-18.15 58.315-.935 7.755 1.509 15.563 6.705 21.423 5.226 5.894 12.738 9.273 20.612 9.273h37.633c7.874 0 15.386-3.38 20.612-9.273 5.196-5.86 7.64-13.668 6.705-21.423-2.568-21.309-8.675-40.895-18.149-58.316 5.913-6.631 9.517-15.365 9.517-24.928 0-4.294-.745-8.516-2.153-12.5h29.113c20.678 0 37.5-16.822 37.5-37.5v-24.935l122.638-49.41c19.994-8.055 32.076-28.633 29.378-50.042zm-47.763-92.433-116.739 116.738c-16.542-6.173-33.722-10.591-51.359-13.195l53.98-201.458c47.444 19.683 87.528 54.126 114.118 97.915zm-113.206 179.321h-186.018l-46.807-18.858c40.927-29.28 89.004-44.702 139.816-44.702 50.819 0 98.891 15.421 139.816 44.702zm-15.012-282.567-54.936 205.025c-7.618-.671-15.309-1.018-23.061-1.018-7.545 0-15.032.326-22.452.962l-54.974-205.167c24.389-8.299 50.45-12.795 77.426-12.795 27.187 0 53.443 4.569 77.997 12.993zm-169.535 5.093 54.021 201.608c-17.685 2.569-34.912 6.962-51.502 13.117l-116.958-116.959c26.695-43.777 66.89-78.18 114.439-97.766zm-147.558 192.462c3.665-29.073 12.485-56.407 25.451-81.151l109.562 109.563c-18.325 8.185-35.755 18.613-52.039 31.173l-62.871-25.33c-13.683-5.513-21.949-19.599-20.103-34.255zm267.301 267.227c-2.381 2.685-5.803 4.225-9.388 4.225h-37.633c-3.585 0-7.007-1.54-9.388-4.225-2.386-2.69-3.464-6.127-3.036-9.676 2.247-18.641 7.426-35.779 15.414-51.053 4.812 2.25 10.173 3.514 15.826 3.514 5.652 0 11.012-1.264 15.823-3.513 7.989 15.277 13.171 32.414 15.417 51.052.428 3.549-.65 6.985-3.035 9.676zm-5.705-94.715c0 12.407-10.093 22.5-22.5 22.5s-22.5-10.093-22.5-22.5c0-4.484 1.353-8.819 3.817-12.5h37.367c2.464 3.681 3.816 8.022 3.816 12.5zm64.46-50c0 12.407-10.093 22.5-22.5 22.5h-128.92c-12.407 0-22.5-10.093-22.5-22.5v-22.5h173.92zm132.033-88.258-62.87 25.33c-16.156-12.463-33.442-22.823-51.61-30.978l109.346-109.346c12.849 24.635 21.592 51.828 25.236 80.741 1.847 14.655-6.419 28.741-20.102 34.253z"/><path d="m206.36 270.709c-3.124-2.718-7.862-2.389-10.581.736-1.267 1.456-3.095 2.292-5.015 2.294-1.888.003-3.75-.831-5.02-2.284-2.723-3.12-7.461-3.441-10.582-.717-3.12 2.724-3.441 7.462-.717 10.582 4.117 4.716 10.062 7.419 16.313 7.419h.02c6.257-.006 12.205-2.722 16.317-7.449 2.72-3.125 2.39-7.862-.735-10.581z"/><path d="m336.77 270.586c-3.124-2.717-7.861-2.39-10.581.735-1.267 1.457-3.095 2.292-5.016 2.294h-.006c-1.918 0-3.746-.833-5.014-2.284-2.724-3.121-7.461-3.441-10.582-.717-3.12 2.724-3.441 7.462-.717 10.582 4.117 4.716 10.062 7.419 16.312 7.419h.02c6.257-.006 12.205-2.721 16.318-7.449 2.72-3.124 2.391-7.861-.734-10.58z"/><path d="m277.392 279.608c-3.123-2.722-7.86-2.398-10.582.726-2.73 3.132-6.67 4.928-10.811 4.928s-8.081-1.796-10.811-4.928c-2.722-3.123-7.46-3.448-10.582-.726-3.123 2.722-3.448 7.459-.726 10.582 5.579 6.401 13.641 10.073 22.118 10.073s16.539-3.671 22.118-10.073c2.724-3.123 2.399-7.86-.724-10.582z"/></g></g></svg>