<svg id="Capa_1" enable-background="new 0 0 512 512" height="512" viewBox="0 0 512 512" width="512" xmlns="http://www.w3.org/2000/svg"><g><g><path d="m256 398.06s-31.782 26.866-38.687 84.141c-1.431 11.869 7.915 22.299 19.87 22.299h37.632c11.955 0 21.301-10.43 19.871-22.299-6.904-57.275-38.686-84.141-38.686-84.141z" fill="#ffee6e"/></g><g><path d="m254.482 482.201c3.214-26.666 11.821-46.732 20.103-60.572-9.507-15.888-18.585-23.569-18.585-23.569s-31.782 26.866-38.687 84.141c-1.431 11.869 7.915 22.299 19.87 22.299h37.168c-11.954 0-21.3-10.43-19.869-22.299z" fill="#ffd883"/></g><g><circle cx="256" cy="398.06" fill="#f7f7f7" r="30"/></g><g><path d="m263.153 398.06c0-9.551 4.469-18.053 11.423-23.547-5.11-4.037-11.559-6.453-18.577-6.453-16.569 0-30 13.431-30 30s13.431 30 30 30c7.017 0 13.467-2.416 18.577-6.453-6.954-5.494-11.423-13.996-11.423-23.547z" fill="#e4e4e4"/></g><g><path d="m256 352.78c-121.994 0-220.889-71.634-220.889-160s98.895-160 220.889-160z" fill="#ff583e"/></g><g><path d="m256 32.78c121.994 0 220.889 71.634 220.889 160s-98.895 160-220.889 160z" fill="#ff6c52"/></g><g><ellipse cx="256" cy="192.78" fill="#ff9b87" rx="140" ry="160"/></g><g><path d="m190.766 192.78c0-88.366 29.206-160 65.234-160-77.32 0-140 71.634-140 160s62.68 160 140 160c-36.028 0-65.234-71.634-65.234-160z" fill="#ff8870"/></g><g><path d="m393.411 67.5h-274.822v-30c0-16.569 13.431-30 30-30h214.823c16.569 0 30 13.431 30 30v30z" fill="#ffee6e"/></g><g><path d="m393.411 318.06h-274.822v30c0 16.569 13.431 30 30 30h214.823c16.569 0 30-13.431 30-30v-30z" fill="#ffee6e"/></g><g><path d="m228.589 7.5h-80c-16.569 0-30 13.431-30 30v30h80v-30c0-16.569 13.431-30 30-30z" fill="#ffd883"/></g><g><path d="m198.589 348.06v-30h-80v30c0 16.569 13.431 30 30 30h80c-16.569 0-30-13.431-30-30z" fill="#ffd883"/></g><g><g><g><ellipse cx="172.932" cy="195.999" fill="#fff" rx="30.65" ry="24.408"/></g><g><ellipse cx="339.068" cy="195.842" fill="#fff" rx="30.65" ry="24.408"/></g></g><g><path d="m190.758 177.647c-6.251 0-12.196-2.704-16.312-7.419-2.724-3.12-2.403-7.858.718-10.582 3.119-2.724 7.858-2.403 10.582.718 1.267 1.452 3.094 2.284 5.013 2.284h.006c1.92-.002 3.748-.838 5.014-2.293 2.719-3.126 7.456-3.455 10.581-.737s3.456 7.456.737 10.581c-4.113 4.729-10.061 7.444-16.319 7.45-.007-.002-.013-.002-.02-.002z"/></g><g><path d="m321.168 177.524c-6.253 0-12.197-2.704-16.313-7.42-2.724-3.121-2.402-7.858.719-10.582 3.121-2.723 7.858-2.402 10.582.719 1.267 1.451 3.094 2.283 5.013 2.283h.006c1.92-.002 3.748-.838 5.014-2.293 2.72-3.126 7.459-3.454 10.581-.737 3.125 2.718 3.455 7.456.737 10.581-4.112 4.729-10.061 7.444-16.318 7.45-.008-.001-.015-.001-.021-.001z"/></g><g><path d="m256 189.17c-8.478 0-16.54-3.671-22.119-10.073-2.721-3.123-2.396-7.86.727-10.582 3.124-2.721 7.86-2.396 10.582.727 2.729 3.132 6.669 4.928 10.81 4.928s8.081-1.796 10.81-4.928c2.72-3.124 7.459-3.448 10.581-.727 3.123 2.721 3.449 7.458.728 10.582-5.579 6.402-13.64 10.073-22.119 10.073z"/></g></g><path d="m484.389 192.78c0-50.616-30.37-97.623-83.478-129.551v-25.729c0-20.678-16.822-37.5-37.5-37.5h-214.823c-20.678 0-37.5 16.822-37.5 37.5v25.73c-53.107 31.928-83.477 78.935-83.477 129.55s30.37 97.622 83.477 129.551v25.729c0 20.678 16.822 37.5 37.5 37.5h72.064c-1.407 3.982-2.152 8.203-2.152 12.5 0 9.563 3.603 18.297 9.517 24.929-9.474 17.419-15.581 37.002-18.15 58.315-.935 7.755 1.509 15.563 6.705 21.423 5.226 5.894 12.738 9.273 20.612 9.273h37.633c7.873 0 15.386-3.38 20.611-9.273 5.195-5.86 7.64-13.668 6.705-21.423-2.569-21.315-8.676-40.897-18.15-58.315 5.914-6.631 9.518-15.365 9.518-24.929 0-4.297-.745-8.518-2.152-12.5h25.499c4.143 0 7.5-3.358 7.5-7.5s-3.357-7.5-7.5-7.5h-168.26c-12.407 0-22.5-10.093-22.5-22.5v-22.5h259.823v22.5c0 12.407-10.094 22.5-22.5 22.5h-16.564c-4.143 0-7.5 3.358-7.5 7.5s3.357 7.5 7.5 7.5h16.564c20.678 0 37.5-16.822 37.5-37.5v-25.729c53.108-31.928 83.478-78.935 83.478-129.551zm-200.185 299.995c-2.381 2.685-5.803 4.225-9.388 4.225h-37.633c-3.585 0-7.007-1.54-9.388-4.225-2.386-2.69-3.464-6.127-3.036-9.676 2.247-18.641 7.427-35.779 15.415-51.053 4.812 2.25 10.172 3.514 15.825 3.514 5.654 0 11.016-1.265 15.829-3.516 7.988 15.273 13.165 32.411 15.412 51.054.428 3.55-.65 6.987-3.036 9.677zm-5.704-94.715c0 12.407-10.094 22.5-22.5 22.5-12.407 0-22.5-10.093-22.5-22.5 0-4.482 1.353-8.818 3.817-12.5h37.366c2.465 3.681 3.817 8.018 3.817 12.5zm-152.412-360.56c0-12.407 10.093-22.5 22.5-22.5h214.823c12.406 0 22.5 10.093 22.5 22.5v22.5h-259.823zm-83.477 155.28c0-45.77 28.421-88.601 78.032-117.78h30.497c-23.785 27.396-38.865 63.691-42.003 102.108-.337 4.128 2.736 7.749 6.864 8.086.208.017.414.025.619.025 3.865 0 7.146-2.969 7.467-6.89 3.277-40.113 20.653-77.612 47.779-103.33h168.261c30.765 29.13 48.372 71.902 48.372 117.78 0 45.868-17.609 88.651-48.372 117.78h-168.258c-27.133-25.722-44.517-63.254-47.785-103.368-.336-4.128-3.955-7.204-8.084-6.866-4.128.336-7.203 3.956-6.866 8.084 3.13 38.42 18.215 74.744 42.007 102.15h-30.497c-49.612-29.178-78.033-72.008-78.033-117.779zm348.746 117.78h-30.447c27.243-31.228 42.59-73.219 42.59-117.78 0-44.57-15.344-86.553-42.587-117.78h30.443c49.611 29.179 78.032 72.009 78.032 117.78.001 45.771-28.42 88.601-78.031 117.78z"/></g></svg>