<svg id="Capa_1" enable-background="new 0 0 512 512" height="512" viewBox="0 0 512 512" width="512" xmlns="http://www.w3.org/2000/svg"><g><g><path d="m7.5 399.916c0-20.525 102.114-95.366 179.493-95.366s120.507 95.366 120.507 95.366-43.129 95.366-120.507 95.366-179.493-74.841-179.493-95.366z" fill="#66df6b"/></g><g><path d="m307.5 399.916s-43.129-95.366-120.507-95.366c-16.885 0-34.949 3.565-52.872 9.351 21.627 115.463 85.977 175.349 85.977 175.349 56.468-20.949 87.402-89.334 87.402-89.334z" fill="#00d27f"/></g><g><path d="m504.5 399.916c0-20.525-102.114-95.366-179.493-95.366s-120.507 95.366-120.507 95.366 43.129 95.366 120.507 95.366 179.493-74.841 179.493-95.366z" fill="#92ef8e"/></g><g><g><path d="m274.036 183.856c-26.901 64.944-21.641 135.176 8.424 193.023 62.163-19.644 115.544-65.587 142.445-130.531 22.665-54.717 22.5-113.188 3.905-164.843-6.129-17.027-24.6-24.678-40.974-16.972-49.674 23.377-91.136 64.606-113.8 119.323z" fill="#ffa8ad"/></g></g><g><g><path d="m237.964 183.856c26.901 64.944 21.641 135.176-8.424 193.023-62.163-19.644-115.544-65.587-142.445-130.531-22.665-54.717-22.5-113.188-3.905-164.843 6.129-17.027 24.6-24.678 40.974-16.972 49.674 23.377 91.136 64.606 113.8 119.323z" fill="#ffa8ad"/></g></g><g><g><path d="m322.084 220.517c-49.706 49.706-71.724 116.604-66.084 181.553 64.949 5.64 131.848-16.378 181.554-66.084 41.879-41.879 64.103-95.962 66.691-150.8.853-18.076-13.284-32.213-31.36-31.36-54.84 2.588-108.923 24.812-150.801 66.691z" fill="#ffc6c2"/></g></g><g><g><path d="m189.916 220.517c49.706 49.706 71.724 116.604 66.084 181.553-64.949 5.64-131.848-16.378-181.554-66.084-41.879-41.879-64.103-95.962-66.691-150.8-.853-18.076 13.284-32.213 31.36-31.36 54.84 2.588 108.923 24.812 150.801 66.691z" fill="#ffc6c2"/></g></g><g><path d="m256 16.718c-47.766 0-122.499 131.166-122.499 230.56s122.499 154.792 122.499 154.792 122.499-55.399 122.499-154.793-74.733-230.559-122.499-230.559z" fill="#ffd7d1"/></g><g><g><g><ellipse cx="255.989" cy="265.129" fill="#595959" rx="13.712" ry="15.725"/></g></g><g><path d="m190.759 258.192c-6.251 0-12.195-2.703-16.313-7.418-2.725-3.12-2.403-7.858.716-10.582 3.119-2.725 7.856-2.404 10.583.716 1.268 1.452 3.095 2.285 5.014 2.285h.006c1.921-.002 3.749-.838 5.016-2.294 2.719-3.125 7.457-3.455 10.58-.736 3.126 2.719 3.455 7.456.736 10.581-4.112 4.728-10.06 7.443-16.317 7.449-.009-.001-.015-.001-.021-.001z"/></g><g><path d="m321.168 258.069c-6.253 0-12.197-2.704-16.313-7.42-2.724-3.121-2.402-7.858.719-10.582 3.122-2.723 7.859-2.402 10.582.719 1.267 1.451 3.094 2.283 5.013 2.283h.006c1.92-.002 3.748-.838 5.015-2.294 2.719-3.125 7.457-3.454 10.58-.736 3.126 2.719 3.455 7.456.736 10.581-4.112 4.729-10.061 7.443-16.317 7.449-.008 0-.015 0-.021 0z"/></g><g><path d="m255.994 288.354c-5.771 0-11.361-2.61-15.338-7.163-3.786-4.333-5.873-10.03-5.879-16.043-.012-12.806 9.494-23.234 21.19-23.245h.019c5.771 0 11.359 2.61 15.336 7.162 3.786 4.333 5.873 10.031 5.879 16.043.012 12.806-9.494 23.234-21.19 23.245-.005.001-.011.001-.017.001zm-.008-31.45c-.002 0-.003 0-.005 0-3.367.003-6.208 3.773-6.204 8.231.002 2.353.795 4.608 2.175 6.188.663.759 2.069 2.031 4.041 2.031h.004c3.367-.003 6.208-3.773 6.204-8.231-.002-2.353-.795-4.609-2.175-6.188-.663-.759-2.069-2.031-4.04-2.031z"/></g></g><path d="m446.57 337.491c39.382-41.178 62.475-94.926 65.166-151.951.514-10.878-3.311-20.976-10.769-28.435-7.459-7.458-17.552-11.275-28.437-10.771-7.673.362-15.318 1.124-22.91 2.232-1.047-23.729-5.656-47.104-13.754-69.602-3.688-10.247-11.086-18.113-20.831-22.149-9.745-4.038-20.538-3.707-30.393.931-16.3 7.67-31.649 17.165-45.746 28.275-25.234-44.589-56.476-76.803-82.896-76.803-35.159 0-69.179 52.812-82.173 75.519-.244.426-.481.858-.724 1.285-14.096-11.109-29.447-20.604-45.746-28.275-9.854-4.637-20.648-4.968-30.393-.931s-17.143 11.902-20.831 22.149c-8.098 22.493-12.706 45.871-13.753 69.603-7.592-1.109-15.238-1.871-22.911-2.233-10.881-.523-20.979 3.311-28.437 10.771-7.458 7.458-11.282 17.557-10.769 28.435 2.691 57.025 25.784 110.773 65.166 151.951-28.88 17.448-65.429 45.277-65.429 62.424 0 18.081 40.449 47.353 64.35 61.799 43.181 26.099 87.882 41.068 122.643 41.068 24.089 0 47.266-8.515 68.973-25.318 21.631 16.817 44.762 25.318 69.042 25.318 34.761 0 79.462-14.969 122.643-41.068 23.9-14.446 64.35-43.718 64.35-61.799-.001-17.154-36.49-44.94-65.431-62.425zm-55.541-266.172c5.985-2.817 12.472-3.046 18.266-.646s10.218 7.149 12.458 13.372c7.814 21.707 12.161 44.282 12.963 67.19-20.865 4.422-41.097 11.639-59.961 21.442-7.057-25.353-17.01-50.512-28.626-73.219 13.762-11.114 28.833-20.578 44.9-28.139zm-300.782 12.726c2.24-6.223 6.664-10.972 12.458-13.372 5.793-2.4 12.279-2.171 18.266.646 16.063 7.559 31.13 17.021 44.889 28.132-12.024 23.435-21.801 48.527-28.657 73.205-18.852-9.792-39.072-17.002-59.922-21.42.802-22.911 5.154-45.489 12.966-67.191zm-68.606 83.666c4.435-4.435 10.522-6.706 17.122-6.394 33.071 1.56 65.67 10.639 94.633 26.287-3.589 15.529-5.948 30.719-6.898 45.032-.274 4.133 2.854 7.706 6.986 7.98 4.13.276 7.707-2.853 7.98-6.987 2.922-44.017 19.887-96.893 45.382-141.443 23.63-41.289 50.774-67.968 69.154-67.968 19.546 0 48.033 29.085 72.577 74.098 26.563 48.718 42.422 104.405 42.422 148.962 0 38.833-19.632 75.417-58.352 108.734-23.95 20.609-48.234 33.54-56.647 37.731-7.854-3.911-29.505-15.419-51.787-33.653-25.172-20.599-56.401-54.312-62.227-97.949-.548-4.107-4.334-6.992-8.426-6.442-4.105.548-6.99 4.321-6.441 8.426 5.137 38.483 28.613 75.765 67.892 107.816 11.812 9.639 23.323 17.427 32.933 23.327-55.54-2.022-108.408-24.8-148.194-64.585-38.997-38.997-61.904-90.794-64.503-145.851-.311-6.606 1.959-12.686 6.394-17.121zm165.351 320.071c-31.756 0-73.223-13.936-113.769-38.234-37.552-22.504-57.486-43.864-58.218-49.63.253-1.752 3.928-8.718 18.145-21.088 11.722-10.199 26.985-20.916 43.37-30.492 34.682 31.828 77.63 52.262 123.425 59.325 4.778 9.346 16.396 30.039 34.553 49.842 3.23 3.523 6.502 6.834 9.811 9.95-18.292 13.483-37.536 20.327-57.317 20.327zm251.784-38.234c-40.546 24.298-82.013 38.234-113.769 38.234-55.074 0-92.33-53.057-106.809-78.019 5.91.445 11.854.674 17.821.674 6.636 0 13.303-.284 19.981-.846 6.548.55 13.118.83 19.694.83 28.866 0 57.763-5.27 84.601-15.519 3.869-1.478 5.809-5.812 4.331-9.682-1.479-3.87-5.812-5.81-9.683-4.331-22.531 8.604-46.61 13.438-70.836 14.352 10.996-6.752 24.47-15.974 38.025-27.603 41.781-35.846 63.866-77.466 63.866-120.361 0-18.928-2.696-39.209-7.432-59.653 28.975-15.661 61.584-24.745 94.671-26.307 6.599-.315 12.688 1.959 17.122 6.394 4.435 4.435 6.705 10.515 6.394 17.121-2.599 55.057-25.506 106.854-64.503 145.851-15.13 15.131-32.243 27.93-50.863 38.043-3.641 1.977-4.988 6.53-3.012 10.17 1.359 2.502 3.937 3.922 6.598 3.922 1.209 0 2.436-.293 3.572-.911 16.922-9.19 32.669-20.462 46.94-33.566 16.348 9.555 31.578 20.244 43.293 30.426 14.273 12.407 17.963 19.393 18.216 21.15-.731 5.767-20.666 27.127-58.218 49.631z"/></g></svg>