<svg id="Capa_1" enable-background="new 0 0 512 512" height="512" viewBox="0 0 512 512" width="512" xmlns="http://www.w3.org/2000/svg"><g><g><path d="m342.364 7.5h-172.728c-10.609 0-20.783 4.214-28.284 11.716l-122.136 122.136c-7.502 7.502-11.716 17.676-11.716 28.284v172.727c0 10.609 4.214 20.783 11.716 28.284l122.136 122.136c7.501 7.501 17.676 11.716 28.284 11.716h172.727c10.609 0 20.783-4.214 28.284-11.716l122.136-122.136c7.501-7.501 11.716-17.676 11.716-28.284v-172.727c0-10.609-4.214-20.783-11.716-28.284l-122.135-122.136c-7.502-7.502-17.676-11.716-28.284-11.716z" fill="#ff8870"/></g><g><path d="m115.921 256c0-131.955 102.854-239.868 232.762-247.99-2.077-.333-4.189-.51-6.319-.51h-172.728c-10.609 0-20.783 4.214-28.284 11.716l-122.136 122.136c-7.502 7.502-11.716 17.676-11.716 28.284v172.727c0 10.609 4.214 20.783 11.716 28.284l122.136 122.136c7.501 7.501 17.676 11.716 28.284 11.716h172.727c2.131 0 4.242-.178 6.319-.51-129.907-8.121-232.761-116.034-232.761-247.989z" fill="#ff6c52"/></g><g><circle cx="256" cy="256" fill="#ffee6e" r="170"/></g><g><path d="m256 86c-93.888 0-170 76.112-170 170s76.112 170 170 170c-13.807 0-25-11.193-25-25s11.193-25 25-25v-240c-13.807 0-25-11.193-25-25s11.193-25 25-25z" fill="#ffd883"/></g><g><circle cx="256" cy="256" fill="#f7f7f7" r="120"/></g><g><path d="m282.553 349.447c-66.274 0-120-53.726-120-120 0-26.361 8.507-50.732 22.916-70.531-29.978 21.816-49.469 57.171-49.469 97.084 0 66.274 53.726 120 120 120 39.913 0 75.268-19.491 97.084-49.469-19.799 14.409-44.17 22.916-70.531 22.916z" fill="#e4e4e4"/></g><g><path d="m196 316c0-33.137 26.863-60 60-60 33.137 0 60-26.863 60-60 0-32.619-26.03-59.159-58.451-59.98 65.559.83 118.451 54.224 118.451 119.98 0 66.274-53.726 120-120 120-.518 0-1.032-.013-1.549-.02-32.421-.821-58.451-27.361-58.451-59.98z" fill="#848484"/></g><g><path d="m282.553 349.447c-33.962 0-64.625-14.113-86.456-36.789-.061 1.107-.097 2.22-.097 3.342 0 32.619 26.03 59.159 58.451 59.98.516.006 1.031.02 1.549.02 39.913 0 75.268-19.491 97.084-49.469-19.799 14.409-44.17 22.916-70.531 22.916z" fill="#6e6e6e"/></g><g><circle cx="256" cy="316" fill="#f7f7f7" r="20"/></g><g><circle cx="256" cy="196.01" fill="#848484" r="20"/></g><g><path d="m433.5 256c0-41.628-14.704-82.097-41.402-113.953-2.66-3.174-7.391-3.591-10.565-.931s-3.592 7.391-.931 10.565c24.439 29.161 37.898 66.208 37.898 104.319 0 89.603-72.897 162.5-162.5 162.5s-162.5-72.897-162.5-162.5 72.897-162.5 162.5-162.5c38.111 0 75.158 13.459 104.317 37.899 3.173 2.66 7.904 2.244 10.565-.93 2.661-3.175 2.244-7.905-.931-10.566-31.852-26.699-72.322-41.403-113.951-41.403-97.874 0-177.5 79.626-177.5 177.5s79.626 177.5 177.5 177.5 177.5-79.626 177.5-177.5z"/><path d="m144.378 270.134c-.515-4.111-4.278-7.027-8.374-6.51-4.109.515-7.024 4.264-6.509 8.374 7.962 63.567 62.348 111.502 126.505 111.502 70.304 0 127.5-57.196 127.5-127.5 0-69.721-56.255-126.541-125.759-127.478-.001 0-.002 0-.003 0s-.002 0-.003 0c-.578-.008-1.155-.022-1.735-.022-64.154 0-118.539 47.933-126.504 111.496-.516 4.11 2.398 7.859 6.509 8.375 4.1.509 7.859-2.399 8.374-6.509 7.027-56.076 55.014-98.362 111.621-98.362.456 0 .909.012 1.364.017 28.674.729 51.136 23.781 51.136 52.483 0 28.949-23.552 52.5-52.5 52.5-37.22 0-67.5 30.28-67.5 67.5 0 13.513 3.973 26.449 11.342 37.456-29.637-17.11-50.962-47.384-55.464-83.322zm110.263 98.349c-28.677-.727-51.141-23.78-51.141-52.483 0-28.949 23.552-52.5 52.5-52.5 37.22 0 67.5-30.28 67.5-67.5 0-13.51-3.971-26.444-11.337-37.449 33.649 19.468 56.337 55.858 56.337 97.449 0 62.033-50.468 112.5-112.5 112.5-.448 0-.894-.01-1.34-.016-.007 0-.013-.001-.019-.001z"/><path d="m283.5 316c0-15.164-12.337-27.5-27.5-27.5s-27.5 12.336-27.5 27.5 12.337 27.5 27.5 27.5 27.5-12.336 27.5-27.5zm-40 0c0-6.893 5.607-12.5 12.5-12.5s12.5 5.607 12.5 12.5-5.607 12.5-12.5 12.5-12.5-5.607-12.5-12.5z"/><path d="m283.5 196.01c0-15.164-12.337-27.5-27.5-27.5s-27.5 12.336-27.5 27.5 12.337 27.5 27.5 27.5 27.5-12.337 27.5-27.5zm-40 0c0-6.893 5.607-12.5 12.5-12.5s12.5 5.607 12.5 12.5-5.607 12.5-12.5 12.5-12.5-5.608-12.5-12.5z"/><path d="m216 55h80c4.143 0 7.5-3.358 7.5-7.5s-3.357-7.5-7.5-7.5h-80c-4.143 0-7.5 3.358-7.5 7.5s3.357 7.5 7.5 7.5z"/><path d="m296 457h-80c-4.143 0-7.5 3.358-7.5 7.5s3.357 7.5 7.5 7.5h80c4.143 0 7.5-3.358 7.5-7.5s-3.357-7.5-7.5-7.5z"/><path d="m80.284 144.353c1.919 0 3.839-.732 5.304-2.197l56.568-56.568c2.929-2.929 2.929-7.678 0-10.606-2.93-2.929-7.678-2.929-10.607 0l-56.569 56.567c-2.929 2.929-2.929 7.678 0 10.606 1.465 1.465 3.385 2.198 5.304 2.198z"/><path d="m426.412 369.844-56.568 56.568c-2.929 2.929-2.929 7.678 0 10.606 1.465 1.464 3.385 2.197 5.304 2.197s3.839-.732 5.304-2.197l56.568-56.568c2.929-2.929 2.929-7.678 0-10.606-2.93-2.928-7.678-2.928-10.608 0z"/><path d="m47.5 208.5c-4.143 0-7.5 3.358-7.5 7.5v80c0 4.142 3.357 7.5 7.5 7.5s7.5-3.358 7.5-7.5v-80c0-4.142-3.357-7.5-7.5-7.5z"/><path d="m464.5 208.5c-4.143 0-7.5 3.358-7.5 7.5v80c0 4.142 3.357 7.5 7.5 7.5s7.5-3.358 7.5-7.5v-80c0-4.142-3.357-7.5-7.5-7.5z"/><path d="m85.588 369.844c-2.93-2.929-7.678-2.929-10.607 0s-2.929 7.678 0 10.606l56.568 56.568c1.465 1.464 3.385 2.197 5.304 2.197s3.839-.732 5.304-2.197c2.929-2.929 2.929-7.678 0-10.606z"/><path d="m380.451 74.981c-2.93-2.929-7.678-2.929-10.607 0s-2.929 7.678 0 10.606l56.568 56.568c1.465 1.464 3.385 2.197 5.304 2.197s3.839-.732 5.304-2.197c2.929-2.929 2.929-7.678 0-10.606z"/><path d="m498.088 136.049-122.137-122.136c-8.972-8.972-20.899-13.913-33.588-13.913h-172.726c-12.688 0-24.616 4.941-33.588 13.913l-122.136 122.135c-8.973 8.972-13.913 20.9-13.913 33.588v172.728c0 12.688 4.94 24.617 13.912 33.587l122.137 122.136c8.972 8.972 20.899 13.913 33.588 13.913h172.727c12.688 0 24.616-4.941 33.588-13.913l122.136-122.136c8.973-8.971 13.913-20.9 13.913-33.588v-172.727c-.001-12.688-4.941-24.616-13.913-33.587zm-1.088 206.315c0 8.681-3.381 16.843-9.52 22.981l-122.136 122.136c-6.138 6.139-14.299 9.519-22.98 9.519h-172.727c-8.682 0-16.843-3.38-22.98-9.519l-122.138-122.136c-6.138-6.138-9.519-14.3-9.519-22.981v-172.728c0-8.681 3.381-16.843 9.52-22.981l122.136-122.136c6.138-6.139 14.299-9.519 22.981-9.519h172.727c8.682 0 16.843 3.38 22.98 9.519l122.138 122.136c6.138 6.138 9.519 14.3 9.519 22.981v172.728z"/></g></g></svg>