<svg id="Capa_1" enable-background="new 0 0 511.402 511.402" height="512" viewBox="0 0 511.402 511.402" width="512" xmlns="http://www.w3.org/2000/svg"><g><g><path d="m418.21 27.672c-5.752-9.962-76.29-17.673-113.848 4.011s-31.767 80.06-31.767 80.06 47.659 34.203 85.217 12.519 66.15-86.628 60.398-96.59z" fill="#66df6b"/></g><g><path d="m376.08 109.917c-60.512-19.356-58.777-68.899-56.491-84.967-5.454 1.831-10.592 4.058-15.226 6.733-37.558 21.684-31.767 80.06-31.767 80.06s47.659 34.203 85.217 12.519c6.39-3.69 12.521-8.634 18.267-14.345z" fill="#00d27f"/></g><g><ellipse cx="255.701" cy="303.902" fill="#ffd883" rx="230" ry="200"/></g><g><path d="m25.701 303.902c0 110.457 102.975 200 230 200 9.361 0 18.586-.499 27.654-1.444-89.516-11.879-158.91-96.239-158.91-198.556 0-3.149.066-6.281.196-9.394 2.688-64.354 60.259-111.278 124.233-103.807 3.216.376 6.511.489 9.865.319 30.082-1.529 54.276-26.277 55.175-56.385.27-9.036-1.524-17.622-4.939-25.329-17.1-3.527-34.935-5.404-53.275-5.404-127.024 0-229.999 89.543-229.999 200z" fill="#ffa759"/></g><g><path d="m255.701 167.5c-11.426 0-21.064-8.508-22.481-19.846l-12.557-100.463c-2.635-21.076 13.798-39.691 35.038-39.691 21.24 0 37.673 18.615 35.039 39.691l-12.558 100.463c-1.417 11.338-11.055 19.846-22.481 19.846z" fill="#e3a67b"/></g><g><g><g><ellipse cx="176.056" cy="275.029" fill="#ff9b87" rx="29.387" ry="23.403"/></g><g><ellipse cx="335.346" cy="275.029" fill="#ff9b87" rx="29.387" ry="23.403"/></g><g><path d="m279.395 257.048c0-14.643-10.608-16.019-23.693-16.019s-23.693 1.376-23.693 16.019 10.608 26.513 23.693 26.513 23.693-11.87 23.693-26.513z" fill="#595959"/></g></g><g><path d="m180.969 254.589c-4.142 0-7.5-3.358-7.5-7.5v-12c0-4.142 3.358-7.5 7.5-7.5s7.5 3.358 7.5 7.5v12c0 4.142-3.358 7.5-7.5 7.5z"/></g><g><path d="m255.701 291.061c-17.2 0-31.193-15.258-31.193-34.013 0-23.519 21.859-23.519 31.193-23.519s31.193 0 31.193 23.519c.001 18.755-13.993 34.013-31.193 34.013zm0-42.532c-15.539 0-16.193 2.611-16.193 8.519 0 10.484 7.264 19.013 16.193 19.013s16.193-8.529 16.193-19.013c.001-5.907-.654-8.519-16.193-8.519z"/></g><g><path d="m330.433 254.589c-4.142 0-7.5-3.358-7.5-7.5v-12c0-4.142 3.358-7.5 7.5-7.5s7.5 3.358 7.5 7.5v12c0 4.142-3.358 7.5-7.5 7.5z"/></g></g><g><path d="m255.701 7.5c-21.24 0-37.673 18.615-35.039 39.691l12.558 100.463c1.417 11.338 11.055 19.846 22.481 19.846 11.426 0 21.063-8.508 22.481-19.846-28.115-28.114-40.663-140.154-22.481-140.154z" fill="#d99668"/></g><g><circle cx="169.822" cy="398.436" fill="#ffa759" r="30"/></g><g><circle cx="236.501" cy="441.778" fill="#ffa759" r="20"/></g><g><circle cx="369.511" cy="368.436" fill="#ffa759" r="20"/></g><path d="m372.514 123.151c13.77-11.136 27.298-27.975 38.308-47.961 3.545-6.436 20.877-39.154 13.883-51.268-7.238-12.538-45.724-13.563-53.366-13.641-4.1-.028-7.534 3.281-7.576 7.423s3.281 7.534 7.423 7.576c21.898.224 36.386 4.003 40.292 6.28.027 4.606-4.062 19.357-15.149 38.809-11.625 20.396-25.872 36.839-39.498 45.697-15.985-6.573-32.976-11.646-50.757-14.991l61.363-35.428c3.587-2.071 4.816-6.658 2.745-10.245s-6.658-4.816-10.245-2.745l-67.17 38.781 5.415-43.316c.1-.799.174-1.598.228-2.397 2.905-2.967 6.161-5.502 9.703-7.546 8.879-5.126 20.414-8.807 34.285-10.938 4.094-.629 6.903-4.458 6.274-8.552s-4.457-6.9-8.552-6.274c-15.718 2.416-29.009 6.714-39.506 12.774-1.607.928-3.163 1.939-4.677 3.013-1.812-4.99-4.551-9.656-8.141-13.722-8.123-9.203-19.821-14.48-32.095-14.48s-23.972 5.277-32.094 14.479c-8.123 9.202-11.909 21.464-10.386 33.643l6.335 50.68c-115.285 15.358-201.355 102.444-201.355 205.1 0 42.867 14.825 84.008 42.872 118.975 1.481 1.847 3.658 2.808 5.855 2.808 1.646 0 3.304-.54 4.688-1.65 3.231-2.592 3.75-7.312 1.158-10.543-25.889-32.276-39.573-70.171-39.573-109.589 0-95.067 80.441-175.806 188.215-190.217l4.362 34.899c1.883 15.059 14.746 26.415 29.923 26.415s28.041-11.356 29.922-26.416l4.362-34.898c107.803 14.409 188.215 95.085 188.215 190.216 0 106.145-99.813 192.5-222.5 192.5-61.739 0-121.238-22.496-163.241-61.719-3.027-2.827-7.774-2.666-10.6.363-2.827 3.027-2.665 7.773.363 10.6 22.015 20.559 48.06 36.737 77.411 48.087 30.319 11.724 62.641 17.669 96.067 17.669 63.244 0 122.75-21.457 167.556-60.419 45.104-39.221 69.944-91.456 69.944-147.081.001-76.847-48.151-144.906-120.686-180.751zm-116.813 36.849c-7.627 0-14.092-5.708-15.039-13.276l-12.558-100.463c-.989-7.912 1.471-15.877 6.748-21.855 5.276-5.978 12.876-9.406 20.849-9.406s15.573 3.428 20.849 9.406c5.277 5.978 7.736 13.943 6.748 21.855l-12.558 100.463c-.947 7.568-7.411 13.276-15.039 13.276z"/></g></svg>