<svg id="Capa_1" enable-background="new 0 0 512 512" height="512" viewBox="0 0 512 512" width="512" xmlns="http://www.w3.org/2000/svg"><g><g><path d="m398.374 132.061c-7.381-4.16-11.408-12.496-9.927-20.838 2.699-15.205-.109-28.904-9.161-37.955-12.096-12.096-32.49-13.047-53.686-4.595-10.506 4.189-22.248-1.199-26.003-11.868-8.571-24.355-24.883-40.805-43.597-40.805s-35.026 16.45-43.597 40.804c-3.755 10.669-15.497 16.057-26.003 11.868-21.197-8.452-41.591-7.501-53.686 4.595-9.051 9.051-11.86 22.751-9.161 37.955 1.481 8.342-2.547 16.678-9.927 20.838-64.167 36.164-106.126 96.108-106.126 163.94 0 110.457 111.257 200 248.5 200s248.5-89.543 248.5-200c0-67.832-41.959-127.776-106.126-163.939z" fill="#fdffdc"/></g><g><path d="m132.057 296c0-58.295 30.99-110.764 80.434-147.32 18.676-13.808 31.075-34.406 35.47-57.213 1.366-7.089 4.431-13.32 9.311-18.2 12.096-12.096 32.49-13.047 53.686-4.595.037.015.075.024.112.038-5.165-2.028-9.465-6.201-11.473-11.906-8.571-24.354-24.883-40.804-43.597-40.804s-35.026 16.45-43.597 40.804c-3.755 10.669-15.497 16.057-26.003 11.868-21.197-8.452-41.591-7.501-53.686 4.595-9.051 9.051-11.86 22.751-9.161 37.955 1.481 8.342-2.547 16.678-9.927 20.838-64.167 36.164-106.126 96.108-106.126 163.94 0 110.457 111.257 200 248.5 200 21.507 0 42.376-2.201 62.279-6.335-107.102-22.245-186.222-100.518-186.222-193.665z" fill="#ffff9c"/></g><g><g><ellipse cx="177.623" cy="267.499" fill="#ff9b87" rx="28.919" ry="23.03"/></g><g><ellipse cx="334.377" cy="267.499" fill="#ff9b87" rx="28.92" ry="23.03"/></g></g><g><path d="m180.712 249.938c4.142 0 7.5-3.358 7.5-7.5 0-3.455 2.811-6.265 6.265-6.265s6.265 2.81 6.265 6.265c0 4.142 3.358 7.5 7.5 7.5s7.5-3.358 7.5-7.5c0-11.726-9.54-21.265-21.265-21.265s-21.265 9.539-21.265 21.265c0 4.143 3.358 7.5 7.5 7.5z"/><path d="m317.522 221.174c-11.726 0-21.265 9.539-21.265 21.265 0 4.142 3.358 7.5 7.5 7.5s7.5-3.358 7.5-7.5c0-3.455 2.811-6.265 6.265-6.265s6.265 2.81 6.265 6.265c0 4.142 3.358 7.5 7.5 7.5s7.5-3.358 7.5-7.5c.001-11.726-9.539-21.265-21.265-21.265z"/><path d="m247.053 253.6c-2.722-3.123-7.459-3.447-10.582-.727-3.123 2.722-3.448 7.459-.727 10.582 5.109 5.862 12.492 9.224 20.255 9.224s15.146-3.362 20.255-9.224c2.721-3.123 2.396-7.86-.727-10.582-3.124-2.721-7.861-2.396-10.582.727-2.259 2.593-5.521 4.08-8.947 4.08s-6.686-1.488-8.945-4.08z"/><path d="m88.356 434.239c-47.304-36.615-73.356-85.71-73.356-138.239 0-62.458 38.246-121.301 102.308-157.405 10.179-5.736 15.657-17.263 13.63-28.683-2.359-13.287.155-24.417 7.079-31.341 9.453-9.453 26.501-10.549 45.605-2.932 6.977 2.781 14.566 2.611 21.372-.481 6.833-3.104 11.976-8.738 14.484-15.863 7.77-22.079 21.765-35.795 36.522-35.795s28.752 13.716 36.522 35.794c2.508 7.125 7.651 12.759 14.484 15.863 6.806 3.092 14.395 3.263 21.372.481 19.104-7.617 36.152-6.521 45.605 2.932 6.924 6.924 9.438 18.055 7.079 31.342-2.027 11.419 3.451 22.946 13.63 28.682 8.289 4.672 16.293 9.815 23.788 15.288 3.345 2.442 8.037 1.71 10.48-1.635 2.442-3.346 1.71-8.038-1.635-10.48-7.968-5.816-16.469-11.28-25.268-16.24-4.639-2.614-7.141-7.835-6.225-12.992 3.24-18.252-.752-34.081-11.242-44.57-13.827-13.827-36.918-16.167-61.767-6.258-3.146 1.254-6.56 1.181-9.611-.205-3.079-1.399-5.401-3.951-6.54-7.187-9.946-28.26-29.362-45.815-50.672-45.815s-40.726 17.555-50.671 45.815c-1.139 3.235-3.461 5.788-6.539 7.187-3.052 1.386-6.465 1.459-9.611.204-24.849-9.907-47.94-7.568-61.767 6.259-10.49 10.489-14.482 26.318-11.242 44.569.916 5.158-1.586 10.379-6.226 12.993-68.843 38.799-109.944 102.528-109.944 170.473 0 28.947 7.202 56.955 21.405 83.244 13.643 25.251 33.079 47.745 57.77 66.856 1.366 1.058 2.982 1.57 4.585 1.57 2.241 0 4.458-1 5.936-2.91 2.536-3.276 1.936-7.986-1.34-10.521z"/><path d="m450.949 161.447c-3-2.854-7.748-2.735-10.604.266-2.854 3.001-2.735 7.749.266 10.604 36.363 34.583 56.389 78.509 56.389 123.683 0 106.145-108.112 192.5-241 192.5-52.144 0-101.778-13.104-143.536-37.895-3.562-2.114-8.163-.941-10.278 2.621-2.114 3.562-.941 8.163 2.621 10.278 44.074 26.165 96.356 39.996 151.193 39.996 68.081 0 132.155-21.392 180.418-60.236 48.74-39.227 75.582-91.526 75.582-147.264 0-49.324-21.682-97.109-61.051-134.553z"/><path d="m264.771 145.734v-26.696c0-4.142-3.358-7.5-7.5-7.5s-7.5 3.358-7.5 7.5v26.696c0 4.142 3.358 7.5 7.5 7.5s7.5-3.358 7.5-7.5z"/><path d="m343.54 152.229c3.587-2.071 4.816-6.658 2.745-10.245l-15.413-26.696c-2.071-3.587-6.658-4.816-10.245-2.745s-4.816 6.658-2.745 10.245l15.413 26.696c1.389 2.406 3.91 3.751 6.502 3.751 1.272.001 2.561-.323 3.743-1.006z"/><path d="m194.118 122.789c2.071-3.587.842-8.174-2.745-10.245-3.587-2.072-8.174-.842-10.245 2.745l-15.413 26.696c-2.071 3.587-.842 8.174 2.745 10.245 1.181.682 2.471 1.006 3.743 1.006 2.592 0 5.113-1.346 6.502-3.751z"/></g><g><circle cx="179.903" cy="382.874" fill="#fdffbf" r="30"/></g><g><circle cx="256" cy="413.876" fill="#fdffbf" r="20"/></g><g><circle cx="389.81" cy="352.874" fill="#fdffbf" r="20"/></g></g></svg>