<svg id="Capa_1" enable-background="new 0 0 512 512" height="512" viewBox="0 0 512 512" width="512" xmlns="http://www.w3.org/2000/svg"><g><g><path d="m316 29.645c0-10.775-10.952-17.872-20.919-13.778-2.379.977-5.238 1.634-9.083 1.634-15.001 0-15.001-10-30.002-10-14.999 0-14.999 10-29.998 10-3.843 0-6.701-.656-9.079-1.633-9.968-4.093-20.919 3.002-20.919 13.778v277.854h120z" fill="#f0f0f0"/></g><g><path d="m256 92.021c-33.137 0-60-26.863-60-60v275.479h120v-275.479c0 33.137-26.863 60-60 60z" fill="#e4e4e4"/></g><g><path d="m404.311 56.6c-14.3-10.653-33.823-10.653-48.123 0-60.804 45.298-100.188 117.748-100.188 199.4 0-81.65-39.382-154.098-100.184-199.396-14.218-10.593-33.676-10.744-47.907-.167-61.321 45.577-100.914 118.743-100.404 201.136.844 136.371 112.587 247.177 248.961 246.927 137.028-.252 248.034-111.412 248.034-248.5 0-81.652-39.384-154.102-100.189-199.4z" fill="#ffee6e"/></g><g><path d="m136.031 256c0-61.846 22.6-118.41 59.984-161.899-11.97-13.924-25.452-26.511-40.198-37.498-14.218-10.593-33.676-10.744-47.906-.167-61.323 45.578-100.916 118.744-100.406 201.137.844 136.371 112.587 247.177 248.961 246.927 22.062-.04 43.444-2.971 63.803-8.407-106.091-28.325-184.238-125.075-184.238-240.093z" fill="#ffd883"/></g><g><g><g><ellipse cx="176.445" cy="333.063" fill="#ff9b87" rx="29.355" ry="23.377"/></g><g><ellipse cx="335.558" cy="333.063" fill="#ff9b87" rx="29.355" ry="23.377"/></g></g><g><path d="m193.553 318.06c-4.142 0-7.5-3.358-7.5-7.5v-12c0-4.142 3.358-7.5 7.5-7.5s7.5 3.358 7.5 7.5v12c0 4.142-3.358 7.5-7.5 7.5z"/></g><g><path d="m318.45 318.06c-4.143 0-7.5-3.358-7.5-7.5v-12c0-4.142 3.357-7.5 7.5-7.5s7.5 3.358 7.5 7.5v12c0 4.142-3.357 7.5-7.5 7.5z"/></g><g><path d="m256.001 325.204c-8.478 0-16.54-3.671-22.119-10.073-2.721-3.123-2.396-7.86.727-10.582 3.123-2.721 7.861-2.396 10.582.727 2.729 3.132 6.669 4.929 10.81 4.929s8.081-1.796 10.81-4.928c2.72-3.123 7.459-3.448 10.581-.727 3.123 2.721 3.449 7.458.728 10.582-5.578 6.4-13.641 10.072-22.119 10.072z"/></g></g><g><circle cx="153.681" cy="209.394" fill="#ffd883" r="30"/></g><g><circle cx="432.108" cy="199.761" fill="#ffd883" r="30"/></g><g><circle cx="243.949" cy="400.842" fill="#ffd883" r="20"/></g><g><circle cx="432.108" cy="276.54" fill="#ffd883" r="20"/></g><path d="m483.88 139.242c-17.796-34.662-43.761-65.318-75.088-88.656-17.072-12.718-40.012-12.718-57.084 0-10.03 7.472-19.439 15.622-28.208 24.386v-45.327c0-7.49-3.704-14.445-9.91-18.605-6.302-4.225-14.286-5.015-21.358-2.111-1.78.731-3.761 1.071-6.234 1.071-5.229 0-7.462-1.488-10.841-3.741-4.183-2.788-9.389-6.259-19.16-6.259s-14.977 3.471-19.16 6.26c-3.378 2.252-5.61 3.74-10.838 3.74-2.472 0-4.451-.34-6.23-1.071-7.071-2.902-15.056-2.113-21.36 2.113-6.204 4.16-9.908 11.114-9.908 18.604v45.37c-8.799-8.811-18.226-16.993-28.204-24.427-17.054-12.705-39.905-12.775-56.861-.172-31.603 23.488-57.743 54.393-75.596 89.373-18.463 36.175-28.089 76.92-27.835 117.83.383 61.865 23.305 121.527 64.543 167.996 1.482 1.67 3.542 2.522 5.613 2.522 1.77 0 3.547-.623 4.975-1.89 3.098-2.75 3.381-7.49.632-10.588-38.823-43.748-60.402-99.907-60.763-158.133-.474-76.475 35.929-149.398 97.378-195.071 11.597-8.621 27.25-8.554 38.952.162 61.75 46.004 97.165 116.489 97.165 193.382 0 4.142 3.358 7.5 7.5 7.5 4.143 0 7.5-3.358 7.5-7.5 0-37.128 8.215-72.731 24.416-105.822 1.821-3.72.282-8.212-3.438-10.034-3.723-1.823-8.213-.283-10.034 3.438-7.976 16.291-14.129 33.15-18.438 50.479-4.692-18.882-11.577-37.194-20.625-54.817-8.757-17.057-19.502-33.138-31.881-47.86v-61.738c0-2.515 1.189-4.755 3.262-6.145 2.173-1.457 4.837-1.71 7.309-.696 3.597 1.478 7.498 2.195 11.928 2.195 9.771 0 14.977-3.471 19.16-6.26 3.378-2.252 5.61-3.74 10.838-3.74 5.229 0 7.461 1.488 10.84 3.74 4.184 2.789 9.39 6.26 19.161 6.26 4.432 0 8.334-.718 11.932-2.196 2.474-1.016 5.136-.762 7.308.695 2.073 1.39 3.263 3.63 3.263 6.146v61.677c-6.755 8.038-13.04 16.494-18.805 25.365-2.257 3.473-1.271 8.119 2.202 10.375 3.473 2.258 8.118 1.272 10.376-2.202 15.667-24.108 35.314-45.051 58.396-62.246 11.711-8.726 27.449-8.727 39.162 0 61.751 46.005 97.168 116.491 97.168 193.386 0 132.645-107.909 240.756-240.548 241-.147 0-.292 0-.44 0-58.789 0-115.477-21.571-159.666-60.767-3.099-2.749-7.839-2.463-10.588.634-2.749 3.099-2.465 7.839.634 10.588 46.94 41.635 107.154 64.545 169.619 64.545h.468c68.28-.125 132.453-26.81 180.698-75.137 48.25-48.335 74.823-112.566 74.823-180.863 0-41.131-9.461-80.415-28.12-116.758z"/></g></svg>