<svg id="Capa_1" enable-background="new 0 0 512.004 512.004" height="512" viewBox="0 0 512.004 512.004" width="512" xmlns="http://www.w3.org/2000/svg"><g><g><path d="m484.504 87.502h-457c-11.046 0-20-8.954-20-20 0-11.046 8.954-20 20-20h457c11.046 0 20 8.954 20 20 0 11.046-8.954 20-20 20z" fill="#d99668"/></g><g><path d="m222.078 261.002c0-37.251 20-37.251 20-74.501s-20-37.251-20-74.501c0-37.249 20-37.249 20-74.498h-155.585c0 37.249-20 37.249-20 74.498 0 37.251 20 37.251 20 74.501s-20 37.251-20 74.501z" fill="#ffee6e"/></g><g><path d="m170.216 261.002c0-37.251 20-37.251 20-74.501 0-37.251-20-37.251-20-74.501 0-37.249 20-37.249 20-74.498h-51.861c0 37.249-20 37.249-20 74.498 0 37.251 20 37.251 20 74.501s-20 37.251-20 74.501z" fill="#ffd883"/></g><g><path d="m504.5 256.002c0 136.936-110.761 248.003-247.581 248.498-137.18.497-249.419-113.245-249.419-250.426 0-21.026 17.045-38.072 38.072-38.072h420.857c21.028 0 38.074 17.048 38.072 38.075z" fill="#ff9b87"/></g><g><path d="m152.081 254.074c0-21.026 17.045-38.072 38.072-38.072h-144.581c-21.026 0-38.072 17.045-38.072 38.072 0 137.182 112.239 250.924 249.419 250.427 24.971-.09 49.068-3.879 71.788-10.821-101.96-31.44-176.626-127.721-176.626-239.606z" fill="#ff8870"/></g><g><g><g><ellipse cx="176.449" cy="398.468" fill="#fff" rx="29.355" ry="23.377"/></g><g><ellipse cx="335.562" cy="398.468" fill="#fff" rx="29.355" ry="23.377"/></g></g><g><path d="m193.557 383.465c-4.143 0-7.5-3.358-7.5-7.5v-12c0-4.142 3.357-7.5 7.5-7.5s7.5 3.358 7.5 7.5v12c0 4.142-3.358 7.5-7.5 7.5z"/></g><g><path d="m318.454 383.465c-4.143 0-7.5-3.358-7.5-7.5v-12c0-4.142 3.357-7.5 7.5-7.5s7.5 3.358 7.5 7.5v12c0 4.142-3.357 7.5-7.5 7.5z"/></g><g><path d="m256.006 390.608c-8.478 0-16.539-3.671-22.119-10.073-2.721-3.123-2.396-7.86.727-10.582 3.122-2.722 7.859-2.397 10.582.726 2.729 3.132 6.67 4.929 10.811 4.929s8.08-1.796 10.81-4.928c2.721-3.123 7.458-3.448 10.581-.727s3.449 7.458.728 10.582c-5.58 6.402-13.643 10.073-22.12 10.073z"/></g></g><g><path d="m14.84 314.077h482.819c4.462-18.633 6.841-38.075 6.841-58.075v-1.925h-497c0 20.636 2.557 40.735 7.34 60z" fill="#ff6c52"/></g><g><path d="m14.84 314.077h144.572c-4.782-19.264-7.33-39.365-7.33-60h-144.582c0 20.636 2.557 40.735 7.34 60z" fill="#ff583e"/></g><g><path d="m484.504 47.502h-457c-11.046 0-20-8.954-20-20 0-11.046 8.954-20 20-20h457c11.046 0 20 8.954 20 20 0 11.046-8.954 20-20 20z" fill="#f2b88f"/></g><g><path d="m118.355 27.502c0-11.046 8.954-20 20-20h-110.851c-11.046 0-20 8.954-20 20s8.954 20 20 20h110.851c-11.046 0-20-8.954-20-20z" fill="#e3a67b"/></g><path d="m484.504 95.002c15.163 0 27.5-12.336 27.5-27.5 0-7.875-3.333-14.982-8.655-20 5.323-5.018 8.655-12.125 8.655-20 0-15.164-12.336-27.5-27.5-27.5h-457c-15.164 0-27.5 12.336-27.5 27.5 0 7.875 3.332 14.982 8.655 20-5.322 5.018-8.655 12.125-8.655 20 0 15.164 12.337 27.5 27.5 27.5h33.062c-.976 4.853-1.573 10.423-1.573 16.998 0 20.511 5.787 31.289 10.893 40.798 4.887 9.103 9.107 16.964 9.107 33.703 0 10.175-1.611 16.901-3.517 22.001h-29.905c-25.128 0-45.571 20.443-45.571 45.572 0 62.902 23.145 123.691 65.17 171.169 2.746 3.102 7.485 3.39 10.587.646 3.102-2.746 3.391-7.485.646-10.587-24.217-27.359-41.765-59.408-51.755-93.724h463.261c-28.592 100.755-121.333 175.025-231.017 175.422-.287.001-.567.001-.854.001-58.483 0-115.002-21.716-159.224-61.2-3.091-2.76-7.832-2.489-10.59.6-2.759 3.09-2.49 7.831.6 10.59 46.979 41.945 107.035 65.012 169.213 65.011.302 0 .608 0 .91-.001 68.182-.247 132.243-26.985 180.383-75.29 48.151-48.317 74.67-112.494 74.67-180.709v-1.924c.001-12.173-4.738-23.618-13.346-32.227s-20.053-13.349-32.226-13.349h-219.621c1.891-6.719 2.771-13.815 2.771-22.001 0-20.512-5.787-31.29-10.893-40.799-4.887-9.103-9.107-16.963-9.107-33.703 0-6.964.738-12.378 1.943-16.998h252.983zm-469.5-67.5c0-6.893 5.607-12.5 12.5-12.5h457c6.893 0 12.5 5.607 12.5 12.5s-5.607 12.5-12.5 12.5h-155.797c-4.143 0-7.5 3.358-7.5 7.5s3.357 7.5 7.5 7.5h155.797c6.893 0 12.5 5.607 12.5 12.5s-5.607 12.5-12.5 12.5h-246.731c.301-.565.605-1.132.912-1.704 3.375-6.285 7.126-13.295 9.22-23.296h50.802c4.143 0 7.5-3.358 7.5-7.5s-3.357-7.5-7.5-7.5h-271.203c-6.893 0-12.5-5.607-12.5-12.5zm158.604 125.296c4.887 9.103 9.107 16.964 9.107 33.703 0 10.175-1.611 16.901-3.517 22.001h-36.114c1.89-6.716 2.769-13.81 2.769-22.001 0-20.512-5.787-31.29-10.893-40.799-4.887-9.103-9.107-16.963-9.107-33.703 0-16.738 4.221-24.599 9.108-33.701 3.374-6.284 7.127-13.295 9.22-23.296h36.457c-1.682 6.226-4.214 10.952-7.032 16.2-5.105 9.509-10.893 20.287-10.893 40.797.003 20.512 5.79 31.29 10.895 40.799zm-146.104-72.796c-6.893 0-12.5-5.607-12.5-12.5s5.607-12.5 12.5-12.5h49.414c-1.682 6.226-4.214 10.952-7.032 16.2-1.48 2.757-3.017 5.623-4.454 8.8zm55.597 65.7c-4.887-9.103-9.107-16.963-9.107-33.703 0-16.738 4.221-24.599 9.108-33.701 3.374-6.284 7.127-13.295 9.22-23.296h36.457c-1.682 6.226-4.214 10.952-7.032 16.2-5.105 9.509-10.893 20.287-10.893 40.797 0 20.511 5.787 31.289 10.893 40.798 4.887 9.103 9.107 16.964 9.107 33.703 0 10.175-1.611 16.901-3.517 22.001h-36.113c1.89-6.716 2.769-13.81 2.769-22.001 0-20.511-5.787-31.289-10.892-40.798zm-62.304 160.875c-3.281-14.719-5.192-29.778-5.666-45h481.798c-.353 15.394-2.17 30.435-5.301 45zm467.25-74.12c3.962 3.963 6.702 8.822 8.032 14.12h-480.146c3.352-13.245 15.367-23.075 29.638-23.075h420.857c8.167 0 15.844 3.18 21.619 8.955zm-253.469-45.956c0 10.156-1.609 16.89-3.519 22.001h-36.113c1.89-6.715 2.769-13.81 2.769-22.001 0-20.512-5.787-31.29-10.893-40.799-4.887-9.103-9.107-16.963-9.107-33.703 0-16.738 4.221-24.599 9.108-33.701 3.374-6.284 7.127-13.295 9.22-23.296h36.457c-1.682 6.225-4.214 10.954-7.032 16.201-5.104 9.509-10.892 20.286-10.892 40.797s5.787 31.289 10.893 40.798c4.888 9.102 9.109 16.963 9.109 33.703z"/></g></svg>