<svg id="Capa_1" enable-background="new 0 0 511.989 511.989" height="512" viewBox="0 0 511.989 511.989" width="512" xmlns="http://www.w3.org/2000/svg"><g><g><path d="m388.701 313.888c0-13.201-1.343-26.087-3.898-38.532 45.639-15.772 78.419-59.111 78.419-110.111 0-1.009-.013-2.015-.038-3.018-.861-33.769 12.778-66.3 36.664-90.186 6.203-6.203 6.203-16.26 0-22.463l-37.438-37.437c-6.203-6.203-16.26-6.203-22.462 0-23.886 23.886-56.417 37.524-90.186 36.664-1.003-.026-2.009-.038-3.018-.038-51.001 0-94.339 32.781-110.111 78.419-12.445-2.555-25.332-3.898-38.532-3.898-105.266-.001-190.601 85.334-190.601 190.6s85.335 190.601 190.601 190.601c105.265 0 190.6-85.335 190.6-190.601z" fill="#ffee6e"/></g><g><path d="m41.242 347.63c0-105.266 85.335-190.601 190.601-190.601 13.201 0 26.087 1.343 38.532 3.898 15.772-45.639 59.111-78.42 110.111-78.42 1.009 0 2.015.013 3.018.039 33.769.86 66.3-12.778 90.186-36.664 6.203-6.203 16.26-6.203 22.463 0l-33.743-33.741c-6.203-6.203-16.26-6.203-22.462 0-23.886 23.886-56.417 37.524-90.186 36.664-1.003-.025-2.009-.038-3.018-.038-51.001 0-94.339 32.781-110.111 78.419-12.445-2.555-25.332-3.898-38.532-3.898-105.266-.001-190.601 85.334-190.601 190.6 0 61.233 28.881 115.714 73.757 150.585-25.076-32.271-40.015-72.81-40.015-116.843z" fill="#ffd883"/></g><g><g><path d="m246.867 408.35h-127.483c-8.696 0-15.745-7.049-15.745-15.745v-127.483c0-8.696 7.049-15.745 15.745-15.745h127.483c8.696 0 15.745 7.049 15.745 15.745v127.483c0 8.695-7.049 15.745-15.745 15.745z" fill="#ff9b87"/></g><g><path d="m262.612 280.027v-14.905c0-8.696-7.049-15.745-15.745-15.745h-127.483c-8.696 0-15.745 7.049-15.745 15.745v127.483c0 8.696 7.049 15.745 15.745 15.745h14.905c6.672-67.761 60.563-121.651 128.323-128.323z" fill="#ff8870"/></g><g><circle cx="183.126" cy="328.863" fill="#f7f7f7" r="42.356"/></g><g><path d="m209.792 295.953c-16.635-13.512-41.129-12.527-56.616 2.96s-16.472 39.981-2.96 56.616c13.436-25.327 34.249-46.139 59.576-59.576z" fill="#f0f0f0"/></g></g><g><path d="m393.08 313.583-194.675-194.675c-8.27-8.27-8.27-21.68 0-29.95 8.27-8.27 21.68-8.27 29.95 0l194.675 194.675c8.27 8.27 8.27 21.68 0 29.95-8.27 8.271-21.679 8.271-29.95 0z" fill="#e3a67b"/></g><g><path d="m295.743 216.246 29.95-29.95c8.27-8.27 21.68-8.27 29.95 0 8.27 8.27 8.27 21.68 0 29.95l-29.95 29.95c-8.27 8.27-21.68 8.27-29.95 0-8.271-8.271-8.271-21.68 0-29.95z" fill="#e3a67b"/></g><g><path d="m325.693 246.196 29.95-29.95c8.27-8.27 21.68-8.27 29.95 0 8.27 8.27 8.27 21.68 0 29.95l-29.95 29.95c-8.27 8.27-21.68 8.27-29.95 0-8.271-8.271-8.271-21.68 0-29.95z" fill="#f2b88f"/></g><g><path d="m235.843 126.396c8.27-8.27 21.68-8.27 29.95 0l-37.438-37.438c-8.27-8.27-21.68-8.27-29.95 0s-8.27 21.68 0 29.95l37.438 37.438c-8.271-8.271-8.271-21.68 0-29.95z" fill="#d99668"/></g><g><g><path d="m331.742 106.502c-1.919 0-3.839-.732-5.303-2.197-2.929-2.929-2.929-7.678 0-10.606l8.485-8.485c2.929-2.929 7.678-2.929 10.606 0 2.929 2.929 2.929 7.678 0 10.606l-8.485 8.485c-1.464 1.464-3.383 2.197-5.303 2.197z"/></g><g><path d="m412.987 187.747c-1.919 0-3.839-.732-5.303-2.197-2.929-2.929-2.929-7.678 0-10.606l8.485-8.485c2.929-2.929 7.678-2.929 10.606 0 2.929 2.929 2.929 7.678 0 10.606l-8.485 8.485c-1.464 1.464-3.384 2.197-5.303 2.197z"/></g><g><path d="m382.754 158.565c-7.759 0-15.227-3.069-20.744-8.587-5.995-5.995-9.099-14.292-8.518-22.762.284-4.133 3.871-7.259 7.996-6.969 4.133.284 7.252 3.864 6.969 7.996-.285 4.145 1.231 8.2 4.159 11.128s6.99 4.45 11.128 4.159c4.133-.275 7.712 2.836 7.996 6.969.284 4.132-2.836 7.712-6.969 7.996-.672.047-1.346.07-2.017.07z"/></g></g><g><path d="m505.151 44.275-37.438-37.438c-9.116-9.116-23.951-9.117-33.069 0-22.699 22.699-53.556 35.252-84.693 34.469-1.065-.027-2.135-.041-3.208-.041-40.677 0-78.958 20.292-101.981 53.494l-11.105-11.105c-11.182-11.182-29.375-11.182-40.557 0-5.417 5.417-8.4 12.618-8.4 20.278 0 4.271.93 8.399 2.69 12.156-43.321 2.347-84.842 18.867-117.921 47.134-3.149 2.691-3.52 7.425-.829 10.574 1.483 1.736 3.587 2.628 5.705 2.627 1.724 0 3.456-.591 4.869-1.798 33.083-28.27 75.303-43.839 118.884-43.839.533 0 1.063.013 1.595.017l86.143 86.143c-2.474 4.297-3.799 9.181-3.799 14.273 0 7.66 2.983 14.862 8.4 20.278 5.591 5.591 12.934 8.387 20.278 8.386.435 0 .87-.011 1.305-.031-.02.437-.032.876-.032 1.317 0 7.66 2.983 14.862 8.399 20.278s12.618 8.4 20.278 8.4c5.091 0 9.976-1.325 14.273-3.799l26.243 26.243c.005.532.018 1.062.018 1.595 0 100.962-82.139 183.101-183.101 183.101s-183.098-82.137-183.098-183.099c0-43.577 15.567-85.795 43.833-118.876 2.69-3.149 2.319-7.883-.83-10.574s-7.883-2.32-10.574.83c-30.585 35.795-47.429 81.474-47.429 128.62 0 109.233 88.868 198.101 198.101 198.101 105.643 0 192.232-83.124 197.809-187.401 3.837 1.789 7.991 2.686 12.145 2.686 7.344 0 14.688-2.795 20.278-8.386 11.182-11.182 11.182-29.375 0-40.557l-11.103-11.103c30.676-21.224 50.345-55.213 53.143-92.611.309-4.131-2.789-7.729-6.919-8.039-4.131-.315-7.73 2.789-8.039 6.919-2.527 33.778-20.722 64.396-48.989 82.926l-10.929-10.929c2.474-4.297 3.799-9.182 3.799-14.273 0-7.66-2.983-14.862-8.4-20.278-5.417-5.417-12.618-8.399-20.278-8.399-.436 0-.87.013-1.303.032.019-.433.032-.868.032-1.304 0-7.66-2.983-14.862-8.4-20.278s-12.618-8.399-20.278-8.399c-5.091 0-9.976 1.325-14.272 3.799l-70.826-70.826c20.046-30.531 54.502-49.3 91.175-49.3.945 0 1.888.012 2.827.036 1.055.027 2.104.04 3.158.04 34.131-.001 67.697-14.073 92.522-38.898 3.268-3.269 8.587-3.269 11.856 0l37.438 37.438c3.269 3.269 3.269 8.587 0 11.856-20.592 20.592-34.01 47.485-37.784 75.725-.548 4.105 2.335 7.878 6.441 8.427.337.045.672.067 1.002.067 3.701 0 6.921-2.739 7.425-6.508 3.339-24.996 15.245-48.827 33.522-67.105 9.115-9.119 9.115-23.954-.002-33.071zm-301.443 49.987c5.333-5.333 14.011-5.333 19.344 0l92.034 92.034-19.344 19.344-92.034-92.034c-5.333-5.334-5.333-14.011 0-19.344zm214.019 214.018c-5.333 5.333-14.01 5.333-19.343 0l-32.134-32.134 19.343-19.344 32.134 32.134c5.333 5.333 5.333 14.011 0 19.344zm-37.437-86.731c2.583 2.583 4.006 6.018 4.006 9.671s-1.423 7.088-4.006 9.672l-29.95 29.95c-5.333 5.333-14.011 5.333-19.344 0s-5.333-14.011 0-19.344l29.95-29.95c5.334-5.332 14.012-5.331 19.344.001zm-29.95-29.95c5.333 5.333 5.333 14.011 0 19.344l-29.95 29.95c-5.333 5.333-14.011 5.333-19.344 0-2.583-2.583-4.006-6.019-4.006-9.672s1.423-7.088 4.006-9.671l29.95-29.95c2.667-2.667 6.169-4 9.672-4s7.005 1.333 9.672 3.999z"/><path d="m246.867 415.85c12.817 0 23.245-10.428 23.245-23.246v-127.482c0-12.817-10.428-23.245-23.245-23.245h-127.483c-12.818 0-23.246 10.428-23.246 23.245v127.483c0 12.818 10.428 23.246 23.246 23.246h127.483zm-135.728-23.246v-127.482c0-4.546 3.699-8.245 8.246-8.245h127.483c4.546 0 8.245 3.699 8.245 8.245v127.483c0 4.547-3.699 8.246-8.245 8.246h-127.484c-4.547-.001-8.245-3.7-8.245-8.247z"/><path d="m183.125 378.719c13.317 0 25.837-5.186 35.253-14.603 9.417-9.416 14.603-21.936 14.603-35.253s-5.186-25.837-14.603-35.253-21.937-14.603-35.253-14.603-25.837 5.186-35.253 14.603c-9.417 9.417-14.603 21.937-14.603 35.253s5.186 25.837 14.603 35.253c9.417 9.417 21.937 14.603 35.253 14.603zm-24.646-74.503c6.583-6.583 15.336-10.209 24.646-10.209 9.311 0 18.063 3.625 24.647 10.209s10.209 15.336 10.209 24.647c0 9.31-3.625 18.063-10.209 24.646s-15.336 10.209-24.647 10.209c-9.31 0-18.063-3.625-24.646-10.209s-10.209-15.336-10.209-24.646 3.626-18.063 10.209-24.647z"/></g></g></svg>