<svg id="Capa_1" enable-background="new 0 0 512 512" height="512" viewBox="0 0 512 512" width="512" xmlns="http://www.w3.org/2000/svg"><g><g><path d="m7.5 382.424c0-20.525 102.114-95.366 179.493-95.366s120.507 95.366 120.507 95.366-43.129 95.366-120.507 95.366-179.493-74.841-179.493-95.366z" fill="#66df6b"/></g><g><path d="m205.378 308.695c-23.504 27.396-35.979 54.272-37.325 57.247l-7.454 16.482 7.454 16.482c1.345 2.975 13.82 29.85 37.325 57.246 4.78 5.571 9.693 10.766 14.719 15.605 56.468-20.948 87.402-89.333 87.402-89.333s-30.934-68.385-87.402-89.334c-5.026 4.84-9.939 10.034-14.719 15.605z" fill="#00d27f"/></g><g><path d="m504.5 382.424c0-20.525-102.114-95.366-179.493-95.366s-120.507 95.366-120.507 95.366 43.129 95.366 120.507 95.366 179.493-74.841 179.493-95.366z" fill="#92ef8e"/></g><g><path d="m101.345 384.879c44.385 19.328 84.379 8.186 112.573-6.991 26.289-14.152 57.882-14.152 84.171 0 28.194 15.177 68.189 26.319 112.573 6.991 85.469-37.218 85.469-160.835 9.496-243.247-41.62-45.147-86.905-76.332-119.348-95.303-27.693-16.194-61.921-16.194-89.614 0-32.442 18.971-77.727 50.156-119.347 95.303-75.973 82.412-75.973 206.029 9.496 243.247z" fill="#ff9b87"/></g><g><path d="m200.075 141.632c37.776-40.978 78.57-70.451 110.042-89.732-3.202-1.962-6.31-3.82-9.306-5.572-27.693-16.194-61.921-16.194-89.614 0-32.443 18.972-77.728 50.157-119.348 95.304-75.972 82.412-75.972 206.029 9.497 243.246 39.686 17.282 75.855 10.199 103.224-2.343-80.424-39.804-78.951-160.136-4.495-240.903z" fill="#ff8870"/></g><g><g><g><ellipse cx="172.936" cy="272.124" fill="#fff" rx="30.65" ry="24.408"/></g><g><ellipse cx="339.072" cy="271.967" fill="#fff" rx="30.65" ry="24.408"/></g></g><g><path d="m190.762 253.772c-6.251 0-12.196-2.704-16.312-7.419-2.724-3.12-2.403-7.858.718-10.582 3.12-2.723 7.858-2.403 10.582.718 1.267 1.452 3.094 2.284 5.013 2.284h.006c1.92-.002 3.748-.838 5.014-2.293 2.719-3.126 7.456-3.456 10.581-.737 3.125 2.718 3.456 7.456.737 10.581-4.113 4.729-10.061 7.444-16.319 7.45-.007-.002-.013-.002-.02-.002z"/></g><g><path d="m321.168 253.649c-6.249 0-12.192-2.703-16.309-7.418-2.725-3.12-2.404-7.858.716-10.582 3.12-2.725 7.858-2.405 10.582.716 1.268 1.452 3.095 2.284 5.012 2.284h.007c1.921-.002 3.75-.838 5.016-2.294 2.719-3.125 7.457-3.453 10.581-.736 3.125 2.719 3.455 7.456.736 10.581-4.113 4.729-10.061 7.443-16.319 7.449-.006 0-.014 0-.022 0z"/></g><g><path d="m256.004 265.295c-8.478 0-16.54-3.671-22.119-10.073-2.721-3.123-2.396-7.86.727-10.582 3.123-2.721 7.861-2.397 10.582.727 2.729 3.132 6.669 4.928 10.81 4.928s8.081-1.796 10.81-4.928c2.721-3.123 7.459-3.448 10.582-.727 3.123 2.722 3.448 7.459.727 10.582-5.58 6.402-13.642 10.073-22.119 10.073z"/></g></g><path d="m470.918 336.001c4.226-9.016 7.451-18.771 9.573-29.177 11.415-55.969-9.59-121.215-54.817-170.275-42.805-46.432-89.468-78.211-121.076-96.694-29.974-17.528-67.213-17.526-97.186 0-31.995 18.708-61.919 40.557-88.942 64.94-3.075 2.775-3.319 7.517-.544 10.593 2.774 3.075 7.517 3.32 10.593.544 26.263-23.697 55.354-44.936 86.465-63.128 25.303-14.796 56.739-14.796 82.042 0 30.725 17.967 76.071 48.844 117.62 93.913 42.018 45.579 61.617 105.781 51.148 157.111-6.948 34.069-27.14 60.212-56.856 73.613-3.776 1.703-5.457 6.144-3.754 9.92 1.251 2.776 3.982 4.419 6.841 4.419 1.03 0 2.078-.214 3.079-.665 20.389-9.195 36.87-23.536 48.544-41.855 23.908 17.519 32.908 29.888 33.347 33.166-.727 5.763-20.662 27.125-58.218 49.632-40.545 24.298-82.012 38.234-113.769 38.234-60.172 0-99.182-63.569-110.319-84.334.944-.486 1.874-.974 2.785-1.465 24.126-12.988 52.935-12.988 77.061 0 22.496 12.11 45.172 18.196 67.675 18.196 7.535 0 15.052-.683 22.535-2.05 4.075-.745 6.774-4.651 6.03-8.726s-4.65-6.773-8.726-6.03c-26.396 4.824-53.448-.088-80.403-14.599-28.579-15.384-62.702-15.384-91.281 0-36.04 19.401-71.712 21.661-106.024 6.718-30.174-13.139-50.757-39.197-57.958-73.374-10.855-51.517 8.68-112.025 50.982-157.912 3.152-3.419 6.411-6.848 9.684-10.189 2.898-2.959 2.849-7.708-.11-10.606s-7.708-2.849-10.606.11c-3.378 3.449-6.741 6.987-9.996 10.518-22.611 24.528-39.599 53.677-49.126 84.296-9.288 29.849-11.191 59.89-5.505 86.876 2.122 10.073 5.279 19.526 9.38 28.279-15.339 11.107-41.086 31.915-41.086 46.424 0 18.081 40.449 47.353 64.35 61.799 43.181 26.099 87.882 41.068 122.643 41.068 24.115 0 47.316-8.532 69.042-25.371 21.638 16.682 45.068 25.371 68.972 25.371 34.761 0 79.462-14.969 122.643-41.068 23.901-14.446 64.35-43.718 64.35-61.799 0-14.516-25.785-35.344-41.082-46.423zm-283.925 134.29c-31.756 0-73.223-13.936-113.769-38.234-37.557-22.507-57.491-43.868-58.218-49.631.438-3.281 9.442-15.652 33.357-33.174 11.95 18.753 28.929 33.334 49.987 42.503 39.554 17.224 75.671 11.351 102.671.462 4.993 9.438 15.617 27.711 31.297 45.38 3.919 4.416 7.929 8.527 12.013 12.349-18.298 13.494-37.55 20.345-57.338 20.345z"/></g></svg>