<svg id="Capa_1" enable-background="new 0 0 512 512" height="512" viewBox="0 0 512 512" width="512" xmlns="http://www.w3.org/2000/svg"><g><g><path d="m324.752 63.545c-3.564-2.009-5.509-6.034-4.794-10.063 1.303-7.342-.053-13.958-4.424-18.329-5.841-5.841-15.689-6.3-25.925-2.219-5.073 2.023-10.743-.579-12.557-5.731-4.138-11.76-12.015-19.703-21.052-19.703s-16.914 7.943-21.053 19.704c-1.813 5.152-7.483 7.754-12.557 5.731-10.236-4.081-20.084-3.622-25.925 2.219-4.371 4.371-5.727 10.986-4.424 18.329.715 4.028-1.23 8.054-4.794 10.063-30.985 17.463-51.247 46.409-51.247 79.165 0 53.339 53.726 96.579 120 96.579s120-43.24 120-96.579c0-32.756-20.262-61.702-51.248-79.166z" fill="#fdffbf"/></g><g><path d="m196.148 142.711c0-28.151 14.965-53.488 38.841-71.141 9.019-6.668 15.006-16.614 17.128-27.628.66-3.423 2.14-6.432 4.496-8.789 5.841-5.841 15.689-6.3 25.925-2.219.018.007.036.011.054.018-2.494-.979-4.571-2.995-5.54-5.749-4.138-11.76-12.015-19.703-21.052-19.703s-16.914 7.943-21.053 19.704c-1.813 5.152-7.483 7.754-12.557 5.731-10.236-4.081-20.084-3.622-25.925 2.219-4.371 4.371-5.727 10.986-4.424 18.329.715 4.028-1.23 8.054-4.794 10.063-30.985 17.463-51.247 46.409-51.247 79.165 0 53.339 53.726 96.579 120 96.579 10.386 0 20.463-1.063 30.074-3.059-51.719-10.741-89.926-48.539-89.926-93.52z" fill="#ffff9c"/></g><g><path d="m414.752 196.15c-3.564-2.009-5.509-6.034-4.794-10.063 1.303-7.342-.053-13.958-4.424-18.329-5.841-5.841-15.689-6.3-25.925-2.219-5.073 2.023-10.743-.579-12.557-5.731-4.139-11.761-12.016-19.704-21.053-19.704s-16.914 7.943-21.053 19.704c-1.813 5.152-7.483 7.754-12.557 5.731-10.236-4.081-20.084-3.622-25.925 2.219-4.371 4.371-5.727 10.986-4.424 18.329.715 4.028-1.23 8.054-4.794 10.063-30.984 17.463-51.246 46.41-51.246 79.166 0 53.339 53.726 96.579 120 96.579s120-43.24 120-96.579c0-32.756-20.262-61.703-51.248-79.166z" fill="#fdffbf"/></g><g><g><path d="m318.625 282.615c-4.143 0-7.5-3.358-7.5-7.5v-12c0-4.142 3.357-7.5 7.5-7.5s7.5 3.358 7.5 7.5v12c0 4.142-3.357 7.5-7.5 7.5z"/></g><g><path d="m433.522 282.615c-4.143 0-7.5-3.358-7.5-7.5v-12c0-4.142 3.357-7.5 7.5-7.5s7.5 3.358 7.5 7.5v12c0 4.142-3.357 7.5-7.5 7.5z"/></g><g><path d="m376.074 289.759c-8.479 0-16.54-3.671-22.118-10.073-2.722-3.123-2.396-7.86.728-10.582 3.122-2.721 7.861-2.396 10.581.727 2.729 3.132 6.669 4.928 10.81 4.928s8.081-1.796 10.81-4.928c2.721-3.123 7.458-3.449 10.581-.727 3.123 2.721 3.449 7.458.728 10.582-5.58 6.401-13.641 10.073-22.12 10.073z"/></g></g><g><path d="m286.148 275.316c0-28.151 14.965-53.488 38.841-71.141 9.019-6.668 15.006-16.614 17.128-27.628.66-3.423 2.14-6.432 4.496-8.789 5.841-5.841 15.689-6.3 25.925-2.219.018.007.036.011.054.018-2.494-.979-4.571-2.995-5.54-5.749-4.139-11.761-12.016-19.704-21.053-19.704s-16.914 7.943-21.053 19.704c-1.813 5.152-7.483 7.754-12.557 5.731-10.236-4.081-20.084-3.622-25.925 2.219-4.371 4.371-5.727 10.986-4.424 18.329.715 4.028-1.23 8.054-4.794 10.063-30.984 17.463-51.246 46.41-51.246 79.166 0 53.339 53.726 96.579 120 96.579 10.386 0 20.463-1.063 30.074-3.059-51.719-10.742-89.926-48.54-89.926-93.52z" fill="#ffff9c"/></g><g><path d="m234.752 196.15c-3.564-2.009-5.509-6.034-4.794-10.063 1.303-7.342-.053-13.958-4.424-18.329-5.841-5.841-15.689-6.3-25.925-2.219-5.073 2.023-10.743-.579-12.557-5.731-4.139-11.761-12.016-19.704-21.053-19.704s-16.914 7.943-21.053 19.704c-1.813 5.152-7.483 7.754-12.557 5.731-10.236-4.081-20.084-3.622-25.925 2.219-4.371 4.371-5.727 10.986-4.424 18.329.715 4.028-1.23 8.054-4.794 10.063-30.984 17.463-51.246 46.41-51.246 79.166 0 53.339 53.726 96.579 120 96.579s120-43.24 120-96.579c0-32.756-20.262-61.703-51.248-79.166z" fill="#fdffdc"/></g><g><path d="m106.148 275.316c0-28.151 14.965-53.488 38.841-71.141 9.019-6.668 15.006-16.614 17.128-27.628.66-3.423 2.14-6.432 4.496-8.789 5.841-5.841 15.689-6.3 25.925-2.219.018.007.036.011.054.018-2.494-.979-4.571-2.995-5.54-5.749-4.139-11.761-12.016-19.704-21.053-19.704s-16.914 7.943-21.053 19.704c-1.813 5.152-7.483 7.754-12.557 5.731-10.236-4.081-20.084-3.622-25.925 2.219-4.371 4.371-5.727 10.986-4.424 18.329.715 4.028-1.23 8.054-4.794 10.063-30.984 17.463-51.246 46.41-51.246 79.166 0 53.339 53.726 96.579 120 96.579 10.386 0 20.463-1.063 30.074-3.059-51.719-10.742-89.926-48.54-89.926-93.52z" fill="#fdffbf"/></g><g><path d="m471 394.5h-430v-50c0-11.046 8.954-20 20-20h390c11.046 0 20 8.954 20 20z" fill="#e3a67b"/></g><g><path d="m121 324.5h-60c-11.046 0-20 8.954-20 20v50h60v-50c0-11.046 8.954-20 20-20z" fill="#d99668"/></g><g><path d="m484.5 504.5h-457c-11.046 0-20-8.954-20-20v-100c0-11.046 8.954-20 20-20h457c11.046 0 20 8.954 20 20v100c0 11.046-8.954 20-20 20z" fill="#f2b88f"/></g><g><path d="m67.5 484.5v-100c0-11.046 8.954-20 20-20h-60c-11.046 0-20 8.954-20 20v100c0 11.046 8.954 20 20 20h60c-11.046 0-20-8.954-20-20z" fill="#e3a67b"/></g><g><path d="m176 414.5h160c11.046 0 20 8.954 20 20 0 11.046-8.954 20-20 20h-160c-11.046 0-20-8.954-20-20 0-11.046 8.954-20 20-20z" fill="#ffee6e"/></g><path d="m484.5 357h-6v-12.5c0-11.375-6.943-21.16-16.813-25.338 7.753-13.66 11.813-28.633 11.813-43.846 0-34.23-20.585-66.267-55.066-85.7-.808-.455-1.246-1.346-1.091-2.217 1.793-10.097-.518-18.955-6.505-24.943-6.735-6.735-17.121-8.728-28.502-5.702.765-4.642 1.164-9.335 1.164-14.042 0-34.23-20.585-66.267-55.065-85.7-.808-.455-1.247-1.347-1.092-2.218 1.793-10.098-.518-18.956-6.505-24.943-7.809-7.808-20.518-9.26-34.007-3.882-.677.271-1.243.135-1.6-.027-.365-.166-.853-.514-1.104-1.227-5.364-15.245-16.142-24.715-28.127-24.715-11.984 0-22.762 9.47-28.127 24.715-.251.713-.739 1.061-1.104 1.227-.357.161-.923.298-1.601.028-13.483-5.378-26.197-3.927-34.006 3.881-5.988 5.987-8.298 14.846-6.505 24.943.155.872-.284 1.763-1.092 2.218-9.677 5.454-18.384 11.971-25.88 19.369-2.948 2.91-2.979 7.658-.069 10.606s7.658 2.979 10.606.069c6.549-6.464 14.189-12.176 22.708-16.977 6.348-3.578 9.762-10.774 8.496-17.907-.527-2.973-.925-8.447 2.343-11.714 3.383-3.382 10.22-3.595 17.844-.555 4.358 1.738 9.104 1.629 13.361-.304 4.27-1.94 7.483-5.458 9.048-9.904 3.142-8.927 8.628-14.695 13.978-14.695 5.351 0 10.837 5.768 13.979 14.695 1.564 4.446 4.778 7.963 9.048 9.903 4.256 1.934 9.001 2.042 13.36.304 7.623-3.04 14.459-2.828 17.845.556 3.268 3.267 2.87 8.741 2.342 11.714-1.266 7.133 2.148 14.33 8.496 17.907 29.699 16.738 47.431 43.891 47.431 72.632 0 1.083-.034 2.165-.083 3.246-5.807-8.429-13.793-13.353-22.417-13.353-11.985 0-22.763 9.47-28.127 24.714-.252.714-.739 1.062-1.104 1.228-.355.162-.92.298-1.601.027-13.484-5.377-26.198-3.926-34.006 3.882-5.987 5.988-8.298 14.846-6.505 24.942.155.872-.283 1.763-1.092 2.218-6.274 3.536-12.157 7.542-17.565 11.937-5.359-4.361-11.225-8.364-17.566-11.938-.808-.455-1.246-1.346-1.092-2.217 1.793-10.097-.517-18.955-6.505-24.943-7.809-7.809-20.521-9.259-34.006-3.882-.678.271-1.244.135-1.601-.027-.365-.166-.853-.513-1.104-1.227-5.365-15.245-16.143-24.715-28.127-24.715-8.623 0-16.61 4.923-22.417 13.353-.049-1.081-.083-2.163-.083-3.246 0-11.685 2.824-23.045 8.394-33.767 1.909-3.676.478-8.204-3.198-10.113-3.677-1.91-8.204-.478-10.113 3.198-6.69 12.879-10.082 26.566-10.082 40.682 0 4.707.398 9.401 1.163 14.042-11.381-3.026-21.766-1.033-28.5 5.702-5.988 5.988-8.298 14.846-6.505 24.942.155.872-.284 1.763-1.091 2.218-34.48 19.433-55.066 51.47-55.066 85.7 0 15.216 4.056 30.187 11.81 43.847-9.869 4.179-16.81 13.963-16.81 25.337v12.502h-6c-15.166 0-27.502 12.336-27.502 27.5v100c0 15.164 12.336 27.5 27.5 27.5h457c15.164 0 27.5-12.336 27.5-27.5v-100c0-15.164-12.336-27.5-27.5-27.5zm-203.57-154.316c6.349-3.577 9.763-10.773 8.497-17.908-.528-2.972-.926-8.446 2.343-11.714 3.382-3.383 10.222-3.595 17.843-.555 4.361 1.738 9.106 1.63 13.36-.304 4.271-1.94 7.484-5.457 9.05-9.904 3.141-8.927 8.627-14.694 13.978-14.694s10.837 5.768 13.979 14.695c1.564 4.446 4.778 7.963 9.048 9.903 4.257 1.934 9.002 2.041 13.36.304 7.623-3.04 14.461-2.828 17.844.555 3.269 3.268 2.871 8.742 2.343 11.715-1.266 7.134 2.148 14.331 8.496 17.907 29.699 16.738 47.431 43.891 47.431 72.632 0 14.549-4.523 28.901-13.101 41.684h-162.537c6.979-13.072 10.636-27.269 10.636-41.684 0-23.244-9.501-45.471-26.39-63.433 4.295-3.35 8.916-6.435 13.82-9.199zm-180 0c6.348-3.577 9.762-10.773 8.496-17.908-.527-2.972-.925-8.446 2.343-11.714 3.382-3.382 10.22-3.595 17.844-.555 4.358 1.738 9.104 1.63 13.361-.304 4.27-1.94 7.483-5.458 9.048-9.904 3.142-8.926 8.628-14.694 13.978-14.694s10.836 5.768 13.978 14.694c1.564 4.446 4.778 7.963 9.048 9.904 4.257 1.935 9.003 2.042 13.361.304 7.625-3.041 14.461-2.826 17.844.555 3.268 3.268 2.87 8.742 2.342 11.715-1.266 7.134 2.149 14.33 8.497 17.907 29.699 16.738 47.43 43.891 47.43 72.632 0 14.549-4.522 28.901-13.101 41.684h-198.802c-8.579-12.784-13.097-27.133-13.097-41.684 0-28.742 17.731-55.894 47.43-72.632zm-73.43 169.316h317.11c4.143 0 7.5-3.358 7.5-7.5s-3.357-7.5-7.5-7.5h-296.11v-12.5c0-6.893 5.607-12.5 12.5-12.5h390c6.893 0 12.5 5.607 12.5 12.5v12.5h-88.89c-4.143 0-7.5 3.358-7.5 7.5s3.357 7.5 7.5 7.5h109.89c6.893 0 12.5 5.607 12.5 12.5v42.5h-134.548c-3.274-11.528-13.889-20-26.452-20h-160c-12.563 0-23.178 8.472-26.452 20h-134.548v-42.5c0-6.893 5.607-12.5 12.5-12.5zm321 62.5c0 6.893-5.607 12.5-12.5 12.5h-160c-6.893 0-12.5-5.607-12.5-12.5s5.607-12.5 12.5-12.5h160c6.893 0 12.5 5.607 12.5 12.5zm136 62.5h-457c-6.893 0-12.5-5.607-12.5-12.5v-42.5h134.548c3.274 11.528 13.889 20 26.452 20h160c12.563 0 23.178-8.472 26.452-20h134.548v42.5c0 6.893-5.607 12.5-12.5 12.5z"/><g><g><path d="m100.787 265.236c-6.25 0-12.195-2.703-16.312-7.419-2.725-3.12-2.403-7.858.717-10.582 3.121-2.725 7.857-2.404 10.582.717 1.268 1.452 3.095 2.284 5.013 2.284h.006c1.92-.002 3.748-.838 5.015-2.294 2.719-3.125 7.458-3.455 10.581-.736 3.125 2.719 3.455 7.456.736 10.581-4.113 4.729-10.061 7.443-16.318 7.449-.007 0-.014 0-.02 0z"/></g><g><path d="m231.196 265.113c-6.251 0-12.196-2.704-16.312-7.419-2.724-3.12-2.403-7.858.718-10.582 3.12-2.724 7.858-2.402 10.582.718 1.267 1.452 3.094 2.284 5.013 2.284h.006c1.92-.002 3.748-.838 5.014-2.293 2.719-3.126 7.457-3.456 10.581-.737 3.125 2.718 3.456 7.456.737 10.581-4.113 4.729-10.061 7.444-16.319 7.45-.006-.002-.013-.002-.02-.002z"/></g><g><path d="m166.029 276.759c-8.478 0-16.54-3.671-22.118-10.073-2.721-3.123-2.396-7.86.727-10.582 3.123-2.721 7.86-2.395 10.582.727 2.729 3.132 6.669 4.928 10.81 4.928s8.081-1.796 10.81-4.928c2.721-3.123 7.459-3.447 10.582-.727 3.123 2.722 3.448 7.459.727 10.582-5.581 6.401-13.643 10.073-22.12 10.073z"/></g></g><g><g><path d="m218.243 117.727c-4.142 0-7.5-3.358-7.5-7.5 0-3.455-2.811-6.265-6.265-6.265s-6.265 2.811-6.265 6.265c0 4.142-3.358 7.5-7.5 7.5s-7.5-3.358-7.5-7.5c0-11.726 9.54-21.265 21.265-21.265s21.265 9.54 21.265 21.265c0 4.142-3.358 7.5-7.5 7.5z"/></g><g><path d="m321.287 117.727c-4.143 0-7.5-3.358-7.5-7.5 0-3.455-2.811-6.265-6.265-6.265s-6.265 2.811-6.265 6.265c0 4.142-3.357 7.5-7.5 7.5s-7.5-3.358-7.5-7.5c0-11.726 9.539-21.265 21.265-21.265s21.265 9.54 21.265 21.265c0 4.142-3.357 7.5-7.5 7.5z"/></g><g><path d="m256 140.467c-7.763 0-15.146-3.362-20.255-9.225-2.721-3.123-2.396-7.86.727-10.582 3.123-2.721 7.859-2.396 10.582.727 2.259 2.593 5.521 4.08 8.947 4.08s6.687-1.487 8.948-4.081c2.72-3.123 7.458-3.448 10.581-.726s3.447 7.459.726 10.582c-5.11 5.863-12.493 9.225-20.256 9.225z"/></g></g></g></svg>