<svg id="Capa_1" enable-background="new 0 0 512.001 512.001" height="512" viewBox="0 0 512.001 512.001" width="512" xmlns="http://www.w3.org/2000/svg"><g><g><path d="m314.196 7.501c-10.741 0-49.908 53.44-49.908 93.934s49.908 63.066 49.908 63.066 49.908-22.571 49.908-63.066-39.167-93.934-49.908-93.934z" fill="#00d27f"/></g><g><path d="m431.592 49.122c-7.595-7.595-73.078 2.497-101.712 31.131s-9.303 79.885-9.303 79.885 51.251 19.331 79.885-9.303c28.633-28.634 38.725-94.117 31.13-101.713z" fill="#92ef8e"/></g><g><path d="m355.3 63.163-.226-.098c-9.62 4.704-18.435 10.429-25.194 17.189-28.634 28.634-9.304 79.885-9.304 79.885s51.251 19.331 79.885-9.303c8.074-8.074 14.673-19.077 19.817-30.886-40.563-7.122-59.828-44.555-64.978-56.787z" fill="#66df6b"/></g><g><path d="m361.001 504.501h-210c-19.33 0-35-15.67-35-35 0-19.33 15.67-35 35-35h210c19.33 0 35 15.67 35 35 0 19.33-15.67 35-35 35z" fill="#f2b88f"/></g><g><path d="m196.001 469.501c0-19.33 15.67-35 35-35h-80c-19.33 0-35 15.67-35 35 0 19.33 15.67 35 35 35h80c-19.33 0-35-15.67-35-35z" fill="#e3a67b"/></g><g><path d="m376.001 444.501h-240c-33.137 0-60-26.863-60-60v-230c0-11.046 8.954-20 20-20h320c11.046 0 20 8.954 20 20v230c0 33.137-26.863 60-60 60z" fill="#e3a67b"/></g><g><path d="m156.001 384.501v-230c0-11.046 8.954-20 20-20h-80c-11.046 0-20 8.954-20 20v230c0 33.137 26.863 60 60 60h80c-33.137 0-60-26.863-60-60z" fill="#d99668"/></g><g><g><g><ellipse cx="172.933" cy="370.225" fill="#fff" rx="30.65" ry="24.408"/></g><g><ellipse cx="339.068" cy="370.068" fill="#fff" rx="30.65" ry="24.408"/></g></g><g><path d="m190.758 351.873c-6.251 0-12.195-2.703-16.312-7.419-2.725-3.12-2.403-7.858.717-10.582 3.119-2.725 7.857-2.404 10.582.717 1.268 1.452 3.095 2.284 5.014 2.284h.006c1.921-.002 3.749-.838 5.015-2.293 2.721-3.126 7.458-3.454 10.581-.737 3.125 2.718 3.455 7.456.737 10.581-4.112 4.729-10.061 7.444-16.319 7.45-.008-.001-.015-.001-.021-.001z"/></g><g><path d="m321.166 351.75c-6.25 0-12.193-2.703-16.311-7.419-2.724-3.12-2.402-7.858.718-10.582 3.121-2.723 7.859-2.402 10.583.718 1.267 1.451 3.093 2.283 5.011 2.283h.007c1.921-.002 3.749-.838 5.015-2.293 2.72-3.126 7.458-3.454 10.581-.737 3.125 2.718 3.455 7.456.737 10.581-4.112 4.729-10.061 7.444-16.318 7.45-.008-.001-.016-.001-.023-.001z"/></g><g><path d="m256.001 363.396c-8.479 0-16.54-3.671-22.118-10.073-2.722-3.123-2.396-7.86.728-10.582 3.122-2.721 7.86-2.396 10.581.727 2.729 3.132 6.669 4.928 10.81 4.928s8.081-1.796 10.81-4.928c2.721-3.124 7.458-3.449 10.581-.727 3.123 2.721 3.449 7.458.728 10.582-5.58 6.402-13.642 10.073-22.12 10.073z"/></g></g><g><path d="m56.001 194.501c0 11.046 8.954 20 20 20h360c11.046 0 20-8.954 20-20 0-11.046-8.954-20-20-20h-360c-11.046 0-20 8.954-20 20z" fill="#f2b88f"/></g><g><path d="m56.001 274.501c0 11.046 8.954 20 20 20h360c11.046 0 20-8.954 20-20 0-11.046-8.954-20-20-20h-360c-11.046 0-20 8.954-20 20z" fill="#f2b88f"/></g><g><path d="m136.001 194.501c0-11.046 8.954-20 20-20h-80c-11.046 0-20 8.954-20 20 0 11.046 8.954 20 20 20h80c-11.046 0-20-8.954-20-20z" fill="#e3a67b"/></g><g><path d="m136.001 274.501c0-11.046 8.954-20 20-20h-80c-11.046 0-20 8.954-20 20 0 11.046 8.954 20 20 20h80c-11.046 0-20-8.954-20-20z" fill="#e3a67b"/></g><g><path d="m443.501 248.049v-27.096c11.528-3.274 20-13.889 20-26.452s-8.472-23.178-20-26.452v-13.548c0-12.148-7.921-22.474-18.866-26.104 6.448-13.358 11.614-29.264 14.548-45.095 2.652-14.316 4.409-32.788-2.287-39.483-9.188-9.188-40.644-2.323-50.065.001-7.202 1.776-17.275 4.707-27.823 9.181-5.557-11.837-12.744-23.783-20.269-33.579-14.918-19.421-22.162-19.421-24.543-19.421-12.993 0-30.381 27.097-35.4 35.402-8.22 13.598-22.008 40.259-22.008 66.032 0 8.773 2.027 17.33 6.033 25.565h-166.82c-15.163 0-27.5 12.336-27.5 27.5v13.548c-11.528 3.274-20 13.889-20 26.452s8.472 23.178 20 26.452v27.096c-11.528 3.274-20 13.889-20 26.452s8.472 23.178 20 26.452v53.297c0 4.142 3.357 7.5 7.5 7.5s7.5-3.358 7.5-7.5v-52.249h345v82.5c0 28.949-23.552 52.5-52.5 52.5h-240c-28.948 0-52.5-23.551-52.5-52.5 0-4.142-3.357-7.5-7.5-7.5s-7.5 3.358-7.5 7.5c0 29.566 19.115 54.734 45.63 63.843-3.667 6.364-5.63 13.599-5.63 21.157 0 23.435 19.065 42.5 42.5 42.5h210c23.435 0 42.5-19.065 42.5-42.5 0-7.558-1.963-14.793-5.63-21.157 26.514-9.109 45.63-34.277 45.63-63.843v-83.548c11.528-3.274 20-13.889 20-26.452s-8.472-23.177-20-26.451zm-55 221.452c0 15.164-12.337 27.5-27.5 27.5h-210c-15.163 0-27.5-12.336-27.5-27.5 0-6.597 2.302-12.819 6.523-17.779 1.971.174 3.962.279 5.977.279h240c2.015 0 4.006-.105 5.977-.279 4.221 4.96 6.523 11.182 6.523 17.779zm40-247.5v25h-345v-25zm-2.443-167.353c2.049 8.054-1.888 43.676-17.547 72.354h-44.191l31.008-31.008c2.929-2.929 2.929-7.678 0-10.606-2.93-2.929-7.678-2.929-10.607 0l-41.614 41.614h-21.329c-.535-13.468 1.818-29.856 13.406-41.444 25.583-25.586 80.317-33.669 90.874-30.91zm-154.27 46.788c0-36.176 32.978-80.591 42.4-86.114 5.481 3.27 20.389 20.746 31.334 44.234-7.556 4.204-14.835 9.284-20.945 15.395-12.48 12.479-18.551 30.373-17.795 52.051h-26.677c-5.515-8.242-8.317-16.828-8.317-25.566zm-208.287 93.065c0-6.893 5.607-12.5 12.5-12.5h230.176c4.143 0 7.5-3.358 7.5-7.5s-3.357-7.5-7.5-7.5h-222.676v-12.5c0-6.893 5.607-12.5 12.5-12.5h320c6.893 0 12.5 5.607 12.5 12.5v12.5h-92.324c-4.143 0-7.5 3.358-7.5 7.5s3.357 7.5 7.5 7.5h99.824c6.893 0 12.5 5.607 12.5 12.5s-5.607 12.5-12.5 12.5h-360c-6.893 0-12.5-5.607-12.5-12.5zm372.5 92.5h-360c-6.893 0-12.5-5.607-12.5-12.5s5.607-12.5 12.5-12.5h360c6.893 0 12.5 5.607 12.5 12.5s-5.608 12.5-12.5 12.5z"/><path d="m203.408 83.612c-1.862 3.7-.372 8.209 3.328 10.071 1.081.544 2.231.802 3.365.802 2.744 0 5.388-1.512 6.705-4.13 7.434-14.77 7.434-31.713 0-46.483-5.276-10.486-5.276-22.514.001-32.999 1.862-3.7.373-8.209-3.327-10.071-3.701-1.861-8.21-.373-10.071 3.327-7.435 14.771-7.435 31.714-.001 46.486 5.276 10.485 5.276 22.512 0 32.997z"/><path d="m154.049 83.612c-1.862 3.7-.372 8.209 3.328 10.071 1.081.544 2.231.802 3.365.802 2.744 0 5.388-1.512 6.705-4.13 7.434-14.77 7.434-31.713 0-46.483-5.276-10.486-5.276-22.514.001-32.999 1.862-3.7.373-8.209-3.327-10.071-3.7-1.861-8.209-.373-10.071 3.327-7.435 14.771-7.435 31.714-.001 46.486 5.277 10.485 5.277 22.512 0 32.997z"/><path d="m104.691 83.612c-1.862 3.7-.372 8.209 3.328 10.071 1.081.544 2.231.802 3.365.802 2.744 0 5.388-1.512 6.705-4.13 7.434-14.77 7.434-31.713 0-46.483-5.276-10.486-5.276-22.514.001-32.999 1.862-3.7.373-8.209-3.327-10.071-3.701-1.861-8.209-.373-10.071 3.327-7.435 14.771-7.435 31.714-.001 46.486 5.276 10.485 5.276 22.512 0 32.997z"/></g></g></svg>