<svg id="Capa_1" enable-background="new 0 0 512 512" height="512" viewBox="0 0 512 512" width="512" xmlns="http://www.w3.org/2000/svg"><g><g><circle cx="370.692" cy="230.183" fill="#ffa759" r="35"/></g><g><g><path d="m293.947 64.392c-2.849 0-5.741-.611-8.491-1.903-20.87-9.806-44.494-14.988-68.319-14.988s-47.449 5.183-68.319 14.988c-9.999 4.696-21.91.401-26.606-9.597-4.697-9.997-.4-21.91 9.597-26.606 26.155-12.29 55.662-18.786 85.328-18.786s59.173 6.496 85.329 18.785c9.997 4.697 14.294 16.609 9.597 26.606-3.406 7.248-10.605 11.5-18.116 11.501z" fill="#ffee6e"/></g></g><g><path d="m457.768 365.297 25.359-103.998c1.535-6.297-3.234-12.369-9.715-12.369h-28.179c-5.587 0-10.711 3.105-13.296 8.057l-108.359 207.513h7.89c59.935 0 112.102-40.975 126.3-99.203z" fill="#ffd883"/></g><g><circle cx="63.582" cy="230.183" fill="#ffa759" r="35"/></g><g><ellipse cx="217.137" cy="326.712" fill="#ffee6e" rx="187.723" ry="167.786"/></g><g><path d="m122.137 326.712c0-84.641 52.806-154.631 121.447-166.121-8.642-1.089-17.469-1.665-26.447-1.665-103.677 0-187.724 75.12-187.724 167.786s84.047 167.786 187.724 167.786c8.978 0 17.805-.576 26.447-1.665-68.641-11.489-121.447-81.479-121.447-166.121z" fill="#ffd883"/></g><g><path d="m337.137 504.5h-240c-11.046 0-20-8.954-20-20 0-11.046 8.954-20 20-20h240c11.046 0 20 8.954 20 20 0 11.046-8.954 20-20 20z" fill="#ffd883"/></g><g><path d="m163.032 484.5c0-11.046 8.954-20 20-20h-85.895c-11.046 0-20 8.954-20 20 0 11.046 8.954 20 20 20h85.895c-11.046 0-20-8.954-20-20z" fill="#ffa759"/></g><g><path d="m287.137 148.926h-140l14.971-37.428c3.037-7.593 10.391-12.572 18.57-12.572h72.919c8.178 0 15.532 4.979 18.57 12.572z" fill="#ffee6e"/></g><g><path d="m307.137 178.926h-180c-11.046 0-20-8.954-20-20 0-11.046 8.954-20 20-20h180c11.046 0 20 8.954 20 20 0 11.046-8.954 20-20 20z" fill="#ffd883"/></g><g><path d="m177.137 158.926c0-11.046 8.954-20 20-20h-70c-11.046 0-20 8.954-20 20 0 11.046 8.954 20 20 20h70c-11.046 0-20-8.954-20-20z" fill="#ffa759"/></g><g><path d="m197.137 27.5c0-11.046 8.954-20 20-20-29.666 0-59.173 6.496-85.329 18.785-9.997 4.697-14.294 16.609-9.597 26.606 4.696 9.998 16.607 14.293 26.606 9.597 20.87-9.806 44.494-14.988 68.319-14.988-11.045 0-19.999-8.954-19.999-20z" fill="#ffd883"/></g><g><path d="m312.782 332.228-85.13 85.13c-5.807 5.807-15.222 5.807-21.029 0l-85.13-85.13c-5.807-5.807-5.807-15.222 0-21.029l85.13-85.13c5.807-5.807 15.222-5.807 21.029 0l85.13 85.13c5.807 5.807 5.807 15.222 0 21.029z" fill="#ff9b87"/></g><g><path d="m237.605 236.022-9.953-9.953c-5.807-5.807-15.222-5.807-21.029 0l-85.13 85.13c-5.807 5.807-5.807 15.222 0 21.029l85.13 85.13c5.807 5.807 15.222 5.807 21.029 0l9.953-9.953c-40.794-49.705-40.794-121.679 0-171.383z" fill="#ff8870"/></g><g><circle cx="217.137" cy="321.713" fill="#f7f7f7" r="40"/></g><g><path d="m212.968 281.93c-20.132 2.085-35.831 19.1-35.831 39.783s15.699 37.698 35.831 39.783c-7.941-25.885-7.941-53.681 0-79.566z" fill="#f0f0f0"/></g><g><path d="m487.174 248.12c-3.34-4.252-8.356-6.691-13.763-6.691h-28.18c-8.409 0-16.052 4.631-19.944 12.085l-17.829 34.145c-2.218-8.721-5.168-17.237-8.805-25.484 9.189-8.014 14.539-19.58 14.539-31.992 0-16.883-9.896-31.495-24.191-38.348.645-5.48.983-11.026.983-16.549 0-48.971-25.806-95.084-69.304-124.358 1.289-5.218 1.015-10.701-.85-15.872-2.493-6.91-7.526-12.436-14.175-15.559-27.147-12.755-57.756-19.497-88.518-19.497s-61.371 6.742-88.519 19.497c-6.648 3.124-11.682 8.649-14.175 15.559-1.866 5.173-2.139 10.658-.848 15.878-43.504 29.278-69.305 75.354-69.305 124.352 0 5.525.327 11.071.972 16.554-14.289 6.855-24.18 21.465-24.18 38.343 0 12.416 5.349 23.977 14.537 31.99-8.915 20.217-13.706 42.058-13.706 64.54 0 50.686 24.51 98.636 66.448 131.732-10.872 3.672-18.724 13.961-18.724 26.056 0 15.164 12.337 27.5 27.5 27.5h240c15.163 0 27.5-12.336 27.5-27.5 0-5.718-1.756-11.033-4.754-15.437 51.022-10.682 92.408-49.646 105.171-101.99l25.358-103.998c1.282-5.253.101-10.704-3.238-14.956zm-88.982-17.937c0 6.661-2.386 12.943-6.591 17.856-8.667-15.497-19.875-29.804-33.287-42.418 3.799-1.918 8.019-2.938 12.378-2.938 15.163 0 27.5 12.337 27.5 27.5zm-269.638-190.037c1.133-3.141 3.421-5.652 6.443-7.072 25.164-11.824 53.569-18.074 82.14-18.074s56.976 6.25 82.14 18.073c3.022 1.42 5.311 3.931 6.443 7.072 1.133 3.141.975 6.535-.445 9.557-2.052 4.367-6.498 7.189-11.327 7.189-1.836 0-3.619-.401-5.302-1.191-21.862-10.271-46.588-15.7-71.509-15.7s-49.647 5.429-71.508 15.7c-6.242 2.933-13.7.24-16.63-5.998-1.42-3.022-1.578-6.416-.445-9.556zm-69.264 135.14c0-43.617 22.973-84.768 61.76-111.275 7.973 7.809 20.278 10.283 30.957 5.265 19.878-9.339 42.399-14.276 65.13-14.276s45.252 4.937 65.13 14.276c3.693 1.735 7.624 2.615 11.681 2.615h.001c7.299 0 14.2-2.934 19.266-7.889 38.785 26.505 61.769 67.688 61.769 111.284 0 4.19-.229 8.393-.645 12.564-1.203-.103-2.418-.167-3.647-.167-8.788 0-17.216 2.681-24.303 7.635-6.856-5.44-14.175-10.477-21.923-15.058 6.201-5.047 10.171-12.734 10.171-21.333 0-15.164-12.337-27.5-27.5-27.5h-18.921l-9.085-22.713c-4.2-10.501-14.223-17.287-25.533-17.287h-72.919c-11.311 0-21.333 6.786-25.533 17.287l-9.086 22.713h-18.922c-15.163 0-27.5 12.336-27.5 27.5 0 8.599 3.97 16.287 10.171 21.333-7.749 4.581-15.067 9.618-21.923 15.058-7.087-4.954-15.514-7.634-24.303-7.634-1.228 0-2.44.064-3.642.167-.417-4.173-.651-8.374-.651-12.565zm67.847-3.86c-6.893 0-12.5-5.607-12.5-12.5s5.607-12.5 12.5-12.5h95c4.143 0 7.5-3.358 7.5-7.5s-3.357-7.5-7.5-7.5h-59.922l6.857-17.143c1.909-4.773 6.465-7.857 11.605-7.857h72.919c5.141 0 9.696 3.084 11.605 7.858l6.857 17.142h-19.922c-4.143 0-7.5 3.358-7.5 7.5s3.357 7.5 7.5 7.5h55c6.893 0 12.5 5.607 12.5 12.5s-5.607 12.5-12.5 12.5zm-91.055 58.757c0-15.164 12.337-27.5 27.5-27.5 4.358 0 8.578 1.02 12.377 2.937-13.414 12.613-24.621 26.919-33.288 42.417-4.204-4.911-6.589-11.191-6.589-17.854zm301.055 241.817c6.893 0 12.5 5.607 12.5 12.5s-5.607 12.5-12.5 12.5h-240c-6.893 0-12.5-5.607-12.5-12.5s5.607-12.5 12.5-12.5zm138.703-212.479-25.358 103.999c-11.981 49.136-52.278 85.016-101.09 92.154 21.378-17.651 38.107-39.328 49.003-63.72 1.689-3.782-.007-8.217-3.789-9.907-3.779-1.688-8.217.006-9.906 3.789-12.777 28.603-34.419 53.166-62.621 71.165h-209.895c-47.153-30.109-75.271-78.706-75.271-130.288 0-58.288 35.628-112 93.008-140.286h174.436c57.373 28.286 93.003 82.012 93.003 140.286 0 10.794-1.214 21.582-3.606 32.062-.923 4.039 1.604 8.06 5.642 8.982.562.128 1.124.189 1.677.189 3.421 0 6.511-2.355 7.305-5.832 2.644-11.574 3.983-23.484 3.983-35.401 0-4.94-.233-9.848-.688-14.716l26.912-51.538c1.297-2.485 3.845-4.029 6.647-4.029h28.18c1.058 0 1.686.599 1.966.956.279.356.712 1.108.462 2.135z"/><path d="m318.085 305.896-85.13-85.13c-4.226-4.225-9.843-6.552-15.818-6.552s-11.593 2.327-15.818 6.552l-85.13 85.13c-8.721 8.722-8.721 22.914 0 31.635l85.131 85.131c4.225 4.225 9.843 6.552 15.817 6.552 5.976 0 11.593-2.327 15.818-6.552l85.13-85.13h-.001c4.226-4.226 6.553-9.843 6.553-15.818 0-5.976-2.327-11.593-6.552-15.818zm-10.606 21.028-85.131 85.131c-1.392 1.392-3.242 2.159-5.211 2.159s-3.819-.767-5.211-2.159l-85.13-85.13c-2.873-2.874-2.873-7.549 0-10.422l85.129-85.13c1.393-1.393 3.243-2.159 5.212-2.159s3.819.767 5.211 2.159l85.131 85.131c1.392 1.392 2.158 3.242 2.158 5.21s-.767 3.818-2.158 5.21z"/><path d="m217.137 274.213c-26.191 0-47.5 21.309-47.5 47.5s21.309 47.5 47.5 47.5 47.5-21.309 47.5-47.5-21.309-47.5-47.5-47.5zm0 80c-17.921 0-32.5-14.58-32.5-32.5s14.579-32.5 32.5-32.5 32.5 14.58 32.5 32.5-14.579 32.5-32.5 32.5z"/><path d="m450.672 210.519c-1.862 3.7-.372 8.209 3.328 10.071 1.081.544 2.231.802 3.365.802 2.744 0 5.388-1.512 6.705-4.13 7.434-14.771 7.434-31.713 0-46.483-5.276-10.486-5.276-22.514.001-32.999 1.862-3.7.373-8.209-3.327-10.071-3.699-1.861-8.209-.373-10.071 3.327-7.435 14.771-7.435 31.714-.001 46.486 5.276 10.484 5.276 22.512 0 32.997z"/></g></g></svg>