<svg id="Capa_1" enable-background="new 0 0 512.018 512.018" height="512" viewBox="0 0 512.018 512.018" width="512" xmlns="http://www.w3.org/2000/svg"><g><g><path d="m67.5 37.509h205.517v370h-205.517z" fill="#ff6c52"/></g><g><path d="m321.518 204.509-57.671-41.619c-24.697-17.823-39.329-46.425-39.329-76.881 0-26.786 21.714-48.5 48.5-48.5 26.786 0 48.5 21.714 48.5 48.5z" fill="#ff583e"/></g><g><path d="m504.518 291.224v-116.715c0-22.091-17.909-40-40-40h-191.5c-26.786 0-48.5-21.714-48.5-48.5v205.216l17.071 28.284-17.071 28.284v108.216c0 26.786 4.679 48.5 31.465 48.5h208.535c22.091 0 40-17.909 40-40v-116.716l-17.071-28.284z" fill="#ff9b87"/></g><g><path d="m404.518 134.509h-131.5c-26.786 0-48.5-21.714-48.5-48.5v205.216l17.071 28.284-17.071 28.284v108.216c0 26.786 4.679 48.5 31.465 48.5h148.535c-22.091 0-40-17.909-40-40v-290c0-22.092 17.908-40 40-40z" fill="#ff8870"/></g><g><path d="m147.5 339.284v-136.804l-17.071-28.284 17.071-28.284v-108.403c0-16.569-13.431-30-30-30h-80c-16.569 0-30 13.431-30 30v108.402l17.071 28.284-17.071 28.285v136.805l17.071 28.284-17.071 28.284v11.656c0 16.569 13.431 30 30 30h80c16.569 0 30-13.431 30-30v-11.656l-17.071-28.284z" fill="#ff9b87"/></g><g><path d="m107.5 7.509h-70c-16.569 0-30 13.431-30 30v108.402l17.071 28.284-17.071 28.285v136.805l17.071 28.284-17.071 28.284v11.656c0 16.569 13.431 30 30 30h70c-16.569 0-30-13.431-30-30v-370c0-16.569 13.432-30 30-30z" fill="#ff8870"/></g><g><path d="m77.5 49.225c-7.81-7.81-20.474-7.811-28.284 0s-7.81 20.474 0 28.284c-7.811 7.811-7.81 20.474 0 28.284s20.474 7.811 28.284 0c7.81 7.81 20.474 7.811 28.284 0s7.81-20.474 0-28.284c7.811-7.811 7.81-20.474 0-28.284s-20.473-7.811-28.284 0z" fill="#ffee6e"/></g><g><path d="m49.216 105.793c7.81 7.811 20.474 7.811 28.284 0v-56.569c-7.81-7.81-20.474-7.81-28.284 0-7.811 7.81-7.81 20.474 0 28.284-7.811 7.811-7.811 20.475 0 28.285z" fill="#ffd883"/></g><g><path d="m119.216 145.911c-7.81 7.811-7.81 20.474 0 28.284-7.81 7.81-7.81 20.474 0 28.284s20.474 7.811 28.284 0v-56.569c-7.81-7.809-20.474-7.809-28.284.001z" fill="#ffee6e"/></g><g><path d="m35.784 202.48c7.81-7.811 7.81-20.474 0-28.284 7.81-7.81 7.81-20.474 0-28.284s-20.474-7.811-28.284 0v56.569c7.811 7.809 20.474 7.809 28.284-.001z" fill="#ffd883"/></g><g><path d="m119.216 339.284c-7.81 7.811-7.81 20.474 0 28.284-7.81 7.81-7.81 20.474 0 28.284 7.81 7.811 20.474 7.811 28.284 0v-56.569c-7.81-7.809-20.474-7.809-28.284.001z" fill="#ffee6e"/></g><g><path d="m35.784 395.853c7.81-7.811 7.81-20.474 0-28.284 7.81-7.811 7.81-20.474 0-28.284s-20.474-7.81-28.284 0v56.569c7.811 7.81 20.474 7.81 28.284-.001z" fill="#ffd883"/></g><g><path d="m294.517 176.225c-7.81-7.81-20.474-7.811-28.284 0s-7.81 20.474 0 28.284c-7.81 7.811-7.81 20.474 0 28.284s20.474 7.811 28.284 0c7.81 7.81 20.474 7.811 28.284 0 7.811-7.811 7.81-20.474 0-28.284 7.811-7.811 7.81-20.474 0-28.284s-20.473-7.811-28.284 0z" fill="#ffd883"/></g><g><path d="m434.517 176.225c-7.81-7.81-20.474-7.811-28.284 0s-7.81 20.474 0 28.284c-7.81 7.811-7.81 20.474 0 28.284s20.474 7.811 28.284 0c7.81 7.81 20.474 7.811 28.284 0 7.811-7.811 7.81-20.474 0-28.284 7.811-7.811 7.81-20.474 0-28.284s-20.473-7.811-28.284 0z" fill="#ffee6e"/></g><g><path d="m294.517 406.225c-7.81-7.81-20.474-7.81-28.284 0s-7.81 20.474 0 28.284c-7.81 7.81-7.81 20.474 0 28.284s20.474 7.81 28.284 0c7.81 7.81 20.474 7.81 28.284 0 7.811-7.81 7.81-20.474 0-28.284 7.811-7.81 7.81-20.474 0-28.284s-20.473-7.811-28.284 0z" fill="#ffd883"/></g><g><path d="m364.517 291.225c-7.81-7.81-20.474-7.81-28.284 0s-7.81 20.474 0 28.284c-7.81 7.81-7.81 20.474 0 28.284s20.474 7.81 28.284 0c7.81 7.81 20.474 7.81 28.284 0 7.811-7.81 7.81-20.474 0-28.284 7.811-7.81 7.81-20.474 0-28.284s-20.473-7.811-28.284 0z" fill="#ffee6e"/></g><g><path d="m336.233 347.793c7.81 7.811 20.474 7.811 28.284 0v-56.568c-7.81-7.81-20.474-7.81-28.284 0s-7.81 20.474 0 28.284c-7.81 7.81-7.81 20.474 0 28.284z" fill="#ffd883"/></g><g><path d="m476.233 291.224c-7.81 7.81-7.81 20.474 0 28.284-7.81 7.811-7.81 20.474 0 28.284 7.81 7.811 20.474 7.811 28.284 0v-56.568c-7.81-7.81-20.473-7.81-28.284 0z" fill="#ffee6e"/></g><g><path d="m252.802 347.793c7.81-7.81 7.81-20.474 0-28.284 7.81-7.811 7.81-20.474 0-28.284s-20.474-7.81-28.284 0v56.568c7.81 7.811 20.473 7.811 28.284 0z" fill="#ffd883"/></g><g><path d="m434.517 406.225c-7.81-7.81-20.474-7.81-28.284 0s-7.81 20.474 0 28.284c-7.81 7.81-7.81 20.474 0 28.284s20.474 7.81 28.284 0c7.81 7.81 20.474 7.81 28.284 0 7.811-7.81 7.81-20.474 0-28.284 7.811-7.81 7.81-20.474 0-28.284s-20.473-7.811-28.284 0z" fill="#ffee6e"/></g><g><path d="m77.5 242.598c-7.81-7.81-20.474-7.811-28.284 0s-7.81 20.474 0 28.284c-7.811 7.811-7.81 20.474 0 28.284s20.474 7.811 28.284 0c7.81 7.81 20.474 7.811 28.284 0 7.811-7.81 7.81-20.474 0-28.284 7.811-7.81 7.81-20.474 0-28.284s-20.473-7.811-28.284 0z" fill="#ffee6e"/></g><g><path d="m49.216 299.166c7.81 7.81 20.474 7.81 28.284 0v-56.568c-7.81-7.811-20.474-7.811-28.284 0-7.811 7.81-7.81 20.474 0 28.284-7.811 7.811-7.811 20.474 0 28.284z" fill="#ffd883"/></g><g><path d="m82.803 82.812c2.929-2.929 2.929-7.678 0-10.607s-7.678-2.929-10.607 0-2.929 7.678 0 10.607 7.678 2.929 10.607 0z"/><circle cx="294.518" cy="204.509" r="7.5"/><circle cx="434.517" cy="204.509" r="7.5"/><circle cx="294.518" cy="434.509" r="7.5"/><circle cx="364.518" cy="319.509" r="7.5"/><circle cx="434.517" cy="434.509" r="7.5"/><path d="m464.518 127.009h-15c-4.142 0-7.5 3.357-7.5 7.5s3.358 7.5 7.5 7.5h15c17.92 0 32.5 14.579 32.5 32.5v104.226c-9.074-2.218-19.091.189-26.087 7.186-9.094 9.095-10.476 23.024-4.144 33.588-6.332 10.563-4.951 24.493 4.143 33.587 5.328 5.328 12.389 8.001 19.454 8 2.229 0 4.458-.271 6.634-.804v104.217c0 17.921-14.58 32.5-32.5 32.5h-208.536c-15.178 0-23.965-6.709-23.965-41v-95.709c2.176.534 4.406.805 6.636.805 7.059 0 14.116-2.674 19.451-8.009 9.094-9.095 10.476-23.024 4.144-33.588 6.332-10.563 4.951-24.493-4.143-33.587-7.016-7.017-17.02-9.424-26.088-7.2v-154.606c10.232 11.002 24.826 17.894 41 17.894h146.5c4.142 0 7.5-3.357 7.5-7.5s-3.358-7.5-7.5-7.5h-90.5v-41c0-30.879-25.122-56-56-56h-118.772c-3.484-17.096-18.635-30-36.745-30h-80c-20.678 0-37.5 16.822-37.5 37.5v370c0 20.678 16.822 37.5 37.5 37.5h80c18.11 0 33.261-12.904 36.745-30h62.772v41c0 17.333 2.011 28.969 6.52 37.728 6.241 12.125 17.158 18.272 32.445 18.272h208.535c26.191 0 47.5-21.309 47.5-47.5v-290c.001-26.192-21.308-47.5-47.499-47.5zm-217.019 169.519c4.874 4.873 4.874 12.804 0 17.677-2.929 2.93-2.929 7.678 0 10.607 4.874 4.873 4.874 12.804 0 17.677-4.172 4.172-10.656 4.759-15.481 1.743v-49.449c4.823-3.013 11.312-2.425 15.481 1.745zm66.519-210.519v41h-41c-22.607 0-41-18.393-41-41s18.393-41 41-41 41 18.392 41 41zm-189.499 82.883c-4.874-4.873-4.874-12.804 0-17.678 4.173-4.172 10.657-4.758 15.481-1.742v49.448c-4.824 3.015-11.311 2.426-15.481-1.744-4.874-4.873-4.874-12.804 0-17.677 2.929-2.93 2.929-7.678 0-10.607zm-94.038 10.607c4.874 4.873 4.874 12.804 0 17.678-4.165 4.164-10.657 4.757-15.48 1.744v-49.45c4.823-3.013 11.314-2.422 15.481 1.744 4.874 4.873 4.874 12.804 0 17.677-2.93 2.929-2.93 7.677-.001 10.607zm0 193.374c2.36 2.36 3.661 5.499 3.661 8.838 0 3.338-1.3 6.478-3.661 8.839-4.174 4.173-10.657 4.76-15.481 1.743v-49.448c4.824-3.018 11.308-2.429 15.481 1.744 4.874 4.874 4.874 12.804 0 17.678-1.407 1.407-2.197 3.314-2.197 5.304s.791 3.896 2.197 5.302zm94.038-10.607c-4.874-4.874-4.874-12.804 0-17.678 4.159-4.159 10.659-4.755 15.481-1.746v49.452c-4.824 3.015-11.313 2.425-15.481-1.745-2.361-2.36-3.661-5.499-3.661-8.838s1.3-6.478 3.661-8.838c1.406-1.406 2.197-3.314 2.197-5.304s-.79-3.896-2.197-5.303zm30.481 37.743v-114.127c0-4.143-3.358-7.5-7.5-7.5s-7.5 3.357-7.5 7.5v40.912c-9.073-2.218-19.088.188-26.087 7.186-9.092 9.092-10.474 23.019-4.148 33.581-2.547 4.229-3.907 9.085-3.907 14.149 0 7.346 2.861 14.252 8.055 19.444 5.332 5.333 12.39 8.007 19.452 8.006 2.222 0 4.444-.269 6.614-.799-.451 12.012-10.358 21.646-22.478 21.646h-80c-12.119 0-22.024-9.632-22.478-21.641 2.17.531 4.392.8 6.615.8 7.057 0 14.114-2.676 19.45-8.012 5.194-5.194 8.055-12.101 8.055-19.445 0-5.064-1.36-9.92-3.907-14.149 6.326-10.562 4.944-24.489-4.148-33.581-7.022-7.021-17.022-9.428-26.087-7.202v-111.797c2.176.533 4.405.804 6.635.804 7.063 0 14.125-2.673 19.453-8.001 9.094-9.095 10.476-23.024 4.144-33.588 6.332-10.563 4.951-24.493-4.144-33.588-7.011-7.01-17.018-9.417-26.087-7.195v-95.903c0-12.406 10.093-22.5 22.5-22.5h80c12.407 0 22.5 10.094 22.5 22.5v95.897c-9.066-2.226-19.066.181-26.087 7.202-9.094 9.095-10.476 23.024-4.144 33.588-6.332 10.563-4.951 24.493 4.143 33.587 5.333 5.333 12.391 8.007 19.452 8.007 2.23 0 4.459-.271 6.636-.805v40.898c0 4.143 3.358 7.5 7.5 7.5s7.5-3.357 7.5-7.5v-210.874h79.928c-11.007 10.232-17.91 24.822-17.91 41v314zm326.537-57.52c-4.874-4.873-4.874-12.804 0-17.677 2.929-2.93 2.929-7.678 0-10.607-4.874-4.873-4.874-12.804 0-17.678 4.157-4.156 10.658-4.753 15.48-1.745v49.452c-4.823 3.013-11.316 2.421-15.48-1.745z"/><path d="m77.5 115.239c4.336 2.6 9.239 3.898 14.142 3.898 7.042 0 14.084-2.681 19.445-8.041 9.094-9.095 10.476-23.024 4.143-33.588 6.333-10.563 4.951-24.493-4.143-33.588-9.094-9.094-23.025-10.476-33.587-4.143-10.563-6.332-24.493-4.95-33.587 4.143-9.094 9.095-10.476 23.024-4.143 33.588-6.333 10.563-4.951 24.493 4.143 33.588 9.093 9.093 23.023 10.475 33.587 4.143zm-22.981-32.427c2.929-2.93 2.929-7.678 0-10.607-4.874-4.873-4.874-12.804 0-17.677 4.874-4.875 12.804-4.875 17.678 0 2.929 2.928 7.678 2.928 10.606 0 4.874-4.875 12.804-4.875 17.678 0 4.874 4.873 4.874 12.804 0 17.677-2.929 2.93-2.929 7.678 0 10.607 4.874 4.873 4.874 12.804 0 17.677-4.874 4.875-12.804 4.875-17.678 0-1.464-1.464-3.384-2.196-5.303-2.196s-3.839.732-5.303 2.196c-4.874 4.875-12.804 4.875-17.678 0-4.873-4.873-4.873-12.803 0-17.677z"/><path d="m260.93 238.096c5.194 5.194 12.1 8.055 19.445 8.055 5.064 0 9.92-1.359 14.15-3.906 10.562 6.326 24.489 4.942 33.58-4.147 9.094-9.095 10.476-23.024 4.143-33.588 6.333-10.563 4.951-24.493-4.143-33.588-9.093-9.093-23.025-10.477-33.587-4.143-10.563-6.333-24.494-4.949-33.587 4.143-9.094 9.095-10.476 23.024-4.144 33.588-6.332 10.562-4.951 24.492 4.143 33.586zm10.607-38.891c-4.874-4.873-4.874-12.804 0-17.677 2.437-2.438 5.638-3.655 8.839-3.655s6.402 1.218 8.839 3.655c2.929 2.928 7.678 2.928 10.606 0 4.874-4.875 12.804-4.875 17.678 0 4.874 4.873 4.874 12.804 0 17.677-2.929 2.93-2.929 7.678 0 10.607 4.874 4.873 4.874 12.804 0 17.677-4.874 4.875-12.804 4.875-17.678 0-2.929-2.928-7.678-2.928-10.606 0-2.361 2.361-5.5 3.661-8.839 3.661s-6.478-1.3-8.839-3.661c-4.874-4.873-4.874-12.804 0-17.677 2.929-2.929 2.929-7.677 0-10.607z"/><path d="m468.105 170.921c-9.094-9.093-23.025-10.477-33.587-4.143-10.563-6.333-24.493-4.949-33.587 4.143-9.094 9.095-10.476 23.024-4.144 33.588-6.332 10.563-4.951 24.493 4.144 33.587 5.194 5.194 12.1 8.055 19.445 8.055 5.064 0 9.92-1.359 14.15-3.906 10.561 6.326 24.488 4.942 33.58-4.147 9.094-9.095 10.476-23.024 4.143-33.588 6.332-10.565 4.95-24.494-4.144-33.589zm-10.606 38.891c4.874 4.873 4.874 12.804 0 17.677-4.874 4.875-12.804 4.875-17.678 0-2.929-2.928-7.678-2.928-10.606 0-2.361 2.361-5.5 3.661-8.839 3.661s-6.478-1.3-8.839-3.661c-4.874-4.873-4.874-12.804 0-17.677 2.929-2.93 2.929-7.678 0-10.607-4.874-4.873-4.874-12.804 0-17.677 2.437-2.438 5.638-3.655 8.839-3.655s6.402 1.218 8.839 3.655c2.929 2.928 7.678 2.928 10.606 0 4.874-4.875 12.804-4.875 17.678 0 4.874 4.873 4.874 12.804 0 17.677-2.93 2.93-2.93 7.678 0 10.607z"/><path d="m328.105 400.921c-9.093-9.093-23.025-10.477-33.587-4.143-10.563-6.333-24.494-4.949-33.587 4.143-9.094 9.095-10.476 23.024-4.144 33.588-6.332 10.563-4.951 24.493 4.144 33.587 5.194 5.194 12.1 8.055 19.445 8.055 5.064 0 9.92-1.359 14.15-3.906 10.562 6.325 24.489 4.942 33.58-4.147 9.094-9.095 10.476-23.024 4.143-33.588 6.332-10.565 4.95-24.494-4.144-33.589zm-10.606 38.891c4.874 4.873 4.874 12.804 0 17.677-4.874 4.875-12.804 4.875-17.678 0-2.929-2.928-7.678-2.928-10.606 0-2.361 2.361-5.5 3.661-8.839 3.661s-6.478-1.3-8.839-3.661c-4.874-4.873-4.874-12.804 0-17.677 2.929-2.93 2.929-7.678 0-10.607-4.874-4.873-4.874-12.804 0-17.677 2.437-2.438 5.638-3.655 8.839-3.655s6.402 1.218 8.839 3.655c2.929 2.928 7.678 2.928 10.606 0 4.874-4.875 12.804-4.875 17.678 0 4.874 4.873 4.874 12.804 0 17.677-2.93 2.93-2.93 7.678 0 10.607z"/><path d="m364.525 357.244c10.561 6.325 24.488 4.942 33.58-4.147 9.094-9.095 10.476-23.024 4.143-33.588 6.333-10.563 4.951-24.493-4.143-33.588-9.094-9.094-23.025-10.476-33.587-4.143-10.562-6.332-24.494-4.95-33.587 4.143-9.094 9.095-10.476 23.024-4.144 33.588-6.332 10.563-4.951 24.493 4.144 33.587 5.194 5.194 12.1 8.055 19.445 8.055 5.064-.001 9.92-1.36 14.149-3.907zm-22.988-32.432c2.929-2.93 2.929-7.678 0-10.607-4.874-4.873-4.874-12.804 0-17.677 2.437-2.438 5.638-3.655 8.839-3.655s6.402 1.218 8.839 3.655c2.929 2.928 7.678 2.928 10.606 0 4.874-4.875 12.804-4.875 17.678 0 4.874 4.873 4.874 12.804 0 17.677-2.929 2.93-2.929 7.678 0 10.607 4.874 4.873 4.874 12.804 0 17.677-4.874 4.875-12.804 4.875-17.678 0-2.929-2.928-7.678-2.928-10.606 0-2.361 2.361-5.5 3.661-8.839 3.661s-6.478-1.3-8.839-3.661c-4.874-4.873-4.874-12.803 0-17.677z"/><path d="m468.105 400.921c-9.094-9.093-23.025-10.477-33.587-4.143-10.563-6.333-24.493-4.949-33.587 4.143-9.094 9.095-10.476 23.024-4.144 33.588-6.332 10.563-4.951 24.493 4.144 33.587 5.194 5.194 12.1 8.055 19.445 8.055 5.064 0 9.92-1.359 14.15-3.906 10.561 6.325 24.488 4.942 33.58-4.147 9.094-9.095 10.476-23.024 4.143-33.588 6.332-10.565 4.95-24.494-4.144-33.589zm-10.606 38.891c4.874 4.873 4.874 12.804 0 17.677-4.874 4.875-12.804 4.875-17.678 0-2.929-2.928-7.678-2.928-10.606 0-2.361 2.361-5.5 3.661-8.839 3.661s-6.478-1.3-8.839-3.661c-4.874-4.873-4.874-12.804 0-17.677 2.929-2.93 2.929-7.678 0-10.607-4.874-4.873-4.874-12.804 0-17.677 2.437-2.438 5.638-3.655 8.839-3.655s6.402 1.218 8.839 3.655c2.929 2.928 7.678 2.928 10.606 0 4.874-4.875 12.804-4.875 17.678 0 4.874 4.873 4.874 12.804 0 17.677-2.93 2.93-2.93 7.678 0 10.607z"/><path d="m111.087 237.294c-9.094-9.093-23.025-10.476-33.587-4.143-10.563-6.332-24.493-4.949-33.587 4.143-9.094 9.095-10.476 23.024-4.143 33.588-6.333 10.563-4.951 24.493 4.143 33.588 9.093 9.093 23.023 10.475 33.587 4.143 4.336 2.6 9.239 3.898 14.142 3.898 7.042 0 14.084-2.681 19.445-8.041 9.094-9.095 10.476-23.024 4.143-33.588 6.333-10.564 4.952-24.493-4.143-33.588zm-10.606 38.892c4.874 4.873 4.874 12.804 0 17.677-4.874 4.875-12.804 4.875-17.678 0-1.464-1.464-3.384-2.196-5.303-2.196s-3.839.732-5.303 2.196c-4.874 4.875-12.804 4.875-17.678 0-4.874-4.873-4.874-12.804 0-17.677 2.929-2.93 2.929-7.678 0-10.607-4.874-4.873-4.874-12.804 0-17.677 4.874-4.875 12.804-4.875 17.678 0 2.929 2.928 7.678 2.928 10.606 0 4.874-4.875 12.804-4.875 17.678 0 4.874 4.873 4.874 12.804 0 17.677-2.929 2.929-2.929 7.677 0 10.607z"/><circle cx="77.5" cy="270.882" r="7.5"/></g></g></svg>