<svg id="Capa_1" enable-background="new 0 0 512.024 512.024" height="512" viewBox="0 0 512.024 512.024" width="512" xmlns="http://www.w3.org/2000/svg"><g><g><path d="m473.574 162.295c-7.595-7.595-73.078 2.497-101.712 31.131s-9.303 79.885-9.303 79.885 51.251 19.331 79.885-9.303c28.633-28.635 38.725-94.118 31.13-101.713z" fill="#00d27f"/></g><g><path d="m198.45 9.962c7.595-7.595 73.078 2.497 101.712 31.131s9.303 79.885 9.303 79.885-51.251 19.331-79.885-9.303-38.726-94.118-31.13-101.713z" fill="#00c67c"/></g><g><path d="m296.012 27.524h80v457h-80z" fill="#66df6b"/></g><g><path d="m296.012 27.524h40v457h-40z" fill="#00d27f"/></g><g><path d="m376.012 199.857h-80c-11.046 0-20-8.954-20-20 0-11.046 8.954-20 20-20h80c11.046 0 20 8.954 20 20 0 11.046-8.954 20-20 20z" fill="#92ef8e"/></g><g><path d="m336.012 179.857c0-11.046 8.954-20 20-20h-60c-11.046 0-20 8.954-20 20 0 11.046 8.954 20 20 20h60c-11.046 0-20-8.954-20-20z" fill="#66df6b"/></g><g><path d="m376.012 47.524h-80c-11.046 0-20-8.954-20-20 0-11.046 8.954-20 20-20h80c11.046 0 20 8.954 20 20 0 11.045-8.954 20-20 20z" fill="#92ef8e"/></g><g><path d="m336.012 27.524c0-11.046 8.954-20 20-20h-60c-11.046 0-20 8.954-20 20 0 11.046 8.954 20 20 20h60c-11.046 0-20-8.955-20-20z" fill="#66df6b"/></g><g><path d="m376.012 504.524h-80c-11.046 0-20-8.954-20-20 0-11.046 8.954-20 20-20h80c11.046 0 20 8.954 20 20 0 11.045-8.954 20-20 20z" fill="#92ef8e"/></g><g><path d="m376.012 352.19h-80c-11.046 0-20-8.954-20-20 0-11.046 8.954-20 20-20h80c11.046 0 20 8.954 20 20 0 11.046-8.954 20-20 20z" fill="#92ef8e"/></g><g><path d="m38.45 314.628c7.595-7.595 73.078 2.497 101.712 31.131s9.303 79.885 9.303 79.885-51.251 19.331-79.885-9.303c-28.633-28.635-38.726-94.117-31.13-101.713z" fill="#00c67c"/></g><g><path d="m136.012 179.857h80v304.667h-80z" fill="#66df6b"/></g><g><path d="m136.012 179.857h40v304.667h-40z" fill="#00d27f"/></g><g><path d="m216.012 199.857h-80c-11.046 0-20-8.954-20-20 0-11.046 8.954-20 20-20h80c11.046 0 20 8.954 20 20 0 11.046-8.954 20-20 20z" fill="#92ef8e"/></g><g><path d="m216.012 504.524h-80c-11.046 0-20-8.954-20-20 0-11.046 8.954-20 20-20h80c11.046 0 20 8.954 20 20 0 11.045-8.954 20-20 20z" fill="#92ef8e"/></g><g><path d="m216.012 352.19h-80c-11.046 0-20-8.954-20-20 0-11.046 8.954-20 20-20h80c11.046 0 20 8.954 20 20 0 11.046-8.954 20-20 20z" fill="#92ef8e"/></g><g><path d="m336.012 332.19c0-11.046 8.954-20 20-20h-60c-11.046 0-20 8.954-20 20 0 11.046 8.954 20 20 20h60c-11.046 0-20-8.954-20-20z" fill="#66df6b"/></g><g><path d="m336.012 484.524c0-11.046 8.954-20 20-20h-60c-11.046 0-20 8.954-20 20 0 11.046 8.954 20 20 20h60c-11.046 0-20-8.955-20-20z" fill="#66df6b"/></g><g><path d="m176.012 179.857c0-11.046 8.954-20 20-20h-60c-11.046 0-20 8.954-20 20 0 11.046 8.954 20 20 20h60c-11.046 0-20-8.954-20-20z" fill="#66df6b"/></g><g><path d="m176.012 332.19c0-11.046 8.954-20 20-20h-60c-11.046 0-20 8.954-20 20 0 11.046 8.954 20 20 20h60c-11.046 0-20-8.954-20-20z" fill="#66df6b"/></g><g><path d="m176.012 484.524c0-11.046 8.954-20 20-20h-60c-11.046 0-20 8.954-20 20 0 11.046 8.954 20 20 20h60c-11.046 0-20-8.955-20-20z" fill="#66df6b"/></g><g><path d="m478.878 156.993c-4.988-4.988-17.019-5.976-35.755-2.937-14.565 2.364-29.826 6.841-43.028 12.542-3.512-6.353-9.464-11.171-16.583-13.193v-99.429c11.528-3.274 20-13.889 20-26.452 0-15.163-12.336-27.5-27.5-27.5h-80c-10.358 0-19.394 5.759-24.083 14.241-13.202-5.702-28.463-10.179-43.028-12.542-18.736-3.041-30.766-2.053-35.754 2.935-9.188 9.188-2.323 40.644 0 50.065 3.804 15.428 12.906 44.03 31.13 62.255 13.976 13.976 32.42 17.846 48.57 17.846 5.593 0 10.903-.469 15.665-1.139v19.72c-11.528 3.274-20 13.889-20 26.452s8.472 23.178 20 26.452v34.652c0 4.143 3.358 7.5 7.5 7.5s7.5-3.357 7.5-7.5v-33.604h65v97.334h-65v-33.73c0-4.143-3.358-7.5-7.5-7.5s-7.5 3.357-7.5 7.5v34.779c-11.528 3.274-20 13.889-20 26.452s8.472 23.178 20 26.452v99.429c-11.528 3.274-20 13.889-20 26.452 0 15.163 12.336 27.5 27.5 27.5h80c15.164 0 27.5-12.337 27.5-27.5 0-12.563-8.472-23.178-20-26.452v-99.429c11.528-3.274 20-13.889 20-26.452s-8.472-23.178-20-26.452v-19.721c4.762.67 10.07 1.139 15.665 1.139 16.149 0 34.596-3.873 48.569-17.847 18.225-18.225 27.327-46.826 31.13-62.254 2.324-9.422 9.189-40.878.002-50.064zm-175.366-101.969h65v97.333h-65zm-7.5-40h80c6.893 0 12.5 5.607 12.5 12.5s-5.607 12.5-12.5 12.5h-80c-6.893 0-12.5-5.607-12.5-12.5s5.607-12.5 12.5-12.5zm-61.128 91.346c-25.592-25.592-33.675-80.352-30.906-90.886 7.65-2.045 38.036 1.551 64.588 13.694.706 11.833 8.928 21.668 19.946 24.797v35.441l-43.192-43.19c-2.929-2.928-7.678-2.928-10.606 0-2.929 2.93-2.929 7.678 0 10.607l53.798 53.797v7.891c-15.37 2.479-38.565 2.915-53.628-12.151zm48.628 73.487c0-6.893 5.607-12.5 12.5-12.5h80c6.893 0 12.5 5.607 12.5 12.5s-5.607 12.5-12.5 12.5h-80c-6.893 0-12.5-5.608-12.5-12.5zm20 277.167v-97.333h65v97.333zm85 27.5c0 6.893-5.607 12.5-12.5 12.5h-80c-6.893 0-12.5-5.607-12.5-12.5s5.607-12.5 12.5-12.5h80c6.892 0 12.5 5.607 12.5 12.5zm0-152.333c0 6.893-5.607 12.5-12.5 12.5h-80c-6.893 0-12.5-5.607-12.5-12.5s5.607-12.5 12.5-12.5h80c6.892 0 12.5 5.607 12.5 12.5zm48.628-73.488c-15.063 15.063-38.255 14.628-53.628 12.15v-7.89l53.798-53.798c2.929-2.93 2.929-7.678 0-10.607-2.929-2.928-7.678-2.928-10.606 0l-43.191 43.191v-35.442c11.018-3.129 19.239-12.964 19.946-24.797 26.553-12.144 56.94-15.739 64.589-13.693 2.767 10.536-5.316 65.296-30.908 90.886z"/><path d="m243.512 179.857c0-15.163-12.336-27.5-27.5-27.5h-80c-15.164 0-27.5 12.337-27.5 27.5 0 12.563 8.472 23.178 20 26.452v99.43c-7.119 2.022-13.071 6.84-16.583 13.192-13.202-5.702-28.463-10.178-43.028-12.541-18.736-3.041-30.766-2.052-35.754 2.935-9.188 9.188-2.323 40.644 0 50.065 3.804 15.428 12.906 44.029 31.13 62.254 13.969 13.969 32.396 17.849 48.558 17.849 5.594 0 10.904-.47 15.676-1.142v19.721c-11.528 3.274-20 13.889-20 26.452 0 15.163 12.336 27.5 27.5 27.5h80c15.164 0 27.5-12.337 27.5-27.5 0-12.563-8.472-23.178-20-26.452v-34.644c0-4.143-3.358-7.5-7.5-7.5s-7.5 3.357-7.5 7.5v33.596h-65v-97.333h65v33.737c0 4.143 3.358 7.5 7.5 7.5s7.5-3.357 7.5-7.5v-34.785c11.528-3.274 20-13.889 20-26.452s-8.472-23.178-20-26.452v-99.43c11.529-3.274 20.001-13.889 20.001-26.452zm-100 124.834v-97.334h65v97.334zm-20-124.834c0-6.893 5.607-12.5 12.5-12.5h80c6.893 0 12.5 5.607 12.5 12.5s-5.607 12.5-12.5 12.5h-80c-6.893 0-12.5-5.608-12.5-12.5zm-48.628 231.179c-25.592-25.591-33.676-80.351-30.906-90.885 7.65-2.044 38.037 1.551 64.588 13.694.706 11.833 8.928 21.668 19.946 24.797v35.441l-43.192-43.191c-2.929-2.928-7.678-2.928-10.606 0-2.929 2.93-2.929 7.678 0 10.607l53.798 53.798v7.892c-15.423 2.488-38.577 2.9-53.628-12.153zm153.628 73.488c0 6.893-5.607 12.5-12.5 12.5h-80c-6.893 0-12.5-5.607-12.5-12.5s5.607-12.5 12.5-12.5h80c6.892 0 12.5 5.607 12.5 12.5zm0-152.333c0 6.893-5.607 12.5-12.5 12.5h-80c-6.893 0-12.5-5.607-12.5-12.5s5.607-12.5 12.5-12.5h80c6.892 0 12.5 5.607 12.5 12.5z"/></g></g></svg>