<svg id="Capa_1" enable-background="new 0 0 512 512" height="512" viewBox="0 0 512 512" width="512" xmlns="http://www.w3.org/2000/svg"><g><g><path d="m351.489 195.132s-1.34 43.017-40.66 55.783l-51.064-63.83h91.723v8.047z" fill="#e3a67b"/></g><g><path d="m417.349 195.132c13.807 0 25-11.193 25-25s-11.193-25-25-25c-.016 0-.031.001-.046.001.607-2.379.931-4.871.931-7.439 0-16.569-13.431-30-30-30-3.944 0-7.706.769-11.155 2.152-5.104-16.216-20.257-27.977-38.158-27.977s-33.054 11.761-38.158 27.977c-3.449-1.383-7.212-2.152-11.155-2.152-16.569 0-30 13.431-30 30 0 2.568.324 5.06.931 7.439-.016 0-.031-.001-.046-.001-13.807 0-25 11.193-25 25s11.193 25 25 25z" fill="#00d27f"/></g><g><g><path d="m331.388 170.451c0-3.181.608-6.218 1.704-9.01-19.328-2.822-34.172-19.461-34.172-39.573 0-4.768.838-9.339 2.368-13.579-.186.514-.362 1.032-.527 1.556-3.449-1.383-7.212-2.152-11.155-2.152-16.569 0-30 13.431-30 30 0 2.568.324 5.06.931 7.439-.016 0-.031-.001-.046-.001-13.807 0-25 11.193-25 25s11.193 25 25 25h95.578c-13.631.001-24.681-11.049-24.681-24.68z" fill="#00c67c"/></g></g><g><path d="m151.563 307.083h208.874c0-117.956-99.863-107.743-124.373-152.679-11.982-21.966-8.557-48.81-1.928-70.517h-35.883c-19.92 49.474-10.844 96.241 2.066 127.708 16.341 39.831-2.042 70.469-48.756 95.488z" fill="#f2b88f"/></g><g><path d="m151.563 307.083h87.001c17.669-34.595 11.373-71.149-15.266-111.951-19.754-30.257-18.312-82.759-15.718-111.244h-9.327c-19.92 49.474-10.844 96.241 2.066 127.708 16.341 39.83-2.042 70.468-48.756 95.487z" fill="#e3a67b"/></g><g><ellipse cx="256" cy="365.457" fill="#ffd883" rx="186.349" ry="72.255"/></g><g><path d="m381 504.5h-250c-13.807 0-25-11.193-25-25 0-13.807 11.193-25 25-25h250c13.807 0 25 11.193 25 25 0 13.807-11.193 25-25 25z" fill="#595959"/></g><g><path d="m186 479.5c0-13.807 11.193-25 25-25h-80c-13.807 0-25 11.193-25 25 0 13.807 11.193 25 25 25h80c-13.807 0-25-11.193-25-25z" fill="#474747"/></g><g><path d="m256 368.536-224.191-43.915 33.332 111.35c5.068 16.931 20.647 28.529 38.32 28.529h305.079c17.673 0 33.252-11.598 38.32-28.529l33.332-111.35z" fill="#6e6e6e"/></g><g><path d="m145.141 435.971-28.349-94.704-84.983-16.646 33.332 111.35c5.068 16.931 20.647 28.529 38.32 28.529h80c-17.673 0-33.252-11.598-38.32-28.529z" fill="#595959"/></g><g><g><path d="m256 384.5c-60.525 0-91.197-10.738-120.859-21.123-27.727-9.708-53.916-18.877-107.641-18.877-11.046 0-20-8.954-20-20s8.954-20 20-20c60.525 0 91.197 10.738 120.859 21.123 27.727 9.708 53.916 18.877 107.641 18.877s79.914-9.169 107.641-18.877c29.662-10.385 60.334-21.123 120.859-21.123 11.046 0 20 8.954 20 20s-8.954 20-20 20c-53.725 0-79.914 9.169-107.641 18.877-29.662 10.385-60.334 21.123-120.859 21.123z" fill="#848484"/></g></g><g><path d="m236 364.5c0-11.046 8.954-20 20-20-53.725 0-79.914-9.169-107.641-18.877-29.662-10.385-60.334-21.123-120.859-21.123-11.046 0-20 8.954-20 20s8.954 20 20 20c53.725 0 79.914 9.169 107.641 18.877 29.662 10.385 60.334 21.123 120.859 21.123-11.046 0-20-8.954-20-20z" fill="#6e6e6e"/></g><g><path d="m289.493 120.764c13.807 0 25-11.193 25-25s-11.193-25-25-25c-.016 0-.031.001-.046.001.607-2.379.931-4.871.931-7.439 0-16.569-13.431-30-30-30-3.944 0-7.706.769-11.155 2.152-5.105-16.217-20.257-27.978-38.159-27.978s-33.054 11.761-38.158 27.977c-3.449-1.383-7.212-2.152-11.155-2.152-16.569 0-30 13.431-30 30 0 2.568.324 5.06.931 7.439-.016 0-.031-.001-.046-.001-13.807 0-25 11.193-25 25s11.193 25 25 25h156.857z" fill="#92ef8e"/></g><g><g><path d="m203.532 96.083c0-3.181.608-6.218 1.704-9.01-19.328-2.822-34.172-19.461-34.172-39.573 0-4.768.838-9.339 2.368-13.579-.186.514-.362 1.032-.527 1.556-3.449-1.383-7.212-2.152-11.155-2.152-16.569 0-30 13.431-30 30 0 2.568.324 5.06.931 7.439-.016 0-.031-.001-.046-.001-13.807 0-25 11.193-25 25s11.193 25 25 25h95.578c-13.631.001-24.681-11.049-24.681-24.68z" fill="#66df6b"/></g></g><g><path d="m241.509 263.677c13.807 0 25-11.193 25-25s-11.193-25-25-25c-.016 0-.031.001-.046.001.607-2.379.931-4.871.931-7.439 0-16.569-13.431-30-30-30-3.944 0-7.706.769-11.155 2.152-5.104-16.216-20.257-27.977-38.158-27.977s-33.054 11.761-38.158 27.977c-3.449-1.383-7.212-2.152-11.155-2.152-16.569 0-30 13.431-30 30 0 2.568.324 5.06.931 7.439-.016 0-.031-.001-.046-.001-13.807 0-25 11.193-25 25s11.193 25 25 25z" fill="#92ef8e"/></g><g><g><path d="m155.548 238.996c0-3.181.608-6.218 1.704-9.01-19.328-2.822-34.172-19.461-34.172-39.573 0-4.768.838-9.339 2.368-13.579-.186.514-.362 1.032-.527 1.556-3.449-1.383-7.212-2.152-11.155-2.152-16.569 0-30 13.431-30 30 0 2.568.324 5.06.931 7.439-.016 0-.031-.001-.046-.001-13.807 0-25 11.193-25 25s11.193 25 25 25h95.578c-13.631.001-24.681-11.05-24.681-24.68z" fill="#66df6b"/></g></g><g><path d="m484.5 297c-41.258 0-68.908 4.884-91.738 11.28-7.789-3.126-16.135-5.95-24.958-8.457-1.065-30.381-8.814-52.318-20.04-68.89 6.528-10.568 9.267-21.395 10.41-28.301h59.176c17.921 0 32.5-14.579 32.5-32.5 0-15.027-10.252-27.705-24.129-31.407.009-.344.014-.688.014-1.031 0-20.678-16.822-37.5-37.5-37.5-2.27 0-4.516.202-6.723.604-7.898-16.062-24.221-26.43-42.592-26.43-7.535 0-14.779 1.735-21.347 5.056-4.277-7.322-11.329-12.833-19.709-15.068.009-.344.014-.687.014-1.03 0-20.678-16.822-37.5-37.5-37.5-2.271 0-4.516.202-6.722.604-7.9-16.061-24.222-26.43-42.592-26.43s-34.692 10.369-42.592 26.43c-2.207-.401-4.452-.604-6.722-.604-20.678 0-37.5 16.822-37.5 37.5 0 .344.005.688.014 1.03-13.877 3.701-24.129 16.38-24.129 31.407 0 17.921 14.58 32.5 32.5 32.5h47.232c-.53 5.761-.766 11.579-.705 17.424-5.049-1.802-10.468-2.775-16.081-2.775-18.37 0-34.692 10.368-42.592 26.429-2.207-.401-4.452-.604-6.722-.604-20.678 0-37.5 16.822-37.5 37.5 0 .344.005.688.014 1.031-13.877 3.701-24.13 16.38-24.13 31.407 0 17.921 14.58 32.5 32.5 32.5h101.702c-7.464 9.149-18.365 17.892-32.584 26.097-12.398 3.091-23.977 6.771-34.53 11.006-22.831-6.394-50.481-11.278-91.739-11.278-15.164 0-27.5 12.336-27.5 27.5s12.336 27.5 27.5 27.5c1.586 0 3.145.009 4.683.025l25.773 86.097c5.676 18.958 22.049 32.094 41.456 33.708-.601 2.488-.912 5.056-.912 7.67 0 17.921 14.58 32.5 32.5 32.5h250c17.921 0 32.5-14.579 32.5-32.5 0-2.615-.307-5.184-.907-7.67 19.406-1.616 35.777-14.751 41.451-33.709l25.772-86.096c1.538-.016 3.097-.025 4.684-.025 15.164 0 27.5-12.336 27.5-27.5s-12.336-27.5-27.5-27.5zm-146.856-78.737c-5.57-5.964-11.618-11.095-17.89-15.631h23.165c-.874 4.273-2.45 9.87-5.275 15.631zm1.276-128.895c14.266 0 26.726 9.134 31.004 22.729.627 1.993 2.057 3.634 3.944 4.527 1.889.895 4.063.962 6.002.183 2.669-1.07 5.483-1.613 8.364-1.613 12.406 0 22.5 10.094 22.5 22.5 0 1.89-.235 3.769-.698 5.584-.573 2.244-.077 4.627 1.344 6.456s3.606 2.899 5.923 2.899c.033 0 .07 0 .108-.001 9.621.033 17.438 7.871 17.438 17.5 0 9.649-7.851 17.5-17.5 17.5h-122.149c-3.674-1.966-7.313-3.844-10.868-5.678-14.872-7.67-28.1-14.501-36.505-23.893 3.249-3.403 7.779-5.412 12.601-5.429.038.001.076.001.109.001 2.315 0 4.501-1.069 5.922-2.898 1.421-1.828 1.918-4.21 1.346-6.454-.463-1.817-.698-3.697-.698-5.587 0-3.291.715-6.493 2.073-9.43h20.314c17.921 0 32.5-14.579 32.5-32.5 0-.535-.017-1.066-.042-1.595 5.09-3.137 10.886-4.801 16.968-4.801zm-86.799 49.361c-4.469 1.193-8.617 3.333-12.181 6.241-2.019-5.106-3.329-10.692-3.93-16.706h17.319c-.792 3.057-1.222 6.216-1.222 9.43-.001.345.004.69.014 1.035zm-136.986-42.965c0-9.628 7.816-17.466 17.436-17.5.039.001.077.001.11.001 2.316 0 4.502-1.07 5.923-2.898 1.42-1.829 1.917-4.212 1.344-6.456-.463-1.815-.698-3.694-.698-5.584 0-12.406 10.093-22.5 22.5-22.5 2.883 0 5.696.542 8.363 1.612 1.938.776 4.115.712 6.001-.183 1.888-.894 3.318-2.534 3.945-4.526 4.28-13.595 16.74-22.73 31.005-22.73s26.725 9.135 31.004 22.729c.627 1.992 2.057 3.633 3.944 4.526 1.888.895 4.064.961 6.001.183 2.667-1.07 5.481-1.612 8.364-1.612 12.406 0 22.5 10.094 22.5 22.5 0 1.89-.235 3.768-.698 5.583-.573 2.244-.077 4.627 1.344 6.456s3.606 2.899 5.923 2.899c.033 0 .071 0 .11-.001 9.62.034 17.437 7.872 17.437 17.5 0 9.649-7.851 17.5-17.5 17.5h-156.858c-9.65.001-17.5-7.85-17.5-17.499zm89.507 175.413h36.867c17.921 0 32.5-14.579 32.5-32.5 0-15.027-10.252-27.706-24.129-31.407.009-.344.014-.688.014-1.031 0-3.513-.486-6.992-1.446-10.343-1.14-3.981-5.291-6.283-9.275-5.145-3.982 1.141-6.286 5.293-5.145 9.275.575 2.007.866 4.097.866 6.212 0 1.892-.235 3.771-.698 5.584-.573 2.244-.077 4.627 1.344 6.456 1.42 1.829 3.607 2.899 5.923 2.899.034 0 .071 0 .11-.001 9.621.034 17.437 7.872 17.437 17.5 0 9.649-7.851 17.5-17.5 17.5h-156.86c-9.649 0-17.5-7.851-17.5-17.5 0-9.628 7.815-17.466 17.436-17.5.039.001.077.001.11.001 2.316 0 4.502-1.07 5.923-2.898 1.42-1.829 1.917-4.212 1.344-6.456-.463-1.814-.698-3.693-.698-5.585 0-12.406 10.093-22.5 22.5-22.5 2.881 0 5.695.543 8.364 1.612 1.938.779 4.114.712 6.001-.183 1.888-.894 3.317-2.534 3.944-4.526 4.279-13.595 16.739-22.729 31.004-22.729 14.266 0 26.726 9.134 31.005 22.729.627 1.992 2.056 3.633 3.944 4.526 1.888.895 4.063.962 6.001.183 2.669-1.069 5.483-1.612 8.364-1.612 1.806 0 3.601.213 5.333.634 4.028.979 8.081-1.494 9.058-5.519.978-4.025-1.494-8.081-5.519-9.058-5.079-1.233-10.472-1.385-15.594-.454-2.771-5.633-6.581-10.562-11.149-14.593-.608-8.899-.47-17.773.412-26.485h25.997c.907 10.988 3.768 20.966 8.548 29.732 9.521 17.455 28.201 27.09 47.978 37.289 33.488 17.273 71.241 36.751 75.146 100.634-28.93-6.668-61.971-10.217-96.603-10.217-23.359 0-46 1.618-67.148 4.717 6.584-6.122 11.821-12.517 15.791-19.241zm51.358 29.525c41.149 0 81.057 5.422 112.956 15.128-2.617.903-5.21 1.81-7.794 2.714-27.106 9.491-52.71 18.456-105.162 18.456s-78.056-8.965-105.163-18.456c-2.583-.904-5.175-1.811-7.791-2.713 31.902-9.705 71.822-15.129 112.954-15.129zm125 196.298h-250c-9.649 0-17.5-7.851-17.5-17.5 0-2.63.586-5.174 1.694-7.5h281.612c1.107 2.326 1.695 4.867 1.695 7.5-.001 9.649-7.852 17.5-17.501 17.5zm103.5-160c-55.002 0-81.774 9.374-110.172 19.316-10.103 3.537-20.55 7.193-32.104 10.358-3.995 1.094-6.347 5.22-5.252 9.215 1.094 3.995 5.218 6.349 9.215 5.252 12.056-3.303 22.752-7.046 33.15-10.686 23.317-8.164 45.539-15.934 84.677-17.948l-24.34 81.311c-4.151 13.867-16.662 23.182-31.135 23.182h-305.078c-14.247 0-27.05-9.532-31.135-23.18l-24.341-81.312c39.138 2.014 61.36 9.784 84.677 17.948 30.255 10.592 61.538 21.544 123.338 21.544 22.265 0 41.913-1.417 60.067-4.333 4.09-.657 6.872-4.505 6.216-8.595-.658-4.089-4.503-6.874-8.595-6.216-17.359 2.789-36.229 4.144-57.688 4.144-59.25 0-89.31-10.524-118.38-20.702-28.346-9.924-55.119-19.298-110.12-19.298-6.893 0-12.5-5.607-12.5-12.5s5.607-12.5 12.5-12.5c59.25 0 89.31 10.524 118.38 20.702 28.346 9.924 55.119 19.298 110.12 19.298 55.002 0 81.774-9.374 110.119-19.298 29.07-10.178 59.13-20.702 118.381-20.702 6.893 0 12.5 5.607 12.5 12.5s-5.607 12.5-12.5 12.5z"/><path d="m193.551 405.429c-4.142 0-7.5 3.357-7.5 7.5v12c0 4.143 3.358 7.5 7.5 7.5s7.5-3.357 7.5-7.5v-12c0-4.143-3.358-7.5-7.5-7.5z"/><path d="m318.448 405.429c-4.143 0-7.5 3.357-7.5 7.5v12c0 4.143 3.357 7.5 7.5 7.5s7.5-3.357 7.5-7.5v-12c0-4.143-3.357-7.5-7.5-7.5z"/><path d="m277.391 418.917c-3.122-2.722-7.861-2.396-10.581.728-2.729 3.131-6.669 4.927-10.81 4.927s-8.081-1.796-10.81-4.928c-2.722-3.123-7.458-3.447-10.582-.727-3.123 2.722-3.448 7.459-.727 10.582 5.579 6.401 13.641 10.072 22.119 10.072 8.479 0 16.54-3.671 22.118-10.073 2.722-3.122 2.396-7.86-.727-10.581z"/></g></g></svg>