<svg id="Capa_1" enable-background="new 0 0 512 512" height="512" viewBox="0 0 512 512" width="512" xmlns="http://www.w3.org/2000/svg"><g><g><path d="m504.5 256c0-18.201-8.318-34.458-21.358-45.181 7.944-14.898 9.407-33.1 2.442-49.915-6.965-16.816-20.871-28.652-37.022-33.569 1.638-16.803-3.976-34.18-16.846-47.05s-30.247-18.484-47.05-16.846c-4.917-16.152-16.754-30.057-33.569-37.022s-35.018-5.502-49.915 2.442c-10.724-13.041-26.981-21.359-45.182-21.359s-34.458 8.318-45.182 21.358c-14.898-7.943-33.1-9.407-49.915-2.442s-28.652 20.871-33.569 37.022c-16.803-1.638-34.18 3.976-47.05 16.846s-18.484 30.247-16.846 47.05c-16.151 4.917-30.057 16.754-37.022 33.569s-5.502 35.018 2.442 49.915c-13.04 10.724-21.358 26.981-21.358 45.182s8.318 34.458 21.358 45.181c-7.944 14.898-9.407 33.1-2.442 49.915s20.871 28.652 37.022 33.569c-1.638 16.803 3.976 34.18 16.846 47.05s30.247 18.484 47.05 16.846c4.917 16.151 16.754 30.057 33.569 37.022s35.018 5.502 49.915-2.442c10.724 13.041 26.981 21.359 45.182 21.359s34.458-8.318 45.181-21.358c14.898 7.944 33.1 9.407 49.915 2.442s28.652-20.871 33.569-37.022c16.803 1.638 34.18-3.976 47.05-16.846s18.484-30.247 16.846-47.05c16.151-4.917 30.057-16.754 37.022-33.569s5.502-35.018-2.442-49.915c13.041-10.724 21.359-26.981 21.359-45.182z" fill="#ffee6e"/></g><g><path d="m153.625 256c0-105.086 65.229-194.937 157.407-231.273-3.399 1.082-6.702 2.452-9.85 4.131-10.724-13.04-26.981-21.358-45.182-21.358s-34.458 8.318-45.182 21.358c-14.898-7.943-33.1-9.407-49.915-2.442s-28.652 20.871-33.569 37.022c-16.803-1.638-34.18 3.976-47.05 16.846s-18.484 30.247-16.846 47.05c-16.151 4.917-30.057 16.754-37.022 33.569s-5.502 35.018 2.442 49.915c-13.04 10.724-21.358 26.981-21.358 45.182s8.318 34.458 21.358 45.181c-7.944 14.898-9.407 33.1-2.442 49.915s20.871 28.652 37.022 33.569c-1.638 16.803 3.976 34.18 16.846 47.05s30.247 18.484 47.05 16.846c4.917 16.151 16.754 30.057 33.569 37.022s35.018 5.502 49.915-2.442c10.724 13.041 26.981 21.359 45.182 21.359s34.458-8.318 45.181-21.358c3.149 1.679 6.452 3.05 9.852 4.131-92.178-36.335-157.408-126.186-157.408-231.273z" fill="#ffd883"/></g><g><circle cx="256" cy="256" fill="#ffd883" r="195.808"/></g><g><path d="m153.625 256c0-79.443 37.281-150.177 95.3-195.668-104.863 3.726-188.733 89.896-188.733 195.668s83.87 191.942 188.734 195.668c-58.02-45.491-95.301-116.225-95.301-195.668z" fill="#ffa759"/></g><g><path d="m348.017 270.142-77.875 77.875c-7.81 7.81-20.474 7.81-28.284 0l-77.875-77.875c-7.81-7.81-7.81-20.474 0-28.284l77.875-77.875c7.81-7.81 20.474-7.81 28.284 0l77.875 77.875c7.811 7.81 7.811 20.474 0 28.284z" fill="#ffee6e"/></g><g><circle cx="256" cy="256" fill="#ffd883" r="40"/></g><g><path d="m135.892 213.38 77.488-77.489c5.592-5.592 2.788-15.161-4.938-16.85-24.145-5.277-50.387 1.464-69.161 20.239s-25.515 45.016-20.239 69.161c1.688 7.727 11.258 10.531 16.85 4.939z" fill="#ffee6e"/></g><g><path d="m119.042 208.442c1.688 7.726 11.258 10.53 16.85 4.938l27.892-27.892c7.234-24.488 18.145-47.392 32.084-68.093-20.362-.952-41.036 6.334-56.587 21.885-18.775 18.775-25.516 45.017-20.239 69.162z" fill="#ffd883"/></g><g><path d="m376.108 298.62-77.488 77.489c-5.592 5.592-2.788 15.161 4.938 16.85 24.145 5.277 50.387-1.464 69.161-20.239 18.774-18.774 25.515-45.016 20.239-69.161-1.688-7.727-11.258-10.532-16.85-4.939z" fill="#ffee6e"/></g><g><path d="m298.62 135.892 77.488 77.489c5.592 5.592 15.161 2.788 16.85-4.938 5.277-24.145-1.464-50.387-20.239-69.161-18.774-18.774-45.016-25.515-69.161-20.239-7.726 1.687-10.53 11.257-4.938 16.849z" fill="#ffee6e"/></g><g><path d="m213.38 376.108-77.488-77.489c-5.592-5.592-15.161-2.788-16.85 4.938-5.277 24.145 1.464 50.387 20.239 69.161s45.016 25.515 69.161 20.239c7.726-1.688 10.53-11.257 4.938-16.849z" fill="#ffee6e"/></g><g><path d="m139.281 372.719c15.551 15.551 36.224 22.837 56.587 21.885-13.939-20.7-24.85-43.605-32.084-68.093l-27.892-27.892c-5.592-5.592-15.161-2.788-16.85 4.938-5.277 24.146 1.464 50.388 20.239 69.162z" fill="#ffd883"/></g><g><path d="m512 256c0-17.816-7.106-34.641-19.683-47.007 6.885-16.236 7.013-34.501.195-50.96-6.816-16.459-19.823-29.283-36.173-35.896.148-17.635-6.724-34.559-19.32-47.156-12.598-12.598-29.539-19.483-47.156-19.32-6.613-16.352-19.438-29.356-35.896-36.173-16.46-6.818-34.724-6.69-50.96.195-12.366-12.577-29.191-19.683-47.007-19.683-17.814 0-34.641 7.108-47.007 19.683-16.237-6.885-34.501-7.013-50.96-.195-16.459 6.816-29.283 19.823-35.896 36.173-.187-.001-.373-.002-.56-.002-17.433 0-34.132 6.858-46.597 19.322-12.598 12.599-19.469 29.52-19.321 47.156-16.351 6.612-29.354 19.437-36.172 35.896-6.817 16.459-6.689 34.724.195 50.96-12.576 12.366-19.682 29.191-19.682 47.007s7.106 34.641 19.683 47.007c-6.885 16.236-7.013 34.501-.195 50.96 6.817 16.46 19.821 29.284 36.172 35.896-.147 17.637 6.724 34.558 19.321 47.156 12.465 12.465 29.162 19.323 46.597 19.322.187 0 .373-.001.56-.002 6.613 16.35 19.438 29.356 35.896 36.173 16.46 6.818 34.724 6.69 50.96-.195 12.365 12.577 29.19 19.683 47.006 19.683 17.814 0 34.641-7.108 47.007-19.683 16.237 6.885 34.501 7.013 50.96.195 16.459-6.816 29.283-19.821 35.896-36.173.187.002.373.002.56.002 17.434 0 34.132-6.858 46.597-19.322 12.597-12.598 19.469-29.521 19.32-47.156 16.35-6.613 29.356-19.438 36.173-35.896 6.817-16.459 6.689-34.724-.195-50.96 12.576-12.366 19.682-29.191 19.682-47.007zm-35.476 48.71c7.209 13.521 7.985 29.381 2.131 43.517-5.855 14.136-17.62 24.802-32.278 29.265-3.417 1.04-5.627 4.347-5.28 7.902 1.487 15.249-3.865 30.199-14.685 41.019-10.819 10.818-25.769 16.174-41.019 14.685-3.537-.333-6.862 1.862-7.902 5.28-4.463 14.658-15.13 26.424-29.265 32.278-14.136 5.853-29.998 5.078-43.517-2.131-3.151-1.68-7.052-.904-9.321 1.854-9.731 11.834-24.087 18.621-39.388 18.621s-29.657-6.787-39.389-18.621c-1.466-1.782-3.611-2.736-5.797-2.736-1.198 0-2.408.287-3.524.882-13.521 7.207-29.383 7.985-43.517 2.131-14.136-5.855-24.802-17.62-29.265-32.278-1.041-3.418-4.354-5.625-7.902-5.28-15.25 1.494-30.199-3.864-41.019-14.685-10.819-10.818-16.172-25.77-14.686-41.019.347-3.556-1.863-6.862-5.28-7.902-14.657-4.463-26.422-15.129-32.277-29.265-5.854-14.136-5.078-29.996 2.131-43.517 1.681-3.151.905-7.052-1.854-9.321-11.834-9.732-18.621-24.088-18.621-39.389s6.787-29.657 18.621-39.389c2.76-2.27 3.535-6.17 1.854-9.321-7.209-13.521-7.985-29.381-2.131-43.517 5.855-14.136 17.62-24.802 32.277-29.265 3.417-1.04 5.627-4.347 5.28-7.902-1.486-15.249 3.866-30.2 14.686-41.019 10.819-10.819 25.766-16.179 41.019-14.685 3.541.34 6.862-1.861 7.902-5.28 4.463-14.658 15.129-26.423 29.265-32.278 14.134-5.854 29.996-5.079 43.517 2.131 3.152 1.68 7.053.904 9.321-1.854 9.732-11.834 24.088-18.621 39.389-18.621s29.657 6.787 39.389 18.621c2.27 2.759 6.169 3.534 9.321 1.854 13.521-7.208 29.382-7.984 43.517-2.131 14.135 5.854 24.802 17.62 29.265 32.278 1.04 3.417 4.35 5.62 7.902 5.28 15.252-1.488 30.199 3.865 41.019 14.685s16.172 25.77 14.685 41.019c-.347 3.556 1.863 6.862 5.28 7.902 14.658 4.463 26.423 15.129 32.278 29.265 5.854 14.136 5.078 29.996-2.131 43.517-1.681 3.151-.905 7.052 1.854 9.321 11.834 9.732 18.621 24.088 18.621 39.389s-6.787 29.657-18.621 39.389c-2.76 2.269-3.535 6.17-1.855 9.321z"/><path d="m256 361.361c7.042 0 14.085-2.68 19.446-8.041l77.874-77.874c10.722-10.723 10.722-28.17 0-38.893l-77.874-77.874c-10.723-10.723-28.17-10.723-38.893 0l-77.874 77.874c-10.722 10.723-10.722 28.17 0 38.893l28.33 28.33c2.93 2.928 7.678 2.928 10.607 0 2.929-2.93 2.929-7.678 0-10.607l-28.33-28.33c-4.874-4.874-4.874-12.804 0-17.678l77.874-77.874c4.873-4.875 12.805-4.875 17.678 0l77.874 77.874c4.874 4.874 4.874 12.804 0 17.678l-77.874 77.874c-4.873 4.875-12.805 4.875-17.678 0l-28.33-28.33c-2.93-2.928-7.678-2.928-10.607 0-2.929 2.93-2.929 7.678 0 10.607l28.33 28.33c5.362 5.362 12.405 8.041 19.447 8.041z"/><path d="m256 303.5c26.191 0 47.5-21.309 47.5-47.5s-21.309-47.5-47.5-47.5-47.5 21.309-47.5 47.5 21.309 47.5 47.5 47.5zm0-80c17.921 0 32.5 14.579 32.5 32.5s-14.579 32.5-32.5 32.5-32.5-14.579-32.5-32.5 14.579-32.5 32.5-32.5z"/><path d="m218.683 141.195c4.527-4.526 6.221-11.156 4.42-17.302-1.801-6.145-6.805-10.812-13.059-12.179-27.652-6.042-56.085 2.28-76.066 22.262s-28.305 48.419-22.263 76.067c1.367 6.254 6.034 11.258 12.179 13.059 1.624.477 3.282.708 4.926.708 4.577 0 9.046-1.797 12.376-5.128v.001zm-88.095 66.881c0 .001 0 .001 0 0-.914.914-1.943.786-2.476.632-.533-.156-1.468-.606-1.743-1.867-4.945-22.632 1.864-45.905 18.216-62.257 12.841-12.842 29.948-19.797 47.665-19.797 4.842 0 9.732.521 14.591 1.582 1.261.275 1.711 1.21 1.867 1.743s.282 1.562-.632 2.476z"/><path d="m301.956 400.285c5.936 1.297 11.905 1.932 17.821 1.932 21.645 0 42.553-8.502 58.244-24.194 19.982-19.981 28.306-48.417 22.264-76.066-1.367-6.254-6.033-11.258-12.179-13.059-6.143-1.803-12.774-.108-17.302 4.418l-77.487 77.489c-4.527 4.526-6.221 11.156-4.42 17.302 1.801 6.144 6.805 10.811 13.059 12.178zm1.968-18.873 77.488-77.489c.911-.914 1.942-.789 2.476-.631.532.156 1.468.606 1.743 1.867 4.945 22.632-1.863 45.905-18.216 62.257-16.351 16.351-39.624 23.159-62.256 18.215-1.261-.275-1.711-1.21-1.867-1.743s-.282-1.563.632-2.476z"/><path d="m378.022 133.977c-19.982-19.981-48.416-28.307-76.066-22.262-6.254 1.367-11.258 6.034-13.059 12.179-1.801 6.146-.107 12.775 4.42 17.302h-.001l77.488 77.487c3.33 3.331 7.799 5.128 12.376 5.128 1.644 0 3.302-.231 4.926-.708 6.145-1.801 10.812-6.805 12.179-13.059 6.042-27.648-2.281-56.085-22.263-76.067zm7.609 72.864c-.275 1.261-1.21 1.711-1.743 1.867-.531.156-1.562.284-2.476-.632l-77.488-77.488c-.001 0-.001 0-.001 0-.913-.913-.787-1.942-.631-2.476s.606-1.468 1.867-1.743c4.859-1.062 9.747-1.582 14.591-1.582 17.716 0 34.825 6.956 47.665 19.797 16.352 16.352 23.161 39.625 18.216 62.257z"/><path d="m133.978 378.021c15.693 15.694 36.599 24.196 58.245 24.195 5.914 0 11.888-.635 17.821-1.932 6.254-1.367 11.258-6.034 13.059-12.179 1.801-6.146.107-12.775-4.42-17.302h.001l-77.488-77.489c-4.526-4.525-11.154-6.22-17.302-4.418-6.146 1.801-10.812 6.805-12.179 13.059-6.042 27.65 2.281 56.086 22.263 76.066zm-7.609-72.862c.275-1.261 1.211-1.711 1.743-1.867.194-.058.455-.11.752-.11.517 0 1.145.161 1.724.741l77.488 77.489h.001c.913.913.787 1.942.631 2.476s-.606 1.468-1.867 1.743c-22.629 4.944-45.904-1.864-62.257-18.216-16.352-16.351-23.16-39.624-18.215-62.256z"/><path d="m399.776 122.862c-3.144 2.697-3.505 7.432-.808 10.575 29.237 34.073 45.34 77.601 45.34 122.562 0 103.834-84.475 188.309-188.309 188.309s-188.308-84.474-188.308-188.308 84.475-188.309 188.309-188.309c44.962 0 88.489 16.103 122.562 45.34 3.142 2.7 7.878 2.336 10.575-.808s2.336-7.878-.808-10.575c-36.79-31.57-83.785-48.957-132.329-48.957-112.104 0-203.309 91.205-203.309 203.309s91.205 203.309 203.309 203.309 203.309-91.205 203.309-203.309c0-48.544-17.387-95.539-48.957-132.33-2.697-3.145-7.433-3.507-10.576-.808z"/></g></g></svg>