<svg id="Capa_1" enable-background="new 0 0 512 512" height="512" viewBox="0 0 512 512" width="512" xmlns="http://www.w3.org/2000/svg"><g><g><path d="m236 77.5h40v250.786h-40z" fill="#848484"/></g><g><path d="m256 328.286v-250.786h-20v250.786h40z" fill="#6e6e6e"/></g><g><path d="m256 97.5c-11.046 0-20-8.954-20-20v-50c0-11.046 8.954-20 20-20 11.046 0 20 8.954 20 20v50c0 11.046-8.954 20-20 20z" fill="#ff8870"/></g><g><path d="m256 27.5c0-7.398 4.028-13.843 10-17.302-2.944-1.706-6.353-2.698-10-2.698-11.046 0-20 8.954-20 20v50c0 11.046 8.954 20 20 20z" fill="#ff6c52"/></g><g><path d="m161.451 102.608h40v250.786h-40z" fill="#848484" transform="matrix(.985 -.174 .174 .985 -36.835 34.972)"/></g><g><path d="m203.225 351.488-43.549-246.975-19.696 3.472 43.549 246.976 39.392-6.946z" fill="#6e6e6e"/></g><g><path d="m163.149 124.209c-10.878 1.918-21.251-5.345-23.169-16.223l-8.682-49.24c-1.918-10.878 5.345-21.251 16.223-23.169 10.878-1.918 21.251 5.345 23.169 16.223l8.682 49.24c1.919 10.877-5.345 21.251-16.223 23.169z" fill="#ff8870"/></g><g><path d="m150.994 55.272c-1.285-7.286 1.563-14.332 6.844-18.776-3.196-1.168-6.725-1.553-10.316-.92-10.878 1.918-18.141 12.291-16.223 23.169l8.682 49.24c1.918 10.878 12.291 18.141 23.169 16.223z" fill="#ff6c52"/></g><g><path d="m310.549 101.786h40v250.786h-40z" fill="#848484" transform="matrix(.985 .174 -.174 .985 44.471 -53.948)"/></g><g><path d="m308.775 350.666 43.549-246.975-19.697-3.473-43.548 246.976 39.392 6.945z" fill="#6e6e6e"/></g><g><path d="m348.851 123.387c-10.878-1.918-18.141-12.291-16.223-23.169l8.682-49.24c1.918-10.878 12.291-18.141 23.169-16.223 10.878 1.918 18.141 12.291 16.223 23.169l-8.682 49.24c-1.918 10.878-12.291 18.141-23.169 16.223z" fill="#ff8870"/></g><g><path d="m361.006 54.45c1.285-7.286 6.37-12.933 12.853-15.303-2.603-2.191-5.788-3.76-9.38-4.393-10.878-1.918-21.251 5.345-23.169 16.223l-8.682 49.24c-1.918 10.878 5.345 21.251 16.223 23.169z" fill="#ff6c52"/></g><g><path d="m79.983 280.155v26.966c0 97.166 79.499 177.73 176.664 177.378 96.91-.351 175.362-79.02 175.362-176.012l.003-28.332-176.012 48.131z" fill="#ff8870"/></g><g><path d="m152.7 307.121v-7.082l-72.717-19.884v26.966c0 97.166 79.499 177.73 176.664 177.378 12.323-.045 24.345-1.362 35.948-3.816-79.673-17.016-139.895-88.995-139.895-173.562z" fill="#ff6c52"/></g><g><path d="m348.839 504.5h-185.357c-8.454 0-13.093-9.838-7.716-16.361l19.488-23.639h162.289l19.087 23.733c5.264 6.543.606 16.267-7.791 16.267z" fill="#ffee6e"/></g><g><path d="m228.483 488.139 19.489-23.639h-72.717l-19.488 23.639c-5.378 6.523-.738 16.361 7.716 16.361h72.717c-8.455 0-13.094-9.838-7.717-16.361z" fill="#ffd883"/></g><g><g><path d="m440.648 250.606c-38.852 0-76.38 10.914-108.528 31.561-19.328 12.414-45.649 18.976-76.12 18.976s-56.792-6.562-76.12-18.976c-32.148-20.647-69.676-31.561-108.528-31.561-14.001 0-25.352 11.351-25.352 25.352s11.351 25.352 25.352 25.352c29.117 0 57.169 8.133 81.126 23.52 27.913 17.927 62.742 27.017 103.522 27.017s75.609-9.09 103.522-27.017c23.957-15.387 52.009-23.52 81.126-23.52 14.001 0 25.352-11.351 25.352-25.352s-11.351-25.352-25.352-25.352z" fill="#ffee6e"/></g></g><g><path d="m230.648 326.496c0 14.002 11.35 25.352 25.352 25.352-40.78 0-75.609-9.09-103.522-27.017-23.957-15.387-52.009-23.52-81.126-23.52-14.001-.001-25.352-11.351-25.352-25.353s11.351-25.352 25.352-25.352c38.852 0 76.38 10.914 108.528 31.561 19.328 12.414 45.649 18.976 76.12 18.976-14.002.001-25.352 11.351-25.352 25.353z" fill="#ffd883"/></g><g><path d="m401.482 219.52c.505 0 1.018-.052 1.53-.158 4.056-.841 6.662-4.811 5.821-8.866-2.383-11.494.729-23.11 8.54-31.873 11.004-12.344 15.389-28.71 12.03-44.902-.84-4.056-4.813-6.657-8.867-5.82-4.056.841-6.661 4.812-5.82 8.867 2.384 11.494-.729 23.112-8.54 31.875-11.003 12.343-15.388 28.708-12.03 44.898.735 3.542 3.856 5.979 7.336 5.979z"/><path d="m190.755 405.138h.021c6.258-.007 12.205-2.723 16.316-7.45 2.719-3.125 2.39-7.862-.736-10.58-3.122-2.719-7.861-2.39-10.58.736-1.267 1.455-3.096 2.292-5.016 2.294h-.006c-1.919 0-3.746-.833-5.014-2.285-2.726-3.119-7.464-3.438-10.583-.716-3.119 2.725-3.44 7.463-.716 10.583 4.119 4.715 10.063 7.418 16.314 7.418z"/><path d="m321.159 405.014h.024c6.258-.006 12.205-2.721 16.317-7.449 2.719-3.125 2.39-7.862-.736-10.58-3.123-2.719-7.861-2.39-10.58.736-1.267 1.455-3.095 2.291-5.017 2.293h-.008c-1.917 0-3.742-.832-5.009-2.283-2.725-3.119-7.462-3.441-10.583-.718-3.12 2.725-3.441 7.462-.718 10.583 4.119 4.715 10.061 7.418 16.31 7.418z"/><path d="m255.996 416.66c8.478 0 16.54-3.672 22.118-10.074 2.722-3.122 2.396-7.86-.728-10.581-3.122-2.722-7.861-2.396-10.581.728-2.729 3.132-6.669 4.928-10.81 4.928s-8.08-1.796-10.81-4.928c-2.721-3.124-7.459-3.448-10.581-.728-3.123 2.721-3.449 7.459-.728 10.581 5.58 6.402 13.643 10.074 22.12 10.074z"/><path d="m103.158 210.495c-.841 4.056 1.766 8.025 5.821 8.866.514.106 1.025.158 1.53.158 3.48 0 6.602-2.437 7.336-5.979 3.357-16.19-1.027-32.556-12.03-44.898-7.812-8.763-10.924-20.381-8.54-31.875.841-4.056-1.765-8.026-5.82-8.867-4.062-.838-8.026 1.765-8.867 5.82-3.358 16.192 1.026 32.559 12.03 44.902 7.811 8.763 10.923 20.379 8.54 31.873z"/><path d="m440.647 243.106c-30.846 0-60.891 6.646-88.253 19.371l35.694-202.43c2.633-14.934-7.374-29.225-22.307-31.857-7.234-1.279-14.53.342-20.549 4.555-6.017 4.213-10.033 10.518-11.309 17.752l-8.681 49.234c0 .002-.001.004-.001.006-.001.004-.001.009-.002.013l-17.006 96.446c-.72 4.079 2.004 7.97 6.083 8.688 4.09.724 7.969-2.005 8.688-6.083l12.753-72.33c3.427 2.59 7.438 4.356 11.79 5.123 1.609.284 3.209.421 4.789.421 2.776 0 5.479-.447 8.049-1.241l-24.768 140.468c-2.546 1.484-5.066 3.017-7.552 4.613-6.059 3.892-12.895 7.155-20.375 9.795l10.104-57.304c.72-4.08-2.004-7.97-6.083-8.688-4.088-.72-7.969 2.005-8.688 6.083l-11.353 64.39c-2.66.564-5.392 1.048-8.17 1.478v-264.109c0-15.163-12.337-27.5-27.5-27.5s-27.5 12.337-27.5 27.5v264.11c-2.778-.43-5.51-.914-8.17-1.478l-33.57-190.387c0-.003-.001-.005-.001-.008 0-.001-.001-.003-.001-.004l-8.682-49.237c-1.275-7.233-5.292-13.538-11.309-17.751-6.019-4.213-13.314-5.835-20.549-4.555-14.933 2.633-24.939 16.924-22.307 31.857l35.694 202.43c-27.362-12.726-57.407-19.372-88.253-19.372-18.115 0-32.853 14.737-32.853 32.852s14.737 32.853 32.853 32.853c.387 0 .772.017 1.159.02.299 31.928 8.937 63.388 25.067 91.088 1.394 2.393 3.906 3.727 6.488 3.727 1.281 0 2.58-.328 3.768-1.02 3.579-2.085 4.791-6.676 2.707-10.256-14.649-25.156-22.568-53.684-23.015-82.66 21.824 2.413 42.624 9.693 60.899 21.431 29.141 18.717 65.334 28.207 107.574 28.207s78.434-9.49 107.574-28.207c18.279-11.74 39.084-19.022 60.914-21.433-.442 61.835-34.347 118.017-88.837 147.292h-158.501c-18.917-10.222-35.593-23.812-49.573-40.434-2.668-3.172-7.399-3.58-10.567-.913-3.17 2.667-3.579 7.397-.913 10.567 13.64 16.218 29.641 29.791 47.655 40.443l-13.771 16.703c-4.354 5.28-5.244 12.406-2.325 18.597s8.984 10.038 15.827 10.038h185.356c6.798 0 12.846-3.809 15.782-9.939 2.938-6.131 2.115-13.23-2.146-18.528l-13.521-16.812c55.976-32.888 90.428-92.545 90.548-157.89.382-.003.762-.02 1.145-.02 18.115 0 32.853-14.737 32.853-32.853.001-18.114-14.736-32.852-32.852-32.852zm-76.013-136.423c-1.197 6.788-7.694 11.34-14.48 10.141-3.288-.58-6.154-2.405-8.069-5.141-1.914-2.734-2.65-6.05-2.072-9.336l8.683-49.245c.58-3.288 2.405-6.153 5.141-8.068 2.736-1.916 6.058-2.648 9.341-2.071 6.788 1.197 11.336 7.693 10.14 14.48l-8.681 49.234c-.002.002-.003.004-.003.006zm-13.541 388.897c-.254.53-.884 1.42-2.254 1.42h-185.357c-1.379 0-2.009-.898-2.261-1.434-.253-.536-.546-1.593.332-2.657l17.239-20.909h155.159l16.835 20.933c.86 1.068.562 2.117.307 2.647zm-107.593-468.08c0-6.893 5.607-12.5 12.5-12.5s12.5 5.607 12.5 12.5v50c0 6.893-5.607 12.5-12.5 12.5s-12.5-5.607-12.5-12.5zm0 74.482c3.753 1.924 8 3.018 12.5 3.018s8.747-1.093 12.5-3.018v191.25c-4.076.263-8.238.412-12.5.412s-8.424-.149-12.5-.412zm-102.745-53.879c1.915-2.735 4.78-4.561 8.069-5.141 3.288-.577 6.605.155 9.34 2.071 2.735 1.915 4.561 4.78 5.141 8.068l8.683 49.245c.578 3.286-.157 6.602-2.072 9.336-1.915 2.735-4.781 4.561-8.069 5.141-6.788 1.196-13.283-3.353-14.48-10.141 0-.002-.001-.004-.001-.006l-8.681-49.234c-.581-3.288.155-6.604 2.07-9.339zm10.859 82.673c2.571.794 5.273 1.24 8.049 1.24 1.579 0 3.181-.137 4.789-.421 4.352-.767 8.363-2.533 11.789-5.123l28.067 159.18c-7.481-2.64-14.317-5.903-20.376-9.795-2.485-1.596-5.005-3.129-7.55-4.613zm289.033 163.035c-30.557 0-60.011 8.544-85.179 24.709-26.684 17.139-60.149 25.828-99.469 25.828s-72.785-8.689-99.469-25.828c-25.168-16.165-54.622-24.709-85.179-24.709-9.844 0-17.853-8.009-17.853-17.853s8.009-17.852 17.853-17.852c37.411 0 73.537 10.502 104.474 30.371 20.539 13.192 48.263 20.166 80.174 20.166s59.635-6.974 80.173-20.166c30.938-19.869 67.063-30.371 104.475-30.371 9.844 0 17.853 8.008 17.853 17.852s-8.009 17.853-17.853 17.853z"/></g></g></svg>