<svg id="Capa_1" enable-background="new 0 0 512 512" height="512" viewBox="0 0 512 512" width="512" xmlns="http://www.w3.org/2000/svg"><g><g><path d="m173.511 127.5h-106.011c-33.137 0-60-26.863-60-60 0-33.137 26.863-60 60-60 58.548 0 106.011 47.463 106.011 106.011z" fill="#e4e4e4"/></g><g><path d="m444.5 384.5v-317c0-33.137-26.863-60-60-60h-317.343c33.327 0 60.343 27.017 60.343 60.343v376.657c0 33.137 26.863 60 60 60 99.628 0 257-64.713 257-120z" fill="#f7f7f7"/></g><g><path d="m207.5 444.5v-376.657c0-33.327-27.017-60.343-60.343-60.343h-80c33.327 0 60.343 27.017 60.343 60.343v376.657c0 33.137 26.863 60 60 60 17.087 0 35.872-1.904 55.27-5.337-20.796-9.423-35.27-30.346-35.27-54.663z" fill="#f0f0f0"/></g><g><path d="m444.5 384.5h-137c-33.137 0-60 26.863-60 60 0 33.137-26.863 60-60 60h257c33.137 0 60-26.863 60-60 0-33.137-26.863-60-60-60z" fill="#f0f0f0"/></g><g><path d="m327.5 444.5c0-33.137 26.863-60 60-60h-80c-33.137 0-60 26.863-60 60 0 33.137-26.863 60-60 60h80c33.137 0 60-26.863 60-60z" fill="#e4e4e4"/></g><g><path d="m495.063 57.13c-11.953-11.953-31.11-12.636-43.884-1.565l-189.461 164.2 70.711 70.711 164.2-189.461c11.07-12.775 10.387-31.932-1.566-43.885z" fill="#848484"/></g><g><path d="m415.024 195.173c-16.225 12.506-39.596 11.335-54.467-3.536-14.872-14.872-16.043-38.243-3.536-54.467l-95.303 82.596 70.711 70.711z" fill="#6e6e6e"/></g><g><path d="m326.351 310.695c23.431-23.431 23.431-61.421 0-84.853-23.431-23.431-61.421-23.431-84.853 0-.001.002-.003.003-.005.005-31.657 31.661-34.577 75.452-33.4 99.285.507 10.259 8.709 18.461 18.968 18.968 23.835 1.177 67.629-1.744 99.29-33.405z" fill="#f2b88f"/></g><g><path d="m283.92 268.273.004-.004c15.701-15.701 37.935-20.864 57.95-15.523-2.63-9.854-7.793-19.173-15.523-26.903-23.431-23.431-61.421-23.431-84.853 0l-.004.004c-31.657 31.661-34.577 75.452-33.4 99.285.507 10.259 8.709 18.462 18.968 18.968 6.664.329 14.889.336 23.972-.514 2.19-23.402 10.081-52.504 32.886-75.313z" fill="#e3a67b"/></g><path d="m452 377.427v-213.466l50.296-58.034c13.582-15.672 12.734-39.436-1.93-54.101-13.826-13.825-35.737-15.364-51.331-4.112-3.509-11.463-10.034-21.863-19.055-30.092-12.456-11.364-28.607-17.622-45.48-17.622h-317.343c-.117 0-.231.012-.347.018-36.902.373-66.81 30.494-66.81 67.482 0 37.22 30.28 67.5 67.5 67.5h52.5v234.5c0 4.143 3.358 7.5 7.5 7.5s7.5-3.357 7.5-7.5v-301.656c0-21.333-9.897-40.397-25.341-52.844h274.841c25.882 0 47.488 18.492 51.737 43.59l-36.547 31.674c-3.13 2.713-3.468 7.45-.755 10.58 2.712 3.129 7.449 3.469 10.58.756l46.578-40.367c9.753-8.455 24.542-7.925 33.668 1.199 9.126 9.127 9.654 23.917 1.201 33.67l-140.313 161.9c-2.144-14.131-8.698-27.168-18.993-37.463-10.556-10.556-23.768-16.868-37.504-18.957l92.635-80.284c3.13-2.713 3.468-7.45.755-10.58-2.712-3.129-7.449-3.469-10.58-.756l-106.337 92.159c-12.603 2.514-24.623 8.631-34.38 18.369-.019.018-.037.035-.055.054-33.804 33.808-36.806 80.271-35.587 104.958.699 14.173 11.915 25.389 26.089 26.089 2.661.131 5.575.214 8.699.214 25.859 0 66.1-5.643 96.264-35.806 9.573-9.573 15.915-21.515 18.482-34.503l86.863-100.228v195.732h-129.5c-37.22 0-67.5 30.28-67.5 67.5 0 28.948-23.551 52.5-52.5 52.5s-52.5-23.552-52.5-52.5v-45c0-4.143-3.358-7.5-7.5-7.5s-7.5 3.357-7.5 7.5v45c0 37.22 30.28 67.5 67.5 67.5h257c37.22 0 67.5-30.28 67.5-67.5 0-34.684-26.298-63.329-60-67.073zm-332-309.583v52.156h-52.5c-28.949 0-52.5-23.552-52.5-52.5 0-28.891 23.459-52.402 52.328-52.496 29.059.094 52.672 23.76 52.672 52.84zm201.048 237.548c-29.715 29.717-71.411 32.319-93.616 31.217-6.437-.317-11.529-5.41-11.847-11.847-1.096-22.195 1.496-63.853 31.167-93.566.017-.017.033-.033.05-.049 20.471-20.471 53.778-20.47 74.247 0 9.916 9.915 15.376 23.099 15.376 37.122s-5.462 27.207-15.377 37.123zm123.452 191.608h-214.618c15.311-12.385 25.118-31.318 25.118-52.5 0-28.948 23.551-52.5 52.5-52.5h137c28.949 0 52.5 23.552 52.5 52.5s-23.551 52.5-52.5 52.5z"/></g></svg>