<svg id="Capa_1" enable-background="new 0 0 512 512" height="512" viewBox="0 0 512 512" width="512" xmlns="http://www.w3.org/2000/svg"><g><g><path d="m191.021 407.5-16.532 50.874c-8.938 27.505-34.569 46.126-63.489 46.126-26.786 0-48.5-21.714-48.5-48.5v-68.5z" fill="#ff583e"/></g><g><path d="m7.5 347.5h66.287v40h-66.287z" fill="#ffee6e"/></g><g><path d="m191.021 327.5v80h-128.521c-8.284 0-15-6.716-15-15v-50c0-8.284 6.716-15 15-15z" fill="#ff9b87"/></g><g><path d="m112.574 392.5v-50c0-8.284 6.716-15 15-15h-65.074c-8.284 0-15 6.716-15 15v50c0 8.284 6.716 15 15 15h65.074c-8.284 0-15-6.716-15-15z" fill="#ff8870"/></g><g><path d="m159.5 456c0 26.786-21.714 48.5-48.5 48.5h108.5l82.5-38.655 82.5 38.655h11.5c26.786 0 48.5-21.714 48.5-48.5v-408.5h-285z" fill="#ff8870"/></g><g><path d="m159.5 47.5h285v80h-285z" fill="#ff6c52"/></g><g><path d="m73.5 193.5h457v165h-457z" fill="#f7f7f7" transform="matrix(0 -1 1 0 26 578)"/></g><g><path d="m219.5 47.5h165v80h-165z" fill="#e4e4e4"/></g><g><path d="m99.5 27.5h405v40h-405z" fill="#ffee6e"/></g><g><path d="m464.5 22.5v50c0 8.284-6.716 15-15 15h-295c-8.284 0-15-6.716-15-15v-50c0-8.284 6.716-15 15-15h295c8.284 0 15 6.716 15 15z" fill="#ff9b87"/></g><g><path d="m204.575 72.5v-50c0-8.284 6.716-15 15-15h-65.075c-8.284 0-15 6.716-15 15v50c0 8.284 6.716 15 15 15h65.074c-8.284 0-14.999-6.716-14.999-15z" fill="#ff8870"/></g><g><path d="m504.5 0c-4.142 0-7.5 3.357-7.5 7.5v12.5h-25.142c-1.248-11.234-10.797-20-22.358-20h-295c-11.561 0-21.11 8.766-22.358 20h-25.142v-12.5c0-4.143-3.358-7.5-7.5-7.5s-7.5 3.357-7.5 7.5v80c0 4.143 3.358 7.5 7.5 7.5s7.5-3.357 7.5-7.5v-12.5h25.142c1.157 10.412 9.445 18.701 19.858 19.858v225.142h-89.5c-11.561 0-21.11 8.766-22.358 20h-25.142v-12.5c0-4.143-3.358-7.5-7.5-7.5s-7.5 3.357-7.5 7.5v80c0 4.143 3.358 7.5 7.5 7.5s7.5-3.357 7.5-7.5v-12.5h25.142c.964 8.679 6.883 15.882 14.858 18.71v42.29c0 30.879 25.122 56 56 56h285c30.878 0 56-25.121 56-56v-361.142c10.413-1.157 18.701-9.445 19.858-19.858h25.142v12.5c0 4.143 3.358 7.5 7.5 7.5s7.5-3.357 7.5-7.5v-80c0-4.143-3.358-7.5-7.5-7.5zm-397.5 35h25v25h-25zm-92 320h25v25h-25zm96 142c-22.607 0-41-18.393-41-41v-41h82v41c0 22.607-18.393 41-41 41zm56-41v-73.5c0-4.143-3.358-7.5-7.5-7.5s-7.5 3.357-7.5 7.5v17.5h-89.5c-4.136 0-7.5-3.364-7.5-7.5v-50c0-4.136 3.364-7.5 7.5-7.5h89.5v17.5c0 4.143 3.358 7.5 7.5 7.5s7.5-3.357 7.5-7.5v-257.5h45v402h-62.894c11.003-10.232 17.894-24.826 17.894-41zm229 41h-4v-259.5c0-4.143-3.358-7.5-7.5-7.5s-7.5 3.357-7.5 7.5v259.5h-150v-402h150v112.5c0 4.143 3.358 7.5 7.5 7.5s7.5-3.357 7.5-7.5v-112.5h45v361c0 22.607-18.393 41-41 41zm61-424.5c0 4.136-3.364 7.5-7.5 7.5h-295c-4.136 0-7.5-3.364-7.5-7.5v-50c0-4.136 3.364-7.5 7.5-7.5h295c4.136 0 7.5 3.364 7.5 7.5zm15-12.5v-25h25v25z"/><path d="m344.5 139.571h-85c-4.142 0-7.5 3.357-7.5 7.5s3.358 7.5 7.5 7.5h85c4.142 0 7.5-3.357 7.5-7.5s-3.358-7.5-7.5-7.5z"/><path d="m344.5 199.143h-85c-4.142 0-7.5 3.357-7.5 7.5s3.358 7.5 7.5 7.5h85c4.142 0 7.5-3.357 7.5-7.5s-3.358-7.5-7.5-7.5z"/><path d="m344.5 258.714h-85c-4.142 0-7.5 3.357-7.5 7.5s3.358 7.5 7.5 7.5h85c4.142 0 7.5-3.357 7.5-7.5s-3.358-7.5-7.5-7.5z"/><path d="m344.5 318.286h-85c-4.142 0-7.5 3.357-7.5 7.5s3.358 7.5 7.5 7.5h85c4.142 0 7.5-3.357 7.5-7.5s-3.358-7.5-7.5-7.5z"/><path d="m344.5 377.857h-85c-4.142 0-7.5 3.357-7.5 7.5s3.358 7.5 7.5 7.5h85c4.142 0 7.5-3.357 7.5-7.5s-3.358-7.5-7.5-7.5z"/><path d="m344.5 437.429h-85c-4.142 0-7.5 3.357-7.5 7.5s3.358 7.5 7.5 7.5h85c4.142 0 7.5-3.357 7.5-7.5s-3.358-7.5-7.5-7.5z"/></g><g><g><path d="m239.551 57.429c-4.142 0-7.5-3.357-7.5-7.5v-12c0-4.143 3.358-7.5 7.5-7.5s7.5 3.357 7.5 7.5v12c0 4.142-3.358 7.5-7.5 7.5z"/></g><g><path d="m364.449 57.429c-4.142 0-7.5-3.357-7.5-7.5v-12c0-4.143 3.358-7.5 7.5-7.5s7.5 3.357 7.5 7.5v12c0 4.142-3.358 7.5-7.5 7.5z"/></g><g><path d="m302 64.571c-8.478 0-16.54-3.671-22.119-10.072-2.721-3.123-2.396-7.86.727-10.582 3.124-2.721 7.86-2.396 10.582.727 2.729 3.132 6.669 4.928 10.81 4.928s8.081-1.796 10.81-4.928c2.721-3.123 7.458-3.447 10.582-.727 3.123 2.722 3.448 7.459.727 10.582-5.579 6.401-13.641 10.072-22.119 10.072z"/></g></g></g></svg>