<svg id="Capa_1" enable-background="new 0 0 512 512" height="512" viewBox="0 0 512 512" width="512" xmlns="http://www.w3.org/2000/svg"><g><g><path d="m151.75 346-20 20-20-20c-11.046 0-20-8.954-20-20 0-11.046 8.954-20 20-20l20-20 20 20c11.046 0 20 8.954 20 20 0 11.046-8.954 20-20 20z" fill="#6e6e6e"/></g><g><path d="m131.75 326c0-11.046 8.954-20 20-20l-20-20-20 20c-11.046 0-20 8.954-20 20 0 11.046 8.954 20 20 20l20 20 20-20c-11.046 0-20-8.954-20-20z" fill="#595959"/></g><g><path d="m276 346-20 20-20-20c-11.046 0-20-8.954-20-20 0-11.046 8.954-20 20-20l20-20 20 20c11.046 0 20 8.954 20 20 0 11.046-8.954 20-20 20z" fill="#6e6e6e"/></g><g><path d="m256 326c0-11.046 8.954-20 20-20l-20-20-20 20c-11.046 0-20 8.954-20 20 0 11.046 8.954 20 20 20l20 20 20-20c-11.046 0-20-8.954-20-20z" fill="#595959"/></g><g><path d="m400.25 346-20 20-20-20c-11.046 0-20-8.954-20-20 0-11.046 8.954-20 20-20l20-20 20 20c11.046 0 20 8.954 20 20 0 11.046-8.954 20-20 20z" fill="#6e6e6e"/></g><g><path d="m380.25 326c0-11.046 8.954-20 20-20l-20-20-20 20c-11.046 0-20 8.954-20 20 0 11.046 8.954 20 20 20l20 20 20-20c-11.046 0-20-8.954-20-20z" fill="#595959"/></g><g><path d="m151.75 166h-40c-11.046 0-20-8.954-20-20 0-11.046 8.954-20 20-20h40c11.046 0 20 8.954 20 20 0 11.046-8.954 20-20 20z" fill="#848484"/></g><g><path d="m131.75 146c0-11.046 8.954-20 20-20h-40c-11.046 0-20 8.954-20 20 0 11.046 8.954 20 20 20h40c-11.046 0-20-8.954-20-20z" fill="#6e6e6e"/></g><g><path d="m151.75 306h-40c-11.046 0-20-8.954-20-20 0-11.046 8.954-20 20-20h40c11.046 0 20 8.954 20 20 0 11.046-8.954 20-20 20z" fill="#848484"/></g><g><path d="m151.75 386h-40c-11.046 0-20-8.954-20-20 0-11.046 8.954-20 20-20h40c11.046 0 20 8.954 20 20 0 11.046-8.954 20-20 20z" fill="#848484"/></g><g><path d="m276 306h-40c-11.046 0-20-8.954-20-20 0-11.046 8.954-20 20-20h40c11.046 0 20 8.954 20 20 0 11.046-8.954 20-20 20z" fill="#848484"/></g><g><path d="m276 386h-40c-11.046 0-20-8.954-20-20 0-11.046 8.954-20 20-20h40c11.046 0 20 8.954 20 20 0 11.046-8.954 20-20 20z" fill="#848484"/></g><g><path d="m400.25 306h-40c-11.046 0-20-8.954-20-20 0-11.046 8.954-20 20-20h40c11.046 0 20 8.954 20 20 0 11.046-8.954 20-20 20z" fill="#848484"/></g><g><path d="m400.25 386h-40c-11.046 0-20-8.954-20-20 0-11.046 8.954-20 20-20h40c11.046 0 20 8.954 20 20 0 11.046-8.954 20-20 20z" fill="#848484"/></g><g><path d="m276 166h-40c-11.046 0-20-8.954-20-20 0-11.046 8.954-20 20-20h40c11.046 0 20 8.954 20 20 0 11.046-8.954 20-20 20z" fill="#848484"/></g><g><path d="m400.25 166h-40c-11.046 0-20-8.954-20-20 0-11.046 8.954-20 20-20h40c11.046 0 20 8.954 20 20 0 11.046-8.954 20-20 20z" fill="#848484"/></g><g><path d="m7.5 106v300c0 27.614 22.386 50 50 50h397c27.614 0 50-22.386 50-50v-300c0-27.614-22.386-50-50-50h-397c-27.614 0-50 22.386-50 50zm447 310h-397c-5.523 0-10-4.477-10-10v-300c0-5.523 4.477-10 10-10h397c5.523 0 10 4.477 10 10v300c0 5.523-4.477 10-10 10z" fill="#e3a67b"/></g><g><path d="m103.755 436c0-11.046 8.954-20 20-20h-66.255c-5.523 0-10-4.477-10-10v-300c0-5.523 4.477-10 10-10h66.255c-11.046 0-20-8.954-20-20s8.954-20 20-20h-66.255c-27.614 0-50 22.386-50 50v300c0 27.614 22.386 50 50 50h66.255c-11.045 0-20-8.954-20-20z" fill="#d99668"/></g><g><path d="m256 146c0-11.046 8.954-20 20-20h-40c-11.046 0-20 8.954-20 20 0 11.046 8.954 20 20 20h40c-11.046 0-20-8.954-20-20z" fill="#6e6e6e"/></g><g><path d="m380.25 146c0-11.046 8.954-20 20-20h-40c-11.046 0-20 8.954-20 20 0 11.046 8.954 20 20 20h40c-11.046 0-20-8.954-20-20z" fill="#6e6e6e"/></g><g><path d="m131.75 286c0-11.046 8.954-20 20-20h-40c-11.046 0-20 8.954-20 20 0 11.046 8.954 20 20 20h40c-11.046 0-20-8.954-20-20z" fill="#6e6e6e"/></g><g><path d="m256 286c0-11.046 8.954-20 20-20h-40c-11.046 0-20 8.954-20 20 0 11.046 8.954 20 20 20h40c-11.046 0-20-8.954-20-20z" fill="#6e6e6e"/></g><g><path d="m380.25 286c0-11.046 8.954-20 20-20h-40c-11.046 0-20 8.954-20 20 0 11.046 8.954 20 20 20h40c-11.046 0-20-8.954-20-20z" fill="#6e6e6e"/></g><g><path d="m131.75 366c0-11.046 8.954-20 20-20h-40c-11.046 0-20 8.954-20 20 0 11.046 8.954 20 20 20h40c-11.046 0-20-8.954-20-20z" fill="#6e6e6e"/></g><g><path d="m256 366c0-11.046 8.954-20 20-20h-40c-11.046 0-20 8.954-20 20 0 11.046 8.954 20 20 20h40c-11.046 0-20-8.954-20-20z" fill="#6e6e6e"/></g><g><path d="m380.25 366c0-11.046 8.954-20 20-20h-40c-11.046 0-20 8.954-20 20 0 11.046 8.954 20 20 20h40c-11.046 0-20-8.954-20-20z" fill="#6e6e6e"/></g><g><path d="m464.5 236h-417c-11.046 0-20-8.954-20-20 0-11.046 8.954-20 20-20h417c11.046 0 20 8.954 20 20 0 11.046-8.954 20-20 20z" fill="#f2b88f"/></g><g><path d="m103.755 216c0-11.046 8.954-20 20-20h-76.255c-11.046 0-20 8.954-20 20 0 11.046 8.954 20 20 20h76.255c-11.045 0-20-8.954-20-20z" fill="#e3a67b"/></g><g><path d="m454.5 48.5h-397c-31.706 0-57.5 25.794-57.5 57.5v300c0 31.706 25.794 57.5 57.5 57.5h397c31.706 0 57.5-25.794 57.5-57.5v-300c0-31.706-25.794-57.5-57.5-57.5zm42.5 357.5c0 23.435-19.065 42.5-42.5 42.5h-397c-23.435 0-42.5-19.065-42.5-42.5v-300c0-23.435 19.065-42.5 42.5-42.5h397c23.435 0 42.5 19.065 42.5 42.5z"/><path d="m472 189.548v-83.548c0-9.649-7.851-17.5-17.5-17.5h-397c-9.649 0-17.5 7.851-17.5 17.5v83.548c-11.528 3.274-20 13.889-20 26.452s8.472 23.178 20 26.452v163.548c0 9.649 7.851 17.5 17.5 17.5h397c9.649 0 17.5-7.851 17.5-17.5v-65c0-4.143-3.357-7.5-7.5-7.5s-7.5 3.357-7.5 7.5v65c0 1.379-1.121 2.5-2.5 2.5h-66.75v-15h12.5c15.163 0 27.5-12.337 27.5-27.5 0-7.875-3.333-14.982-8.655-20 5.323-5.018 8.655-12.125 8.655-20s-3.333-14.982-8.655-20c5.323-5.018 8.655-12.125 8.655-20 0-15.163-12.337-27.5-27.5-27.5h-12.5v-15h69.25v67.5c0 4.143 3.357 7.5 7.5 7.5s7.5-3.357 7.5-7.5v-68.548c11.528-3.274 20-13.889 20-26.452s-8.472-23.178-20-26.452zm-15-83.548v82.5h-69.25v-15h12.5c15.163 0 27.5-12.337 27.5-27.5s-12.337-27.5-27.5-27.5h-12.5v-15h66.75c1.379 0 2.5 1.121 2.5 2.5zm-193.5 82.5v-15h12.5c15.163 0 27.5-12.337 27.5-27.5s-12.337-27.5-27.5-27.5h-12.5v-15h109.25v15h-12.5c-15.163 0-27.5 12.337-27.5 27.5s12.337 27.5 27.5 27.5h12.5v15zm12.5-55c6.893 0 12.5 5.607 12.5 12.5s-5.607 12.5-12.5 12.5h-40c-6.893 0-12.5-5.607-12.5-12.5s5.607-12.5 12.5-12.5zm84.25 25c-6.893 0-12.5-5.607-12.5-12.5s5.607-12.5 12.5-12.5h40c6.893 0 12.5 5.607 12.5 12.5s-5.607 12.5-12.5 12.5zm-302.75-55h66.75v15h-12.5c-15.164 0-27.5 12.337-27.5 27.5s12.336 27.5 27.5 27.5h12.5v15h-69.25v-82.5c0-1.379 1.122-2.5 2.5-2.5zm54.25 55c-6.893 0-12.5-5.607-12.5-12.5s5.607-12.5 12.5-12.5h40c6.893 0 12.5 5.607 12.5 12.5s-5.607 12.5-12.5 12.5zm-56.75 247.5v-162.5h69.25v15h-12.5c-15.164 0-27.5 12.337-27.5 27.5 0 7.875 3.332 14.982 8.655 20-5.323 5.018-8.655 12.125-8.655 20s3.332 14.982 8.655 20c-5.323 5.018-8.655 12.125-8.655 20 0 15.163 12.336 27.5 27.5 27.5h12.5v15h-66.75c-1.378 0-2.5-1.121-2.5-2.5zm193.5-162.5v15h-12.5c-15.164 0-27.5 12.337-27.5 27.5 0 7.875 3.332 14.982 8.655 20-5.323 5.018-8.655 12.125-8.655 20s3.332 14.982 8.655 20c-5.323 5.018-8.655 12.125-8.655 20 0 15.163 12.336 27.5 27.5 27.5h12.5v15h-109.25v-15h12.5c15.164 0 27.5-12.337 27.5-27.5 0-7.875-3.332-14.982-8.655-20 5.323-5.018 8.655-12.125 8.655-20s-3.332-14.982-8.655-20c5.323-5.018 8.655-12.125 8.655-20 0-15.163-12.336-27.5-27.5-27.5h-12.5v-15zm27.5 55h-40c-6.893 0-12.5-5.607-12.5-12.5s5.607-12.5 12.5-12.5h40c6.893 0 12.5 5.607 12.5 12.5s-5.607 12.5-12.5 12.5zm12.5 27.5c0 6.893-5.607 12.5-12.5 12.5h-40c-6.893 0-12.5-5.607-12.5-12.5s5.607-12.5 12.5-12.5h40c6.893 0 12.5 5.607 12.5 12.5zm0 40c0 6.893-5.607 12.5-12.5 12.5h-40c-6.893 0-12.5-5.607-12.5-12.5s5.607-12.5 12.5-12.5h40c6.893 0 12.5 5.607 12.5 12.5zm-176.75-12.5h40c6.893 0 12.5 5.607 12.5 12.5s-5.607 12.5-12.5 12.5h-40c-6.893 0-12.5-5.607-12.5-12.5s5.607-12.5 12.5-12.5zm-12.5-27.5c0-6.893 5.607-12.5 12.5-12.5h40c6.893 0 12.5 5.607 12.5 12.5s-5.607 12.5-12.5 12.5h-40c-6.893 0-12.5-5.607-12.5-12.5zm0-40c0-6.893 5.607-12.5 12.5-12.5h40c6.893 0 12.5 5.607 12.5 12.5s-5.607 12.5-12.5 12.5h-40c-6.893 0-12.5-5.607-12.5-12.5zm313.5 80c0 6.893-5.607 12.5-12.5 12.5h-40c-6.893 0-12.5-5.607-12.5-12.5s5.607-12.5 12.5-12.5h40c6.893 0 12.5 5.607 12.5 12.5zm0-40c0 6.893-5.607 12.5-12.5 12.5h-40c-6.893 0-12.5-5.607-12.5-12.5s5.607-12.5 12.5-12.5h40c6.893 0 12.5 5.607 12.5 12.5zm0-40c0 6.893-5.607 12.5-12.5 12.5h-40c-6.893 0-12.5-5.607-12.5-12.5s5.607-12.5 12.5-12.5h40c6.893 0 12.5 5.607 12.5 12.5zm-40-27.5h-12.5c-15.163 0-27.5 12.337-27.5 27.5 0 7.875 3.333 14.982 8.655 20-5.323 5.018-8.655 12.125-8.655 20s3.333 14.982 8.655 20c-5.323 5.018-8.655 12.125-8.655 20 0 15.163 12.337 27.5 27.5 27.5h12.5v15h-109.25v-15h12.5c15.163 0 27.5-12.337 27.5-27.5 0-7.875-3.333-14.982-8.655-20 5.323-5.018 8.655-12.125 8.655-20s-3.333-14.982-8.655-20c5.323-5.018 8.655-12.125 8.655-20 0-15.163-12.337-27.5-27.5-27.5h-12.5v-15h109.25zm91.75-30h-417c-6.893 0-12.5-5.607-12.5-12.5s5.607-12.5 12.5-12.5h131.375c4.142 0 7.5-3.357 7.5-7.5s-3.358-7.5-7.5-7.5h-39.625v-15h12.5c15.164 0 27.5-12.337 27.5-27.5s-12.336-27.5-27.5-27.5h-12.5v-15h109.25v15h-12.5c-15.164 0-27.5 12.337-27.5 27.5s12.336 27.5 27.5 27.5h12.5v15h-39.625c-4.142 0-7.5 3.357-7.5 7.5s3.358 7.5 7.5 7.5h255.625c6.893 0 12.5 5.607 12.5 12.5s-5.607 12.5-12.5 12.5z"/></g></g></svg>