<svg id="Capa_1" enable-background="new 0 0 511.992 511.992" height="512" viewBox="0 0 511.992 511.992" width="512" xmlns="http://www.w3.org/2000/svg"><g><g><path d="m412.845 144.766 86.557-75.826c6.491-5.686 6.82-15.675.719-21.777l-35.291-35.291c-6.102-6.102-16.091-5.772-21.777.719l-75.826 86.557z" fill="#ffee6e"/></g><g><path d="m492.969 40.011-28.139-28.139c-6.102-6.102-16.091-5.772-21.777.719l-75.826 86.557 28.139 28.139 75.826-86.557c5.686-6.491 15.675-6.821 21.777-.719z" fill="#ffd883"/></g><g><path d="m173.257 57.574h122.689v439.635h-122.689z" fill="#ff8870" transform="matrix(.707 .707 -.707 .707 264.859 -84.642)"/></g><g><path d="m-6.904 225.031h439.635v61.344h-439.635z" fill="#ff6c52" transform="matrix(.707 -.707 .707 .707 -118.449 225.446)"/></g><g><path d="m408.11 190.638-86.754-86.754c-3.993-3.993-3.993-10.466 0-14.459l36.148-36.148c3.993-3.993 10.466-3.993 14.459 0l86.754 86.754c3.993 3.993 3.993 10.466 0 14.459l-36.148 36.148c-3.993 3.992-10.466 3.992-14.459 0z" fill="#f0f0f0"/></g><g><path d="m363.564 131.633 36.148-36.148c3.993-3.993 10.466-3.993 14.459 0l-42.208-42.208c-3.993-3.993-10.466-3.993-14.459 0l-36.148 36.148c-3.993 3.993-3.993 10.466 0 14.459l42.208 42.208c-3.993-3.993-3.993-10.467 0-14.459z" fill="#e4e4e4"/></g><g><path d="m97.241 501.507-86.754-86.754c-3.993-3.993-3.993-10.466 0-14.459l36.148-36.148c3.993-3.993 10.466-3.993 14.459 0l86.754 86.754c3.993 3.993 3.993 10.466 0 14.459l-36.148 36.148c-3.993 3.992-10.466 3.992-14.459 0z" fill="#f0f0f0"/></g><g><path d="m52.695 442.502 36.148-36.148c3.993-3.993 10.466-3.993 14.459 0l-42.208-42.208c-3.993-3.993-10.466-3.993-14.459 0l-36.148 36.148c-3.993 3.993-3.993 10.466 0 14.459l42.208 42.208c-3.993-3.993-3.993-10.467 0-14.459z" fill="#e4e4e4"/></g><g><circle cx="263.52" cy="248.474" fill="#6e6e6e" r="20.448"/></g><g><circle cx="205.684" cy="306.31" fill="#6e6e6e" r="20.448"/></g><g><circle cx="147.848" cy="364.146" fill="#6e6e6e" r="20.448"/></g><g><circle cx="321.356" cy="190.638" fill="#6e6e6e" r="20.448"/></g><g><path d="m505.425 41.86-35.291-35.291c-4.371-4.37-10.44-6.774-16.596-6.555-6.177.203-12.055 2.986-16.127 7.635l-46.915 53.555-13.231-13.231c-6.912-6.91-18.154-6.909-25.066 0l-12.77 12.77-.118-.118c-2.93-2.928-7.678-2.928-10.607 0-2.929 2.93-2.929 7.678 0 10.607l.118.118-12.77 12.771c-5.012 5.014-6.369 12.302-4.109 18.568l-28.661 28.661c-2.93 2.93-2.93 7.678-.001 10.607 1.465 1.464 3.384 2.196 5.304 2.196 1.919 0 3.839-.732 5.303-2.196l27.468-27.466 76.147 76.147-200.976 200.974c-2.929 2.93-2.929 7.678 0 10.607 1.465 1.464 3.385 2.196 5.304 2.196s3.839-.732 5.304-2.196l202.169-202.169c1.947.702 3.988 1.073 6.035 1.073 4.538 0 9.078-1.728 12.534-5.182l12.77-12.77.118.118c1.465 1.464 3.385 2.196 5.304 2.196s3.839-.732 5.304-2.196c2.929-2.93 2.929-7.678 0-10.607l-.118-.118 12.77-12.771c6.909-6.911 6.909-18.155 0-25.065l-13.23-13.23 53.555-46.915c4.648-4.072 7.432-9.95 7.635-16.127.203-6.178-2.187-12.226-6.556-16.596zm-88.158 143.474c-1.062 1.064-2.792 1.062-3.853 0l-86.755-86.755c-1.062-1.062-1.062-2.79 0-3.852l12.77-12.77 90.607 90.607zm36.146-36.147-12.77 12.77-90.607-90.607 12.769-12.77c.531-.531 1.229-.797 1.927-.797s1.396.266 1.926.797l86.755 86.755c1.063 1.062 1.063 2.79 0 3.852zm41.047-85.888-54.3 47.568-39.033-39.033 47.568-54.3c1.368-1.562 3.264-2.46 5.339-2.528 2.072-.061 4.025.702 5.493 2.171l35.291 35.291c1.469 1.468 2.239 3.419 2.171 5.493-.069 2.074-.967 3.97-2.529 5.338z"/><path d="m175.314 412.826-27.466 27.467-76.148-76.147 200.708-200.708c2.929-2.93 2.929-7.678 0-10.607-2.93-2.928-7.678-2.928-10.607 0l-201.902 201.902c-6.266-2.26-13.555-.902-18.568 4.109l-12.77 12.77-.119-.119c-2.93-2.928-7.678-2.928-10.607 0-2.929 2.93-2.929 7.678 0 10.607l.119.119-12.771 12.771c-6.909 6.911-6.909 18.155 0 25.065l86.755 86.755c3.456 3.455 7.993 5.182 12.532 5.182 4.538 0 9.078-1.728 12.534-5.182l12.77-12.771.118.118c1.465 1.464 3.385 2.196 5.304 2.196s3.839-.732 5.304-2.196c2.929-2.93 2.929-7.678 0-10.607l-.118-.118 12.77-12.77c5.012-5.013 6.369-12.302 4.109-18.568l28.662-28.662c2.929-2.929 2.929-7.677-.001-10.606-2.929-2.928-7.678-2.929-10.608 0zm-68.917 83.377c-1.062 1.064-2.792 1.062-3.853 0l-86.754-86.755c-1.062-1.062-1.062-2.79 0-3.852l12.771-12.77 90.606 90.606zm36.147-36.148-12.77 12.77-90.606-90.606 12.77-12.77c.53-.531 1.229-.797 1.926-.797s1.396.266 1.926.797l86.754 86.753c1.062 1.063 1.062 2.791 0 3.853z"/><path d="m243.757 228.711c-10.896 10.897-10.896 28.628 0 39.525 5.449 5.448 12.605 8.172 19.763 8.172s14.313-2.724 19.763-8.172c10.896-10.897 10.896-28.628 0-39.525-10.899-10.896-28.628-10.896-39.526 0zm28.918 28.918c-5.047 5.049-13.264 5.049-18.311 0-5.049-5.048-5.049-13.263 0-18.311 2.523-2.524 5.84-3.787 9.155-3.787s6.632 1.263 9.155 3.787c5.05 5.048 5.05 13.263.001 18.311z"/><path d="m185.921 286.547c-10.896 10.897-10.896 28.628 0 39.525 5.449 5.448 12.605 8.172 19.763 8.172s14.313-2.724 19.763-8.172c10.896-10.897 10.896-28.628 0-39.525-10.899-10.896-28.628-10.896-39.526 0zm28.918 28.918c-5.047 5.049-13.264 5.049-18.311 0-5.049-5.048-5.049-13.263 0-18.311 2.523-2.524 5.84-3.787 9.155-3.787s6.632 1.263 9.155 3.787c5.05 5.048 5.05 13.263.001 18.311z"/><path d="m128.085 344.383c-10.896 10.897-10.896 28.628 0 39.525 5.449 5.448 12.605 8.172 19.763 8.172s14.313-2.724 19.763-8.172c10.896-10.897 10.896-28.628 0-39.525-10.899-10.896-28.628-10.896-39.526 0zm28.918 28.918c-5.047 5.049-13.264 5.049-18.311 0-5.049-5.048-5.049-13.263 0-18.311 2.523-2.524 5.84-3.787 9.155-3.787s6.632 1.263 9.155 3.787c5.05 5.048 5.05 13.263.001 18.311z"/><path d="m341.118 170.875c-10.898-10.896-28.627-10.896-39.525 0-10.896 10.897-10.896 28.628 0 39.525 5.449 5.448 12.605 8.172 19.763 8.172s14.313-2.724 19.762-8.172c5.279-5.278 8.188-12.297 8.188-19.763s-2.909-14.483-8.188-19.762zm-10.606 28.918c-5.048 5.049-13.265 5.049-18.312 0-5.049-5.048-5.049-13.263 0-18.311 2.523-2.524 5.84-3.787 9.155-3.787s6.632 1.263 9.156 3.787c2.445 2.445 3.793 5.697 3.793 9.155s-1.347 6.711-3.792 9.156z"/></g></g></svg>