<svg id="Capa_1" enable-background="new 0 0 512 512" height="512" viewBox="0 0 512 512" width="512" xmlns="http://www.w3.org/2000/svg"><g><g><path d="m96 423.791h320v40h-320z" fill="#595959"/></g><g><path d="m35.638 67.5h440.723v40h-440.723z" fill="#595959"/></g><g><path d="m406 57.5h-300l14.971-37.428c3.037-7.593 10.391-12.572 18.57-12.572h232.919c8.178 0 15.532 4.979 18.57 12.572z" fill="#fdffbf"/></g><g><path d="m224.541 7.5h-85c-8.178 0-15.532 4.979-18.57 12.572l-14.971 37.428h85l14.971-37.428c3.037-7.593 10.392-12.572 18.57-12.572z" fill="#ffff9c"/></g><g><path d="m116 484.5v-101.418c0-44.115-10.271-87.624-30-127.082-19.729-39.458-30-82.967-30-127.082v-61.418c0-11.046-8.954-20-20-20-11.046 0-20 8.954-20 20v61.418c0 44.115 10.271 87.624 30 127.082 19.729 39.458 30 82.967 30 127.082v101.418c0 11.046 8.954 20 20 20 11.046 0 20-8.954 20-20z" fill="#6e6e6e"/></g><g><path d="m396 484.5v-101.418c0-44.115 10.271-87.624 30-127.082 19.729-39.458 30-82.967 30-127.082v-61.418c0-11.046 8.954-20 20-20 11.046 0 20 8.954 20 20v61.418c0 44.115-10.271 87.624-30 127.082-19.729 39.458-30 82.967-30 127.082v101.418c0 11.046-8.954 20-20 20-11.046 0-20-8.954-20-20z" fill="#848484"/></g><g><path d="m185.495 383.082c-10.582 0-19.426-8.203-20.047-18.766-2.571-43.746-14.08-87.024-33.67-126.205-16.864-33.726-25.778-71.485-25.778-109.193v-61.418h300v61.418c0 37.708-8.914 75.467-25.777 109.193-19.59 39.18-31.099 82.459-33.67 126.205-.621 10.563-9.466 18.766-20.047 18.766z" fill="#ff8870"/></g><g><path d="m240.18 364.316c-2.571-43.746-14.08-87.024-33.67-126.205-16.864-33.727-25.777-71.485-25.777-109.193v-61.418h-74.733v61.418c0 37.708 8.914 75.467 25.777 109.193 19.59 39.18 31.099 82.459 33.67 126.205.621 10.563 9.466 18.766 20.047 18.766h74.732c-10.58 0-19.425-8.203-20.046-18.766z" fill="#ff6c52"/></g><g><g><g><path d="m279.694 187.492c0-14.643-10.608-16.019-23.693-16.019-13.086 0-23.694 1.376-23.694 16.019s10.608 26.513 23.694 26.513c13.085-.001 23.693-11.871 23.693-26.513z" fill="#595959"/></g></g><g><path d="m181.268 185.033c-4.143 0-7.5-3.357-7.5-7.5v-12c0-4.143 3.357-7.5 7.5-7.5s7.5 3.357 7.5 7.5v12c0 4.143-3.358 7.5-7.5 7.5z"/></g><g><path d="m256 221.504c-17.2 0-31.193-15.258-31.193-34.013 0-23.519 21.859-23.519 31.193-23.519s31.193 0 31.193 23.519c0 18.755-13.993 34.013-31.193 34.013zm0-42.531c-15.538 0-16.193 2.611-16.193 8.519 0 10.483 7.265 19.013 16.193 19.013s16.193-8.529 16.193-19.013c0-5.908-.655-8.519-16.193-8.519z"/></g><g><path d="m330.732 185.033c-4.143 0-7.5-3.357-7.5-7.5v-12c0-4.143 3.357-7.5 7.5-7.5s7.5 3.357 7.5 7.5v12c0 4.143-3.357 7.5-7.5 7.5z"/></g></g><g><path d="m406 87.5h-300c-11.046 0-20-8.954-20-20 0-11.046 8.954-20 20-20h300c11.046 0 20 8.954 20 20 0 11.046-8.954 20-20 20z" fill="#fdffdc"/></g><g><path d="m171 67.5c0-11.046 8.954-20 20-20h-85c-11.046 0-20 8.954-20 20 0 11.046 8.954 20 20 20h85c-11.046 0-20-8.954-20-20z" fill="#fdffbf"/></g><g><circle cx="256" cy="97.5" fill="#ffee6e" r="20"/></g><g><path d="m256 97.5c0-7.398 4.028-13.843 10-17.302-2.944-1.705-6.353-2.698-10-2.698-11.046 0-20 8.954-20 20s8.954 20 20 20c3.647 0 7.056-.992 10-2.698-5.972-3.459-10-9.904-10-17.302z" fill="#ffd883"/></g><g><circle cx="341" cy="97.5" fill="#ffee6e" r="20"/></g><g><path d="m341 97.5c0-7.398 4.028-13.843 10-17.302-2.944-1.705-6.353-2.698-10-2.698-11.046 0-20 8.954-20 20s8.954 20 20 20c3.647 0 7.056-.992 10-2.698-5.972-3.459-10-9.904-10-17.302z" fill="#ffd883"/></g><g><circle cx="171" cy="97.5" fill="#ffee6e" r="20"/></g><g><path d="m171 97.5c0-7.398 4.028-13.843 10-17.302-2.944-1.705-6.353-2.698-10-2.698-11.046 0-20 8.954-20 20s8.954 20 20 20c3.647 0 7.056-.992 10-2.698-5.972-3.459-10-9.904-10-17.302z" fill="#ffd883"/></g><path d="m476 40c-12.563 0-23.178 8.472-26.452 20h-17.097c-3.178-11.193-13.279-19.499-25.362-19.972l-9.097-22.741c-4.201-10.502-14.223-17.287-25.533-17.287h-232.918c-11.31 0-21.332 6.785-25.534 17.287l-9.095 22.74c-12.085.474-22.185 8.78-25.364 19.973h-17.096c-3.274-11.528-13.889-20-26.452-20-15.163 0-27.5 12.337-27.5 27.5v61.418c0 45.043 10.647 90.146 30.792 130.436 19.108 38.217 29.208 81.001 29.208 123.728v101.418c0 15.163 12.337 27.5 27.5 27.5s27.5-12.337 27.5-27.5v-13.209h265v13.209c0 15.163 12.337 27.5 27.5 27.5s27.5-12.337 27.5-27.5v-101.418c0-42.727 10.1-85.511 29.208-123.729 20.145-40.289 30.792-85.393 30.792-130.436v-61.417c0-15.163-12.337-27.5-27.5-27.5zm-62.5 53.952c9.142-2.596 16.355-9.81 18.952-18.952h16.048v25h-35zm-273.959-78.952h232.918c5.141 0 9.697 3.085 11.606 7.857l6.857 17.143h-269.844l6.856-17.142c1.91-4.773 6.466-7.858 11.607-7.858zm-33.541 40h300c6.893 0 12.5 5.607 12.5 12.5s-5.607 12.5-12.5 12.5h-43.803c-5.048-6.104-12.676-10-21.197-10s-16.149 3.896-21.197 10h-42.606c-5.048-6.104-12.676-10-21.197-10s-16.149 3.896-21.197 10h-42.606c-5.048-6.104-12.676-10-21.197-10s-16.149 3.896-21.197 10h-43.803c-6.893 0-12.5-5.607-12.5-12.5s5.607-12.5 12.5-12.5zm235 30c6.893 0 12.5 5.607 12.5 12.5s-5.607 12.5-12.5 12.5-12.5-5.607-12.5-12.5 5.607-12.5 12.5-12.5zm-85 0c6.893 0 12.5 5.607 12.5 12.5s-5.607 12.5-12.5 12.5-12.5-5.607-12.5-12.5 5.607-12.5 12.5-12.5zm-85 0c6.893 0 12.5 5.607 12.5 12.5s-5.607 12.5-12.5 12.5-12.5-5.607-12.5-12.5 5.607-12.5 12.5-12.5zm-107.5-10h16.048c2.596 9.142 9.81 16.356 18.952 18.952v6.048h-35zm45 409.5c0 6.893-5.607 12.5-12.5 12.5s-12.5-5.607-12.5-12.5v-101.418c0-45.043-10.647-90.146-30.792-130.436-19.108-38.217-29.208-81.001-29.208-123.728v-61.418c0-6.893 5.607-12.5 12.5-12.5s12.5 5.607 12.5 12.5v61.418c0 45.043 10.647 90.146 30.792 130.436 19.108 38.217 29.208 81.001 29.208 123.728zm15-28.209v-25h265v25zm365-327.373c0 42.727-10.1 85.511-29.208 123.729-20.145 40.289-30.792 85.393-30.792 130.436v101.417c0 6.893-5.607 12.5-12.5 12.5s-12.5-5.607-12.5-12.5v-101.418c0-42.727 10.1-85.511 29.208-123.729 8.236-16.474 14.938-33.812 19.917-51.535 1.12-3.987-1.204-8.128-5.192-9.249-3.981-1.118-8.129 1.204-9.249 5.192-4.723 16.811-11.079 33.258-18.892 48.885-20.145 40.289-30.792 85.393-30.792 130.436v33.209h-265v-33.209c0-45.043-10.647-90.146-30.792-130.436-19.108-38.217-29.208-81.001-29.208-123.728v-13.918h35v13.918c0 38.866 9.188 77.784 26.569 112.548 1.275 2.552 2.527 5.143 3.719 7.701 1.272 2.73 3.979 4.335 6.804 4.335 1.061 0 2.138-.227 3.162-.703 3.755-1.75 5.381-6.212 3.632-9.966-1.25-2.684-2.562-5.4-3.9-8.076-16.346-32.691-24.985-69.29-24.985-105.839v-33.918h30.119c-.075.824-.119 1.657-.119 2.5 0 15.163 12.337 27.5 27.5 27.5s27.5-12.337 27.5-27.5c0-.843-.044-1.676-.119-2.5h30.238c-.075.824-.119 1.657-.119 2.5 0 15.163 12.337 27.5 27.5 27.5s27.5-12.337 27.5-27.5c0-.843-.044-1.676-.119-2.5h30.237c-.074.824-.119 1.657-.119 2.5 0 15.163 12.337 27.5 27.5 27.5s27.5-12.337 27.5-27.5c0-.843-.044-1.676-.119-2.5h30.119v33.918c0 36.551-8.64 73.149-24.985 105.839-19.913 39.828-31.826 84.477-34.45 129.12-.385 6.563-5.902 11.705-12.56 11.705h-141.01c-6.657 0-12.175-5.142-12.56-11.706-1.857-31.584-8.214-62.755-18.894-92.646-1.394-3.9-5.686-5.932-9.586-4.539-3.9 1.394-5.933 5.686-4.539 9.586 10.2 28.55 16.271 58.318 18.044 88.479.851 14.482 12.944 25.826 27.534 25.826h141.01c14.59 0 26.684-11.344 27.534-25.825 2.506-42.633 13.88-85.266 32.892-123.291 17.382-34.762 26.569-73.68 26.569-112.548v-13.918h35v13.918c0 15.485-1.315 31.078-3.909 46.345-.694 4.084 2.054 7.957 6.137 8.65 4.094.691 7.957-2.054 8.65-6.137 2.735-16.095 4.122-32.533 4.122-48.858v-61.418c0-6.893 5.607-12.5 12.5-12.5s12.5 5.607 12.5 12.5v61.418z"/></g></svg>