<svg id="Capa_1" enable-background="new 0 0 512 512" height="512" viewBox="0 0 512 512" width="512" xmlns="http://www.w3.org/2000/svg"><g><g><path d="m36 484.5v-391.713h40v391.713c0 11.046-8.954 20-20 20-11.046 0-20-8.954-20-20z" fill="#ff8870"/></g><g><path d="m36 92.787v103.213c0-11.046 8.954-20 20-20s20 8.954 20 20v-103.213z" fill="#ff6c52"/></g><g><path d="m436 484.5v-391.713h40v391.713c0 11.046-8.954 20-20 20-11.046 0-20-8.954-20-20z" fill="#ff8870"/></g><g><path d="m436 92.787v103.213c0-11.046 8.954-20 20-20s20 8.954 20 20v-103.213z" fill="#ff6c52"/></g><g><g><path d="m474.5 127.303c-45.975 0-90.383-12.915-128.425-37.348-22.871-14.69-54.018-22.455-90.075-22.455s-67.204 7.765-90.075 22.455c-38.042 24.433-82.45 37.348-128.425 37.348-16.568 0-30-13.432-30-30s13.432-30 30-30c34.455 0 67.65-9.624 95.999-27.832 33.03-21.214 74.245-31.971 122.501-31.971s89.471 10.757 122.501 31.971c28.349 18.208 61.544 27.832 95.999 27.832 16.568 0 30 13.432 30 30s-13.432 30-30 30z" fill="#ff9b87"/></g></g><g><circle cx="256" cy="276" fill="#ffee6e" r="140"/></g><g><path d="m236 396c0-11.046 8.954-20 20-20v-200c-11.046 0-20-8.954-20-20s8.954-20 20-20c-77.32 0-140 62.68-140 140s62.68 140 140 140c-11.046 0-20-8.954-20-20z" fill="#ffd883"/></g><g><circle cx="256" cy="276" fill="#ffa759" r="100"/></g><g><path d="m370.25 473.887c-9.566 5.523-21.798 2.245-27.321-7.32l-88.5-153.287 34.641-20 88.5 153.287c5.523 9.565 2.246 21.797-7.32 27.32z" fill="#f2b88f"/></g><g><path d="m254.429 313.28 52.128 90.288c-5.523-9.566-2.245-21.798 7.321-27.32 9.566-5.523 21.798-2.245 27.32 7.32l-52.128-90.288z" fill="#e3a67b"/></g><g><circle cx="256" cy="276" fill="#fdffdc" r="50"/></g><g><path d="m290.664 305.987c-27.614 0-50-22.386-50-50 0-11.11 3.629-21.369 9.758-29.669-24.988 2.774-44.422 23.954-44.422 49.682 0 27.614 22.386 50 50 50 16.504 0 31.136-8 40.242-20.331-1.832.204-3.691.318-5.578.318z" fill="#fdffbf"/></g><g><path d="m226 37.5c0-16.569 13.431-30 30-30-48.256 0-89.471 10.757-122.501 31.971-28.349 18.208-61.544 27.832-95.999 27.832-16.568 0-30 13.432-30 30s13.432 30 30 30c45.975 0 90.383-12.915 128.425-37.348 22.871-14.69 54.018-22.455 90.075-22.455-16.569 0-30-13.431-30-30z" fill="#ff8870"/></g><path d="m512 97.303c0-20.678-16.822-37.5-37.5-37.5-19.193 0-37.971-3.094-55.813-9.194-3.921-1.338-8.183.751-9.523 4.67-1.34 3.92.751 8.184 4.67 9.523 19.408 6.636 39.819 10.001 60.667 10.001 12.407 0 22.5 10.094 22.5 22.5s-10.093 22.5-22.5 22.5c-44.534 0-87.541-12.503-124.372-36.158-5.045-3.24-10.482-6.141-16.238-8.733-.245-.134-.498-.257-.763-.365-.098-.04-.198-.068-.297-.104-21.521-9.476-47.669-14.443-76.831-14.443s-55.309 4.967-76.831 14.442c-.099.036-.199.064-.297.104-.265.108-.518.232-.763.366-5.755 2.592-11.192 5.493-16.237 8.733-36.831 23.655-79.838 36.158-124.372 36.158-12.407 0-22.5-10.094-22.5-22.5s10.093-22.5 22.5-22.5c35.895 0 70.492-10.035 100.052-29.021 31.802-20.426 71.654-30.782 118.448-30.782s86.646 10.356 118.447 30.78c2.873 1.846 5.844 3.637 8.831 5.322 3.606 2.038 8.183.763 10.218-2.845 2.036-3.607.763-8.182-2.845-10.218-2.738-1.546-5.462-3.188-8.096-4.88-34.261-22.003-76.84-33.159-126.555-33.159s-92.294 11.156-126.554 33.16c-27.137 17.43-58.931 26.643-91.946 26.643-20.678 0-37.5 16.822-37.5 37.5 0 17.575 12.156 32.359 28.5 36.401v350.796c0 15.164 12.336 27.5 27.5 27.5s27.5-12.336 27.5-27.5v-353.964c30.783-5.773 60.11-17.336 86.478-34.27 2.491-1.6 5.101-3.103 7.802-4.528l19.889 48.798c-52.403 22.651-89.169 74.841-89.169 135.464 0 81.332 66.168 147.5 147.5 147.5 16.722 0 33.059-2.768 48.658-8.222l31.777 55.039c5.087 8.812 14.35 13.744 23.861 13.744 4.662 0 9.384-1.185 13.704-3.679 6.361-3.673 10.912-9.603 12.813-16.698s.925-14.506-2.748-20.867l-31.798-55.076c32.629-28.093 51.233-68.479 51.233-111.741 0-60.623-36.766-112.813-89.169-135.464l19.889-48.798c2.7 1.425 5.31 2.928 7.802 4.528 26.368 16.934 55.695 28.497 86.478 34.27v353.964c0 15.163 12.336 27.5 27.5 27.5s27.5-12.337 27.5-27.5v-350.796c16.344-4.043 28.5-18.826 28.5-36.401zm-443.5 387.197c0 6.893-5.607 12.5-12.5 12.5s-12.5-5.607-12.5-12.5v-349.777c8.399-.2 16.743-.811 25-1.84zm303.824-24.698c-.864 3.225-2.933 5.921-5.824 7.59-5.969 3.444-13.629 1.393-17.075-4.575l-76.187-131.959c8.137-2.562 15.496-6.89 21.633-12.531l76.205 131.99c1.669 2.891 2.112 6.259 1.248 9.485zm-116.324-141.302c-23.435 0-42.5-19.065-42.5-42.5s19.065-42.5 42.5-42.5 42.5 19.065 42.5 42.5-19.065 42.5-42.5 42.5zm132.5-42.5c0 37.904-15.896 73.355-43.878 98.499l-12.872-22.296c20.237-20.133 31.75-47.612 31.75-76.203 0-59.275-48.224-107.5-107.5-107.5s-107.5 48.225-107.5 107.5c0 23.111 7.253 45.149 20.976 63.732 2.461 3.333 7.158 4.041 10.488 1.578 3.332-2.46 4.039-7.156 1.578-10.488-11.803-15.984-18.042-34.941-18.042-54.822 0-51.005 41.495-92.5 92.5-92.5s92.5 41.495 92.5 92.5c0 23.258-8.864 45.663-24.556 62.684l-18.89-32.719c5.354-8.732 8.446-18.993 8.446-29.965 0-31.706-25.794-57.5-57.5-57.5s-57.5 25.794-57.5 57.5 25.794 57.5 57.5 57.5c.477 0 .948-.024 1.423-.036l18.917 32.766c-6.646 1.497-13.455 2.27-20.34 2.27-19.88 0-38.838-6.239-54.823-18.042-3.331-2.46-8.028-1.755-10.488 1.578-2.461 3.332-1.754 8.028 1.578 10.488 18.584 13.723 40.622 20.976 63.733 20.976 9.561 0 19-1.274 28.142-3.756l12.866 22.285c-13.188 4.292-26.943 6.471-41.008 6.471-73.061 0-132.5-59.439-132.5-132.5s59.439-132.5 132.5-132.5 132.5 59.439 132.5 132.5zm-88.229-140.709c-13.981-4.408-28.853-6.791-44.271-6.791s-30.29 2.383-44.271 6.791l-20.256-49.699c18.378-6.961 40.247-10.592 64.527-10.592s46.149 3.631 64.527 10.592zm155.729 361.709c-6.893 0-12.5-5.607-12.5-12.5v-351.617c8.257 1.029 16.601 1.64 25 1.84v349.777c0 6.893-5.607 12.5-12.5 12.5z"/></g></svg>