<svg id="Capa_1" enable-background="new 0 0 512 512" height="512" viewBox="0 0 512 512" width="512" xmlns="http://www.w3.org/2000/svg"><g><g><path d="m47.5 484.5v-377h40v377c0 11.046-8.954 20-20 20-11.046 0-20-8.954-20-20z" fill="#ff6c52"/></g><g><path d="m424.5 484.5v-377h40v377c0 11.046-8.954 20-20 20-11.046 0-20-8.954-20-20z" fill="#ff8870"/></g><g><path d="m464.5 64.268c0-10.645-8.342-19.449-18.974-19.972-85.712-4.214-92.018-36.796-189.526-36.796s-103.814 32.582-189.526 36.796c-10.632.523-18.974 9.327-18.974 19.972v43.232h417z" fill="#ff8870"/></g><g><path d="m256 87.5c-22.091 0-40-17.909-40-40s17.909-40 40-40c-97.508 0-103.814 32.582-189.526 36.796-10.632.523-18.974 9.327-18.974 19.972v43.232h208.5z" fill="#ff6c52"/></g><g><path d="m7.5 107.5c0-11.046 8.954-20 20-20h457c11.046 0 20 8.954 20 20 0 11.046-8.954 20-20 20h-457c-11.046 0-20-8.954-20-20z" fill="#ff9b87"/></g><g><path d="m103.072 107.5c0-11.046 8.954-20 20-20h-95.572c-11.046 0-20 8.954-20 20 0 11.046 8.954 20 20 20h95.572c-11.046 0-20-8.954-20-20z" fill="#ff8870"/></g><g><circle cx="179.833" cy="207.5" fill="#ffee6e" r="50"/></g><g><path d="m182.167 207.5c0-17.983 9.546-33.773 23.833-42.585-7.617-4.698-16.579-7.415-26.167-7.415-27.57 0-50 22.43-50 50s22.43 50 50 50c9.587 0 18.55-2.718 26.167-7.415-14.287-8.812-23.833-24.602-23.833-42.585z" fill="#ffd883"/></g><g><circle cx="332.167" cy="207.5" fill="#ffee6e" r="50"/></g><g><path d="m334.5 207.5c0-17.983 9.546-33.773 23.833-42.585-7.617-4.698-16.579-7.415-26.167-7.415-27.57 0-50 22.43-50 50s22.43 50 50 50c9.587 0 18.55-2.718 26.167-7.415-14.287-8.812-23.833-24.602-23.833-42.585z" fill="#ffd883"/></g><g><path d="m7.5 307.5c0-11.046 8.954-20 20-20h457c11.046 0 20 8.954 20 20 0 11.046-8.954 20-20 20h-457c-11.046 0-20-8.954-20-20z" fill="#ff9b87"/></g><g><path d="m103.072 307.5c0-11.046 8.954-20 20-20h-95.572c-11.046 0-20 8.954-20 20 0 11.046 8.954 20 20 20h95.572c-11.046 0-20-8.954-20-20z" fill="#ff8870"/></g><g><circle cx="179.833" cy="407.5" fill="#ffee6e" r="50"/></g><g><circle cx="332.167" cy="407.5" fill="#ffee6e" r="50"/></g><g><path d="m182.167 407.5c0-17.983 9.546-33.773 23.833-42.585-7.617-4.698-16.579-7.415-26.167-7.415-27.57 0-50 22.43-50 50s22.43 50 50 50c9.587 0 18.55-2.718 26.167-7.415-14.287-8.812-23.833-24.602-23.833-42.585z" fill="#ffd883"/></g><g><path d="m334.5 407.5c0-17.983 9.546-33.773 23.833-42.585-7.617-4.698-16.579-7.415-26.167-7.415-27.57 0-50 22.43-50 50s22.43 50 50 50c9.587 0 18.55-2.718 26.167-7.415-14.287-8.812-23.833-24.602-23.833-42.585z" fill="#ffd883"/></g><path d="m484.5 280h-12.5v-145h12.5c15.164 0 27.5-12.336 27.5-27.5s-12.336-27.5-27.5-27.5h-12.5v-15.732c0-14.679-11.467-26.742-26.105-27.463-38.784-1.906-60.32-9.601-83.122-17.746-26.228-9.371-53.349-19.059-106.773-19.059s-80.545 9.688-106.773 19.059c-22.801 8.146-44.337 15.84-83.122 17.746-14.638.72-26.105 12.784-26.105 27.463v15.732h-12.5c-15.164 0-27.5 12.336-27.5 27.5s12.336 27.5 27.5 27.5h12.5v145h-12.5c-15.164 0-27.5 12.336-27.5 27.5s12.336 27.5 27.5 27.5h12.5v149.5c0 15.163 12.336 27.5 27.5 27.5s27.5-12.337 27.5-27.5v-149.5h29.602l13.467 33.041c-9.742 10.306-15.735 24.192-15.735 39.459 0 31.706 25.794 57.5 57.5 57.5s57.5-25.794 57.5-57.5c0-15.268-5.993-29.154-15.735-39.46l13.466-33.04h41.87l13.466 33.041c-9.742 10.306-15.735 24.192-15.735 39.459 0 31.706 25.794 57.5 57.5 57.5s57.5-25.794 57.5-57.5c0-15.268-5.993-29.154-15.735-39.459l13.467-33.041h29.602v149.5c0 15.163 12.336 27.5 27.5 27.5s27.5-12.337 27.5-27.5v-149.5h12.5c15.164 0 27.5-12.336 27.5-27.5s-12.336-27.5-27.5-27.5zm-27.5 0h-25v-145h25zm-332.398-145 13.432 32.956c-5.875 6.228-10.421 13.835-13.109 22.46-1.233 3.954.974 8.159 4.928 9.392 3.953 1.231 8.159-.973 9.392-4.929 5.571-17.871 21.882-29.879 40.588-29.879 23.435 0 42.5 19.065 42.5 42.5s-19.065 42.5-42.5 42.5c-18.645 0-34.94-11.957-40.549-29.753-1.245-3.95-5.455-6.143-9.408-4.899-3.951 1.245-6.144 5.457-4.899 9.407 7.587 24.072 29.632 40.245 54.856 40.245 31.706 0 57.5-25.794 57.5-57.5 0-15.268-5.993-29.154-15.735-39.46l13.467-33.04h41.87l13.466 33.041c-9.742 10.306-15.735 24.192-15.735 39.459 0 31.706 25.794 57.5 57.5 57.5s57.5-25.794 57.5-57.5c0-15.268-5.993-29.154-15.735-39.459l13.467-33.041h29.602v145h-322v-145zm84.805 23.209c-8.647-5.207-18.765-8.209-29.573-8.209-10.739 0-20.889 2.934-29.598 8.148l-9.436-23.148h78.066zm122.76 6.791c23.435 0 42.5 19.065 42.5 42.5s-19.065 42.5-42.5 42.5-42.5-19.065-42.5-42.5 19.065-42.5 42.5-42.5zm29.573-6.79c-8.647-5.208-18.765-8.21-29.574-8.21s-20.927 3.002-29.573 8.21l-9.46-23.21h78.067zm-306.74-93.942c0-6.672 5.202-12.153 11.842-12.48 41.002-2.016 64.605-10.448 87.431-18.603 26.177-9.352 50.902-18.185 101.727-18.185s75.55 8.833 101.727 18.185c22.826 8.154 46.429 16.587 87.431 18.603 6.64.326 11.842 5.808 11.842 12.48v15.732h-402zm-40 43.232c0-6.893 5.607-12.5 12.5-12.5h457c6.893 0 12.5 5.607 12.5 12.5s-5.607 12.5-12.5 12.5h-102.186c-.028 0-.055 0-.083 0h-100.142c-.016 0-.032 0-.048 0h-52.061c-.028 0-.055 0-.083 0h-100.143c-.013 0-.027 0-.04 0h-102.214c-6.893 0-12.5-5.607-12.5-12.5zm40 27.5h25v145h-25zm25 349.5c0 6.893-5.607 12.5-12.5 12.5s-12.5-5.607-12.5-12.5v-149.5h25zm99.833-34.5c-23.435 0-42.5-19.065-42.5-42.5s19.065-42.5 42.5-42.5 42.5 19.065 42.5 42.5-19.065 42.5-42.5 42.5zm29.574-91.791c-8.647-5.207-18.765-8.209-29.573-8.209s-20.927 3.002-29.574 8.21l-9.46-23.21h78.066zm122.76 91.791c-23.435 0-42.5-19.065-42.5-42.5s19.065-42.5 42.5-42.5 42.5 19.065 42.5 42.5-19.066 42.5-42.5 42.5zm124.833 34.5c0 6.893-5.607 12.5-12.5 12.5s-12.5-5.607-12.5-12.5v-149.5h25zm27.5-164.5h-102.208c-.016 0-.032 0-.048 0h-35.077c-4.142 0-7.5 3.357-7.5 7.5s3.358 7.5 7.5 7.5h24.033l-9.46 23.21c-8.647-5.208-18.765-8.21-29.574-8.21s-20.927 3.002-29.573 8.21l-9.46-23.21h24.033c4.142 0 7.5-3.357 7.5-7.5s-3.358-7.5-7.5-7.5h-35.062c-.029 0-.059 0-.088 0h-52.058c-.016 0-.032 0-.048 0h-100.142c-.026 0-.052 0-.077 0h-102.191c-6.893 0-12.5-5.607-12.5-12.5s5.607-12.5 12.5-12.5h457c6.893 0 12.5 5.607 12.5 12.5s-5.607 12.5-12.5 12.5z"/></g></svg>