<svg id="Capa_1" enable-background="new 0 0 511.976 511.976" height="512" viewBox="0 0 511.976 511.976" width="512" xmlns="http://www.w3.org/2000/svg"><g><g><path d="m183.214 357.046-28.284-28.284 315.417-315.417c7.81-7.81 20.474-7.81 28.284 0 7.81 7.81 7.81 20.474 0 28.284z" fill="#d99668"/></g><g><path d="m470.213 152.524-48.557-48.557 28.284-28.284 48.557 48.557c7.81 7.81 7.81 20.474 0 28.284-7.81 7.81-20.473 7.81-28.284 0z" fill="#f2b88f"/></g><g><path d="m470.213 124.239c7.811-7.811 20.474-7.81 28.284 0l-48.557-48.557-28.284 28.284 48.557 48.557c-7.81-7.81-7.81-20.473 0-28.284z" fill="#e3a67b"/></g><g><path d="m380.418 62.728 34.415 34.415 28.284-28.284-34.415-34.415c-7.81-7.81-20.474-7.81-28.284 0-7.811 7.81-7.811 20.474 0 28.284z" fill="#ffd883"/></g><g><path d="m323.849 119.297 34.415 34.415 28.284-28.284-34.415-34.415c-7.81-7.81-20.474-7.81-28.284 0-7.81 7.81-7.81 20.473 0 28.284z" fill="#ffd883"/></g><g><path d="m413.645 209.092-48.557-48.557 28.284-28.284 48.557 48.557c7.81 7.81 7.81 20.474 0 28.284-7.811 7.811-20.474 7.811-28.284 0z" fill="#f2b88f"/></g><g><path d="m413.645 180.808c7.811-7.811 20.474-7.81 28.284 0l-48.557-48.557-28.284 28.284 48.557 48.557c-7.811-7.81-7.811-20.474 0-28.284z" fill="#e3a67b"/></g><g><path d="m362.338 177.923-28.284-28.284c-3.905-3.905-3.905-10.237 0-14.142l90.848-90.848c3.905-3.905 10.237-3.905 14.142 0l28.284 28.284c3.905 3.905 3.905 10.237 0 14.142l-90.848 90.848c-3.906 3.905-10.237 3.905-14.142 0z" fill="#848484"/></g><g><path d="m355.267 156.709 90.848-90.848c3.905-3.905 10.237-3.905 14.142 0l-21.213-21.213c-3.905-3.905-10.237-3.905-14.142 0l-90.848 90.848c-3.905 3.905-3.905 10.237 0 14.142l21.213 21.213c-3.906-3.905-3.906-10.236 0-14.142z" fill="#6e6e6e"/></g><g><path d="m19.33 434.393 58.253 58.253c10.212 10.212 25.097 14.2 39.047 10.463l79.575-21.322c13.95-3.738 24.846-14.634 28.584-28.584l21.322-79.575c3.738-13.95-.25-28.835-10.463-39.047l-58.253-58.253c-10.212-10.212-25.097-14.2-39.047-10.463l-79.575 21.322c-13.95 3.738-24.846 14.634-28.584 28.584l-21.322 79.575c-3.737 13.95.251 28.835 10.463 39.047z" fill="#f2b88f"/></g><g><path d="m220.739 319.672-43.344-43.344c-10.212-10.212-25.097-14.201-39.047-10.463l-79.575 21.322c-13.95 3.738-24.846 14.634-28.584 28.584l-21.322 79.575c-3.738 13.95.25 28.835 10.463 39.047l43.344 43.344c20.67-77.141 80.924-137.396 158.065-158.065z" fill="#e3a67b"/></g><g><path d="m101.797 460.291-50.112-50.112c-2.52-2.52-3.51-6.182-2.597-9.627 3.889-14.663 14.395-54.278 18.273-68.905.913-3.445 3.581-6.133 7.019-7.073 14.631-4 54.111-14.633 68.755-18.575 3.449-.928 7.118.05 9.647 2.572 10.777 10.746 39.9 39.796 50.641 50.592 2.516 2.529 3.49 6.194 2.563 9.638-3.933 14.611-14.582 54.151-18.587 68.795-.94 3.437-3.628 6.105-7.073 7.018-14.626 3.879-54.24 14.385-68.904 18.274-3.443.914-7.106-.077-9.625-2.597z" fill="#ffee6e"/></g><g><path d="m179.491 335.22c-10.418-10.403-21.072-21.029-26.708-26.649-2.529-2.522-6.199-3.5-9.647-2.572-14.644 3.942-54.125 14.575-68.755 18.575-3.437.94-6.105 3.628-7.019 7.073-3.879 14.627-14.385 54.241-18.273 68.905-.913 3.444.077 7.107 2.597 9.627l26.463 26.463c21.714-43.995 57.366-79.674 101.342-101.422z" fill="#ffd883"/></g><g><g><path d="m376.48 418.339c-7.811-7.811-7.811-20.474 0-28.284l28.284-28.284c7.798-7.798 7.798-20.486 0-28.284l-226.274-226.275c-7.798-7.798-20.486-7.798-28.284 0l-28.284 28.284c-7.811 7.811-20.474 7.811-28.284 0-7.811-7.811-7.811-20.474 0-28.284l28.284-28.284c23.394-23.394 61.459-23.394 84.853 0l226.274 226.274c23.394 23.394 23.394 61.459 0 84.853l-28.284 28.284c-7.812 7.811-20.475 7.811-28.285 0z" fill="#848484"/></g></g><g><path d="m277.485 177.923c7.81-7.811 20.474-7.81 28.284 0l-98.995-98.995c-23.394-23.394-61.459-23.394-84.853 0l-28.284 28.284c-7.811 7.811-7.811 20.474 0 28.284 7.811 7.811 20.474 7.811 28.284 0l28.284-28.284c7.798-7.798 20.486-7.798 28.284 0l98.995 98.995c-7.81-7.811-7.81-20.474.001-28.284z" fill="#6e6e6e"/></g><g><path d="m474.714 89.849c3.179-4.666 3.843-10.529 2.01-15.706l27.212-27.211c10.721-10.722 10.721-28.169-.001-38.892-10.723-10.721-28.169-10.721-38.892 0l-27.21 27.212c-5.177-1.832-11.04-1.169-15.705 2.01l-8.122-8.122c-10.723-10.721-28.169-10.719-38.892 0-10.722 10.723-10.722 28.169 0 38.892l7.898 7.898-17.677 17.677-7.898-7.898c-10.723-10.721-28.169-10.719-38.892 0-10.722 10.723-10.722 28.169 0 38.892l8.122 8.122c-3.179 4.665-3.842 10.527-2.01 15.704l-18.889 18.889-93.692-93.692c-26.318-26.316-69.141-26.315-95.459 0l-28.284 28.285c-10.722 10.723-10.722 28.169 0 38.892 10.722 10.721 28.169 10.721 38.891 0l8.839-8.839 102.53 102.53-46.214 46.214-9.681-9.681c-12.068-12.067-29.805-16.821-46.292-12.403l-79.575 21.322c-16.485 4.417-29.47 17.402-33.888 33.887l-21.32 79.574c-4.417 16.486.336 34.224 12.404 46.292l58.253 58.253c9.088 9.087 21.388 14.026 33.951 14.026 4.12 0 8.27-.532 12.341-1.623l79.575-21.322c16.485-4.417 29.47-17.402 33.888-33.887l21.322-79.575c4.417-16.486-.336-34.224-12.404-46.292l-9.681-9.681 46.214-46.213 102.53 102.53-8.839 8.839c-10.721 10.722-10.721 28.169 0 38.892 5.361 5.36 12.403 8.041 19.446 8.041 7.042 0 14.084-2.681 19.445-8.041l28.285-28.285c26.317-26.318 26.317-69.141 0-95.46l-44.873-44.872c-2.932-2.929-7.68-2.928-10.607 0-2.929 2.93-2.929 7.678.001 10.607l44.872 44.871c20.47 20.471 20.47 53.777 0 74.246l-28.285 28.285c-4.871 4.873-12.802 4.876-17.677.001-4.874-4.874-4.874-12.806 0-17.679l28.283-28.284c5.188-5.188 8.046-12.094 8.046-19.445s-2.857-14.258-8.045-19.446l-226.275-226.273c-5.188-5.188-12.094-8.046-19.446-8.046s-14.257 2.857-19.445 8.045l-28.284 28.284c-4.874 4.875-12.804 4.875-17.678 0-4.874-4.873-4.874-12.804 0-17.678l28.284-28.284c20.47-20.47 53.776-20.47 74.247 0l160.188 160.189c2.929 2.927 7.677 2.929 10.607 0 2.929-2.93 2.929-7.678 0-10.607l-27.606-27.606 18.889-18.889c1.893.67 3.873 1.025 5.859 1.025 3.445 0 6.886-1.019 9.845-3.035l29.088 29.088c5.194 5.193 12.101 8.054 19.446 8.054s14.252-2.86 19.445-8.054c10.722-10.723 10.722-28.169 0-38.892l-28.864-28.864 17.677-17.677 28.864 28.864c5.361 5.36 12.403 8.041 19.446 8.041 7.042 0 14.084-2.681 19.445-8.041 10.722-10.723 10.722-28.169 0-38.892zm-235.848 281.837-21.321 79.575c-3.035 11.325-11.956 20.246-23.282 23.281l-79.574 21.322c-11.326 3.031-23.512-.232-31.803-8.522l-58.253-58.253c-8.291-8.29-11.556-20.477-8.521-31.802l21.321-79.575c3.035-11.325 11.956-20.246 23.282-23.281l79.574-21.322c2.797-.749 5.647-1.114 8.478-1.114 8.63 0 17.082 3.394 23.325 9.637l58.253 58.253c8.291 8.289 11.556 20.476 8.521 31.801zm-18.202-62.697-17.677-17.677 46.214-46.213 17.677 17.677zm178.796 29.801c2.355 2.354 3.652 5.494 3.652 8.839s-1.297 6.483-3.652 8.838l-8.838 8.839-102.53-102.53 17.677-17.677zm-104.299-104.299-17.677 17.677-17.677-17.677 17.677-17.677zm-139.652-121.976c2.355-2.354 5.494-3.651 8.839-3.651s6.484 1.297 8.839 3.652l93.691 93.691-17.678 17.677-102.53-102.53zm320.14-93.867c4.875-4.875 12.806-4.872 17.679-.001 4.874 4.874 4.874 12.806.001 17.679l-26 26-17.678-17.678zm-89.927 21.1c4.874-4.876 12.805-4.874 17.677 0l7.898 7.898-17.677 17.676-7.898-7.898c-4.874-4.873-4.874-12.803 0-17.676zm-56.569 56.568c4.872-4.875 12.803-4.877 17.677 0l7.898 7.898-17.677 17.677-7.898-7.898c-4.874-4.873-4.874-12.804 0-17.677zm4.9 99.284-17.677-17.677 17.677-17.677 17.677 17.677zm102.572-9.488c4.874 4.873 4.874 12.804 0 17.678-2.36 2.36-5.499 3.66-8.838 3.66s-6.479-1.3-8.839-3.661l-28.864-28.864 17.677-17.677zm-65.449-13.493c-.974.973-2.559.975-3.534 0l-28.284-28.284c-.975-.975-.975-2.56 0-3.534l90.848-90.849c.487-.488 1.127-.731 1.768-.731s1.28.243 1.768.731l28.284 28.284c.976.975.976 2.561 0 3.535zm122.018-25.399c-4.874 4.875-12.805 4.875-17.677 0l-28.864-28.864 17.677-17.677 28.864 28.864c4.874 4.874 4.874 12.804 0 17.677z"/><path d="m158.077 303.259c-4.409-4.396-10.882-6.119-16.892-4.502l-23.097 6.222c-4 1.078-6.368 5.194-5.289 9.193 1.078 3.999 5.192 6.369 9.193 5.289l23.092-6.22c.868-.233 1.766.006 2.401.64 11.709 11.677 40.082 39.979 50.621 50.572.632.636.87 1.532.637 2.398-4.278 15.893-14.653 54.409-18.579 68.766-.236.864-.895 1.518-1.761 1.748l-68.903 18.272c-.854.228-1.774-.023-2.402-.65l-50.112-50.112c-.627-.627-.877-1.547-.65-2.4l18.273-68.905c.229-.866.882-1.524 1.748-1.761 3.912-1.07 9.601-2.614 16.118-4.378 3.999-1.082 6.363-5.2 5.281-9.198-1.082-3.999-5.198-6.364-9.199-5.28-6.533 1.768-12.237 3.315-16.156 4.388-5.989 1.637-10.699 6.382-12.291 12.384l-18.273 68.905c-1.592 6.002.149 12.459 4.543 16.854l50.112 50.112c3.317 3.317 7.812 5.122 12.398 5.122 1.488 0 2.985-.19 4.455-.58l68.905-18.273c6.001-1.593 10.746-6.302 12.383-12.289 3.933-14.383 14.313-52.922 18.594-68.824 1.616-6.004-.104-12.471-4.488-16.876-10.555-10.614-38.945-38.933-50.662-50.617z"/></g></g></svg>