<svg id="Capa_1" enable-background="new 0 0 517.857 517.857" height="512" viewBox="0 0 517.857 517.857" width="512" xmlns="http://www.w3.org/2000/svg"><g><g><path d="m418.301 212.227-112.67-112.671c-7.81-7.81-7.81-20.474 0-28.284 7.81-7.81 20.474-7.81 28.284 0l112.671 112.671c7.81 7.81 7.81 20.474 0 28.284-7.811 7.81-20.474 7.81-28.285 0z" fill="#e3a67b"/></g><g><path d="m410.523 176.164c7.81-7.81 20.474-7.81 28.284 0l-97.114-97.114c7.81 7.81 7.81 20.474 0 28.284s-20.474 7.81-28.284 0l97.114 97.114c-7.81-7.81-7.81-20.473 0-28.284z" fill="#d99668"/></g><g><path d="m474.87 155.658-112.671-112.67c-7.81-7.81-7.81-20.474 0-28.284 7.81-7.81 20.474-7.81 28.284 0l112.671 112.671c7.81 7.81 7.81 20.474 0 28.284-7.81 7.81-20.474 7.81-28.284-.001z" fill="#e3a67b"/></g><g><path d="m467.092 119.596c7.81-7.81 20.474-7.81 28.284 0l-97.114-97.114c7.81 7.81 7.81 20.474 0 28.284s-20.474 7.81-28.284 0l97.114 97.114c-7.811-7.81-7.811-20.474 0-28.284z" fill="#d99668"/></g><g><path d="m284.642 289.784-56.569-56.568 228.143-199.858 28.284 28.284z" fill="#848484"/></g><g><path d="m382.96 177.552c-11.779 11.779-30.876 11.778-42.654 0-11.779-11.779-11.779-30.876 0-42.654l-112.232 98.318 56.569 56.569z" fill="#6e6e6e"/></g><g><circle cx="187.5" cy="330.358" fill="#ffee6e" r="180"/></g><g><path d="m56.816 379.674c0-99.411 80.589-180 180-180 37.099 0 71.573 11.228 100.219 30.464-32.311-48.115-87.223-79.781-149.536-79.781-99.411 0-180 80.589-180 180 0 62.312 31.666 117.225 79.781 149.536-19.236-28.646-30.464-63.12-30.464-100.219z" fill="#ffd883"/></g><g><circle cx="470.358" cy="47.5" fill="#ffee6e" r="40"/></g><g><path d="m195.458 451.454-129.054-129.055c-6.939-6.939-18.888-2.092-18.904 7.721-.003 1.955.034 3.92.112 5.893 1.361 34.372 15.461 67.183 39.43 91.855 26.602 27.381 62.369 42.49 100.458 42.49h.253c9.805-.018 14.639-11.971 7.705-18.904z" fill="#848484"/></g><g><path d="m130.932 386.928-64.529-64.529c-6.939-6.939-18.887-2.092-18.904 7.721-.003 1.955.034 3.92.112 5.893 1.361 34.372 15.461 67.183 39.43 91.855.378.389.764.766 1.145 1.15-11.388-11.74-11.287-30.485.319-42.091 11.717-11.715 30.712-11.715 42.427.001z" fill="#6e6e6e"/></g><g><g><g><ellipse cx="110.133" cy="290.249" fill="#ff9b87" rx="24.408" ry="30.65" transform="matrix(.706 -.708 .708 .706 -173.099 163.154)"/></g><g><ellipse cx="227.72" cy="407.613" fill="#ff9b87" rx="24.408" ry="30.65" transform="matrix(.706 -.708 .708 .706 -221.648 280.831)"/></g></g><g><path d="m151.024 296.215c-5.719 0-11.225-2.259-15.296-6.323-4.429-4.422-6.727-10.543-6.303-16.794.279-4.134 3.869-7.263 7.988-6.977 4.133.279 7.257 3.856 6.977 7.988-.13 1.926.575 3.809 1.935 5.166 1.359 1.355 3.25 2.052 5.167 1.924 4.147-.293 7.715 2.829 8.003 6.96.288 4.133-2.828 7.716-6.96 8.003-.505.035-1.009.053-1.511.053z"/></g><g><path d="m243.325 388.341c-5.721 0-11.226-2.26-15.297-6.324-4.43-4.421-6.727-10.543-6.302-16.795.28-4.134 3.866-7.266 7.99-6.975 4.133.28 7.256 3.858 6.975 7.99-.13 1.925.574 3.807 1.934 5.163s3.241 2.06 5.168 1.925c4.14-.309 7.715 2.829 8.003 6.96.288 4.133-2.828 7.716-6.96 8.003-.505.035-1.009.053-1.511.053z"/></g><g><path d="m194.445 352.745c-7.762 0-15.229-3.069-20.746-8.588-5.994-5.992-9.099-14.289-8.518-22.762.283-4.133 3.865-7.256 7.996-6.969 4.132.283 7.252 3.863 6.969 7.996-.284 4.145 1.231 8.201 4.159 11.128 2.928 2.93 6.992 4.437 11.129 4.16 4.135-.266 7.713 2.837 7.996 6.969.283 4.133-2.837 7.713-6.969 7.996-.673.047-1.346.07-2.016.07z"/></g></g><g><path d="m307.708 260.076c1.919 0 3.839-.732 5.304-2.196 2.929-2.93 2.929-7.678 0-10.607l-42.427-42.427c-2.93-2.928-7.678-2.928-10.607 0-2.929 2.93-2.929 7.678 0 10.607l42.427 42.427c1.464 1.464 3.384 2.196 5.303 2.196z"/><circle cx="470.358" cy="47.5" r="7.5"/><path d="m480.326 93.939c21.42-4.594 37.531-23.667 37.531-46.439 0-26.191-21.309-47.5-47.5-47.5-22.772 0-41.845 16.111-46.439 37.531l-28.131-28.132c-10.723-10.72-28.169-10.722-38.892 0-10.722 10.723-10.722 28.169 0 38.892 2.93 2.928 7.678 2.928 10.607 0 2.929-2.93 2.929-7.678 0-10.607-4.874-4.873-4.874-12.804 0-17.677 4.874-4.875 12.805-4.875 17.677 0l34.972 34.972-18.845 16.509-12.447-12.447c-2.93-2.928-7.678-2.928-10.607 0-2.929 2.93-2.929 7.678 0 10.607l11.746 11.746-18.845 16.509-31.934-31.935c-10.723-10.72-28.169-10.722-38.892 0-5.193 5.194-8.055 12.101-8.055 19.446s2.861 14.252 8.055 19.445l29.364 29.365-42.615 37.332c-28.873-18.17-63.016-28.699-99.577-28.699-44.308 0-87.308 15.743-121.078 44.329-3.161 2.677-3.555 7.409-.879 10.57s7.407 3.554 10.57.879c31.065-26.296 70.623-40.778 111.387-40.778 95.117 0 172.5 77.383 172.5 172.5s-77.383 172.5-172.5 172.5-172.499-77.382-172.499-172.5c0-40.824 14.521-80.428 40.886-111.513 2.68-3.159 2.29-7.892-.868-10.571-3.16-2.682-7.893-2.29-10.571.868-28.662 33.794-44.447 76.842-44.447 121.216 0 103.388 84.112 187.5 187.5 187.5s187.5-84.112 187.5-187.5c0-36.561-10.529-70.704-28.699-99.577l37.332-42.615 29.365 29.364c5.193 5.194 12.1 8.056 19.445 8.056s14.252-2.861 19.446-8.055c5.193-5.194 8.055-12.101 8.055-19.445 0-7.346-2.861-14.252-8.056-19.446l-31.935-31.935 16.509-18.845 33.103 33.103c5.361 5.36 12.403 8.041 19.445 8.041 7.043 0 14.085-2.681 19.446-8.041 10.722-10.723 10.722-28.169 0-38.892zm-9.969-78.939c17.921 0 32.5 14.579 32.5 32.5s-14.579 32.5-32.5 32.5-32.5-14.579-32.5-32.5 14.58-32.5 32.5-32.5zm-159.423 79.252c-2.36-2.36-3.661-5.499-3.661-8.838s1.301-6.479 3.662-8.839c4.871-4.874 12.802-4.874 17.677 0l31.234 31.234-18.846 16.509zm-11.101 86.072 127.845-111.996c4.648 9.486 12.365 17.203 21.851 21.851l-111.996 127.846c-10.717-14.279-23.422-26.983-37.7-37.701zm141.449 8.922c4.874 4.873 4.874 12.804 0 17.677-2.36 2.361-5.5 3.662-8.839 3.662s-6.478-1.301-8.838-3.662l-30.066-30.066 16.508-18.844zm56.569-38.892c-4.873 4.875-12.803 4.875-17.678 0l-33.804-33.804 16.509-18.845 34.972 34.972c4.875 4.874 4.875 12.804.001 17.677z"/><path d="m71.707 317.096c-5.331-5.331-13.288-6.912-20.269-4.027-7.043 2.91-11.426 9.439-11.438 17.037-.004 2.05.035 4.137.117 6.205 1.438 36.316 16.193 70.688 41.546 96.784 28.044 28.866 65.631 44.764 105.837 44.764l.266-.001c7.592-.014 14.115-4.395 17.023-11.433 2.885-6.984 1.305-14.943-4.027-20.275zm119.218 143.6c-.332.806-1.188 2.157-3.26 2.162h-.165c-36.117 0-69.884-14.282-95.079-40.217-22.771-23.438-36.023-54.309-37.315-86.925-.073-1.861-.109-3.739-.105-5.584.003-2.008 1.359-2.867 2.167-3.201.308-.127.837-.297 1.468-.297.747 0 1.636.238 2.465 1.068l129.055 129.054c1.531 1.532 1.048 3.266.769 3.94z"/><path d="m231.693 233.13c-2.929 2.93-2.929 7.678 0 10.607l42.427 42.427c1.465 1.464 3.385 2.196 5.304 2.196s3.839-.732 5.304-2.196c2.929-2.93 2.929-7.678 0-10.607l-42.427-42.427c-2.93-2.928-7.678-2.928-10.608 0z"/><path d="m203.409 261.414c-2.929 2.93-2.929 7.678 0 10.607l42.427 42.427c1.465 1.464 3.385 2.196 5.304 2.196s3.839-.732 5.304-2.196c2.929-2.93 2.929-7.678 0-10.607l-42.427-42.427c-2.93-2.928-7.678-2.928-10.608 0z"/></g></g></svg>