<svg id="Capa_1" enable-background="new 0 0 512 512" height="512" viewBox="0 0 512 512" width="512" xmlns="http://www.w3.org/2000/svg"><g><g><circle cx="68.728" cy="217.006" fill="#848484" r="30"/></g><g><path d="m68.728 217.006c7.851-7.851 18.968-10.432 28.975-7.762-1.315-4.927-3.896-9.586-7.762-13.452-11.716-11.716-30.711-11.716-42.426 0s-11.716 30.711 0 42.426c3.865 3.865 8.525 6.447 13.452 7.762-2.671-10.006-.089-21.123 7.761-28.974z" fill="#6e6e6e"/></g><g><circle cx="295.003" cy="443.28" fill="#848484" r="30"/></g><g><path d="m295.003 443.28c7.85-7.85 18.968-10.432 28.975-7.762-1.315-4.927-3.896-9.586-7.762-13.452-11.716-11.716-30.711-11.716-42.426 0s-11.716 30.711 0 42.426c3.865 3.865 8.525 6.447 13.452 7.762-2.672-10.006-.09-21.123 7.761-28.974z" fill="#6e6e6e"/></g><g><path d="m16.287 495.722c-11.716-11.716-11.716-30.711 0-42.426l294.979-294.979 42.426 42.426-294.979 294.979c-11.716 11.716-30.71 11.716-42.426 0z" fill="#ff9b87"/></g><g><path d="m311.266 158.316-159.866 159.867c11.716-11.716 30.711-11.716 42.426 0s11.716 30.711 0 42.426l159.866-159.866z" fill="#ff8870"/></g><g><circle cx="344.5" cy="167.509" fill="#848484" r="160"/></g><g><path d="m457.637 54.372c-62.484-62.484-163.79-62.484-226.274 0s-62.484 163.79 0 226.274c-7.811-7.81-7.81-20.474 0-28.284 7.811-7.811 20.474-7.811 28.284 0l169.706-169.706c-7.811-7.811-7.81-20.474 0-28.284 7.81-7.811 20.474-7.811 28.284 0z" fill="#6e6e6e"/></g><g><circle cx="344.5" cy="167.509" fill="#fdffdc" r="120"/></g><g><path d="m306.226 129.235c38.715-38.715 97.518-45.394 143.166-20.039-5.287-9.519-11.966-18.466-20.039-26.54-46.788-46.788-122.918-46.788-169.706 0s-46.788 122.917 0 169.706c8.073 8.073 17.021 14.752 26.54 20.039-25.355-45.648-18.676-104.452 20.039-143.166z" fill="#ffff9c"/></g><g><path d="m512 167.509c0-44.741-17.423-86.804-49.06-118.44s-73.699-49.06-118.44-49.06-86.804 17.423-118.44 49.06l-136.648 136.646c-6.083-4.038-13.215-6.209-20.683-6.209-10.017 0-19.434 3.901-26.517 10.983-14.621 14.622-14.621 38.412 0 53.033 7.083 7.083 16.5 10.984 26.517 10.984s19.434-3.901 26.517-10.983c12.805-12.806 14.395-32.644 4.77-47.197l87.528-87.528c-6.92 18.529-10.543 38.34-10.543 58.71 0 31.962 8.896 62.553 25.509 88.957l-33.014 33.014c-.002.002-.003.003-.005.005s-.003.004-.005.005l-35.35 35.35c-2.929 2.93-2.929 7.678 0 10.607l37.122 37.122-24.748 24.748-31.819-31.819 8.838-8.838c2.929-2.93 2.929-7.678 0-10.607-2.93-2.928-7.678-2.928-10.607 0l-84.844 84.845c-.003.003-.006.005-.008.008s-.005.006-.008.008l-17.078 17.078c-7.083 7.084-10.984 16.501-10.984 26.518s3.901 19.434 10.983 26.517c7.312 7.311 16.913 10.966 26.517 10.966 9.602 0 19.206-3.656 26.517-10.966l17.078-17.078c.003-.003.006-.005.009-.008s.005-.006.008-.009l141.411-141.41.002-.002s.001-.001.002-.002l33.017-33.017c26.404 16.613 56.995 25.509 88.957 25.509 20.37 0 40.181-3.623 58.71-10.543l-87.528 87.529c-14.553-9.625-34.389-8.037-47.197 4.77-7.082 7.083-10.983 16.5-10.983 26.517s3.901 19.434 10.983 26.517c7.312 7.311 16.914 10.966 26.517 10.966 9.604 0 19.206-3.655 26.517-10.966 7.083-7.083 10.984-16.5 10.984-26.517 0-7.468-2.171-14.601-6.209-20.683l136.645-136.65c31.637-31.637 49.06-73.699 49.06-118.44zm-427.362 65.407c-4.249 4.25-9.899 6.591-15.909 6.591s-11.66-2.341-15.909-6.591c-8.773-8.772-8.773-23.047 0-31.82 4.249-4.249 9.899-6.59 15.909-6.59s11.66 2.341 15.909 6.591c8.773 8.772 8.773 23.047 0 31.819zm226.275 226.273c-8.773 8.774-23.049 8.772-31.821 0-4.249-4.249-6.59-9.899-6.59-15.909s2.341-11.66 6.591-15.909c4.386-4.387 10.147-6.58 15.91-6.58 5.762 0 11.523 2.193 15.909 6.58 4.25 4.249 6.591 9.899 6.591 15.909s-2.341 11.66-6.59 15.909zm-160.866-129.045 24.747-24.748 31.819 31.819-24.748 24.747zm-14.144 77.781-24.748 24.748-31.819-31.819 24.748-24.748zm-60.104 60.103-31.818-31.818 24.747-24.748 31.819 31.819zm-22.39 22.39c-8.771 8.773-23.047 8.773-31.818 0-8.773-8.772-8.773-23.046 0-31.818l11.783-11.783 31.818 31.818zm163.812-163.811-31.819-31.819 25.81-25.81c4.533 5.93 9.481 11.604 14.848 16.971s11.041 10.315 16.971 14.848zm127.279-6.598c-40.734 0-79.03-15.863-107.833-44.667-28.804-28.803-44.667-67.099-44.667-107.833s15.863-79.03 44.667-107.833c28.803-28.804 67.099-44.667 107.833-44.667s79.03 15.863 107.833 44.667c28.804 28.803 44.667 67.098 44.667 107.833s-15.863 79.03-44.667 107.833c-28.803 28.804-67.099 44.667-107.833 44.667z"/><path d="m464.44 175.067c-4.101-.511-7.858 2.402-8.372 6.513-3.125 25.014-14.196 47.655-32.02 65.478-21.212 21.213-49.463 32.895-79.549 32.895s-58.338-11.682-79.549-32.895c-21.213-21.212-32.895-49.463-32.895-79.549 0-30.087 11.682-58.337 32.895-79.549 21.211-21.213 49.463-32.895 79.549-32.895s58.337 11.682 79.549 32.895c17.453 17.452 28.46 39.599 31.831 64.044.565 4.104 4.366 6.966 8.454 6.405 4.104-.565 6.971-4.351 6.405-8.454-3.822-27.713-16.299-52.818-36.083-72.603-24.045-24.044-56.062-37.287-90.155-37.287s-66.111 13.242-90.156 37.287-37.287 56.063-37.287 90.156 13.242 66.11 37.287 90.156c24.045 24.045 56.063 37.287 90.156 37.287s66.111-13.242 90.156-37.287c20.203-20.204 32.755-45.87 36.297-74.226.514-4.109-2.402-7.857-6.513-8.371z"/><path d="m308.6 135.868c1.465 1.465 3.384 2.197 5.304 2.197 1.919 0 3.839-.732 5.303-2.196 4.017-4.017 6.229-9.356 6.229-15.037 0-5.68-2.213-11.02-6.229-15.035-4.017-4.017-9.356-6.229-15.036-6.229-5.681 0-11.021 2.213-15.037 6.229-2.929 2.929-2.929 7.678.001 10.606 2.93 2.93 7.679 2.929 10.606-.001 1.183-1.183 2.756-1.835 4.43-1.835 1.673 0 3.246.652 4.43 1.836 1.183 1.183 1.835 2.756 1.835 4.429 0 1.674-.652 3.247-1.835 4.43-2.93 2.928-2.93 7.677-.001 10.606z"/><path d="m395.605 222.874c1.465 1.465 3.384 2.197 5.304 2.197 1.919 0 3.839-.732 5.303-2.196 4.017-4.017 6.229-9.356 6.229-15.037 0-5.68-2.213-11.02-6.229-15.035-4.017-4.017-9.356-6.229-15.036-6.229-5.681 0-11.021 2.213-15.037 6.229-2.929 2.929-2.929 7.678.001 10.606 2.93 2.93 7.679 2.929 10.606-.001 1.183-1.183 2.756-1.835 4.43-1.835 1.673 0 3.246.652 4.43 1.836 1.183 1.183 1.835 2.756 1.835 4.429 0 1.674-.652 3.247-1.835 4.43-2.929 2.928-2.929 7.677-.001 10.606z"/><path d="m345.288 193.582c.614 0 1.23-.021 1.848-.063 4.133-.284 7.252-3.863 6.969-7.996-.283-4.134-3.87-7.253-7.996-6.969-3.425.229-6.788-1.019-9.212-3.442-2.423-2.422-3.677-5.779-3.441-9.211.283-4.133-2.836-7.712-6.969-7.996-4.118-.263-7.713 2.837-7.996 6.969-.532 7.759 2.311 15.357 7.8 20.846 5.053 5.051 11.891 7.862 18.997 7.862z"/></g></g></svg>