<svg id="Capa_1" enable-background="new 0 0 512 512" height="512" viewBox="0 0 512 512" width="512" xmlns="http://www.w3.org/2000/svg"><g><g><path d="m342.364 7.5h-172.728c-10.609 0-20.783 4.214-28.284 11.716l-122.136 122.136c-7.502 7.502-11.716 17.676-11.716 28.284v172.727c0 10.609 4.214 20.783 11.716 28.284l122.136 122.136c7.501 7.501 17.676 11.716 28.284 11.716h172.727c10.609 0 20.783-4.214 28.284-11.716l122.136-122.136c7.501-7.501 11.716-17.676 11.716-28.284v-172.727c0-10.609-4.214-20.783-11.716-28.284l-122.135-122.136c-7.502-7.502-17.676-11.716-28.284-11.716z" fill="#ff9b87"/></g><g><path d="m115.921 256c0-131.955 102.854-239.868 232.762-247.99-2.077-.333-4.189-.51-6.319-.51h-172.728c-10.609 0-20.783 4.214-28.284 11.716l-122.136 122.136c-7.502 7.502-11.716 17.676-11.716 28.284v172.727c0 10.609 4.214 20.783 11.716 28.284l122.136 122.136c7.501 7.501 17.676 11.716 28.284 11.716h172.727c2.131 0 4.242-.178 6.319-.51-129.907-8.121-232.761-116.034-232.761-247.989z" fill="#ff8870"/></g><g><path d="m256 256 101.671-245.455c-4.807-1.991-10.003-3.045-15.307-3.045h-172.728c-5.304 0-10.5 1.053-15.307 3.045z" fill="#ff8870"/></g><g><path d="m348.683 8.01c-2.077-.332-4.189-.51-6.319-.51h-172.728c-5.304 0-10.5 1.053-15.307 3.045l30.522 73.686c41.852-43.74 99.527-72.2 163.832-76.221z" fill="#ff6c52"/></g><g><path d="m256 256-101.671 245.455c4.807 1.991 10.003 3.045 15.307 3.045h172.727c5.304 0 10.5-1.054 15.307-3.045z" fill="#ff8870"/></g><g><path d="m184.851 427.769-30.522 73.686c4.807 1.991 10.003 3.045 15.307 3.045h172.727c2.13 0 4.242-.178 6.319-.51-64.304-4.021-121.979-32.481-163.831-76.221z" fill="#ff6c52"/></g><g><path d="m10.545 154.329c-1.991 4.807-3.045 10.003-3.045 15.307v172.727c0 5.304 1.054 10.5 3.045 15.307l245.455-101.67z" fill="#ff8870"/></g><g><path d="m115.921 256c0-19.061 2.153-37.618 6.217-55.448l-111.593-46.223c-1.991 4.807-3.045 10.003-3.045 15.307v172.727c0 5.304 1.054 10.5 3.045 15.307l111.593-46.223c-4.064-17.829-6.217-36.386-6.217-55.447z" fill="#ff6c52"/></g><g><path d="m501.455 357.671c1.991-4.807 3.045-10.003 3.045-15.307v-172.728c0-5.304-1.054-10.5-3.045-15.307l-245.455 101.671z" fill="#ff8870"/></g><g><circle cx="256" cy="256" fill="#ffd883" r="120"/></g><g><path d="m236 356c0-11.046 8.954-20 20-20v-160c-11.046 0-20-8.954-20-20s8.954-20 20-20c-66.274 0-120 53.726-120 120s53.726 120 120 120c-11.046 0-20-8.954-20-20z" fill="#ffa759"/></g><g><circle cx="256" cy="256" fill="#cff9ff" r="80"/></g><g><path d="m227.574 256c0-35.09 22.719-64.954 54.213-75.711-8.097-2.766-16.765-4.289-25.787-4.289-44.112 0-80 35.888-80 80s35.888 80 80 80c9.022 0 17.69-1.523 25.787-4.289-31.493-10.757-54.213-40.621-54.213-75.711z" fill="#b5efff"/></g><g><path d="m498.087 136.049-122.135-122.136c-8.972-8.973-20.9-13.913-33.588-13.913h-172.728c-12.688 0-24.617 4.94-33.587 13.912l-122.136 122.137c-8.972 8.972-13.913 20.899-13.913 33.588v172.727c0 12.688 4.941 24.616 13.913 33.588l122.136 122.136c8.971 8.973 20.9 13.913 33.588 13.913h172.728c12.688 0 24.617-4.94 33.587-13.912l122.136-122.137c8.972-8.972 13.913-20.899 13.913-33.588v-172.727c-.001-12.689-4.942-24.616-13.914-33.588zm-121.566 78.147 120.065-49.732c.27 1.696.414 3.423.414 5.173v172.727c0 1.75-.144 3.478-.414 5.173l-120.124-49.757c4.555-13.095 7.038-27.152 7.038-41.78 0-14.464-2.375-28.523-6.979-41.804zm110.96-67.54c1.237 1.237 2.357 2.56 3.365 3.95l-120.073 49.736c-3.847-7.894-8.539-15.435-14.054-22.529-2.543-3.271-7.255-3.862-10.524-1.319-3.27 2.543-3.86 7.255-1.318 10.524 15.454 19.881 23.623 43.735 23.623 68.982 0 62.032-50.467 112.5-112.5 112.5s-112.5-50.468-112.5-112.5 50.467-112.5 112.5-112.5c25.298 0 49.19 8.198 69.092 23.71 3.267 2.546 7.979 1.96 10.526-1.306 2.546-3.268 1.962-7.979-1.305-10.526-7.13-5.557-14.714-10.281-22.655-14.15l49.736-120.073c1.39 1.008 2.713 2.128 3.951 3.365zm-472.481 195.707v-172.726c0-1.75.144-3.478.414-5.173l120.125 49.757c-4.555 13.095-7.038 27.152-7.038 41.779s2.483 28.684 7.038 41.779l-120.125 49.757c-.27-1.695-.414-3.422-.414-5.173zm327.364-327.363c1.75 0 3.477.144 5.172.414l-49.731 120.062c-13.28-4.603-27.339-6.976-41.805-6.976-14.627 0-28.684 2.483-41.779 7.038l-49.757-120.124c1.695-.27 3.422-.414 5.172-.414zm-195.709 9.519c1.237-1.237 2.561-2.357 3.95-3.365l49.763 120.139c-25.685 12.508-46.568 33.391-59.076 59.076l-120.138-49.763c1.008-1.389 2.128-2.712 3.365-3.95zm-122.136 340.825c-1.238-1.237-2.357-2.561-3.365-3.95l120.139-49.763c12.507 25.686 33.391 46.569 59.076 59.077l-49.763 120.139c-1.39-1.008-2.713-2.128-3.95-3.365zm145.117 131.656c-1.75 0-3.477-.144-5.172-.414l49.758-120.125c13.095 4.555 27.152 7.038 41.779 7.038s28.684-2.483 41.779-7.038l49.757 120.125c-1.695.27-3.422.414-5.172.414zm195.709-9.519c-1.237 1.237-2.561 2.357-3.95 3.365l-49.763-120.139c25.685-12.508 46.568-33.391 59.076-59.076l120.139 49.763c-1.008 1.389-2.128 2.712-3.365 3.95z"/><path d="m256 168.5c-41.88 0-78.018 29.832-85.926 70.935-.783 4.067 1.88 7.999 5.948 8.782 4.061.773 7.999-1.881 8.782-5.948 6.552-34.053 36.494-58.769 71.196-58.769 39.977 0 72.5 32.523 72.5 72.5s-32.523 72.5-72.5 72.5c-34.73 0-64.677-24.74-71.208-58.826-.78-4.068-4.708-6.734-8.777-5.955-4.068.779-6.734 4.709-5.955 8.777 7.883 41.143 44.026 71.004 85.94 71.004 48.248 0 87.5-39.252 87.5-87.5s-39.252-87.5-87.5-87.5z"/><path d="m301 457h-90c-4.142 0-7.5 3.357-7.5 7.5s3.358 7.5 7.5 7.5h90c4.142 0 7.5-3.357 7.5-7.5s-3.358-7.5-7.5-7.5z"/><path d="m211 55h90c4.142 0 7.5-3.357 7.5-7.5s-3.358-7.5-7.5-7.5h-90c-4.142 0-7.5 3.357-7.5 7.5s3.358 7.5 7.5 7.5z"/><path d="m219.633 432h72.733c4.142 0 7.5-3.357 7.5-7.5s-3.358-7.5-7.5-7.5h-72.733c-4.142 0-7.5 3.357-7.5 7.5s3.358 7.5 7.5 7.5z"/><path d="m292.367 80h-72.733c-4.142 0-7.5 3.357-7.5 7.5s3.358 7.5 7.5 7.5h72.733c4.142 0 7.5-3.357 7.5-7.5s-3.358-7.5-7.5-7.5z"/><path d="m145.691 429.948-63.64-63.64c-2.929-2.928-7.678-2.928-10.606 0-2.929 2.93-2.929 7.678 0 10.607l63.64 63.64c1.464 1.464 3.384 2.196 5.303 2.196s3.839-.732 5.303-2.196c2.93-2.929 2.93-7.677 0-10.607z"/><path d="m366.309 82.052 63.64 63.64c1.464 1.464 3.384 2.196 5.303 2.196s3.839-.732 5.303-2.196c2.929-2.93 2.929-7.678 0-10.607l-63.64-63.64c-2.929-2.928-7.678-2.928-10.606 0-2.93 2.929-2.93 7.677 0 10.607z"/><path d="m157.265 406.166c1.464 1.464 3.384 2.196 5.303 2.196s3.839-.732 5.303-2.196c2.929-2.93 2.929-7.678 0-10.607l-51.431-51.43c-2.929-2.928-7.678-2.928-10.606 0-2.929 2.93-2.929 7.678 0 10.607z"/><path d="m354.735 105.834c-2.929-2.928-7.678-2.928-10.606 0-2.929 2.93-2.929 7.678 0 10.607l51.431 51.43c1.464 1.464 3.384 2.196 5.303 2.196s3.839-.732 5.303-2.196c2.929-2.93 2.929-7.678 0-10.607z"/><path d="m47.5 203.5c-4.142 0-7.5 3.357-7.5 7.5v90c0 4.143 3.358 7.5 7.5 7.5s7.5-3.357 7.5-7.5v-90c0-4.143-3.358-7.5-7.5-7.5z"/><path d="m464.5 308.5c4.142 0 7.5-3.357 7.5-7.5v-90c0-4.143-3.358-7.5-7.5-7.5s-7.5 3.357-7.5 7.5v90c0 4.143 3.358 7.5 7.5 7.5z"/><path d="m87.5 212.133c-4.142 0-7.5 3.357-7.5 7.5v72.734c0 4.143 3.358 7.5 7.5 7.5s7.5-3.357 7.5-7.5v-72.734c0-4.143-3.358-7.5-7.5-7.5z"/><path d="m424.5 299.867c4.142 0 7.5-3.357 7.5-7.5v-72.734c0-4.143-3.358-7.5-7.5-7.5s-7.5 3.357-7.5 7.5v72.734c0 4.143 3.358 7.5 7.5 7.5z"/><path d="m76.749 147.888c1.919 0 3.839-.732 5.303-2.196l63.64-63.64c2.929-2.93 2.929-7.678 0-10.607-2.929-2.928-7.678-2.928-10.606 0l-63.64 63.64c-2.929 2.93-2.929 7.678 0 10.607 1.464 1.463 3.383 2.196 5.303 2.196z"/><path d="m429.948 366.309-63.64 63.64c-2.929 2.93-2.929 7.678 0 10.607 1.464 1.464 3.384 2.196 5.303 2.196s3.839-.732 5.303-2.196l63.64-63.64c2.929-2.93 2.929-7.678 0-10.607-2.928-2.928-7.677-2.928-10.606 0z"/><path d="m105.834 167.871c1.464 1.464 3.384 2.196 5.303 2.196s3.839-.732 5.303-2.196l51.431-51.43c2.929-2.93 2.929-7.678 0-10.607-2.928-2.927-7.677-2.929-10.606 0l-51.431 51.43c-2.929 2.929-2.929 7.677 0 10.607z"/><path d="m406.166 344.129c-2.928-2.927-7.677-2.929-10.606 0l-51.431 51.43c-2.929 2.93-2.929 7.678 0 10.607 1.464 1.464 3.384 2.196 5.303 2.196s3.839-.732 5.303-2.196l51.431-51.43c2.929-2.929 2.929-7.677 0-10.607z"/></g></g></svg>