<svg id="Capa_1" enable-background="new 0 0 512 512" height="512" viewBox="0 0 512 512" width="512" xmlns="http://www.w3.org/2000/svg"><g><g><path d="m131.75 7.5c-68.62 0-124.25 55.63-124.25 124.25s55.63 124.25 124.25 124.25 124.25-55.63 124.25-124.25-55.63-124.25-124.25-124.25zm0 198.5c-41.006 0-74.25-33.244-74.25-74.25s33.244-74.25 74.25-74.25 74.25 33.244 74.25 74.25-33.244 74.25-74.25 74.25z" fill="#ffee6e"/></g><g><path d="m111.75 236c0-11.046 8.954-20 20-20v-10c-41.006 0-74.25-33.244-74.25-74.25s33.244-74.25 74.25-74.25v-10c-11.046 0-20-8.954-20-20s8.954-20 20-20c-68.62 0-124.25 55.63-124.25 124.25s55.63 124.25 124.25 124.25c-11.046 0-20-8.954-20-20z" fill="#ffd883"/></g><g><path d="m131.75 47.5c-46.46 0-84.25 37.79-84.25 84.25s37.79 84.25 84.25 84.25 84.25-37.79 84.25-84.25-37.79-84.25-84.25-84.25zm40 104.25c0 11.05-8.95 20-20 20h-40c-11.05 0-20-8.95-20-20v-40c0-11.05 8.95-20 20-20h40c11.05 0 20 8.95 20 20z" fill="#ffd883"/></g><g><path d="m141.837 171.75h-30.087c-11.05 0-20-8.95-20-20v-40c0-11.05 8.95-20 20-20h30.087c7.415-13.72 18.536-25.13 32.009-32.934-12.395-7.182-26.767-11.316-42.096-11.316-46.46 0-84.25 37.79-84.25 84.25s37.79 84.25 84.25 84.25c15.329 0 29.701-4.134 42.096-11.316-13.473-7.804-24.593-19.214-32.009-32.934z" fill="#ffa759"/></g><g><path d="m380.25 7.5c-68.62 0-124.25 55.63-124.25 124.25s55.63 124.25 124.25 124.25 124.25-55.63 124.25-124.25-55.63-124.25-124.25-124.25zm0 198.5c-41.006 0-74.25-33.244-74.25-74.25s33.244-74.25 74.25-74.25 74.25 33.244 74.25 74.25-33.244 74.25-74.25 74.25z" fill="#ffee6e"/></g><g><path d="m360.25 236c0-11.046 8.954-20 20-20v-10c-41.006 0-74.25-33.244-74.25-74.25s33.244-74.25 74.25-74.25v-10c-11.046 0-20-8.954-20-20s8.954-20 20-20c-68.62 0-124.25 55.63-124.25 124.25s55.63 124.25 124.25 124.25c-11.046 0-20-8.954-20-20z" fill="#ffd883"/></g><g><path d="m380.25 47.5c-46.46 0-84.25 37.79-84.25 84.25s37.79 84.25 84.25 84.25 84.25-37.79 84.25-84.25-37.79-84.25-84.25-84.25zm40 104.25c0 11.05-8.95 20-20 20h-40c-11.05 0-20-8.95-20-20v-40c0-11.05 8.95-20 20-20h40c11.05 0 20 8.95 20 20z" fill="#ffd883"/></g><g><path d="m390.337 171.75h-30.087c-11.05 0-20-8.95-20-20v-40c0-11.05 8.95-20 20-20h30.087c7.415-13.72 18.536-25.13 32.009-32.934-12.395-7.182-26.767-11.316-42.096-11.316-46.46 0-84.25 37.79-84.25 84.25s37.79 84.25 84.25 84.25c15.329 0 29.701-4.134 42.096-11.316-13.473-7.804-24.593-19.214-32.009-32.934z" fill="#ffa759"/></g><g><path d="m131.75 256c-68.62 0-124.25 55.63-124.25 124.25s55.63 124.25 124.25 124.25 124.25-55.63 124.25-124.25-55.63-124.25-124.25-124.25zm0 198.5c-41.006 0-74.25-33.244-74.25-74.25s33.244-74.25 74.25-74.25 74.25 33.244 74.25 74.25-33.244 74.25-74.25 74.25z" fill="#ffee6e"/></g><g><path d="m111.75 484.5c0-11.046 8.954-20 20-20v-10c-41.006 0-74.25-33.244-74.25-74.25s33.244-74.25 74.25-74.25v-10c-11.046 0-20-8.954-20-20s8.954-20 20-20c-68.62 0-124.25 55.63-124.25 124.25s55.63 124.25 124.25 124.25c-11.046 0-20-8.954-20-20z" fill="#ffd883"/></g><g><path d="m131.75 296c-46.46 0-84.25 37.79-84.25 84.25s37.79 84.25 84.25 84.25 84.25-37.79 84.25-84.25-37.79-84.25-84.25-84.25zm40 104.25c0 11.05-8.95 20-20 20h-40c-11.05 0-20-8.95-20-20v-40c0-11.05 8.95-20 20-20h40c11.05 0 20 8.95 20 20z" fill="#ffd883"/></g><g><path d="m141.837 420.25h-30.087c-11.05 0-20-8.95-20-20v-40c0-11.05 8.95-20 20-20h30.087c7.415-13.72 18.536-25.13 32.009-32.934-12.395-7.182-26.767-11.316-42.096-11.316-46.46 0-84.25 37.79-84.25 84.25s37.79 84.25 84.25 84.25c15.329 0 29.701-4.134 42.096-11.316-13.473-7.804-24.593-19.214-32.009-32.934z" fill="#ffa759"/></g><g><path d="m380.25 256c-68.62 0-124.25 55.63-124.25 124.25s55.63 124.25 124.25 124.25 124.25-55.63 124.25-124.25-55.63-124.25-124.25-124.25zm0 198.5c-41.006 0-74.25-33.244-74.25-74.25s33.244-74.25 74.25-74.25 74.25 33.244 74.25 74.25-33.244 74.25-74.25 74.25z" fill="#ffee6e"/></g><g><path d="m360.25 484.5c0-11.046 8.954-20 20-20v-10c-41.006 0-74.25-33.244-74.25-74.25s33.244-74.25 74.25-74.25v-10c-11.046 0-20-8.954-20-20s8.954-20 20-20c-68.62 0-124.25 55.63-124.25 124.25s55.63 124.25 124.25 124.25c-11.046 0-20-8.954-20-20z" fill="#ffd883"/></g><g><path d="m380.25 296c-46.46 0-84.25 37.79-84.25 84.25s37.79 84.25 84.25 84.25 84.25-37.79 84.25-84.25-37.79-84.25-84.25-84.25zm40 104.25c0 11.05-8.95 20-20 20h-40c-11.05 0-20-8.95-20-20v-40c0-11.05 8.95-20 20-20h40c11.05 0 20 8.95 20 20z" fill="#ffd883"/></g><g><path d="m390.337 420.25h-30.087c-11.05 0-20-8.95-20-20v-40c0-11.05 8.95-20 20-20h30.087c7.415-13.72 18.536-25.13 32.009-32.934-12.395-7.182-26.767-11.316-42.096-11.316-46.46 0-84.25 37.79-84.25 84.25s37.79 84.25 84.25 84.25c15.329 0 29.701-4.134 42.096-11.316-13.473-7.804-24.593-19.214-32.009-32.934z" fill="#ffa759"/></g><g><path d="m111.75 171.75h40v168.5h-40z" fill="#ff8870"/></g><g><path d="m111.75 171.75h20v168.5h-20z" fill="#ff6c52"/></g><g><path d="m360.25 171.75h40v168.5h-40z" fill="#ff8870"/></g><g><path d="m360.25 171.75h20v168.5h-20z" fill="#ff6c52"/></g><g><path d="m236 47.5h40v168.5h-40z" fill="#ff8870" transform="matrix(0 1 -1 0 387.75 -124.25)"/></g><g><path d="m236 296h40v168.5h-40z" fill="#ff8870" transform="matrix(0 1 -1 0 636.25 124.25)"/></g><g><path d="m236 131.75c0-11.046 8.954-20 20-20h-84.25v40h84.25c-11.046 0-20-8.954-20-20z" fill="#ff6c52"/></g><g><path d="m236 380.25c0-11.046 8.954-20 20-20h-84.25v40h84.25c-11.046 0-20-8.954-20-20z" fill="#ff6c52"/></g><path d="m424.134 256c21.632-7.654 41.097-20.929 56.23-38.602 20.401-23.825 31.636-54.242 31.636-85.648 0-72.647-59.103-131.75-131.75-131.75-31.292 0-61.625 11.163-85.411 31.433-17.785 15.156-31.147 34.707-38.837 56.44-7.654-21.636-20.932-41.106-38.609-56.241-23.823-20.399-54.239-31.632-85.643-31.632-72.647 0-131.75 59.103-131.75 131.75 0 31.406 11.235 61.823 31.636 85.648 15.133 17.673 34.6 30.949 56.232 38.603-21.599 7.641-41.039 20.885-56.165 38.522-20.444 23.838-31.703 54.284-31.703 85.727 0 72.647 59.103 131.75 131.75 131.75 31.385 0 61.786-11.222 85.604-31.598 17.695-15.138 30.987-34.621 38.647-56.273 7.669 21.675 20.98 41.177 38.701 56.32 23.808 20.346 54.19 31.551 85.548 31.551 72.647 0 131.75-59.103 131.75-131.75 0-31.395-11.228-61.803-31.615-85.624-15.135-17.684-34.609-30.968-56.251-38.626zm-244.884 136.75v-25h153.5v25zm153.5-273.5v25h-153.5v-25zm-24.16 233.5c7.786-20.352 23.812-36.376 44.16-44.16v25.208c-9.142 2.596-16.356 9.81-18.952 18.952zm-89.306 0c-8.991-28.689-31.349-51.046-60.034-60.035v-25.949c42.528 10.233 75.754 43.461 85.985 85.984zm-15.877-193.5c-7.793 20.325-23.855 36.372-44.157 44.156v-25.204c9.142-2.596 16.356-9.81 18.952-18.952zm130.391 0c2.596 9.142 9.81 16.355 18.952 18.952v25.208c-20.341-7.783-36.371-23.81-44.159-44.16zm66.452 5h-40c-6.893 0-12.5-5.607-12.5-12.5v-40c0-6.893 5.607-12.5 12.5-12.5h40c6.893 0 12.5 5.607 12.5 12.5v40c0 6.893-5.607 12.5-12.5 12.5zm-107.532-5c8.994 28.688 31.36 51.049 60.032 60.035v25.942c-16.121-3.905-31.362-11.263-44.483-21.554-3.259-2.557-7.974-1.986-10.53 1.272-2.556 3.26-1.986 7.975 1.273 10.53 11.276 8.844 23.944 15.762 37.379 20.513-37.546 13.207-67.168 42.816-80.388 80.365-13.21-37.55-42.8-67.143-80.353-80.354 37.559-13.215 67.158-42.822 80.363-80.385 4.752 13.435 11.673 26.106 20.511 37.375 1.479 1.887 3.682 2.872 5.906 2.872 1.619 0 3.25-.521 4.624-1.599 3.259-2.556 3.829-7.271 1.273-10.529-10.286-13.116-17.655-28.365-21.559-44.484h25.952zm-133.468 85.984v-25.952c28.612-8.98 51.033-31.382 60.029-60.033h25.955c-10.232 42.523-43.462 75.753-85.984 85.985zm5-93.484c0 6.893-5.607 12.5-12.5 12.5h-40c-6.893 0-12.5-5.607-12.5-12.5v-40c0-6.893 5.607-12.5 12.5-12.5h40c6.893 0 12.5 5.607 12.5 12.5zm-45 27.5h25v153.5h-25zm233.5 87.517v25.948c-28.683 8.989-51.041 31.344-60.034 60.035h-25.947c10.235-42.507 43.484-75.752 85.981-85.983zm-5 93.483c0-6.893 5.607-12.5 12.5-12.5h40c6.893 0 12.5 5.607 12.5 12.5v40c0 6.893-5.607 12.5-12.5 12.5h-40c-6.893 0-12.5-5.607-12.5-12.5zm20-27.5v-153.5h25v153.5zm40-154.548c11.528-3.274 20-13.889 20-26.452v-40c0-15.163-12.336-27.5-27.5-27.5h-40c-12.563 0-23.178 8.472-26.452 20h-25.21c11.251-29.406 39.522-49.25 71.662-49.25 42.32 0 76.75 34.43 76.75 76.75 0 32.18-19.832 60.425-49.25 71.667zm-229.548-73.952c-3.274-11.528-13.889-20-26.452-20h-40c-15.164 0-27.5 12.337-27.5 27.5v40c0 12.563 8.472 23.178 20 26.452v25.212c-29.409-11.249-49.25-39.513-49.25-71.664 0-42.32 34.43-76.75 76.75-76.75 32.136 0 60.41 19.845 71.661 49.25zm-66.452 243.5h40c6.893 0 12.5 5.607 12.5 12.5v40c0 6.893-5.607 12.5-12.5 12.5h-40c-6.893 0-12.5-5.607-12.5-12.5v-40c0-6.893 5.607-12.5 12.5-12.5zm47.5-13.952v-25.209c20.348 7.785 36.374 23.81 44.16 44.161h-25.208c-2.596-9.142-9.81-16.355-18.952-18.952zm174.548 73.952c3.274 11.528 13.889 20 26.452 20h40c15.164 0 27.5-12.337 27.5-27.5v-40c0-12.563-8.472-23.178-20-26.452v-25.214c29.415 11.245 49.25 39.497 49.25 71.666 0 42.32-34.43 76.75-76.75 76.75-32.164 0-60.419-19.837-71.665-49.25zm46.452-392.75c64.376 0 116.75 52.374 116.75 116.75 0 54.545-37.054 100.996-89.25 113.499v-25.974c38.102-11.935 64.25-47.13 64.25-87.525 0-50.591-41.159-91.75-91.75-91.75-40.346 0-75.586 26.163-87.524 64.25h-25.976c12.512-52.167 59.046-89.25 113.5-89.25zm-365.25 116.75c0-64.376 52.374-116.75 116.75-116.75 54.544 0 100.995 37.054 113.498 89.25h-25.973c-11.939-38.085-47.183-64.25-87.525-64.25-50.591 0-91.75 41.159-91.75 91.75 0 40.358 26.159 75.587 64.25 87.524v25.974c-52.196-12.502-89.25-58.953-89.25-113.498zm116.75 365.25c-64.376 0-116.75-52.374-116.75-116.75 0-54.576 37.044-101 89.25-113.498v25.973c-38.103 11.935-64.25 47.129-64.25 87.525 0 18.793 5.665 36.871 16.382 52.279 1.458 2.096 3.791 3.219 6.164 3.219 1.478 0 2.971-.437 4.276-1.344 3.4-2.365 4.24-7.039 1.875-10.439-8.961-12.883-13.697-27.999-13.697-43.715 0-32.182 19.832-60.425 49.25-71.668v25.216c-11.528 3.274-20 13.889-20 26.452v40c0 15.163 12.336 27.5 27.5 27.5h40c12.563 0 23.178-8.472 26.452-20h25.216c-11.244 29.418-39.49 49.25-71.668 49.25-15.715 0-30.832-4.736-43.714-13.697-3.402-2.366-8.075-1.526-10.44 1.875-2.365 3.4-1.526 8.074 1.875 10.439 15.408 10.718 33.487 16.383 52.279 16.383 40.391 0 75.59-26.149 87.524-64.25h25.974c-12.504 52.191-58.97 89.25-113.498 89.25zm248.5 0c-54.507 0-100.992-37.066-113.499-89.25h25.975c11.936 38.096 47.149 64.25 87.524 64.25 50.591 0 91.75-41.159 91.75-91.75 0-40.381-26.152-75.588-64.25-87.524v-25.973c52.194 12.503 89.25 58.961 89.25 113.497 0 64.376-52.374 116.75-116.75 116.75z"/></g></svg>