<svg id="Capa_1" enable-background="new 0 0 512 512" height="512" viewBox="0 0 512 512" width="512" xmlns="http://www.w3.org/2000/svg"><g><g><path d="m489.5 7.5h-25.222c-8.284 0-15 6.716-15 15v10c0 8.284-6.716 15-15 15h-25.222c-8.284 0-15-6.716-15-15v-10c0-8.284-6.716-15-15-15h-25.222c-8.284 0-15 6.716-15 15v10c0 8.284-6.716 15-15 15h-25.222c-8.284 0-15-6.716-15-15v-10c0-8.284-6.716-15-15-15h-25.222c-8.284 0-15 6.716-15 15v10c0 8.284-6.716 15-15 15h-25.222c-8.284 0-15-6.716-15-15v-10c0-8.284-6.716-15-15-15h-25.222c-8.284 0-15 6.716-15 15v10c0 8.284-6.716 15-15 15h-25.224c-8.284 0-15-6.716-15-15v-10c0-8.284-6.716-15-15-15h-25.222c-8.284 0-15 6.716-15 15v105l40 100h417l40-100v-105c0-8.284-6.716-15-15-15z" fill="#e4e4e4"/></g><g><path d="m87.5 47.5h-9.778c-8.284 0-15-6.716-15-15v-10c0-8.284-6.716-15-15-15h-40.222v120l40 100h417l40-100v-40h-377c-22.091 0-40-17.909-40-40z" fill="#d9d9d9"/></g><g><path d="m504.5 127.5h-40.222c-8.284 0-15 6.716-15 15v10c0 8.284-6.716 15-15 15h-25.222c-8.284 0-15-6.716-15-15v-10c0-8.284-6.716-15-15-15h-25.222c-8.284 0-15 6.716-15 15v10c0 8.284-6.716 15-15 15h-25.222c-8.284 0-15-6.716-15-15v-10c0-8.284-6.716-15-15-15h-25.222c-8.284 0-15 6.716-15 15v10c0 8.284-6.716 15-15 15h-25.222c-8.284 0-15-6.716-15-15v-10c0-8.284-6.716-15-15-15h-25.222c-8.284 0-15 6.716-15 15v10c0 8.284-6.716 15-15 15h-25.224c-8.284 0-15-6.716-15-15v-10c0-8.284-6.716-15-15-15h-40.222v120l40 100h417l40-100z" fill="#f0f0f0"/></g><g><path d="m87.5 167.5h-9.778c-8.284 0-15-6.716-15-15v-10c0-8.284-6.716-15-15-15h-40.222v120l40 100h417l40-100v-40h-377c-22.091 0-40-17.909-40-40z" fill="#e4e4e4"/></g><g><path d="m504.5 247.5h-40.222c-8.284 0-15 6.716-15 15v10c0 8.284-6.716 15-15 15h-25.222c-8.284 0-15-6.716-15-15v-10c0-8.284-6.716-15-15-15h-25.222c-8.284 0-15 6.716-15 15v10c0 8.284-6.716 15-15 15h-25.222c-8.284 0-15-6.716-15-15v-10c0-8.284-6.716-15-15-15h-25.222c-8.284 0-15 6.716-15 15v10c0 8.284-6.716 15-15 15h-25.222c-8.284 0-15-6.716-15-15v-10c0-8.284-6.716-15-15-15h-25.222c-8.284 0-15 6.716-15 15v10c0 8.284-6.716 15-15 15h-25.224c-8.284 0-15-6.716-15-15v-10c0-8.284-6.716-15-15-15h-40.222v117l248.5 100h248.5z" fill="#f7f7f7"/></g><g><path d="m87.5 287.5h-9.778c-8.284 0-15-6.716-15-15v-10c0-8.284-6.716-15-15-15h-40.222v117l248.5 100h248.5v-40c-116.504 0-173.366-22.882-233.567-47.108-41.672-16.769-84.265-33.904-144.66-43.96-22.406-3.731-38.773-23.217-38.773-45.932z" fill="#f0f0f0"/></g><g><path d="m504.5 464.5c-248.5 0-248.5-100-497-100v100c0 22.091 17.909 40 40 40h417c22.091 0 40-17.909 40-40z" fill="#92ef8e"/></g><g><path d="m87.5 468.511v-99.987c-23.631-2.563-50-4.024-80-4.024v100c0 22.091 17.909 40 40 40h80c-22.091 0-40-13.898-40-35.989z" fill="#66df6b"/></g><g><g><g><ellipse cx="256.018" cy="352.747" fill="#495560" rx="13.712" ry="15.725"/></g></g><g><path d="m190.787 345.811c-6.251 0-12.196-2.703-16.312-7.419-2.724-3.121-2.403-7.858.718-10.583 3.119-2.721 7.858-2.401 10.582.718 1.267 1.452 3.094 2.284 5.013 2.284h.006c1.92-.002 3.749-.838 5.015-2.293 2.72-3.126 7.457-3.455 10.581-.736 3.125 2.718 3.455 7.455.736 10.58-4.113 4.729-10.061 7.443-16.318 7.449-.008 0-.015 0-.021 0z"/></g><g><path d="m321.196 345.688c-6.252 0-12.196-2.703-16.313-7.419-2.724-3.121-2.402-7.858.718-10.583 3.121-2.721 7.858-2.401 10.583.718 1.267 1.452 3.094 2.284 5.013 2.284h.006c1.921-.002 3.749-.838 5.016-2.293 2.719-3.126 7.457-3.455 10.58-.736 3.126 2.718 3.455 7.455.736 10.58-4.112 4.729-10.061 7.443-16.318 7.449-.008 0-.015 0-.021 0z"/></g><g><path d="m256.022 375.973c-11.688 0-21.204-10.405-21.216-23.205-.012-12.807 9.495-23.234 21.19-23.245h.02c5.77 0 11.357 2.609 15.335 7.162 3.785 4.332 5.873 10.029 5.879 16.042v.001c.012 12.807-9.494 23.234-21.19 23.245-.006 0-.012 0-.018 0zm-.006-31.451c-.002 0-.003 0-.005 0-3.368.003-6.209 3.772-6.205 8.231.004 4.456 2.851 8.219 6.216 8.219h.004c3.367-.003 6.208-3.772 6.204-8.23-.002-2.354-.795-4.609-2.175-6.189-.662-.758-2.069-2.031-4.039-2.031z"/></g></g><path d="m489.5 0h-25.223c-12.406 0-22.5 10.094-22.5 22.5v10c0 4.136-3.364 7.5-7.5 7.5h-25.222c-4.136 0-7.5-3.364-7.5-7.5v-10c0-12.406-10.094-22.5-22.5-22.5h-25.223c-12.406 0-22.5 10.094-22.5 22.5v10c0 4.136-3.364 7.5-7.5 7.5h-25.222c-4.136 0-7.5-3.364-7.5-7.5v-10c0-12.406-10.094-22.5-22.5-22.5h-25.223c-12.407 0-22.5 10.094-22.5 22.5v10c0 4.136-3.365 7.5-7.5 7.5h-25.222c-4.136 0-7.5-3.364-7.5-7.5v-10c0-12.406-10.093-22.5-22.5-22.5h-25.222c-12.407 0-22.5 10.094-22.5 22.5v10c0 4.136-3.365 7.5-7.5 7.5h-25.221c-4.136 0-7.5-3.364-7.5-7.5v-10c0-12.406-10.093-22.5-22.5-22.5h-25.222c-12.407 0-22.5 10.094-22.5 22.5v442c0 26.191 21.309 47.5 47.5 47.5h417c24.232 0 44.695-18.538 47.224-42.474.18-.645.276-1.324.276-2.026v-445c0-12.406-10.094-22.5-22.5-22.5zm-467 15h25.222c4.136 0 7.5 3.364 7.5 7.5v10c0 12.406 10.093 22.5 22.5 22.5h25.222c12.407 0 22.5-10.094 22.5-22.5v-10c0-4.136 3.364-7.5 7.5-7.5h25.222c4.135 0 7.5 3.364 7.5 7.5v10c0 12.406 10.093 22.5 22.5 22.5h25.222c12.407 0 22.5-10.094 22.5-22.5v-10c0-4.136 3.364-7.5 7.5-7.5h25.223c4.136 0 7.5 3.364 7.5 7.5v10c0 12.406 10.094 22.5 22.5 22.5h25.222c12.406 0 22.5-10.094 22.5-22.5v-10c0-4.136 3.364-7.5 7.5-7.5h25.223c4.136 0 7.5 3.364 7.5 7.5v10c0 12.406 10.094 22.5 22.5 22.5h25.222c12.406 0 22.5-10.094 22.5-22.5v-10c0-4.136 3.364-7.5 7.5-7.5h25.222c4.136 0 7.5 3.364 7.5 7.5v97.5h-32.723c-12.406 0-22.5 10.094-22.5 22.5v10c0 4.136-3.364 7.5-7.5 7.5h-25.222c-4.136 0-7.5-3.364-7.5-7.5v-10c0-12.406-10.094-22.5-22.5-22.5h-25.223c-12.406 0-22.5 10.094-22.5 22.5v10c0 4.136-3.364 7.5-7.5 7.5h-25.222c-4.136 0-7.5-3.364-7.5-7.5v-10c0-12.406-10.094-22.5-22.5-22.5h-25.223c-12.407 0-22.5 10.094-22.5 22.5v10c0 3.647-2.707 6.831-6.295 7.404-4.09.654-6.875 4.501-6.221 8.591s4.501 6.866 8.59 6.222c10.967-1.755 18.926-11.098 18.926-22.217v-10c0-4.136 3.364-7.5 7.5-7.5h25.223c4.136 0 7.5 3.364 7.5 7.5v10c0 12.406 10.094 22.5 22.5 22.5h25.222c12.406 0 22.5-10.094 22.5-22.5v-10c0-4.136 3.364-7.5 7.5-7.5h25.223c4.136 0 7.5 3.364 7.5 7.5v10c0 12.406 10.094 22.5 22.5 22.5h25.222c12.406 0 22.5-10.094 22.5-22.5v-10c0-4.136 3.364-7.5 7.5-7.5h32.723v105h-32.723c-12.406 0-22.5 10.094-22.5 22.5v10c0 4.136-3.364 7.5-7.5 7.5h-25.222c-4.136 0-7.5-3.364-7.5-7.5v-10c0-12.406-10.094-22.5-22.5-22.5h-25.223c-12.406 0-22.5 10.094-22.5 22.5v10c0 4.136-3.364 7.5-7.5 7.5h-25.222c-4.136 0-7.5-3.364-7.5-7.5v-10c0-12.406-10.094-22.5-22.5-22.5h-25.223c-12.407 0-22.5 10.094-22.5 22.5v10c0 4.136-3.365 7.5-7.5 7.5h-25.222c-4.136 0-7.5-3.364-7.5-7.5v-10c0-12.406-10.093-22.5-22.5-22.5h-25.222c-12.407 0-22.5 10.094-22.5 22.5v10c0 4.136-3.365 7.5-7.5 7.5h-25.221c-4.136 0-7.5-3.364-7.5-7.5v-10c0-12.406-10.093-22.5-22.5-22.5h-32.722v-105h32.722c4.136 0 7.5 3.364 7.5 7.5v10c0 12.406 10.093 22.5 22.5 22.5h25.222c12.407 0 22.5-10.094 22.5-22.5v-10c0-4.136 3.364-7.5 7.5-7.5h25.222c4.136 0 7.5 3.364 7.5 7.5v10c0 11.119 7.959 20.462 18.926 22.217 4.093.649 7.937-2.131 8.59-6.222.654-4.09-2.131-7.937-6.221-8.591-3.589-.574-6.295-3.757-6.295-7.404v-10c0-12.406-10.093-22.5-22.5-22.5h-25.222c-12.407 0-22.5 10.094-22.5 22.5v10c0 4.136-3.364 7.5-7.5 7.5h-25.222c-4.136 0-7.5-3.364-7.5-7.5v-10c0-12.406-10.093-22.5-22.5-22.5h-32.722v-97.5c0-4.136 3.364-7.5 7.5-7.5zm442 482h-417c-17.92 0-32.5-14.579-32.5-32.5v-92.466c117.775.969 176.295 24.512 238.2 49.424 34.191 13.759 69.548 27.987 115.27 37.724.527.111 1.052.166 1.57.166 3.464 0 6.577-2.415 7.328-5.939.862-4.052-1.723-8.035-5.773-8.898-44.452-9.465-79.195-23.446-112.795-36.968-60.504-24.348-123.052-49.51-243.8-50.508v-102.035h32.722c4.135 0 7.5 3.364 7.5 7.5v10c0 12.406 10.093 22.5 22.5 22.5h25.222c12.407 0 22.5-10.094 22.5-22.5v-10c0-4.136 3.364-7.5 7.5-7.5h25.222c4.135 0 7.5 3.364 7.5 7.5v10c0 12.406 10.093 22.5 22.5 22.5h25.222c12.407 0 22.5-10.094 22.5-22.5v-10c0-4.136 3.364-7.5 7.5-7.5h25.223c4.136 0 7.5 3.364 7.5 7.5v10c0 12.406 10.094 22.5 22.5 22.5h25.222c12.406 0 22.5-10.094 22.5-22.5v-10c0-4.136 3.364-7.5 7.5-7.5h25.223c4.136 0 7.5 3.364 7.5 7.5v10c0 12.406 10.094 22.5 22.5 22.5h25.222c12.406 0 22.5-10.094 22.5-22.5v-10c0-4.136 3.364-7.5 7.5-7.5h32.722v201.969c-35.241-.29-66.817-2.637-96.32-7.154-4.087-.619-7.922 2.185-8.549 6.279-.626 4.095 2.185 7.922 6.279 8.549 30.006 4.593 62.046 6.993 97.707 7.316-3.398 14.384-16.421 25.041-31.617 25.041z"/></g></svg>