<svg id="Capa_1" enable-background="new 0 0 512 512" height="512" viewBox="0 0 512 512" width="512" xmlns="http://www.w3.org/2000/svg"><g><g><path d="m70.171 235.502h65.29c61.076 0 89.071-48.55 89.071-48.55h161.021v-131.098h-315.382z" fill="#f2d1a5"/></g><g><path d="m134.286 219.461c0 15.485-12.553 28.039-28.039 28.039h-57.154c-15.204 0-27.529-12.325-27.529-27.529v-1.02c0-15.204 12.325-27.529 27.529-27.529h57.154c15.485 0 28.039 12.554 28.039 28.039z" fill="#fff2de"/></g><g><path d="m106.247 219.461h-57.154c-10.293 0-19.26-5.653-23.984-14.02-2.253 3.992-3.545 8.599-3.545 13.51v1.02c0 15.204 12.325 27.529 27.529 27.529h57.153c15.485 0 28.039-12.553 28.039-28.039 0-5.109-1.373-9.894-3.76-14.019-4.849 8.378-13.902 14.019-24.278 14.019z" fill="#ffe4c2"/></g><g><path d="m120.221 163.383c0 15.485-12.553 28.039-28.039 28.039h-57.153c-15.204 0-27.529-12.325-27.529-27.529v-1.02c0-15.204 12.325-27.529 27.529-27.529h57.154c15.485 0 28.038 12.554 28.038 28.039z" fill="#fff2de"/></g><g><path d="m92.182 163.383h-57.153c-10.293 0-19.26-5.653-23.984-14.02-2.253 3.992-3.545 8.599-3.545 13.51v1.02c0 15.204 12.325 27.529 27.529 27.529h57.153c15.485 0 28.039-12.553 28.039-28.039 0-5.109-1.373-9.894-3.76-14.019-4.849 8.379-13.902 14.019-24.279 14.019z" fill="#ffe4c2"/></g><g><path d="m120.221 107.306c0 15.485-12.553 28.039-28.039 28.039h-57.153c-15.204 0-27.529-12.325-27.529-27.529v-1.02c0-15.204 12.325-27.529 27.529-27.529h57.154c15.485 0 28.038 12.553 28.038 28.039z" fill="#fff2de"/></g><g><path d="m92.182 107.306h-57.153c-10.293 0-19.26-5.653-23.984-14.02-2.253 3.992-3.545 8.599-3.545 13.51v1.02c0 15.204 12.325 27.529 27.529 27.529h57.153c15.485 0 28.039-12.553 28.039-28.039 0-5.109-1.373-9.894-3.76-14.019-4.849 8.378-13.902 14.019-24.279 14.019z" fill="#ffe4c2"/></g><g><path d="m134.286 51.228c0 15.485-12.553 28.039-28.039 28.039h-57.154c-15.204 0-27.529-12.325-27.529-27.529v-1.02c0-15.204 12.325-27.529 27.529-27.529h57.154c15.485 0 28.039 12.553 28.039 28.039z" fill="#fff2de"/></g><g><path d="m106.247 51.228h-57.154c-10.293 0-19.26-5.653-23.984-14.02-2.253 3.992-3.545 8.599-3.545 13.51v1.02c0 15.204 12.325 27.529 27.529 27.529h57.153c15.485 0 28.039-12.553 28.039-28.039 0-5.109-1.373-9.894-3.76-14.019-4.849 8.378-13.902 14.019-24.278 14.019z" fill="#ffe4c2"/></g><g><path d="m91.176 63.578v71.454c0 15.485 12.553 28.039 28.039 28.039 15.485 0 28.039-12.553 28.039-28.039v-15.376c30.971 0 56.078-25.107 56.078-56.078 0-30.971-25.107-56.078-56.078-56.078-30.971 0-56.078 25.107-56.078 56.078z" fill="#ffe4c2"/></g><g><path d="m465.868 247.5c-103.192 0-186.846-83.654-186.846-186.846v-4.8c0-4.733 3.837-8.57 8.57-8.57h178.276c21.336 0 38.632 17.296 38.632 38.632v122.952c0 21.336-17.296 38.632-38.632 38.632z" fill="#6e6e6e"/></g><g><path d="m339.022 60.654v-4.8c0-4.733 3.837-8.57 8.57-8.57h-60c-4.733 0-8.57 3.837-8.57 8.57v4.8c0 103.192 83.654 186.846 186.846 186.846 6.661 0 12.929-1.686 18.399-4.655-83.167-18.911-145.245-93.299-145.245-182.191z" fill="#595959"/></g><g><path d="m441.829 492.502s-34.684 0-65.29 0c-61.076 0-89.071-48.55-89.071-48.55h-161.021v-131.098h315.382z" fill="#f2d1a5"/></g><g><path d="m377.715 476.461c0 15.485 12.553 28.039 28.039 28.039h57.154c15.204 0 27.529-12.325 27.529-27.529v-1.02c0-15.204-12.325-27.529-27.529-27.529h-57.154c-15.486 0-28.039 12.554-28.039 28.039z" fill="#fff2de"/></g><g><path d="m405.753 476.461h57.153c10.293 0 19.26-5.653 23.984-14.02 2.253 3.992 3.545 8.599 3.545 13.51v1.02c0 15.204-12.325 27.529-27.529 27.529h-57.153c-15.485 0-28.039-12.553-28.039-28.039 0-5.109 1.373-9.894 3.76-14.019 4.85 8.378 13.903 14.019 24.279 14.019z" fill="#ffe4c2"/></g><g><path d="m391.779 420.383c0 15.485 12.553 28.039 28.039 28.039h57.154c15.204 0 27.529-12.325 27.529-27.529v-1.02c0-15.204-12.325-27.529-27.529-27.529h-57.154c-15.486 0-28.039 12.554-28.039 28.039z" fill="#fff2de"/></g><g><path d="m419.818 420.383h57.153c10.293 0 19.26-5.653 23.984-14.02 2.253 3.992 3.545 8.599 3.545 13.51v1.02c0 15.204-12.325 27.529-27.529 27.529h-57.153c-15.485 0-28.039-12.553-28.039-28.039 0-5.109 1.373-9.894 3.76-14.019 4.849 8.379 13.902 14.019 24.279 14.019z" fill="#ffe4c2"/></g><g><path d="m391.779 364.306c0 15.485 12.553 28.039 28.039 28.039h57.154c15.204 0 27.529-12.325 27.529-27.529v-1.02c0-15.204-12.325-27.529-27.529-27.529h-57.154c-15.486 0-28.039 12.553-28.039 28.039z" fill="#fff2de"/></g><g><path d="m419.818 364.306h57.153c10.293 0 19.26-5.653 23.984-14.02 2.253 3.992 3.545 8.599 3.545 13.51v1.02c0 15.204-12.325 27.529-27.529 27.529h-57.153c-15.485 0-28.039-12.553-28.039-28.039 0-5.109 1.373-9.894 3.76-14.019 4.849 8.378 13.902 14.019 24.279 14.019z" fill="#ffe4c2"/></g><g><path d="m377.715 308.228c0 15.486 12.553 28.039 28.039 28.039h57.154c15.204 0 27.529-12.325 27.529-27.529v-1.02c0-15.204-12.325-27.529-27.529-27.529h-57.154c-15.486 0-28.039 12.553-28.039 28.039z" fill="#fff2de"/></g><g><path d="m405.753 308.228h57.153c10.293 0 19.26-5.653 23.984-14.02 2.253 3.992 3.545 8.599 3.545 13.51v1.02c0 15.204-12.325 27.529-27.529 27.529h-57.153c-15.485 0-28.039-12.553-28.039-28.039 0-5.109 1.373-9.894 3.76-14.019 4.85 8.378 13.903 14.019 24.279 14.019z" fill="#ffe4c2"/></g><g><path d="m420.824 320.578v71.454c0 15.485-12.553 28.039-28.039 28.039-15.485 0-28.039-12.553-28.039-28.039v-15.376c-30.971 0-56.078-25.107-56.078-56.078 0-30.971 25.107-56.078 56.078-56.078 30.971 0 56.078 25.107 56.078 56.078z" fill="#ffe4c2"/></g><g><path d="m46.132 504.5c103.192 0 186.846-83.654 186.846-186.846v-4.8c0-4.733-3.837-8.57-8.57-8.57h-178.276c-21.336 0-38.632 17.296-38.632 38.632v122.952c0 21.336 17.296 38.632 38.632 38.632z" fill="#ff8870"/></g><g><path d="m47.5 461.868v-118.952c0-21.336 17.296-38.632 38.632-38.632h-40c-21.336 0-38.632 17.296-38.632 38.632v122.952c0 21.336 17.296 38.632 38.632 38.632 13.284 0 26.24-1.396 38.739-4.032-20.751-.666-37.371-17.687-37.371-38.6z" fill="#ff6c52"/></g><g><path d="m465.868 39.784h-178.276c-6.152 0-11.501 3.479-14.201 8.569h-64.415c-6.841-27.726-31.913-48.353-61.722-48.353-15.968 0-30.569 5.931-41.748 15.688h-56.413c-19.314 0-35.028 15.714-35.028 35.029v1.02c0 8.541 3.076 16.373 8.173 22.458-13.005 5.122-22.238 17.799-22.238 32.601v1.02c0 11.16 5.252 21.11 13.407 27.529-8.155 6.419-13.407 16.369-13.407 27.528v1.021c0 14.801 9.233 27.478 22.237 32.599-5.097 6.085-8.173 13.918-8.173 22.458v1.02c0 19.315 15.714 35.029 35.028 35.029h57.154c10.573 0 20.076-4.646 26.592-11.998h2.622c64.667 0 94.337-50.168 95.568-52.304 2.069-3.588.838-8.174-2.751-10.243-3.586-2.069-8.174-.838-10.243 2.751-.25.433-24.822 41.991-77.263 44.66.657-2.697 1.013-5.509 1.013-8.405 0-15.013-9.361-27.871-22.548-33.07 3.993-4.688 6.788-10.42 7.918-16.726 15.785-3.618 27.599-17.767 27.599-34.634v-8.315c31.535-3.724 56.078-30.619 56.078-63.138 0-.075-.005-.149-.006-.225h60.73c.598 43.663 15.661 83.89 40.614 116.099h-57.638c-4.143 0-7.5 3.357-7.5 7.5s3.357 7.5 7.5 7.5h70.51c35.433 37.275 85.462 60.548 140.827 60.548 25.438 0 46.132-20.694 46.132-46.132v-122.952c0-25.437-20.694-46.132-46.132-46.132zm-436.804 10.934c0-11.044 8.984-20.029 20.028-20.029h43.77c-5.828 9.602-9.187 20.861-9.187 32.89v8.188h-34.582c-11.044 0-20.028-8.985-20.028-20.029v-1.02zm-14.064 57.097v-1.02c0-11.044 8.985-20.029 20.029-20.029h48.646v41.078h-48.646c-11.044.001-20.029-8.985-20.029-20.029zm0 56.079v-1.021c0-11.044 8.985-20.028 20.029-20.028h49.522c3.026 13.431 13.671 24.003 27.143 26.917-2.691 8.209-10.415 14.16-19.512 14.16h-57.153c-11.044 0-20.029-8.984-20.029-20.028zm111.785 55.567c0 11.325-9.213 20.539-20.538 20.539h-57.154c-11.044 0-20.028-8.985-20.028-20.029v-1.02c0-11.044 8.984-20.029 20.028-20.029h57.154c11.325 0 20.538 9.214 20.538 20.539zm20.469-107.306c-4.143 0-7.5 3.357-7.5 7.5v15.376c0 11.325-9.214 20.539-20.539 20.539s-20.539-9.214-20.539-20.539v-71.453c0-26.786 21.792-48.578 48.578-48.578s48.578 21.792 48.578 48.578c0 26.785-21.792 48.577-48.578 48.577zm349.746 96.713c0 17.166-13.966 31.132-31.132 31.132-98.892 0-179.346-80.454-179.346-179.346v-4.801c0-.59.479-1.069 1.069-1.069h178.276c17.167 0 31.133 13.966 31.133 31.132z"/><path d="m489.763 331.196c5.097-6.085 8.173-13.918 8.173-22.458v-1.02c0-19.315-15.714-35.029-35.028-35.029h-56.414c-11.179-9.758-25.78-15.689-41.748-15.689-29.809 0-54.881 20.627-61.722 48.354h-64.415c-2.7-5.09-8.049-8.569-14.201-8.569h-178.276c-25.438-.001-46.132 20.694-46.132 46.131v122.952c0 25.438 20.694 46.132 46.132 46.132 54.051 0 104.776-22.608 140.906-60.548h96.347c8.312 12.066 38.008 48.55 93.154 48.55h2.622c6.516 7.352 16.019 11.998 26.592 11.998h57.154c19.314 0 35.028-15.714 35.028-35.029v-1.02c0-8.541-3.076-16.373-8.173-22.458 13.005-5.121 22.238-17.798 22.238-32.599v-1.021c0-11.159-5.252-21.109-13.407-27.528 8.155-6.419 13.407-16.369 13.407-27.529v-1.02c0-14.802-9.233-27.479-22.237-32.6zm-6.827-23.478v1.02c0 11.044-8.984 20.029-20.028 20.029h-34.583v-8.188c0-12.029-3.359-23.288-9.187-32.89h43.77c11.043-.001 20.028 8.985 20.028 20.029zm-118.19-35.718c26.786 0 48.578 21.792 48.578 48.578v71.453c0 11.325-9.214 20.539-20.539 20.539s-20.539-9.214-20.539-20.539v-15.376c0-4.143-3.357-7.5-7.5-7.5-26.786 0-48.578-21.792-48.578-48.577 0-26.786 21.792-48.578 48.578-48.578zm-50.415 190.82c-13.595-11.149-20.31-22.518-20.366-22.614-1.339-2.323-3.816-3.754-6.497-3.754h-87.531c9.094-11.739 16.921-24.619 23.221-38.484 1.714-3.771.046-8.217-3.726-9.931-3.771-1.713-8.219-.045-9.931 3.726-29.049 63.928-93.175 105.237-163.369 105.237-17.166 0-31.132-13.966-31.132-31.132v-122.952c0-17.166 13.966-31.132 31.132-31.132h178.276c.59 0 1.069.479 1.069 1.069v4.801c0 15.951-2.093 31.767-6.222 47.007-1.083 3.998 1.28 8.117 5.278 9.2 3.994 1.082 8.117-1.279 9.2-5.278 4.241-15.657 6.475-31.87 6.699-48.229h60.74c0 .075-.006.149-.006.225 0 32.519 24.543 59.414 56.078 63.138v8.315c0 16.867 11.814 31.016 27.599 34.634 1.13 6.306 3.925 12.038 7.918 16.726-13.187 5.199-22.548 18.057-22.548 33.07 0 2.892.355 5.701 1.01 8.395-21.199-1.056-40.319-8.445-56.892-22.037zm168.605 14.151c0 11.044-8.984 20.029-20.028 20.029h-57.154c-11.325 0-20.538-9.214-20.538-20.539s9.213-20.539 20.538-20.539h57.154c11.044 0 20.028 8.985 20.028 20.029zm14.064-57.098v1.021c0 11.044-8.985 20.028-20.029 20.028h-57.153c-9.098 0-16.821-5.95-19.512-14.16 13.472-2.915 24.117-13.487 27.143-26.917h49.522c11.044 0 20.029 8.984 20.029 20.028zm-68.676-35.028v-41.078h48.646c11.044 0 20.029 8.985 20.029 20.029v1.02c0 11.044-8.985 20.029-20.029 20.029z"/></g></g></svg>