<svg id="Capa_1" enable-background="new 0 0 512 512" height="512" viewBox="0 0 512 512" width="512" xmlns="http://www.w3.org/2000/svg"><g><g><path d="m176.001 27.042h160v86.983h-160z" fill="#b5efff"/></g><g><path d="m176.001 27.042h60v86.983h-60z" fill="#96e8ff"/></g><g><path d="m176.001 94.025c-59.265 22.91-100 70.469-100 125.436 0 103.364 75.178 174.241 84.257 266.892 1.007 10.278 9.583 18.147 19.91 18.147h151.665c10.327 0 18.903-7.869 19.91-18.147 9.079-92.651 84.258-163.528 84.258-266.892 0-54.967-40.735-102.526-100-125.436z" fill="#cff9ff"/></g><g><path d="m235.639 94.025h-59.638c-59.265 22.91-100 70.469-100 125.436 0 103.364 75.178 174.241 84.257 266.892 1.007 10.278 9.583 18.147 19.91 18.147h40.657s-54.377-174.011-54.377-265.16 69.191-145.315 69.191-145.315z" fill="#b5efff"/></g><g><g><g><ellipse cx="176.444" cy="177.576" fill="#ff9b87" rx="29.355" ry="23.377"/></g><g><ellipse cx="335.558" cy="177.576" fill="#ff9b87" rx="29.355" ry="23.377"/></g></g><g><path d="m193.552 162.572c-4.143 0-7.5-3.357-7.5-7.5v-12c0-4.143 3.357-7.5 7.5-7.5s7.5 3.357 7.5 7.5v12c0 4.143-3.358 7.5-7.5 7.5z"/></g><g><path d="m318.449 162.572c-4.143 0-7.5-3.357-7.5-7.5v-12c0-4.143 3.357-7.5 7.5-7.5s7.5 3.357 7.5 7.5v12c0 4.143-3.357 7.5-7.5 7.5z"/></g><g><path d="m256.001 169.716c-8.478 0-16.54-3.672-22.118-10.074-2.722-3.122-2.396-7.86.728-10.581 3.122-2.721 7.86-2.396 10.581.728 2.729 3.132 6.669 4.928 10.81 4.928s8.08-1.796 10.81-4.928c2.721-3.124 7.458-3.448 10.581-.728s3.449 7.459.728 10.581c-5.58 6.402-13.642 10.074-22.12 10.074z"/></g></g><g><path d="m187.675 232.414c-7.81-7.81-20.474-7.811-28.284 0s-7.81 20.474 0 28.284c-7.811 7.81-7.81 20.474 0 28.284s20.474 7.81 28.284 0c7.81 7.81 20.474 7.81 28.284 0 7.811-7.811 7.81-20.474 0-28.284 7.811-7.811 7.81-20.474 0-28.284s-20.473-7.81-28.284 0z" fill="#fff"/></g><g><path d="m256.001 326.519c7.81-7.81 20.474-7.81 28.284 0 7.81 7.811 7.81 20.474 0 28.284 7.81 7.811 7.81 20.474 0 28.284s-20.474 7.811-28.284 0c-7.81 7.81-20.474 7.811-28.284 0-7.811-7.81-7.81-20.474 0-28.284-7.811-7.81-7.81-20.474 0-28.284s20.473-7.811 28.284 0z" fill="#fff"/></g><g><path d="m324.327 232.414c7.81-7.81 20.474-7.811 28.284 0s7.81 20.474 0 28.284c7.81 7.81 7.81 20.474 0 28.284s-20.474 7.81-28.284 0c-7.81 7.81-20.474 7.81-28.284 0-7.811-7.811-7.81-20.474 0-28.284-7.811-7.811-7.81-20.474 0-28.284s20.473-7.81 28.284 0z" fill="#fff"/></g><g><path d="m376.001 27.5c0-11.046-8.954-20-20-20h-200c-11.046 0-20 8.954-20 20s8.954 20 20 20h200c11.046 0 20-8.954 20-20z" fill="#cff9ff"/></g><g><path d="m216.001 27.5c0-11.046 8.954-20 20-20h-80c-11.046 0-20 8.954-20 20s8.954 20 20 20h80c-11.046 0-20-8.954-20-20z" fill="#b5efff"/></g><g><g><path d="m192.979 266.002c2.929-2.929 2.929-7.678 0-10.607s-7.678-2.929-10.607 0-2.929 7.678 0 10.607 7.678 2.929 10.607 0z"/><path d="m329.63 266.002c2.929-2.929 2.929-7.678 0-10.607s-7.678-2.929-10.607 0-2.929 7.678 0 10.607 7.678 2.929 10.607 0z"/><path d="m414.044 139.988c-17.535-21.554-41.854-39.116-70.543-51.023v-33.965h12.5c15.163 0 27.5-12.337 27.5-27.5s-12.337-27.5-27.5-27.5h-200c-15.163 0-27.5 12.337-27.5 27.5s12.337 27.5 27.5 27.5h12.5v33.96c-26.499 11.004-49.443 26.959-66.582 46.359-2.742 3.104-2.449 7.844.655 10.587 3.104 2.74 7.843 2.448 10.587-.655 16.309-18.461 38.504-33.561 64.253-43.725h157.175c57.97 22.862 93.912 67.947 93.912 117.936 0 54.373-21.901 100.425-43.082 144.96-2.642 5.556-5.374 11.301-8.015 16.96-1.751 3.753-.128 8.216 3.626 9.968 1.025.479 2.104.705 3.166.705 2.823 0 5.528-1.603 6.802-4.331 2.616-5.608 5.337-11.328 7.968-16.859 21.895-46.038 44.535-93.644 44.535-151.402 0-28.305-10.187-55.785-29.457-79.475zm-270.543-112.488c0-6.893 5.607-12.5 12.5-12.5h200c6.893 0 12.5 5.607 12.5 12.5s-5.607 12.5-12.5 12.5h-200c-6.893 0-12.5-5.607-12.5-12.5zm185 27.5v31.525h-145v-31.525z"/><path d="m374.884 405.057c-3.828-1.589-8.214.228-9.801 4.055-7.657 18.466-13.114 35.12-16.652 50.928-13.294-1.742-25.194-5.201-35.664-10.341 21.571-27.006 31.85-62.643 29.784-103.732-.889-17.698-3.862-33.052-6.522-43.745.807.071 1.619.119 2.439.119 7.346 0 14.252-2.86 19.445-8.054 9.094-9.095 10.475-23.024 4.143-33.588 6.332-10.563 4.951-24.493-4.143-33.587-5.193-5.194-12.1-8.055-19.445-8.055-5.064 0-9.921 1.359-14.15 3.906-10.562-6.328-24.49-4.942-33.58 4.147-9.094 9.095-10.475 23.024-4.143 33.588-6.332 10.563-4.951 24.493 4.143 33.588 7.907 7.905 19.471 9.975 29.299 6.22 6.678 24.195 20.361 92.483-20.278 141.413-8.54-6.15-15.832-13.739-21.829-22.76-5.485-8.251-8.945-16.401-11.102-22.935 1.101.133 2.208.208 3.315.208 7.041 0 14.084-2.681 19.444-8.041 5.194-5.193 8.055-12.1 8.055-19.445 0-5.064-1.359-9.921-3.906-14.15 6.326-10.562 4.943-24.488-4.147-33.58-9.095-9.093-23.025-10.477-33.588-4.143-10.564-6.334-24.494-4.95-33.588 4.143-9.094 9.095-10.475 23.024-4.143 33.588-6.332 10.563-4.951 24.493 4.143 33.588 7.659 7.657 18.742 9.824 28.362 6.542 2.18 8.155 6.368 19.867 14.254 31.911 6.637 10.136 16.634 21.491 31.385 30.77.485.39 1.005.709 1.549.96 12.386 7.497 28.023 13.508 47.687 16.215-.555 3.636-1.02 7.246-1.371 10.833-.636 6.487-5.986 11.379-12.446 11.379h-125.687c3.004-9.118 6.597-23.577 7.298-41.953 3.845-3.433 12.921-10.626 23.835-13.07 4.042-.904 6.585-4.915 5.68-8.957-.904-4.042-4.914-6.586-8.957-5.68-8.133 1.821-15.286 5.468-20.874 9.107-1.078-15.049-4.266-31.923-10.907-50.079-1.423-3.89-5.73-5.888-9.62-4.468-3.891 1.423-5.891 5.73-4.468 9.62 18.95 51.81 6.885 92.702 2.055 105.479h-10.018c-6.459 0-11.81-4.892-12.445-11.379-4.171-42.565-22.054-81.046-39.725-118.223 13.66-4.002 24.495-10.001 33.063-16.762.111-.085.225-.166.332-.258 10.484-8.353 17.542-17.832 22.219-26.115 4.943-8.754 7.795-17.082 9.429-23.387 9.586 3.213 20.601 1.03 28.222-6.589 9.094-9.095 10.475-23.024 4.143-33.588 6.332-10.563 4.951-24.493-4.143-33.588-9.091-9.09-23.019-10.475-33.58-4.147-4.229-2.547-9.086-3.906-14.15-3.906-7.346 0-14.252 2.86-19.445 8.054-9.094 9.095-10.475 23.024-4.143 33.588-6.332 10.563-4.951 24.493 4.143 33.587 5.193 5.194 12.1 8.055 19.445 8.055 1.218 0 2.424-.083 3.612-.238-3.015 9.301-8.921 21.786-20.387 32.556-4.406-4.778-10.993-13.915-13.574-27.801-.759-4.073-4.673-6.764-8.745-6.003-4.072.758-6.76 4.673-6.003 8.745 3.031 16.302 10.606 27.593 16.391 34.172-6.519 4.025-14.229 7.452-23.351 9.881-19.451-41.222-37.975-84.187-37.975-134.191 0-17.692 4.481-34.873 13.321-51.064 1.984-3.636.646-8.192-2.989-10.177s-8.191-.646-10.177 2.989c-10.057 18.421-15.155 38.02-15.155 58.252 0 55.344 20.788 101.366 41.788 145.621.123.314.269.615.429.905.773 1.629 1.547 3.256 2.32 4.881 18.374 38.635 35.729 75.127 39.757 116.217 1.389 14.2 13.157 24.912 27.371 24.912h14.968c.011 0 .023.002.034.002.01 0 .019-.002.028-.002h136.635c14.215 0 25.983-10.712 27.374-24.916 2.158-22.018 8.428-44.969 19.731-72.227 1.587-3.826-.228-8.214-4.054-9.8zm-55.861-121.378c-4.874 4.873-12.804 4.875-17.677 0-4.874-4.873-4.874-12.804 0-17.677 2.929-2.93 2.929-7.678 0-10.607-4.874-4.873-4.874-12.804 0-17.677 4.874-4.876 12.805-4.874 17.677 0 2.93 2.928 7.678 2.928 10.607 0 2.36-2.361 5.5-3.661 8.839-3.661s6.478 1.3 8.838 3.661c4.874 4.873 4.874 12.804 0 17.677-2.929 2.93-2.929 7.678 0 10.607 4.874 4.873 4.874 12.804 0 17.678-2.36 2.36-5.499 3.66-8.838 3.66s-6.479-1.3-8.839-3.661c0 0-4.75-5.857-10.607 0zm-68.328 94.104c-4.871 4.873-12.801 4.875-17.674 0-4.874-4.873-4.874-12.804 0-17.677 2.929-2.93 2.929-7.678 0-10.607-4.874-4.873-4.874-12.804 0-17.677 4.873-4.876 12.804-4.874 17.677 0 2.93 2.928 7.678 2.928 10.607 0 4.871-4.875 12.802-4.877 17.677 0 4.874 4.873 4.874 12.804 0 17.677-2.929 2.93-2.929 7.678 0 10.607 2.361 2.36 3.661 5.5 3.661 8.839s-1.3 6.478-3.661 8.838c-4.874 4.876-12.805 4.874-17.677 0 0 0-4.833-5.777-10.61 0zm-86-94.104c-4.874-4.873-4.874-12.804 0-17.677 2.929-2.93 2.929-7.678 0-10.607-4.874-4.873-4.874-12.804 0-17.678 2.36-2.36 5.499-3.66 8.838-3.66s6.479 1.3 8.839 3.661c2.93 2.928 7.678 2.928 10.607 0 4.872-4.875 12.803-4.876 17.677 0 4.874 4.873 4.874 12.804 0 17.677-2.929 2.93-2.929 7.678 0 10.607 4.874 4.873 4.874 12.804 0 17.677-4.874 4.876-12.805 4.874-17.677 0-2.93-2.928-7.678-2.928-10.607 0-2.36 2.361-5.5 3.661-8.839 3.661s-6.477-1.3-8.838-3.661z"/><path d="m261.304 360.106c2.929-2.929 2.929-7.678 0-10.607s-7.678-2.929-10.606 0c-2.929 2.929-2.929 7.678 0 10.607s7.677 2.929 10.606 0z"/></g></g></g></svg>