<svg id="Capa_1" enable-background="new 0 0 512 512" height="512" viewBox="0 0 512 512" width="512" xmlns="http://www.w3.org/2000/svg"><g><g><path d="m504.5 155.902c0-48.784-39.547-88.331-88.331-88.331-48.784 0-88.331 39.547-88.331 88.331 0 48.784 39.547 88.331 88.331 88.331 48.784 0 88.331-39.547 88.331-88.331z" fill="#848484"/></g><g><path d="m7.5 155.902c0-48.784 39.547-88.331 88.331-88.331 48.784 0 88.331 39.547 88.331 88.331 0 48.784-39.547 88.331-88.331 88.331-48.784 0-88.331-39.547-88.331-88.331z" fill="#848484"/></g><g><path d="m95.831 244.233c48.784 0 88.331-39.547 88.331-88.33 0-48.783-39.547-88.33-88.33-88.33 11.057 0 20.021 8.964 20.021 20.021s-8.964 20.021-20.021 20.021l-48.289 48.288c0 11.057-8.964 20.021-20.021 20.021s-20.021-8.964-20.021-20.021v.001c-.001 48.782 39.546 88.329 88.33 88.329z" fill="#6e6e6e"/></g><g><path d="m416.17 244.233c-48.784 0-88.331-39.547-88.331-88.33 0-48.783 39.547-88.33 88.33-88.33-11.057 0-20.021 8.964-20.021 20.021s8.964 20.021 20.021 20.021l48.289 48.288c0 11.057 8.964 20.021 20.021 20.021s20.021-8.964 20.021-20.021v.001c0 48.782-39.547 88.329-88.33 88.329z" fill="#6e6e6e"/></g><g><path d="m96.1 204.19c-26.914.148-48.557-22.238-48.557-49.153v-.001c0-26.191 21.232-47.423 47.423-47.423 26.915 0 49.301 21.644 49.153 48.559-.146 26.414-21.607 47.873-48.019 48.018z" fill="#ffc6c2"/></g><g><path d="m415.9 204.19c26.914.148 48.557-22.238 48.557-49.153v-.001c0-26.191-21.232-47.423-47.423-47.423-26.915 0-49.301 21.644-49.153 48.559.147 26.414 21.607 47.873 48.019 48.018z" fill="#ffc6c2"/></g><g><path d="m458.535 178.537c-9.294-14.496-20.212-28.098-32.68-40.566-9.418-9.418-19.489-17.944-30.097-25.564-16.468 7.828-27.984 24.438-27.877 43.766.146 26.413 21.606 47.872 48.018 48.017 18.446.101 34.412-10.383 42.636-25.653z" fill="#ffa8ad"/></g><g><path d="m53.465 178.537c8.224 15.27 24.19 25.754 42.635 25.653 26.412-.145 47.873-21.604 48.018-48.017.107-19.328-11.409-35.938-27.877-43.766-10.608 7.62-20.679 16.146-30.097 25.564-12.467 12.467-23.385 26.07-32.679 40.566z" fill="#ffa8ad"/></g><g><path d="m256 107.614c-110.574 0-200.212 89.638-200.212 200.212 0 85.207 100.106 133.672 200.212 136.603 100.106-2.931 200.212-51.396 200.212-136.603 0-110.574-89.638-200.212-200.212-200.212z" fill="#f7f7f7"/></g><g><ellipse cx="346.634" cy="220.149" fill="#6e6e6e" rx="42.575" ry="52.984" transform="matrix(.887 -.462 .462 .887 -62.479 184.827)"/></g><g><path d="m177.982 123.386c-71.813 30.414-122.194 101.543-122.194 184.44 0 85.207 100.106 133.672 200.212 136.603 33.108-.969 66.213-6.924 95.699-17.536-209.13-.001-258.614-260.672-173.717-303.507z" fill="#f0f0f0"/></g><g><ellipse cx="165.366" cy="220.149" fill="#6e6e6e" rx="52.984" ry="42.575" transform="matrix(.462 -.887 .887 .462 -106.255 265.247)"/></g><g><path d="m330.864 359.396c0-41.346-33.518-94.048-74.864-94.048s-74.864 52.702-74.864 94.048 33.518 55.679 74.864 55.679 74.864-14.333 74.864-55.679z" fill="#f0f0f0"/></g><g><path d="m220.699 359.396c0-34.498 23.336-76.894 55.083-89.994-6.302-2.601-12.933-4.054-19.781-4.054-41.346 0-74.864 52.702-74.864 94.048s33.518 55.679 74.864 55.679c6.85 0 13.478-.404 19.781-1.248-31.744-4.252-55.083-19.935-55.083-54.431z" fill="#e4e4e4"/></g><g><path d="m296 274.426c0 22.091-17.909 40-40 40s-40-17.909-40-40 80-22.092 80 0z" fill="#6e6e6e"/></g><g><path d="m256 274.426c0-6.244.369-11.738 1.051-16.56-20.344-.197-41.051 5.32-41.051 16.56 0 22.091 17.909 40 40 40 7.288 0 14.115-1.959 20-5.365-11.953-6.917-20-19.832-20-34.635z" fill="#595959"/></g><g><path d="m174.188 203.332h-.006c-4.14 0-7.497 3.354-7.5 7.494l-.01 13.092c-.003 4.143 3.352 7.503 7.494 7.506h.006c4.14 0 7.497-3.354 7.5-7.494l.01-13.092c.004-4.143-3.351-7.503-7.494-7.506z"/><path d="m337.833 203.469h-.006c-4.14 0-7.497 3.354-7.5 7.494l-.01 13.091c-.003 4.143 3.352 7.503 7.494 7.506h.006c4.14 0 7.497-3.354 7.5-7.494l.01-13.091c.004-4.143-3.351-7.503-7.494-7.506z"/><path d="m512 155.902c0-52.842-42.989-95.831-95.831-95.831-37.005 0-70.06 20.844-86.086 53.672-23.424-8.938-48.482-13.629-74.083-13.629-26.082 0-51.05 4.846-74.069 13.662-16.021-32.846-49.09-53.705-86.1-53.705-52.842 0-95.831 42.99-95.831 95.831 0 38.66 23.159 73.256 58.303 88.194-6.492 20.092-10.015 41.505-10.015 63.729 0 90.613 104.382 141.08 207.492 144.1.073.002.146.003.22.003s.146-.001.22-.003c103.11-3.02 207.492-53.486 207.492-144.1 0-21.736-3.454-43.245-10.051-63.715 35.164-14.928 58.339-49.532 58.339-88.208zm-497 0c0-44.57 36.26-80.831 80.831-80.831 30.95 0 58.628 17.295 72.271 44.587-7.633 3.58-15.012 7.609-22.107 12.057-9.334-18.99-29.128-31.601-51.029-31.601-30.284 0-54.922 24.639-54.922 54.923 0 22.88 13.951 43.522 34.257 52.245-4.06 7.309-7.691 14.886-10.861 22.698-29.231-12.766-48.44-41.737-48.44-74.078zm67.165 38.368c-15.964-5.852-27.122-21.634-27.122-39.233 0-22.013 17.909-39.922 39.923-39.922 16.88 0 32.047 10.125 38.454 25.138-20.144 14.774-37.536 33.086-51.255 54.017zm307.546 206.326c-35.044 21.596-83.769 34.833-133.711 36.33-49.942-1.497-98.667-14.734-133.711-36.33-26.916-16.587-59.001-46.146-59.001-92.77 0-106.262 86.45-192.712 192.712-192.712 48.193 0 94.32 17.879 129.883 50.344 3.06 2.794 7.803 2.576 10.596-.482 2.793-3.06 2.577-7.803-.482-10.596-5.561-5.077-11.369-9.812-17.382-14.216 6.427-14.968 21.563-25.05 38.42-25.05 22.013 0 39.922 17.909 39.922 39.923 0 17.576-11.125 33.335-27.052 39.208-3.874-5.938-8.054-11.691-12.544-17.224-2.61-3.216-7.334-3.707-10.549-1.097-3.216 2.61-3.708 7.333-1.097 10.55 27.728 34.164 42.998 77.261 42.998 121.352-.001 46.624-32.086 76.183-59.002 92.77zm58.839-170.61c-3.14-7.778-6.756-15.365-10.818-22.719 20.289-8.73 34.225-29.36 34.225-52.231 0-30.284-24.638-54.922-54.922-54.922-21.884 0-41.643 12.576-50.991 31.525-7.139-4.466-14.523-8.485-22.117-12.035 13.652-27.262 41.309-44.533 72.242-44.533 44.57 0 80.831 36.261 80.831 80.831 0 32.347-19.214 61.32-48.45 74.084z"/><path d="m391.057 197.039c-15.392-29.587-47.843-43.292-72.337-30.547-24.495 12.744-31.901 47.182-16.509 76.768 7.317 14.065 18.678 25.034 31.988 30.886 6.81 2.994 13.727 4.489 20.443 4.488 6.969 0 13.722-1.61 19.907-4.828 12.145-6.318 20.469-17.982 23.438-32.845 2.849-14.259.388-29.857-6.93-43.922zm-7.779 40.983c-2.061 10.315-7.62 18.298-15.652 22.477-8.033 4.179-17.76 4.148-27.39-.085-10.194-4.481-18.972-13.032-24.718-24.076-11.575-22.249-7.033-47.612 10.125-56.539 4.08-2.122 8.509-3.127 13.049-3.127 14.555 0 30.236 10.331 39.059 27.289v.001c5.746 11.044 7.708 23.141 5.527 34.06z"/><path d="m209.789 243.26c15.392-29.586 7.986-64.023-16.509-76.768-24.498-12.747-56.945.96-72.337 30.546-7.317 14.065-9.779 29.664-6.93 43.923 2.969 14.862 11.293 26.526 23.438 32.845 6.185 3.218 12.937 4.828 19.907 4.828 6.716 0 13.634-1.495 20.443-4.488 13.31-5.852 24.671-16.821 31.988-30.886zm-65.415 17.239c-8.032-4.179-13.591-12.161-15.652-22.477-2.182-10.92-.219-23.017 5.527-34.061 0 0 0 0 0-.001 8.823-16.959 24.502-27.289 39.059-27.289 4.54 0 8.97 1.005 13.049 3.127 17.158 8.927 21.7 34.29 10.125 56.539-5.746 11.044-14.524 19.595-24.718 24.076-9.63 4.233-19.357 4.265-27.39.086z"/><path d="m303.274 279.013c.145-1.51.226-3.039.226-4.587 0-17.765-25.588-24.068-47.5-24.068s-47.5 6.304-47.5 24.068c0 1.548.08 3.077.226 4.587-21.085 20.326-35.089 52.217-35.089 80.384 0 36.107 23.635 58.285 66.552 62.447.247.024.491.036.733.036 3.816 0 7.08-2.9 7.456-6.777.4-4.122-2.618-7.789-6.741-8.188-35.168-3.411-53-19.398-53-47.518 0-21.398 9.938-46.193 24.931-63.662 6.747 13.38 19.628 23.155 34.932 25.593v25.58c-2.665-1.031-5.116-2.599-7.197-4.68-2.929-2.928-7.678-2.928-10.606 0-2.929 2.93-2.929 7.678 0 10.607 6.976 6.976 16.14 10.464 25.303 10.464s18.327-3.488 25.303-10.464c2.929-2.93 2.929-7.678 0-10.607-2.929-2.928-7.678-2.928-10.606 0-2.081 2.081-4.532 3.649-7.197 4.68v-25.58c15.304-2.438 28.185-12.213 34.932-25.593 14.993 17.469 24.931 42.263 24.931 63.662 0 28.143-17.859 44.132-53.082 47.525-4.123.397-7.144 4.062-6.746 8.186.374 3.878 3.638 6.781 7.457 6.781.24 0 .484-.012.728-.035 42.976-4.141 66.644-26.322 66.644-62.457 0-28.168-14.005-60.058-35.09-80.384zm-47.274 27.913c-17.92 0-32.5-14.579-32.5-32.5 0-3.078 11.471-9.068 32.5-9.068 9.478 0 18.557 1.342 24.909 3.681 5.216 1.92 7.591 4.139 7.591 5.388 0 17.92-14.58 32.499-32.5 32.499z"/></g></g></svg>