<svg id="Capa_1" enable-background="new 0 0 512 512" height="512" viewBox="0 0 512 512" width="512" xmlns="http://www.w3.org/2000/svg"><g><g><path d="m459.118 275.162 23.813-18.689c11.071-8.689 9.93-25.762-2.17-32.95-36.041-21.412-112.467-56.693-224.761-56.693s-188.72 35.281-224.762 56.692c-12.1 7.188-13.241 24.262-2.17 32.95l23.813 18.689c14.42 11.317 16.649 32.306 4.928 46.4l-10.069 12.108c-9.297 11.179-3.937 28.229 10.085 32.076l9.554 2.621c21.324 5.851 30.726 30.811 18.561 49.276-6.953 10.554-2.506 24.834 9.22 29.553 29.424 11.841 86.538 29.932 160.841 29.932s131.417-18.091 160.841-29.932c11.725-4.719 16.173-18.998 9.22-29.553-12.165-18.465-2.763-43.426 18.561-49.276l9.554-2.621c14.022-3.847 19.382-20.897 10.085-32.076l-10.069-12.107c-11.724-14.093-9.495-35.083 4.925-46.4z" fill="#fdffbf"/></g><g><path d="m411.881 286.05 18.275-14.343c8.496-6.668 7.621-19.771-1.665-25.287-27.66-16.432-86.312-43.508-172.491-43.508s-144.831 27.076-172.491 43.508c-9.286 5.516-10.162 18.619-1.665 25.287l18.275 14.343c11.066 8.685 12.777 24.793 3.782 35.609l-7.728 9.291c-7.135 8.579-3.021 21.664 7.739 24.616l7.332 2.012c16.365 4.49 23.58 23.646 14.244 37.817-5.336 8.1-1.923 19.059 7.075 22.68 22.581 9.087 66.413 22.971 123.436 22.971s100.854-13.884 123.436-22.971c8.998-3.621 12.412-14.58 7.075-22.68-9.336-14.171-2.121-33.326 14.244-37.817l7.332-2.012c10.761-2.953 14.875-16.037 7.739-24.616l-7.728-9.291c-8.993-10.816-7.283-26.924 3.784-35.609z" fill="#ffff9c"/></g><g><path d="m256 144.5c-73.22 0-132.576 59.356-132.576 132.576 0 56.422 43.576 170.078 132.576 170.078s132.576-113.656 132.576-170.078c0-73.22-59.356-132.576-132.576-132.576z" fill="#92ef8e"/></g><g><path d="m178.551 277.076c0-63.767 45.023-117.012 105.013-129.699-8.893-1.881-18.111-2.877-27.564-2.877-73.22 0-132.576 59.356-132.576 132.576 0 56.422 43.576 170.078 132.576 170.078 9.73 0 18.917-1.359 27.564-3.852-70.444-20.315-105.013-115.972-105.013-166.226z" fill="#66df6b"/></g><g><path d="m226 383.375v-123.83c0-16.569 13.431-30 30-30 16.569 0 30 13.431 30 30v123.829h-60z" fill="#00d27f"/></g><g><circle cx="256" cy="454.5" fill="#00d27f" r="50"/></g><g><path d="m236.521 454.5c0-22.291 14.59-41.167 34.74-47.619-4.812-1.541-9.937-2.381-15.26-2.381-27.614 0-50 22.386-50 50s22.386 50 50 50c5.323 0 10.449-.84 15.26-2.381-20.15-6.452-34.74-25.328-34.74-47.619z" fill="#00c67c"/></g><g><path d="m294.476 331.996c-6.839 0-13.275 2.575-18.903 7.114-11.433 9.221-27.715 9.221-39.148 0-5.628-4.539-12.064-7.114-18.903-7.114-22.091 0-40 26.863-40 60s17.909 60 40 60c6.839 0 13.275-2.575 18.903-7.114 11.433-9.221 27.715-9.221 39.148 0 5.628 4.539 12.064 7.114 18.903 7.114 22.091 0 40-26.863 40-60s-17.908-60-40-60z" fill="#66df6b"/></g><g><path d="m217.523 391.996c0-22.252 8.082-41.661 20.077-52.02-.392-.287-.793-.558-1.175-.866-5.628-4.539-12.064-7.114-18.903-7.114-22.091 0-40 26.863-40 60s17.909 60 40 60c6.839 0 13.275-2.575 18.903-7.114.382-.308.782-.579 1.175-.866-11.994-10.359-20.077-29.767-20.077-52.02z" fill="#00d27f"/></g><g><g><path d="m215.625 74.936c0-16.569-13.431-30-30-30-16.569 0-30 13.431-30 30 0 15.198-18.375 22.809-29.122 12.063-13.128-13.128-20.503-30.934-20.503-49.499 0-16.569-13.431-30-30-30-16.568 0-30 13.431-30 30v.001c0 34.724 13.522 67.37 38.076 91.924l56.904 56.904c5.452 5.452 15.015 16.516 22.065 24.824 5.67 6.681 13.985 10.532 22.747 10.532 16.476 0 29.832-13.356 29.832-29.832v-116.917z" fill="#ffee6e"/></g></g><g><path d="m185.625 44.936c-16.569 0-30 13.432-30 30 0 41.766-34.917 65.671-60.367 65.671l45.722 45.722c5.452 5.452 15.015 16.516 22.065 24.824 5.67 6.681 13.985 10.531 22.747 10.531 16.476 0 29.832-13.356 29.832-29.832v-116.916c.001-16.569-13.431-30-29.999-30z" fill="#ffd883"/></g><g><g><path d="m296.375 74.936c0-16.569 13.431-30 30-30 16.569 0 30 13.431 30 30 0 15.198 18.375 22.809 29.122 12.063 13.128-13.128 20.503-30.934 20.503-49.499 0-16.569 13.431-30 30-30 16.568 0 30 13.431 30 30v.001c0 34.724-13.522 67.37-38.076 91.924l-56.904 56.904c-5.452 5.452-15.015 16.516-22.065 24.824-5.67 6.681-13.985 10.532-22.747 10.532-16.476 0-29.832-13.356-29.832-29.832v-116.917z" fill="#ffee6e"/></g></g><g><path d="m326.375 44.936c16.569 0 30 13.432 30 30 0 41.766 34.917 65.671 60.367 65.671l-45.722 45.722c-5.452 5.452-15.015 16.516-22.065 24.824-5.67 6.681-13.985 10.531-22.747 10.531-16.476 0-29.832-13.356-29.832-29.832v-116.916c-.001-16.569 13.43-30 29.999-30z" fill="#ffd883"/></g><g><path d="m192.314 261.298-24.065-6.448c-3.995-1.076-8.113 1.302-9.186 5.303-1.072 4.001 1.302 8.114 5.303 9.186l7.079 1.897c-.252.751-.395 1.552-.395 2.387v10.366c0 4.143 3.358 7.5 7.5 7.5s7.5-3.357 7.5-7.5v-8.84l2.381.638c.65.175 1.303.258 1.946.258 3.311 0 6.342-2.21 7.24-5.561 1.073-4.002-1.301-8.115-5.303-9.186z"/><path d="m343.75 254.85-24.065 6.448c-4.001 1.071-6.375 5.185-5.303 9.186.897 3.351 3.928 5.561 7.239 5.561.643 0 1.296-.083 1.946-.258l2.381-.638v8.84c0 4.143 3.357 7.5 7.5 7.5s7.5-3.357 7.5-7.5v-10.366c0-.836-.142-1.637-.395-2.387l7.079-1.897c4.001-1.071 6.375-5.185 5.303-9.186-1.071-4.001-5.183-6.379-9.185-5.303z"/><path d="m463.749 281.062 23.812-18.689c7.136-5.601 11.046-14.346 10.461-23.394-.588-9.069-5.608-17.258-13.431-21.905-19.576-11.629-51.239-27.497-94.071-39.639l42.707-42.707c25.97-25.971 40.272-60.5 40.272-97.229.001-20.677-16.821-37.499-37.499-37.499s-37.5 16.822-37.5 37.5c0 16.694-6.501 32.39-18.307 44.194-4.188 4.19-9.033 2.646-10.417 2.073-1.385-.574-5.901-2.905-5.901-8.832 0-20.678-16.822-37.5-37.5-37.5s-37.5 16.822-37.5 37.5v65.96c-10.718-2.578-21.735-3.895-32.875-3.895-11.139 0-22.155 1.319-32.875 3.897v-65.961c0-20.678-16.822-37.5-37.5-37.5s-37.5 16.822-37.5 37.5c0 5.927-4.517 8.258-5.901 8.832-1.385.571-6.226 2.118-10.417-2.073-11.806-11.805-18.307-27.501-18.307-44.195 0-20.678-16.822-37.5-37.5-37.5s-37.5 16.823-37.5 37.501c0 30.207 9.559 58.814 27.643 82.73 2.499 3.304 7.201 3.957 10.506 1.459 3.304-2.498 3.957-7.202 1.459-10.506-16.099-21.289-24.608-46.769-24.608-73.684 0-12.406 10.093-22.5 22.5-22.5s22.5 10.094 22.5 22.5c0 20.701 8.062 40.163 22.7 54.801 7.157 7.158 17.413 9.197 26.764 5.324 9.352-3.873 15.161-12.567 15.161-22.689 0-12.406 10.093-22.5 22.5-22.5s22.5 10.094 22.5 22.5v116.917c0 12.313-10.019 22.332-22.333 22.332-6.57 0-12.777-2.874-17.029-7.884-7.147-8.422-16.849-19.644-22.48-25.275l-48.523-48.524c-2.929-2.928-7.678-2.928-10.606 0-2.929 2.93-2.929 7.678 0 10.607l34.326 34.326c-42.838 12.144-74.501 28.013-94.072 39.639-7.822 4.647-12.842 12.836-13.43 21.905-.586 9.048 3.324 17.793 10.46 23.394l23.813 18.688c5.367 4.213 8.719 10.269 9.439 17.052.721 6.783-1.285 13.408-5.647 18.652l-10.069 12.107c-6.004 7.219-7.907 16.875-5.091 25.832s9.903 15.788 18.958 18.272l9.554 2.621c7.821 2.146 13.946 7.729 16.804 15.319 2.859 7.589 1.939 15.826-2.523 22.599-4.293 6.516-5.603 14.436-3.681 21.941-1.67.24-3.345.374-5.023.374-11.801 0-23.429-5.943-34.561-17.665-2.853-3.004-7.6-3.126-10.603-.273s-3.126 7.6-.274 10.604c13.876 14.611 29.588 22.335 45.438 22.335 4.422 0 8.832-.623 13.195-1.807 2.375 2.149 5.133 3.897 8.192 5.129 24.034 9.671 62.952 22.204 113.078 27.707 9.744 17.936 28.755 30.14 50.563 30.14s40.819-12.204 50.563-30.14c50.129-5.504 89.05-18.037 113.078-27.707 3.059-1.231 5.817-2.979 8.192-5.129 4.364 1.184 8.774 1.807 13.196 1.807 15.85 0 31.561-7.724 45.437-22.336 2.853-3.003 2.729-7.75-.274-10.603-3.002-2.853-7.75-2.729-10.603.274-11.131 11.721-22.758 17.664-34.56 17.664-1.678 0-3.353-.134-5.023-.374 1.923-7.505.612-15.425-3.682-21.941-4.462-6.772-5.381-15.01-2.522-22.6 2.859-7.589 8.984-13.172 16.805-15.318l9.554-2.621c9.055-2.484 16.143-9.315 18.958-18.272 2.816-8.957.913-18.613-5.091-25.832l-10.069-12.107c-4.362-5.244-6.368-11.868-5.647-18.651.717-6.784 4.07-12.84 9.437-17.052zm-159.874-206.126c0-12.406 10.094-22.5 22.5-22.5s22.5 10.094 22.5 22.5c0 10.122 5.81 18.816 15.161 22.689 9.351 3.874 19.607 1.834 26.765-5.323 14.637-14.639 22.699-34.101 22.699-54.802 0-12.406 10.094-22.5 22.5-22.5s22.5 10.094 22.5 22.501c0 32.721-12.742 63.483-35.88 86.62l-56.904 56.904c-5.631 5.632-15.332 16.854-22.479 25.274-4.253 5.011-10.46 7.885-17.03 7.885-12.313 0-22.332-10.019-22.332-22.332zm-211.672 346.833c7.135-10.83 8.605-24.002 4.033-36.139-4.571-12.137-14.366-21.065-26.873-24.496l-9.554-2.621c-4.177-1.146-7.318-4.174-8.618-8.306-1.299-4.133-.456-8.412 2.314-11.742l10.069-12.107c6.976-8.387 10.183-18.98 9.031-29.828s-6.513-20.531-15.095-27.268l-23.813-18.689c-3.29-2.582-5.022-6.454-4.752-10.624.271-4.19 2.503-7.827 6.122-9.978 19.998-11.881 53.187-28.386 98.624-40.323l1.984 1.984c1.472 1.472 3.272 3.391 5.245 5.557-16.373 23.504-24.998 50.997-24.998 79.887 0 32.914 13.869 81.434 39.918 118.967-17.32-1.723-34.741 5.73-50.31 22.124-4.993 5.258-10.086 9.343-15.25 12.261-.433-3.006.22-6.075 1.923-8.659zm186.297-93.414c-2.643 1.317-5.201 2.955-7.634 4.918-8.753 7.059-20.979 7.059-29.731 0-2.434-1.963-4.992-3.601-7.635-4.918v-68.81c0-12.406 10.093-22.5 22.5-22.5 12.406 0 22.5 10.094 22.5 22.5zm-46.782 16.593c14.071 11.349 34.495 11.348 48.564 0 4.486-3.618 9.262-5.452 14.194-5.452 17.617 0 32.5 24.042 32.5 52.5s-14.883 52.5-32.5 52.5c-4.933 0-9.708-1.834-14.194-5.452-7.035-5.674-15.658-8.511-24.282-8.511s-17.247 2.837-24.282 8.511c-4.485 3.618-9.261 5.452-14.194 5.452-17.617 0-32.5-24.042-32.5-52.5s14.883-52.5 32.5-52.5c4.932 0 9.708 1.834 14.194 5.452zm-130.753 96.48c5.329-3.418 10.505-7.729 15.445-12.931 12.951-13.639 33.296-26.222 57.342-10.087 2.186 7.4 5.29 14.237 9.248 20.173 4.458 6.687 9.721 11.879 15.511 15.419-.001.166-.01.332-.01.498 0 3.963.403 7.833 1.17 11.573-42.872-5.428-76.63-16.004-98.706-24.645zm155.035 55.572c-21.82 0-39.843-16.531-42.225-37.725 1.24.133 2.488.221 3.748.221 8.328 0 16.492-3.035 23.611-8.776 8.752-7.058 20.979-7.06 29.731 0 7.118 5.741 15.283 8.776 23.61 8.776 1.26 0 2.508-.088 3.748-.221-2.38 21.194-20.404 37.725-42.223 37.725zm56.33-30.927c.767-3.74 1.17-7.61 1.17-11.573 0-.166-.009-.332-.01-.497 5.79-3.541 11.053-8.733 15.511-15.42 3.957-5.936 7.061-12.771 9.247-20.171 24.047-16.134 44.391-3.551 57.343 10.085 4.94 5.202 10.116 9.513 15.445 12.931-22.074 8.64-55.833 19.217-98.706 24.645zm136.094-139.716 10.069 12.107c2.771 3.33 3.613 7.609 2.314 11.741-1.299 4.133-4.439 7.16-8.617 8.307l-9.554 2.621c-12.507 3.431-22.302 12.359-26.873 24.496s-3.102 25.309 4.034 36.139c1.702 2.584 2.356 5.653 1.92 8.659-5.164-2.918-10.257-7.003-15.25-12.261-15.553-16.378-32.957-23.831-50.26-22.128 7.95-11.406 15.068-24.223 21.058-38.033 1.648-3.8-.097-8.217-3.896-9.865-3.801-1.647-8.217.097-9.865 3.896-6.091 14.043-13.393 26.945-21.556 38.188-.301-16.833-4.863-32.689-12.947-44.816-8.991-13.486-21.252-20.913-34.524-20.913-.326 0-.651.013-.977.022v-64.973c0-20.678-16.822-37.5-37.5-37.5s-37.5 16.822-37.5 37.5v64.973c-.325-.009-.651-.022-.977-.022-13.273 0-25.534 7.427-34.524 20.913-8.087 12.131-12.649 27.994-12.947 44.834-25.522-35.124-39.128-81.808-39.128-113.167 0-24.551 6.989-47.96 20.26-68.251 2.14 2.481 4.234 4.932 6.143 7.181 7.107 8.375 17.482 13.179 28.465 13.179 20.585 0 37.333-16.747 37.333-37.332v-35.484c10.667-2.897 21.701-4.368 32.875-4.368 11.177 0 22.21 1.474 32.875 4.371v35.482c0 20.585 16.747 37.332 37.332 37.332 10.982 0 21.358-4.804 28.467-13.179 1.908-2.248 4-4.698 6.139-7.178 13.271 20.292 20.263 43.706 20.263 68.249 0 13.785-2.784 30.859-7.84 48.075-1.167 3.975 1.108 8.143 5.083 9.31.706.207 1.417.306 2.116.306 3.243 0 6.233-2.12 7.193-5.389 5.447-18.551 8.447-37.125 8.447-52.302 0-28.88-8.626-56.38-24.998-79.887 1.973-2.166 3.774-4.085 5.245-5.556l1.986-1.986c45.431 11.936 78.618 28.44 98.622 40.323 3.62 2.15 5.852 5.787 6.123 9.979.27 4.169-1.463 8.042-4.753 10.623l-23.813 18.69c-8.582 6.735-13.942 16.419-15.095 27.268-1.151 10.847 2.056 21.44 9.032 29.826z"/></g></g></svg>