<svg id="Capa_1" enable-background="new 0 0 512.016 512.016" height="512" viewBox="0 0 512.016 512.016" width="512" xmlns="http://www.w3.org/2000/svg"><g><g><path d="m256.01 107.622c-110.574 0-200.212 89.638-200.212 200.212 0 85.207 100.106 133.672 200.212 136.603 100.106-2.931 200.212-51.396 200.212-136.603 0-110.574-89.638-200.212-200.212-200.212z" fill="#ff6c52"/></g><g><circle cx="256.01" cy="47.508" fill="#ffee6e" r="40"/></g><g><path d="m256.01 47.508c0-14.803 8.047-27.718 20-34.635-5.885-3.406-12.712-5.365-20-5.365-22.091 0-40 17.909-40 40s17.909 40 40 40c7.288 0 14.115-1.959 20-5.365-11.952-6.917-20-19.832-20-34.635z" fill="#ffd883"/></g><g><path d="m256.01 47.508c-65.565 0-98.945 45.624-179.969 16.536-16.494-5.921-32.015 10.67-25.117 26.78 18.904 44.15 69.576 106.19 205.086 106.19s186.182-62.04 205.086-106.19c6.898-16.11-8.624-32.701-25.117-26.78-81.024 29.087-114.404-16.536-179.969-16.536z" fill="#ff9b87"/></g><g><path d="m216.01 52.997c-42.849 11.166-77.04 33.638-139.969 11.047-16.494-5.921-32.015 10.67-25.117 26.78 18.904 44.15 69.576 106.19 205.086 106.19 17.306 0 33.219-1.017 47.868-2.874-52.946-14.148-87.868-73.945-87.868-141.143z" fill="#ff8870"/></g><g><path d="m119.947 330.372h272.128v124.135h-272.128z" fill="#848484"/></g><g><path d="m119.947 454.508h136.063v-10c-54.407-24.43-66.921-86.505-69.799-114.135h-66.265v124.135z" fill="#6e6e6e"/></g><g><g><path d="m256.01 504.508c-56.07 0-109.359-19.691-154.106-56.944-33.535-27.918-50.87-56.379-51.592-57.576l51.396-30.959-.066-.11c.135.221 13.858 22.311 40.214 43.823 33.956 27.714 72.362 41.767 114.154 41.767s80.198-14.053 114.154-41.767c26.355-21.513 40.079-43.603 40.214-43.823l-.066.11 51.396 30.959c-.722 1.197-18.057 29.658-51.592 57.576-44.746 37.252-98.035 56.944-154.106 56.944z" fill="#f0f0f0"/></g></g><g><path d="m226.01 474.508c0-16.569 13.431-30 30-30-41.792 0-80.198-14.053-114.154-41.767-26.355-21.513-40.079-43.603-40.214-43.823l.066.11-51.396 30.959c.722 1.197 18.057 29.658 51.592 57.576 44.747 37.253 98.036 56.944 154.106 56.944-16.568.001-30-13.431-30-29.999z" fill="#e4e4e4"/></g><g><circle cx="105.351" cy="206.861" fill="#ffa759" r="80"/></g><g><circle cx="406.67" cy="206.861" fill="#ffa759" r="80"/></g><g><g><path d="m195.972 292.252c-14.8 0-27.679-10.951-29.696-26.022-5.355-39.996-19.93-68.862-43.317-85.796-34.76-25.167-79.506-17.705-79.949-17.624-16.279 3.04-31.953-7.703-34.99-23.991-3.038-16.288 7.704-31.954 23.992-34.991 2.839-.528 70.186-12.501 126.135 28.007 37.232 26.958 59.976 69.496 67.599 126.433 2.199 16.423-9.331 31.518-25.753 33.716-1.352.179-2.695.267-4.021.268z" fill="#f7f7f7"/></g></g><g><path d="m225.745 258.267c-7.623-56.937-30.366-99.475-67.599-126.433-.781-.565-1.564-1.117-2.349-1.662 5.898 5.562 9.586 13.442 9.586 22.189 0 16.845-13.655 30.5-30.5 30.5-4.222 0-8.243-.858-11.899-2.409 23.373 16.936 37.939 45.795 43.293 85.777 2.018 15.071 14.896 26.022 29.696 26.022 1.326-.001 2.669-.089 4.02-.27 16.421-2.197 27.951-17.292 25.752-33.714z" fill="#f0f0f0"/></g><g><g><path d="m316.043 292.252c14.8 0 27.679-10.951 29.696-26.022 5.355-39.996 19.93-68.862 43.317-85.796 34.76-25.167 79.506-17.705 79.949-17.624 16.279 3.04 31.953-7.703 34.99-23.991 3.038-16.288-7.704-31.954-23.992-34.991-2.839-.528-70.186-12.501-126.135 28.007-37.232 26.958-59.976 69.496-67.599 126.433-2.199 16.423 9.331 31.518 25.753 33.716 1.352.179 2.695.267 4.021.268z" fill="#f7f7f7"/></g></g><g><path d="m286.271 258.267c7.623-56.937 30.366-99.475 67.599-126.433.781-.565 1.564-1.117 2.349-1.662-5.898 5.562-9.586 13.442-9.586 22.189 0 16.845 13.655 30.5 30.5 30.5 4.222 0 8.243-.858 11.899-2.409-23.373 16.936-37.939 45.795-43.293 85.777-2.018 15.071-14.896 26.022-29.696 26.022-1.326-.001-2.669-.089-4.02-.27-16.421-2.197-27.951-17.292-25.752-33.714z" fill="#f0f0f0"/></g><g><g><path d="m474.51 406.664c-45.975 0-90.383-12.915-128.425-37.348-22.871-14.69-54.019-22.455-90.075-22.455s-67.204 7.765-90.075 22.455c-38.042 24.433-82.45 37.348-128.425 37.348-16.568 0-30-13.432-30-30s13.432-30 30-30c34.455 0 67.65-9.624 95.999-27.832 33.03-21.214 74.245-31.971 122.501-31.971s89.471 10.757 122.501 31.971c28.349 18.208 61.544 27.832 95.999 27.832 16.568 0 30 13.432 30 30s-13.431 30-30 30z" fill="#f7f7f7"/></g></g><g><path d="m226.01 316.862c0-16.569 13.431-30 30-30-48.256 0-89.471 10.757-122.501 31.971-28.349 18.208-61.544 27.832-95.999 27.832-16.568 0-30 13.432-30 30s13.432 30 30 30c45.975 0 90.383-12.915 128.425-37.348 22.871-14.69 54.019-22.455 90.075-22.455-16.568 0-30-13.432-30-30z" fill="#f0f0f0"/></g><g><circle cx="196.01" cy="262.248" fill="#ffee6e" r="40"/></g><g><path d="m196.01 262.248c0-14.803 8.047-27.718 20-34.635-5.885-3.406-12.712-5.365-20-5.365-22.091 0-40 17.908-40 40 0 22.091 17.909 40 40 40 7.288 0 14.115-1.959 20-5.365-11.952-6.917-20-19.832-20-34.635z" fill="#ffd883"/></g><g><circle cx="316.01" cy="262.248" fill="#ffee6e" r="40"/></g><g><path d="m316.01 262.248c0-14.803 8.047-27.718 20-34.635-5.885-3.406-12.712-5.365-20-5.365-22.091 0-40 17.908-40 40 0 22.091 17.909 40 40 40 7.288 0 14.115-1.959 20-5.365-11.952-6.917-20-19.832-20-34.635z" fill="#ffd883"/></g><g><path d="m406.67 212.479c-11.726 0-21.265 9.539-21.265 21.265 0 4.143 3.357 7.5 7.5 7.5s7.5-3.357 7.5-7.5c0-3.454 2.811-6.265 6.265-6.265s6.265 2.811 6.265 6.265c0 4.143 3.357 7.5 7.5 7.5s7.5-3.357 7.5-7.5c0-11.725-9.54-21.265-21.265-21.265z"/><path d="m474.511 339.164c-5.067 0-10.101-.243-15.099-.674 2.859-9.858 4.31-20.132 4.31-30.656 0-10.918-.858-21.856-2.545-32.576 20.094-16.046 32.993-40.741 32.993-68.396 0-13.138-2.938-25.998-8.541-37.717 3.539-1.104 6.933-2.74 10.079-4.896 8.263-5.665 13.825-14.208 15.661-24.055 1.837-9.847-.271-19.819-5.937-28.081-5.664-8.261-14.207-13.822-24.057-15.658-.749-.14-5.797-1.039-13.859-1.626.154-.352.323-.7.474-1.052 4.395-10.263 2.379-21.676-5.259-29.785-7.608-8.075-18.831-10.759-29.287-7.005-47.528 17.061-77.567 7.19-109.368-3.263-6.729-2.211-13.537-4.443-20.572-6.45-.128-26.083-21.381-47.265-47.494-47.265s-47.366 21.182-47.494 47.265c-7.036 2.007-13.844 4.239-20.573 6.45-31.8 10.452-61.838 20.325-109.367 3.263-10.46-3.757-21.683-1.07-29.288 7.006-7.638 8.109-9.652 19.522-5.259 29.782.152.355.312.709.467 1.063-8.194.597-13.273 1.509-13.86 1.617-9.847 1.836-18.39 7.397-24.054 15.658-5.665 8.262-7.773 18.234-5.937 28.081s7.398 18.39 15.661 24.055c3.148 2.158 6.545 3.796 10.083 4.901-5.602 11.716-8.54 24.569-8.54 37.712 0 27.655 12.899 52.35 32.993 68.396-1.687 10.721-2.545 21.658-2.545 32.576 0 10.525 1.451 20.798 4.309 30.656-4.997.43-10.03.674-15.097.674-20.678 0-37.5 16.822-37.5 37.5s16.822 37.5 37.5 37.5c6.823 0 13.611-.285 20.352-.833 8.475 10.585 21.667 25.365 39.242 39.996 46.112 38.39 101.061 58.681 158.905 58.681s112.793-20.291 158.905-58.681c17.541-14.603 30.719-29.353 39.24-39.996 6.742.548 13.531.833 20.355.833 20.678 0 37.5-16.822 37.5-37.5s-16.82-37.5-37.497-37.5zm-25.789-31.33c0 9.903-1.494 19.531-4.408 28.708-22.049-3.872-43.01-11.985-61.75-24.021-10.175-6.535-21.201-12.155-32.896-16.792 4.259-4.281 7.711-9.366 10.102-15.006 13.946 8.847 30.247 13.638 46.9 13.638 14.654 0 28.475-3.626 40.622-10.021.942 7.773 1.43 15.637 1.43 23.494zm-285.211-45.586c0-17.921 14.579-32.5 32.5-32.5s32.5 14.579 32.5 32.5-14.579 32.5-32.5 32.5-32.5-14.579-32.5-32.5zm63.778-35.702c-2.093-8.217-4.558-16.084-7.392-23.596 11.579 1.036 23.674 1.564 36.113 1.564 12.438 0 24.531-.529 36.109-1.565-2.835 7.513-5.3 15.383-7.394 23.602-9.929 8.713-16.216 21.481-16.216 35.697 0 6.185 1.201 12.091 3.361 17.515-5.218-.261-10.514-.402-15.861-.402s-10.644.141-15.861.402c2.16-5.424 3.361-11.33 3.361-17.515.002-14.219-6.287-26.99-16.22-35.702zm56.222 35.702c0-17.921 14.579-32.5 32.5-32.5s32.5 14.579 32.5 32.5-14.579 32.5-32.5 32.5-32.5-14.579-32.5-32.5zm123.159 17.113c-15.589 0-30.801-5.067-43.248-14.32.054-.925.089-1.855.089-2.793 0-7.604-1.806-14.791-4.997-21.171 6.953-24.44 18.692-42.804 34.941-54.568 31.932-23.118 73.852-16.382 74.174-16.326.585.109 1.171.202 1.757.284 6.408 11.019 9.784 23.546 9.784 36.395 0 39.976-32.524 72.499-72.5 72.499zm86.391-158.766c3.398 4.957 4.664 10.94 3.562 16.849-1.102 5.908-4.438 11.033-9.397 14.433-4.957 3.398-10.938 4.664-16.871 3.556-.476-.088-47.983-8.379-85.696 18.927-16.605 12.024-29.091 29.59-37.255 52.286-8.377-7.395-19.366-11.896-31.393-11.896-4.423 0-8.701.621-12.766 1.757 11.049-33.731 29.514-60.126 55.023-78.596 53.345-38.624 117.652-27.215 120.361-26.709 5.908 1.1 11.034 4.437 14.432 9.393zm-237.05-105.587c16.55 0 30.24 12.437 32.239 28.454-10.003-2.095-20.621-3.454-32.239-3.454s-22.236 1.359-32.239 3.453c1.999-16.017 15.689-28.453 32.239-28.453zm-240.618 122.435c-1.103-5.908.163-11.892 3.562-16.849 3.398-4.956 8.524-8.293 14.429-9.394 1.581-.296 39.229-7.048 80.677 6.599 3.936 1.293 8.174-.846 9.47-4.778 1.295-3.935-.845-8.174-4.778-9.47-21.469-7.067-42.083-9.083-57.975-9.224-1.037-2.133-2.03-4.291-2.956-6.457-2.039-4.761-1.146-9.844 2.388-13.596 3.503-3.719 8.474-4.905 13.301-3.173 20.507 7.362 38.178 10.133 54.067 10.133 24.7-.002 45.086-6.7 65.052-13.263 20.284-6.667 39.444-12.965 63.384-12.965s43.099 6.298 63.383 12.965c32.811 10.784 66.737 21.937 119.12 3.13 4.827-1.731 9.798-.547 13.3 3.173 3.534 3.752 4.427 8.835 2.389 13.595-.931 2.174-1.937 4.325-2.972 6.456-26.547.254-66.339 5.788-101.759 31.433-21.522 15.584-38.447 36.16-50.608 61.425-13.532 1.541-27.92 2.33-42.852 2.33-14.935 0-29.325-.79-42.858-2.33-12.161-25.266-29.087-45.843-50.608-61.425-4.769-3.452-9.808-6.674-14.977-9.574-3.611-2.024-8.183-.741-10.211 2.871-2.026 3.612-.741 8.184 2.871 10.211 4.668 2.619 9.217 5.526 13.52 8.643 25.507 18.467 43.97 44.863 55.02 78.593-4.062-1.135-8.338-1.754-12.757-1.754-12.027 0-23.017 4.502-31.394 11.898-8.164-22.698-20.654-40.264-37.259-52.288-37.713-27.305-85.222-19.013-85.725-18.922-5.904 1.106-11.886-.162-16.843-3.561-4.963-3.398-8.3-8.523-9.401-14.432zm17.458 69.418c0-12.857 3.379-25.375 9.79-36.396.55-.078 1.1-.164 1.649-.266.422-.071 42.339-6.811 74.271 16.31 16.25 11.765 27.993 30.13 34.945 54.572-3.19 6.379-4.995 13.564-4.995 21.168 0 .94.035 1.873.089 2.8-12.558 9.37-27.45 14.314-43.25 14.314-39.976-.002-72.499-32.525-72.499-72.502zm30.448 100.973c0-7.856.488-15.72 1.43-23.493 12.147 6.394 25.967 10.021 40.621 10.021 16.625 0 32.95-4.806 46.896-13.648 2.391 5.645 5.844 10.733 10.106 15.017-11.695 4.637-22.72 10.257-32.896 16.792-18.74 12.036-39.7 20.148-61.749 24.02-2.914-9.179-4.408-18.805-4.408-28.709zm342.019 133.966c-43.383 36.117-95.013 55.208-149.308 55.208s-105.924-19.091-149.307-55.208c-12.906-10.745-23.304-21.566-31.066-30.556 17.035-2.628 33.668-7.016 49.652-13.092 3.838 3.625 7.799 7.114 11.825 10.4 35.33 28.835 75.333 43.456 118.896 43.456s83.566-14.621 118.897-43.456c4.027-3.288 7.988-6.778 11.824-10.401 15.985 6.076 32.617 10.465 49.653 13.092-7.78 9.013-18.174 19.824-31.066 30.557zm69.193-42.636c-44.533 0-87.541-12.503-124.372-36.158-7.209-4.63-15.27-8.656-23.958-11.969-3.871-1.475-8.203.464-9.68 4.336-1.476 3.87.466 8.204 4.336 9.68 7.725 2.945 14.855 6.503 21.196 10.574 9.461 6.076 19.305 11.455 29.458 16.13-2.001 1.771-4.023 3.505-6.068 5.174-32.583 26.594-69.395 40.077-109.412 40.077s-76.829-13.483-109.412-40.077c-2.044-1.668-4.067-3.403-6.069-5.174 10.153-4.675 19.998-10.054 29.459-16.13 21.659-13.912 51.404-21.266 86.021-21.266 13.012 0 25.475 1.051 37.042 3.123 4.074.732 7.975-1.982 8.705-6.061.73-4.077-1.983-7.975-6.061-8.705-12.438-2.228-25.791-3.357-39.687-3.357-37.497 0-70.046 8.176-94.128 23.645-36.831 23.655-79.839 36.158-124.372 36.158-12.406 0-22.5-10.094-22.5-22.5s10.094-22.5 22.5-22.5c35.895 0 70.492-10.035 100.052-29.021 12.161-7.811 25.677-14.205 40.177-19.054 5.628 2.354 11.799 3.66 18.271 3.66 13.245 0 25.236-5.455 33.86-14.23 8.436-.758 17.211-1.156 26.14-1.156s17.705.399 26.14 1.156c8.623 8.775 20.614 14.23 33.86 14.23 6.472 0 12.643-1.305 18.271-3.66 14.501 4.85 28.016 11.243 40.177 19.054 29.56 18.986 64.157 29.021 100.052 29.021 12.406 0 22.5 10.094 22.5 22.5s-10.092 22.5-22.498 22.5z"/><path d="m91.586 241.244c4.143 0 7.5-3.357 7.5-7.5 0-3.454 2.811-6.265 6.265-6.265 3.455 0 6.266 2.811 6.266 6.265 0 4.143 3.357 7.5 7.5 7.5s7.5-3.357 7.5-7.5c0-11.726-9.54-21.265-21.266-21.265s-21.265 9.539-21.265 21.265c0 4.143 3.357 7.5 7.5 7.5z"/></g></g></svg>